<?xml version="1.0" encoding="UTF-8"?>
<svg id="Layer_1" data-name="Layer 1" xmlns="http://www.w3.org/2000/svg" xmlns:xlink="http://www.w3.org/1999/xlink" viewBox="0 0 224.57 161.78">
  <defs>
    <style>
      .cls-1 {
        fill: url(#linear-gradient);
      }

      .cls-2 {
        fill: #105ca9;
      }

      .cls-3 {
        fill: url(#linear-gradient-8);
      }

      .cls-4 {
        fill: url(#linear-gradient-9);
      }

      .cls-5 {
        fill: url(#linear-gradient-3);
      }

      .cls-6 {
        fill: url(#linear-gradient-4);
      }

      .cls-7 {
        fill: url(#linear-gradient-2);
      }

      .cls-8 {
        fill: url(#linear-gradient-6);
      }

      .cls-9 {
        fill: url(#linear-gradient-7);
      }

      .cls-10 {
        fill: url(#linear-gradient-5);
      }

      .cls-11 {
        fill: url(#linear-gradient-14);
      }

      .cls-12 {
        fill: url(#linear-gradient-18);
      }

      .cls-13 {
        fill: url(#linear-gradient-22);
      }

      .cls-14 {
        fill: url(#linear-gradient-20);
      }

      .cls-15 {
        fill: url(#linear-gradient-21);
      }

      .cls-16 {
        fill: url(#linear-gradient-15);
      }

      .cls-17 {
        fill: url(#linear-gradient-19);
      }

      .cls-18 {
        fill: url(#linear-gradient-16);
      }

      .cls-19 {
        fill: url(#linear-gradient-17);
      }

      .cls-20 {
        fill: url(#linear-gradient-13);
      }

      .cls-21 {
        fill: url(#linear-gradient-12);
      }

      .cls-22 {
        fill: url(#linear-gradient-10);
      }

      .cls-23 {
        fill: url(#linear-gradient-11);
      }
    </style>
    <linearGradient id="linear-gradient" x1="117.98" y1="113.77" x2="117.98" y2="36.49" gradientUnits="userSpaceOnUse">
      <stop offset=".37" stop-color="#5ca6db"/>
      <stop offset="1" stop-color="#64c9f9"/>
    </linearGradient>
    <linearGradient id="linear-gradient-2" x1="117.43" y1="120.18" x2="117.43" y2="109.02" xlink:href="#linear-gradient"/>
    <linearGradient id="linear-gradient-3" x1="117.98" y1="77.63" x2="117.98" y2="50.4" gradientUnits="userSpaceOnUse">
      <stop offset="0" stop-color="#25579a"/>
      <stop offset="1" stop-color="#4b9cd3"/>
    </linearGradient>
    <linearGradient id="linear-gradient-4" x1="90.7" y1="51.7" x2="90.89" y2="75.02" gradientUnits="userSpaceOnUse">
      <stop offset=".53" stop-color="#f8f9fd"/>
      <stop offset="1" stop-color="#c9d2ec"/>
    </linearGradient>
    <linearGradient id="linear-gradient-5" x1="100.57" y1="51.62" x2="100.76" y2="74.93" xlink:href="#linear-gradient-4"/>
    <linearGradient id="linear-gradient-6" x1="110.43" y1="51.54" x2="110.63" y2="74.85" xlink:href="#linear-gradient-4"/>
    <linearGradient id="linear-gradient-7" x1="134.4" y1="51.34" x2="134.59" y2="74.65" xlink:href="#linear-gradient-4"/>
    <linearGradient id="linear-gradient-8" x1="134.34" y1="51.34" x2="134.54" y2="74.65" xlink:href="#linear-gradient-4"/>
    <linearGradient id="linear-gradient-9" x1="134.28" y1="51.34" x2="134.48" y2="74.65" xlink:href="#linear-gradient-4"/>
    <linearGradient id="linear-gradient-10" x1="117.98" y1="107.59" x2="117.98" y2="78.42" gradientUnits="userSpaceOnUse">
      <stop offset="0" stop-color="#25579a"/>
      <stop offset=".91" stop-color="#4b9cd3"/>
      <stop offset="1" stop-color="#2a5fa1"/>
    </linearGradient>
    <linearGradient id="linear-gradient-11" x1="90.7" y1="78.27" x2="90.9" y2="102.17" xlink:href="#linear-gradient-4"/>
    <linearGradient id="linear-gradient-12" x1="100.57" y1="78.19" x2="100.76" y2="102.09" xlink:href="#linear-gradient-4"/>
    <linearGradient id="linear-gradient-13" x1="110.44" y1="78.11" x2="110.63" y2="102.01" xlink:href="#linear-gradient-4"/>
    <linearGradient id="linear-gradient-14" x1="134.4" y1="77.92" x2="134.6" y2="101.82" xlink:href="#linear-gradient-4"/>
    <linearGradient id="linear-gradient-15" x1="134.34" y1="77.92" x2="134.54" y2="101.82" xlink:href="#linear-gradient-4"/>
    <linearGradient id="linear-gradient-16" x1="134.29" y1="77.92" x2="134.49" y2="101.82" xlink:href="#linear-gradient-4"/>
    <linearGradient id="linear-gradient-17" x1="90.7" y1="51.82" x2="90.9" y2="75.72" xlink:href="#linear-gradient-4"/>
    <linearGradient id="linear-gradient-18" x1="100.57" y1="51.74" x2="100.76" y2="75.64" xlink:href="#linear-gradient-4"/>
    <linearGradient id="linear-gradient-19" x1="110.44" y1="51.66" x2="110.63" y2="75.56" xlink:href="#linear-gradient-4"/>
    <linearGradient id="linear-gradient-20" x1="134.4" y1="51.46" x2="134.6" y2="75.36" xlink:href="#linear-gradient-4"/>
    <linearGradient id="linear-gradient-21" x1="134.34" y1="51.46" x2="134.54" y2="75.36" xlink:href="#linear-gradient-4"/>
    <linearGradient id="linear-gradient-22" x1="134.29" y1="51.46" x2="134.49" y2="75.37" xlink:href="#linear-gradient-4"/>
  </defs>
  <path class="cls-1" d="M155.33,58.38s0-.03,0-.04c0-8.43-6.83-15.26-15.26-15.26-2.3,0-4.48,.53-6.44,1.44-3.74-10.22-13.55-17.51-25.07-17.51-14.74,0-26.69,11.95-26.69,26.69,0,1.59,.15,3.14,.41,4.65-.14,0-.27-.01-.41-.01-12.18,0-22.05,9.87-22.05,22.05s9.87,22.05,22.05,22.05h72.2c12.18,0,22.05-9.87,22.05-22.05s-9.2-21.36-20.79-22.01Z"/>
  <g>
    <path class="cls-2" d="M143.42,116.16h-50.89c-1.38,0-2.5-1.12-2.5-2.5s1.12-2.5,2.5-2.5h50.89c1.38,0,2.5,1.12,2.5,2.5s-1.12,2.5-2.5,2.5Z"/>
    <path class="cls-2" d="M117.43,116.16c-1.38,0-2.5-1.12-2.5-2.5V62.77c0-1.38,1.12-2.5,2.5-2.5s2.5,1.12,2.5,2.5v50.88c0,1.38-1.12,2.5-2.5,2.5Z"/>
    <rect class="cls-7" x="104.82" y="107.73" width="25.22" height="11.84" rx="3.64" ry="3.64"/>
  </g>
  <rect class="cls-5" x="78.93" y="52.55" width="78.08" height="24.35" rx="3.93" ry="3.93"/>
  <g>
    <circle class="cls-6" cx="90.81" cy="64.72" r="2.91"/>
    <circle class="cls-10" cx="100.68" cy="64.72" r="2.91"/>
    <circle class="cls-8" cx="110.54" cy="64.72" r="2.91"/>
    <rect class="cls-9" x="120.85" y="56.5" width="27.2" height="3.07" rx="1.54" ry="1.54"/>
    <rect class="cls-3" x="120.85" y="63.19" width="27.2" height="3.07" rx="1.54" ry="1.54"/>
    <rect class="cls-4" x="120.85" y="69.88" width="27.2" height="3.07" rx="1.54" ry="1.54"/>
  </g>
  <rect class="cls-22" x="78.93" y="79" width="78.08" height="24.35" rx="3.93" ry="3.93"/>
  <g>
    <circle class="cls-23" cx="90.81" cy="91.17" r="2.91"/>
    <circle class="cls-21" cx="100.68" cy="91.17" r="2.91"/>
    <circle class="cls-20" cx="110.54" cy="91.17" r="2.91"/>
    <rect class="cls-11" x="120.85" y="82.95" width="27.2" height="3.07" rx="1.54" ry="1.54"/>
    <rect class="cls-16" x="120.85" y="89.64" width="27.2" height="3.07" rx="1.54" ry="1.54"/>
    <rect class="cls-18" x="120.85" y="96.33" width="27.2" height="3.07" rx="1.54" ry="1.54"/>
  </g>
  <g>
    <circle class="cls-19" cx="90.81" cy="64.72" r="2.91"/>
    <circle class="cls-12" cx="100.68" cy="64.72" r="2.91"/>
    <circle class="cls-17" cx="110.54" cy="64.72" r="2.91"/>
    <rect class="cls-14" x="120.85" y="56.5" width="27.2" height="3.07" rx="1.54" ry="1.54"/>
    <rect class="cls-15" x="120.85" y="63.19" width="27.2" height="3.07" rx="1.54" ry="1.54"/>
    <rect class="cls-13" x="120.85" y="69.88" width="27.2" height="3.07" rx="1.54" ry="1.54"/>
  </g>
</svg>