<?xml version="1.0" encoding="UTF-8"?>
<svg xmlns="http://www.w3.org/2000/svg" xmlns:xlink="http://www.w3.org/1999/xlink" viewBox="0 0 500 500">
  <defs>
    <style>
      .cls-1 {
        fill: url(#linear-gradient);
      }

      .cls-2 {
        fill: #fff;
      }

      .cls-3, .cls-4, .cls-5 {
        fill: #72a4db;
      }

      .cls-6 {
        fill: #c6e0f4;
      }

      .cls-7 {
        fill: #c9d2ec;
      }

      .cls-8 {
        fill: #537fb7;
      }

      .cls-9 {
        fill: #263a79;
      }

      .cls-10 {
        fill: #6196c6;
      }

      .cls-11 {
        fill: #5ca6db;
      }

      .cls-4 {
        mix-blend-mode: multiply;
      }

      .cls-4, .cls-5 {
        opacity: .5;
      }

      .cls-12 {
        fill: url(#linear-gradient-3);
      }

      .cls-13 {
        fill: url(#linear-gradient-4);
      }

      .cls-14 {
        fill: url(#linear-gradient-2);
      }

      .cls-15 {
        isolation: isolate;
      }
    </style>
    <linearGradient id="linear-gradient" x1="197.47" y1="263.65" x2="417.84" y2="263.65" gradientTransform="translate(33.97 -35.12) rotate(6.91)" gradientUnits="userSpaceOnUse">
      <stop offset="0" stop-color="#64c9f9"/>
      <stop offset="1" stop-color="#5ca6db"/>
    </linearGradient>
    <linearGradient id="linear-gradient-2" x1="287.81" y1="169.5" x2="287.81" y2="489.99" gradientUnits="userSpaceOnUse">
      <stop offset="0" stop-color="#f8f9fd"/>
      <stop offset="1" stop-color="#c9d2ec"/>
    </linearGradient>
    <linearGradient id="linear-gradient-3" x1="326.95" y1="197.78" x2="384.48" y2="197.78" xlink:href="#linear-gradient-2"/>
    <linearGradient id="linear-gradient-4" x1="134.31" y1="348.01" x2="227.04" y2="348.01" gradientUnits="userSpaceOnUse">
      <stop offset="0" stop-color="#fe4c70"/>
      <stop offset="1" stop-color="#ef2b5a"/>
    </linearGradient>
  </defs>
  <g class="cls-15">
    <g id="Layer_1" data-name="Layer 1">
      <g>
        <g>
          <rect class="cls-9" x="119.11" y="94.18" width="220.68" height="274.39" rx="12.13" ry="12.13" transform="translate(-83.03 138.99) rotate(-28.77)"/>
          <path class="cls-8" d="M252.7,113.34L117.39,187.63c-2.11,1.16-4.67,1.17-6.8,.04l-32.27-17.25c-5-2.67-5.04-9.82-.07-12.55L248.6,64.35c4.97-2.73,10.98,1.14,10.55,6.79l-2.77,36.48c-.18,2.4-1.57,4.55-3.68,5.71Z"/>
          <rect class="cls-3" x="188.53" y="131.76" width="1.95" height="53.71" transform="translate(-52.95 110.78) rotate(-28.77)"/>
          <circle class="cls-2" cx="176.58" cy="135.08" r="8.79"/>
          <circle class="cls-2" cx="202.43" cy="182.15" r="8.79"/>
        </g>
        <g>
          <rect class="cls-1" x="210.98" y="139.15" width="193.34" height="249" rx="6.85" ry="6.85" transform="translate(-29.5 38.95) rotate(-6.91)"/>
          <polygon class="cls-4" points="384.07 379.97 397.49 378.38 390.65 226.05 326.54 169.73 384.07 379.97"/>
          <g>
            <g>
              <path class="cls-14" d="M377.63,418.5H197.99c-3.78,0-6.85-3.07-6.85-6.85V176.35c0-3.78,3.07-6.85,6.85-6.85h129.19c0-.08,57.61,56.55,57.3,56.55v185.59c0,3.78-3.07,6.85-6.85,6.85Z"/>
              <path class="cls-7" d="M326.95,169.5l-5.03,56.66c-.31,3.48,2.64,6.38,6.12,6l56.44-6.11-57.53-56.55Z"/>
              <path class="cls-12" d="M326.95,169.5v51.01c0,3.06,2.48,5.55,5.55,5.55h51.99l-57.53-56.55Z"/>
            </g>
            <path class="cls-9" d="M217.53,195.74c-4.01,0-7.28-3.27-7.28-7.28v-27.03c0-4.87,3.96-8.84,8.84-8.84s8.84,3.96,8.84,8.84v22.18h-1.87v-22.18c0-3.84-3.13-6.97-6.97-6.97s-6.97,3.13-6.97,6.97v27.03c0,2.99,2.43,5.42,5.42,5.42s5.42-2.43,5.42-5.42v-22.89c0-1.89-1.54-3.42-3.42-3.42s-3.42,1.54-3.42,3.42v3.73h-1.87v-3.73c0-2.92,2.37-5.29,5.29-5.29s5.29,2.37,5.29,5.29v22.89c0,4.01-3.27,7.28-7.28,7.28Z"/>
            <g>
              <g>
                <circle class="cls-2" cx="229.09" cy="235.03" r="24.86" transform="translate(-52.29 403.99) rotate(-76.72)"/>
                <g>
                  <path class="cls-9" d="M233.76,242.44c1.7-.07,3.38-.21,5.03-.44,3.09-.44,5.86-1.21,7.31-4.23,1.48-3.24-.21-8.11-1.87-11.12-1.03-1.88-2.07-3.73-2.79-5.75-1.01-2.81-1.76-5.83-3.9-8.04-.08-.08-.17-.17-.25-.25-2.2-2.1-5.16-3.29-8.2-3.29-4.42,0-8.69,2.59-10.61,6.59-1.31,2.74-1.76,5.8-3.02,8.56-1.32,2.9-2.89,5.72-3.43,8.9-.35,2.05,.21,4.11,1.65,5.63,1.74,1.84,4.04,2.6,6.44,2.94,4.44,.62,9.08,.69,13.66,.51Z"/>
                  <g>
                    <rect class="cls-6" x="223.28" y="231.82" width="11.65" height="14.86"/>
                    <path class="cls-2" d="M250.48,247.8c-5.48-2.3-15.48-4.04-15.48-4.04-3.84,3.23-8.7,3.21-11.72,0,0,0-10.13,1.5-15.84,3.5,4.08,7.26,11.7,12.26,20.52,12.66,.4,.01,.79,.03,1.19,.03,9.07-.01,17-4.89,21.33-12.15Z"/>
                    <path class="cls-11" d="M220.91,244.15c-3.34,.57-9.48,1.72-13.48,3.12,3.66,6.5,10.16,11.19,17.81,12.38,0,0-3.8-6.87-4.33-15.5Z"/>
                    <path class="cls-11" d="M237.26,244.15c3.34,.57,9.48,1.72,13.48,3.12-3.66,6.5-10.16,11.19-17.81,12.38,0,0,3.8-6.87,4.33-15.5Z"/>
                  </g>
                  <g>
                    <path class="cls-6" d="M229.09,213.83h0c-7.51,0-9.22,5.63-9.06,11.29,0,4.08-.29,5.4,.09,6.41,.21,1.44,3.13,8.77,8.97,8.77s8.51-6.95,9.02-8.77c.38-1.01,.04-2.33,.04-6.41,.16-5.66-1.55-11.28-9.06-11.29Z"/>
                    <path class="cls-3" d="M229.09,240.47c-2,0-4.33-1.15-5.93-2.94l.25-.22c1.54,1.72,3.77,2.83,5.69,2.83s4.22-1.13,5.71-2.82l.25,.22c-1.55,1.75-3.95,2.93-5.96,2.93Z"/>
                    <path class="cls-6" d="M220.19,225.66s-1.54-1.81-3.12-.75c-1.58,1.06-.04,7.07,3.12,6.01,3.16-1.06,0-5.26,0-5.26Z"/>
                    <path class="cls-6" d="M238.01,225.66s1.54-1.81,3.12-.75c1.58,1.06,.04,7.07-3.12,6.01-3.16-1.06,0-5.26,0-5.26Z"/>
                    <rect class="cls-3" x="219.64" y="228.25" width=".33" height="2.81" transform="translate(-29.61 32.56) rotate(-7.94)"/>
                    <rect class="cls-3" x="237.02" y="229.49" width="2.79" height=".33" transform="translate(-12.33 445.78) rotate(-84.69)"/>
                    <path class="cls-3" d="M217.87,228.04c-.34-.9-.37-1.56-.08-1.95,.26-.36,.69-.34,.71-.34l-.02,.33s-.27,0-.42,.21c-.15,.2-.24,.65,.13,1.63l-.31,.12Z"/>
                    <path class="cls-3" d="M240.46,228.04l-.31-.12c.37-.98,.27-1.43,.13-1.63-.16-.22-.41-.21-.42-.21l-.02-.33s.44-.02,.71,.34c.29,.39,.26,1.05-.08,1.95Z"/>
                    <path class="cls-9" d="M219.02,224.77c1.4-2.5,8.03-2.17,10.08-7.87,1.98,6.51,7.83,4.61,10.41,8.09,0,0-1.23-13.12-10.41-13.12s-10.08,12.91-10.08,12.91Z"/>
                  </g>
                </g>
              </g>
              <g>
                <rect class="cls-5" x="268.6" y="234.84" width="90.81" height="8.79" rx="4.39" ry="4.39"/>
                <rect class="cls-5" x="268.6" y="248.51" width="50.45" height="4.88" rx="2.44" ry="2.44"/>
              </g>
              <g>
                <rect class="cls-5" x="220.39" y="311.01" width="69" height="4.88" rx="2.44" ry="2.44"/>
                <rect class="cls-5" x="322.92" y="311.01" width="30.92" height="4.88" rx="2.44" ry="2.44"/>
                <rect class="cls-5" x="322.92" y="322.72" width="30.92" height="4.88" rx="2.44" ry="2.44"/>
                <rect class="cls-5" x="322.92" y="334.44" width="30.92" height="4.88" rx="2.44" ry="2.44"/>
                <rect class="cls-5" x="322.92" y="346.16" width="30.92" height="4.88" rx="2.44" ry="2.44"/>
                <rect class="cls-5" x="322.92" y="357.88" width="30.92" height="4.88" rx="2.44" ry="2.44"/>
                <rect class="cls-5" x="322.92" y="369.59" width="30.92" height="4.88" rx="2.44" ry="2.44"/>
                <rect class="cls-5" x="322.92" y="381.31" width="30.92" height="4.88" rx="2.44" ry="2.44"/>
                <rect class="cls-5" x="220.39" y="322.72" width="50.45" height="4.88" rx="2.44" ry="2.44"/>
                <rect class="cls-5" x="220.39" y="334.44" width="63.15" height="4.88" rx="2.44" ry="2.44"/>
                <rect class="cls-5" x="220.39" y="346.16" width="50.45" height="4.88" rx="2.44" ry="2.44"/>
                <rect class="cls-5" x="220.39" y="357.88" width="40.69" height="4.88" rx="2.44" ry="2.44"/>
                <rect class="cls-5" x="220.39" y="369.59" width="69.98" height="4.88" rx="2.44" ry="2.44"/>
                <rect class="cls-5" x="220.39" y="381.31" width="50.45" height="4.88" rx="2.44" ry="2.44"/>
                <rect class="cls-5" x="213.55" y="287.57" width="146.47" height="13.67"/>
                <rect class="cls-10" x="220.39" y="292.45" width="50.45" height="4.88" rx="2.44" ry="2.44"/>
                <rect class="cls-10" x="332.68" y="292.45" width="21.16" height="4.88" rx="2.44" ry="2.44"/>
              </g>
            </g>
          </g>
        </g>
        <g>
          <circle class="cls-13" cx="180.68" cy="348.01" r="46.36"/>
          <g>
            <path class="cls-2" d="M166.75,367.64c-1.41,0-2.83-.54-3.9-1.62-2.16-2.16-2.16-5.65,0-7.81l29.13-29.13c2.16-2.15,5.65-2.15,7.81,0,2.16,2.16,2.16,5.65,0,7.81l-29.13,29.13c-1.08,1.08-2.49,1.62-3.9,1.62Z"/>
            <path class="cls-2" d="M194.61,368.55c-1.41,0-2.83-.54-3.9-1.62l-29.13-29.13c-2.16-2.16-2.16-5.65,0-7.81s5.65-2.16,7.81,0l29.13,29.13c2.16,2.16,2.16,5.65,0,7.81-1.08,1.08-2.49,1.62-3.9,1.62Z"/>
          </g>
        </g>
      </g>
    </g>
  </g>
</svg>