<?xml version="1.0" encoding="UTF-8"?>
<svg id="Layer_1" data-name="Layer 1" xmlns="http://www.w3.org/2000/svg" xmlns:xlink="http://www.w3.org/1999/xlink" viewBox="0 0 500 500">
  <defs>
    <style>
      .cls-1 {
        fill: url(#linear-gradient);
      }

      .cls-2 {
        fill: #fff;
      }

      .cls-3 {
        fill: #034c24;
      }

      .cls-4 {
        fill: #d7e6f2;
      }

      .cls-5 {
        fill: #263a79;
      }

      .cls-6 {
        fill: url(#linear-gradient-3);
      }

      .cls-7 {
        fill: url(#linear-gradient-4);
      }

      .cls-8 {
        fill: url(#linear-gradient-2);
      }
    </style>
    <linearGradient id="linear-gradient" x1="290.28" y1="146.13" x2="221.46" y2="320.59" gradientUnits="userSpaceOnUse">
      <stop offset="0" stop-color="#00e070"/>
      <stop offset="1" stop-color="#00a76f"/>
    </linearGradient>
    <linearGradient id="linear-gradient-2" x1="-619.4" y1="798.21" x2="-609.27" y2="798.21" gradientTransform="translate(197.48 -875.98) rotate(-45)" gradientUnits="userSpaceOnUse">
      <stop offset="0" stop-color="#5ca6db"/>
      <stop offset="1" stop-color="#64c9f9"/>
    </linearGradient>
    <linearGradient id="linear-gradient-3" x1="-646.97" y1="830.5" x2="-625.05" y2="830.5" xlink:href="#linear-gradient-2"/>
    <linearGradient id="linear-gradient-4" x1="-890.92" y1="837.81" x2="-876.55" y2="837.81" xlink:href="#linear-gradient-2"/>
  </defs>
  <circle class="cls-3" cx="251" cy="242.5" r="106"/>
  <circle class="cls-1" cx="257" cy="230.5" r="103"/>
  <path class="cls-5" d="M172.89,136.43c-.39,0-.78-.15-1.08-.45-.58-.59-.56-1.54,.03-2.12,16.52-16.08,37.15-27,59.64-31.58,21.9-4.46,44.54-2.75,65.48,4.94,.78,.29,1.18,1.15,.89,1.92-.29,.78-1.15,1.18-1.92,.89-20.41-7.49-42.49-9.16-63.84-4.81-21.93,4.46-42.03,15.11-58.14,30.79-.29,.28-.67,.42-1.05,.42Z"/>
  <path class="cls-2" d="M245.1,276.35c-3.05,0-6.1-1.16-8.43-3.49l-29.85-29.85c-4.65-4.65-4.65-12.2,0-16.86s12.2-4.65,16.86,0l21.42,21.42,54.47-54.47c4.65-4.66,12.2-4.65,16.86,0s4.65,12.2,0,16.86l-62.9,62.9c-2.33,2.33-5.38,3.49-8.43,3.49Z"/>
  <path class="cls-8" d="M325.61,120.24l.92-3.4c.27-.99,1.67-.99,1.94,0l.92,3.4c.09,.35,.36,.62,.71,.71l3.4,.92c.99,.27,.99,1.67,0,1.94l-3.4,.92c-.35,.09-.62,.36-.71,.71l-.92,3.4c-.27,.99-1.67,.99-1.94,0l-.92-3.4c-.09-.35-.36-.62-.71-.71l-3.4-.92c-.99-.27-.99-1.67,0-1.94l3.4-.92c.35-.09,.62-.36,.71-.71Z"/>
  <path class="cls-6" d="M330.92,155.39l1.98-7.36c.58-2.14,3.62-2.14,4.19,0l1.98,7.36c.2,.75,.78,1.33,1.53,1.53l7.36,1.98c2.14,.58,2.14,3.62,0,4.19l-7.36,1.98c-.75,.2-1.33,.78-1.53,1.53l-1.98,7.36c-.58,2.14-3.62,2.14-4.19,0l-1.98-7.36c-.2-.75-.78-1.33-1.53-1.53l-7.36-1.98c-2.14-.58-2.14-3.62,0-4.19l7.36-1.98c.75-.2,1.33-.78,1.53-1.53Z"/>
  <path class="cls-7" d="M162.33,337.66l1.3-4.83c.38-1.4,2.37-1.4,2.75,0l1.3,4.83c.13,.49,.51,.87,1,1l4.83,1.3c1.4,.38,1.4,2.37,0,2.75l-4.83,1.3c-.49,.13-.87,.51-1,1l-1.3,4.83c-.38,1.4-2.37,1.4-2.75,0l-1.3-4.83c-.13-.49-.51-.87-1-1l-4.83-1.3c-1.4-.38-1.4-2.37,0-2.75l4.83-1.3c.49-.13,.87-.51,1-1Z"/>
  <path class="cls-5" d="M260.85,368.05c-2.4,0-3.79-.1-3.86-.11-.83-.07-1.44-.79-1.37-1.62,.07-.83,.8-1.43,1.62-1.37,.4,.03,39.88,2.93,66.94-24.29,.58-.59,1.53-.59,2.12,0,.59,.58,.59,1.53,0,2.12-23,23.13-54.57,25.27-65.45,25.27Z"/>
  <ellipse class="cls-4" cx="251" cy="407" rx="74" ry="12.5"/>
</svg>