<svg width="117" height="131" viewBox="0 0 117 131" fill="none" xmlns="http://www.w3.org/2000/svg">
<path d="M58.47 85.35H36.71V130.5H58.47V85.35Z" fill="white"/>
<path d="M58.47 95.99L43.31 90.47V60.01H58.47V89.53V95.99Z" fill="#F9C172"/>
<path d="M56.39 106.24L49.11 121.33L55.04 130.5H58.47V89.53L50.89 100.85L56.39 106.24Z" fill="#263A79"/>
<path d="M40.35 81.17L58.47 89.53L50.89 103.14L36.71 85.35L40.35 81.17Z" fill="#DEFDFF"/>
<path d="M0.589996 130.5H58.48L31.96 92.89H26.54C0.589993 92.89 0.589996 130.5 0.589996 130.5Z" fill="#263A79"/>
<path d="M26.2 92.15L36.71 85.35L58.47 130.5L34.01 110.42L39.27 103.14L29.57 104.35L26.2 92.15Z" fill="#0D1C35"/>
<path d="M80.23 85.35H58.47V130.5H80.23V85.35Z" fill="white"/>
<path d="M58.47 95.99L73.63 90.47V60.01H58.47V89.53V95.99Z" fill="#F9C172"/>
<path d="M60.56 106.24L67.84 121.33L61.91 130.5H58.47V89.53L66.05 100.85L60.56 106.24Z" fill="#263A79"/>
<path d="M76.6 81.17L58.47 89.53L66.05 103.14L80.24 85.35L76.6 81.17Z" fill="#DEFDFF"/>
<path d="M116.36 130.5H58.47L84.99 92.89H90.41C114.28 92.89 116.36 130.5 116.36 130.5Z" fill="#263A79"/>
<path d="M90.75 92.15L80.24 85.35L58.47 130.5L82.93 110.42L77.68 103.14L87.38 104.35L90.75 92.15Z" fill="#0D1C35"/>
<path d="M36.06 38.51L35.51 38.28C32.51 37 31.78 36.83 31.99 43.57C31.99 43.57 31.95 55.7 36.46 56.31C36.89 58.25 37.47 60.08 38.31 61.62C42.74 69.69 50.51 78.95 58.47 78.95V56.3V38.51V20.72C33.81 17.69 38.44 28.32 36.06 38.51Z" fill="#FACB88"/>
<path d="M80.89 38.51L81.44 38.28C84.44 37 85.17 36.83 84.96 43.57C84.96 43.57 85 55.7 80.49 56.31C80.06 58.25 79.48 60.08 78.64 61.62C74.21 69.69 66.44 78.95 58.48 78.95V56.3V38.51V20.72C83.13 17.69 78.51 28.32 80.89 38.51Z" fill="#FACB88"/>
<path d="M53.55 8.39C50.88 8.39 48.21 8.77 45.73 9.73C28.99 16.21 35.55 38.83 36.06 44.91C36.19 46.46 36.95 35.51 38.26 29.61C39.08 25.93 43.96 25.15 47.09 27.25C51.81 30.42 58.47 29.61 58.47 29.61V8.39H53.55Z" fill="#010101"/>
<path d="M63.39 8.39C66.06 8.39 68.73 8.77 71.21 9.73C87.95 16.21 81.39 38.83 80.88 44.91C80.75 46.46 79.99 35.51 78.68 29.61C77.86 25.93 72.98 25.15 69.85 27.25C65.13 30.42 58.47 29.61 58.47 29.61V8.39H63.39Z" fill="black"/>
<path d="M74.45 68.96L60.91 68.95V66.98L74.45 66.99C77.5 66.99 80.22 65.06 81.24 62.19L83.65 55.37L85.51 56.03L83.1 62.85C81.8 66.5 78.33 68.96 74.45 68.96Z" fill="#282828"/>
<path d="M62.89 71.26H64.48H66.07C67.89 71.26 69.36 69.79 69.36 67.97H59.61C59.6 69.79 61.08 71.26 62.89 71.26Z" fill="#606060"/>
<path d="M66.07 64.68H64.48H62.89C61.07 64.68 59.6 66.15 59.6 67.97H69.35C69.35 66.16 67.88 64.68 66.07 64.68Z" fill="#606060"/>
<path d="M56.2 0.5C41.84 0.5 30.15 12.25 30.15 26.69V31.1H33.94V26.69C33.94 14.34 43.92 4.3 56.2 4.3H58.47V0.5H56.2Z" fill="#4A4A4A"/>
<path d="M60.75 0.5H58.47V4.3H60.75C73.02 4.3 83.01 14.34 83.01 26.69V31.1H86.8V26.69C86.79 12.25 75.11 0.5 60.75 0.5Z" fill="#4A4A4A"/>
<path d="M92.98 31.56C91.02 29.11 87.78 28.9 87.78 28.9C86.62 28.61 85.53 28.63 84.57 28.9V57.49C85.54 57.76 86.63 57.78 87.78 57.49C87.78 57.49 91.02 57.28 92.98 54.83C94.94 52.38 94.94 34.01 92.98 31.56Z" fill="#282828"/>
<path d="M80.65 34.5V51.88C80.65 54.75 82.25 56.84 84.57 57.48V28.9C82.25 29.54 80.65 31.64 80.65 34.5Z" fill="#606060"/>
<path d="M29.16 28.9C29.16 28.9 25.92 29.12 23.96 31.56C22 34.01 22 52.37 23.96 54.82C25.92 57.27 29.16 57.48 29.16 57.48C30.32 57.77 31.4 57.75 32.37 57.48V28.9C31.4 28.63 30.31 28.61 29.16 28.9Z" fill="#282828"/>
<path d="M32.37 28.9V57.49C34.69 56.85 36.29 54.75 36.29 51.89V34.5C36.29 31.64 34.69 29.54 32.37 28.9Z" fill="#606060"/>
</svg>
