<?xml version="1.0" encoding="UTF-8"?>
<svg id="Layer_1" data-name="Layer 1" xmlns="http://www.w3.org/2000/svg" xmlns:xlink="http://www.w3.org/1999/xlink" viewBox="0 0 500 500">
  <defs>
    <style>
      .cls-1 {
        fill: url(#linear-gradient);
      }

      .cls-2 {
        mask: url(#mask);
      }

      .cls-3 {
        fill: #fff;
      }

      .cls-4 {
        fill: #fff170;
      }

      .cls-5 {
        fill: #fefbdf;
      }

      .cls-6 {
        fill: #d0a200;
      }

      .cls-7 {
        fill: #d9d9d9;
      }

      .cls-8, .cls-9 {
        fill: #537fb7;
      }

      .cls-10 {
        fill: #263a79;
      }

      .cls-11 {
        fill: #5ca6db;
      }

      .cls-12 {
        fill: url(#radial-gradient-3);
      }

      .cls-13 {
        fill: url(#radial-gradient-2);
      }

      .cls-14 {
        fill: url(#linear-gradient-8);
      }

      .cls-15 {
        fill: url(#linear-gradient-9);
      }

      .cls-16 {
        fill: url(#linear-gradient-3);
      }

      .cls-17 {
        fill: url(#linear-gradient-4);
      }

      .cls-18 {
        fill: url(#linear-gradient-2);
      }

      .cls-19 {
        fill: url(#linear-gradient-6);
      }

      .cls-20 {
        fill: url(#linear-gradient-7);
      }

      .cls-21 {
        fill: url(#linear-gradient-5);
      }

      .cls-22 {
        fill: url(#radial-gradient);
      }

      .cls-23 {
        fill: #3b6b9e;
      }

      .cls-23, .cls-9 {
        fill-rule: evenodd;
      }

      .cls-24 {
        fill: url(#linear-gradient-14);
      }

      .cls-25 {
        fill: url(#linear-gradient-18);
      }

      .cls-26 {
        fill: url(#linear-gradient-22);
      }

      .cls-27 {
        fill: url(#linear-gradient-20);
      }

      .cls-28 {
        fill: url(#linear-gradient-21);
      }

      .cls-29 {
        fill: url(#linear-gradient-23);
      }

      .cls-30 {
        fill: url(#linear-gradient-15);
      }

      .cls-31 {
        fill: url(#linear-gradient-19);
      }

      .cls-32 {
        fill: url(#linear-gradient-16);
      }

      .cls-33 {
        fill: url(#linear-gradient-17);
      }

      .cls-34 {
        fill: url(#linear-gradient-13);
      }

      .cls-35 {
        fill: url(#linear-gradient-12);
      }

      .cls-36 {
        fill: url(#linear-gradient-10);
      }

      .cls-37 {
        fill: url(#linear-gradient-11);
      }
    </style>
    <linearGradient id="linear-gradient" x1="266.49" y1="-1227.75" x2="266.49" y2="-1284.72" gradientTransform="translate(0 -1045.73) scale(1 -1)" gradientUnits="userSpaceOnUse">
      <stop offset="0" stop-color="#fdff91"/>
      <stop offset="1" stop-color="#ddc235"/>
    </linearGradient>
    <radialGradient id="radial-gradient" cx="-5256.04" cy="321.81" fx="-5256.04" fy="321.81" r="3.17" gradientTransform="translate(33017.32 58210.81) rotate(57.04) scale(12.65 -12.65)" gradientUnits="userSpaceOnUse">
      <stop offset="0" stop-color="#fff171"/>
      <stop offset=".87" stop-color="#dbb906"/>
      <stop offset="1" stop-color="#ffe606"/>
    </radialGradient>
    <linearGradient id="linear-gradient-2" x1="268.03" y1="-1244.36" x2="268.03" y2="-1272.5" gradientTransform="translate(0 -1045.73) scale(1 -1)" gradientUnits="userSpaceOnUse">
      <stop offset="0" stop-color="#e3d769"/>
      <stop offset="1" stop-color="#7e6b03"/>
    </linearGradient>
    <linearGradient id="linear-gradient-3" x1="268.54" y1="-1244.8" x2="268.54" y2="-1272.93" gradientTransform="translate(0 -1045.73) scale(1 -1)" gradientUnits="userSpaceOnUse">
      <stop offset="0" stop-color="#d1b41b"/>
      <stop offset="1" stop-color="#8c7e01"/>
    </linearGradient>
    <linearGradient id="linear-gradient-4" x1="267.43" y1="-1243.47" x2="267.43" y2="-1272.03" gradientTransform="translate(0 -1045.73) scale(1 -1)" gradientUnits="userSpaceOnUse">
      <stop offset="0" stop-color="#faf1a1"/>
      <stop offset=".5" stop-color="#f6e693"/>
      <stop offset="1" stop-color="#e6d69d"/>
    </linearGradient>
    <linearGradient id="linear-gradient-5" x1="267.43" y1="-1243.47" x2="267.43" y2="-1272.03" gradientTransform="translate(0 -1045.73) scale(1 -1)" gradientUnits="userSpaceOnUse">
      <stop offset="0" stop-color="#feffb8"/>
      <stop offset="1" stop-color="#ffea2c"/>
    </linearGradient>
    <linearGradient id="linear-gradient-6" x1="-4498.38" y1="-196.45" x2="-4281.5" y2="-196.45" gradientTransform="translate(4563.77 472.25)" gradientUnits="userSpaceOnUse">
      <stop offset="0" stop-color="#537fb7"/>
      <stop offset="1" stop-color="#64c9f9"/>
    </linearGradient>
    <linearGradient id="linear-gradient-7" x1="-4487.76" y1="-196.45" x2="-4292.12" y2="-196.45" gradientTransform="translate(-3255.62 -2471.73) rotate(-143.86)" gradientUnits="userSpaceOnUse">
      <stop offset="0" stop-color="#25579a"/>
      <stop offset="1" stop-color="#4b9cd3"/>
    </linearGradient>
    <linearGradient id="linear-gradient-8" x1="-4418.71" y1="-196" x2="-4362.05" y2="-196" gradientTransform="translate(-3255.62 -2471.73) rotate(-143.86)" xlink:href="#linear-gradient-6"/>
    <linearGradient id="linear-gradient-9" x1="-4395.89" y1="239.03" x2="-4179" y2="239.03" gradientTransform="translate(4482.62 24.65)" xlink:href="#linear-gradient-6"/>
    <linearGradient id="linear-gradient-10" x1="-4385.26" y1="239.03" x2="-4189.63" y2="239.03" gradientTransform="translate(-3005.52 -2598.99) rotate(-135)" xlink:href="#linear-gradient-7"/>
    <linearGradient id="linear-gradient-11" x1="-4316.22" y1="239.47" x2="-4259.56" y2="239.47" gradientTransform="translate(-3005.52 -2598.99) rotate(-135)" xlink:href="#linear-gradient-6"/>
    <linearGradient id="linear-gradient-12" x1="191.28" y1="-1349.03" x2="396.41" y2="-1349.03" gradientTransform="translate(0 -1045.73) scale(1 -1)" gradientUnits="userSpaceOnUse">
      <stop offset="0" stop-color="#64c9f9"/>
      <stop offset=".14" stop-color="#537fb7"/>
      <stop offset="1" stop-color="#64c9f9"/>
    </linearGradient>
    <mask id="mask" x="191.28" y="218.71" width="205.13" height="169.19" maskUnits="userSpaceOnUse"/>
    <linearGradient id="linear-gradient-13" x1="177.78" y1="311.66" x2="180.47" y2="402.37" gradientUnits="userSpaceOnUse">
      <stop offset="0" stop-color="#00e070"/>
      <stop offset="1" stop-color="#00a76f"/>
    </linearGradient>
    <linearGradient id="linear-gradient-14" x1="319.58" y1="-1181.35" x2="319.58" y2="-1238.33" xlink:href="#linear-gradient"/>
    <radialGradient id="radial-gradient-2" cx="-5256.83" cy="327.33" fx="-5256.83" fy="327.33" r="3.17" xlink:href="#radial-gradient"/>
    <linearGradient id="linear-gradient-15" x1="321.12" y1="-1197.97" x2="321.12" y2="-1226.1" xlink:href="#linear-gradient-2"/>
    <linearGradient id="linear-gradient-16" x1="321.64" y1="-1198.41" x2="321.64" y2="-1226.54" xlink:href="#linear-gradient-3"/>
    <linearGradient id="linear-gradient-17" x1="320.52" y1="-1197.07" x2="320.52" y2="-1225.63" xlink:href="#linear-gradient-4"/>
    <linearGradient id="linear-gradient-18" x1="320.52" y1="-1197.07" x2="320.52" y2="-1225.63" xlink:href="#linear-gradient-5"/>
    <linearGradient id="linear-gradient-19" x1="252.97" y1="-1131.82" x2="252.97" y2="-1188.79" xlink:href="#linear-gradient"/>
    <radialGradient id="radial-gradient-3" cx="-5262.98" cy="325.04" fx="-5262.98" fy="325.04" r="3.17" xlink:href="#radial-gradient"/>
    <linearGradient id="linear-gradient-20" x1="254.51" y1="-1148.44" x2="254.51" y2="-1176.57" xlink:href="#linear-gradient-2"/>
    <linearGradient id="linear-gradient-21" x1="255.03" y1="-1148.88" x2="255.03" y2="-1177.01" xlink:href="#linear-gradient-3"/>
    <linearGradient id="linear-gradient-22" x1="253.91" y1="-1147.54" x2="253.91" y2="-1176.1" xlink:href="#linear-gradient-4"/>
    <linearGradient id="linear-gradient-23" x1="253.91" y1="-1147.54" x2="253.91" y2="-1176.1" xlink:href="#linear-gradient-5"/>
  </defs>
  <g>
    <g>
      <circle class="cls-7" cx="266.49" cy="210.5" r="28.49"/>
      <circle class="cls-1" cx="266.49" cy="210.5" r="28.49"/>
    </g>
    <circle class="cls-22" cx="266.49" cy="210.5" r="23.98"/>
    <path class="cls-6" d="M284.09,194.21c-4.35-4.4-10.38-7.12-17.05-7.12-13.25,0-23.98,10.74-23.98,23.98,0,6.29,2.42,12.02,6.38,16.29-4.28-4.33-6.93-10.29-6.93-16.86,0-13.25,10.74-23.98,23.98-23.98,6.96,0,13.22,2.96,17.6,7.69Z"/>
    <path class="cls-4" d="M265.71,233.63c13.25,0,23.98-10.74,23.98-23.98,0-6.03-2.22-11.54-5.89-15.75,4.14,4.31,6.68,10.16,6.68,16.61,0,13.25-10.74,23.98-23.98,23.98-7.22,0-13.69-3.19-18.09-8.24,4.36,4.55,10.51,7.38,17.31,7.38Z"/>
    <path class="cls-18" d="M277.09,198.85c0-.35-.29-.64-.66-.64h-16.81c-.36,0-.66,.29-.66,.64v2.57c0,.35,.29,.64,.66,.64h4.5c1.69,0,3.17,.84,4.04,2.13,.17,.26-.03,.58-.34,.58h-8.21c-.36,0-.66,.29-.66,.64v2.02c0,.35,.29,.64,.66,.64h8.61c.28,0,.48,.27,.37,.53-.73,1.72-2.46,2.93-4.48,2.93h-4.5c-.36,0-.66,.29-.66,.64v2.98c0,.15,.05,.29,.15,.41l9.13,10.97c.12,.15,.31,.24,.51,.24h3.23c.55,0,.86-.63,.51-1.05l-8.45-10.15c-.06-.07,0-.18,.09-.18,4.28,0,7.84-2.99,8.62-6.95,.04-.2,.22-.36,.43-.36h3.27c.36,0,.66-.29,.66-.64v-2.02c0-.35-.29-.64-.66-.64h-3.45c-.19,0-.36-.13-.42-.32-.23-.79-.57-1.54-1.01-2.22-.19-.3,.01-.71,.37-.71h4.51c.36,0,.66-.29,.66-.64v-2.02Z"/>
    <path class="cls-16" d="M277.61,199.29c0-.35-.29-.64-.66-.64h-16.81c-.36,0-.66,.29-.66,.64v2.57c0,.35,.29,.64,.66,.64h4.5c1.69,0,3.17,.84,4.04,2.13,.17,.26-.03,.58-.34,.58h-8.21c-.36,0-.66,.29-.66,.64v2.02c0,.35,.29,.64,.66,.64h8.61c.28,0,.48,.27,.37,.53-.73,1.72-2.46,2.93-4.48,2.93h-4.5c-.36,0-.66,.29-.66,.64v2.98c0,.15,.05,.29,.15,.41l9.13,10.97c.12,.15,.31,.24,.51,.24h3.23c.55,0,.86-.63,.51-1.05l-8.45-10.15c-.06-.07,0-.18,.09-.18,4.28,0,7.84-2.99,8.62-6.95,.04-.2,.22-.36,.43-.36h3.27c.36,0,.66-.29,.66-.64v-2.02c0-.35-.29-.64-.66-.64h-3.45c-.19,0-.36-.13-.42-.32-.23-.79-.57-1.54-1.01-2.22-.19-.3,.01-.71,.37-.71h4.51c.36,0,.66-.29,.66-.64v-2.02Z"/>
    <path class="cls-17" d="M276.49,198.38c0-.35-.29-.64-.66-.64h-16.81c-.36,0-.66,.29-.66,.64v2.57c0,.35,.29,.64,.66,.64h4.5c1.69,0,3.17,.84,4.04,2.13,.17,.26-.03,.58-.34,.58h-8.21c-.36,0-.66,.29-.66,.64v2.02c0,.35,.29,.64,.66,.64h8.61c.28,0,.48,.27,.37,.53-.73,1.72-2.46,2.93-4.48,2.93h-4.5c-.36,0-.66,.29-.66,.64v2.98c0,.15,.05,.29,.15,.41l9.13,10.97c.12,.15,.31,.24,.51,.24h3.23c.55,0,.86-.63,.51-1.05l-8.45-10.15c-.06-.07,0-.18,.09-.18,4.28,0,7.84-2.99,8.62-6.95,.04-.2,.22-.36,.43-.36h3.27c.36,0,.66-.29,.66-.64v-2.02c0-.35-.29-.64-.66-.64h-3.45c-.19,0-.36-.13-.42-.32-.23-.79-.57-1.54-1.01-2.22-.19-.3,.01-.71,.37-.71h4.51c.36,0,.66-.29,.66-.64v-2.02Z"/>
    <path class="cls-21" d="M276.49,198.38c0-.35-.29-.64-.66-.64h-16.81c-.36,0-.66,.29-.66,.64v2.57c0,.35,.29,.64,.66,.64h4.5c1.69,0,3.17,.84,4.04,2.13,.17,.26-.03,.58-.34,.58h-8.21c-.36,0-.66,.29-.66,.64v2.02c0,.35,.29,.64,.66,.64h8.61c.28,0,.48,.27,.37,.53-.73,1.72-2.46,2.93-4.48,2.93h-4.5c-.36,0-.66,.29-.66,.64v2.98c0,.15,.05,.29,.15,.41l9.13,10.97c.12,.15,.31,.24,.51,.24h3.23c.55,0,.86-.63,.51-1.05l-8.45-10.15c-.06-.07,0-.18,.09-.18,4.28,0,7.84-2.99,8.62-6.95,.04-.2,.22-.36,.43-.36h3.27c.36,0,.66-.29,.66-.64v-2.02c0-.35-.29-.64-.66-.64h-3.45c-.19,0-.36-.13-.42-.32-.23-.79-.57-1.54-1.01-2.22-.19-.3,.01-.71,.37-.71h4.51c.36,0,.66-.29,.66-.64v-2.02Z"/>
    <path class="cls-5" d="M272.39,204.29c.08,.16,.25,.27,.46,.27h3.39s.1,0,.14,.02c-.12-.17-.32-.29-.55-.29h-3.39s-.04,0-.06,0Z"/>
    <path class="cls-5" d="M268.01,226.27l-9.09-10.92c-.1-.11-.15-.26-.15-.41v-2.98c0-.35,.29-.64,.66-.64h4.5c2.02,0,3.76-1.22,4.48-2.94,.1-.25-.1-.49-.4-.52,.03,.08,.03,.16,0,.25-.72,1.73-2.46,2.94-4.48,2.94h-4.5c-.36,0-.66,.29-.66,.64v2.98c0,.15,.05,.29,.15,.41l9.13,10.97c.09,.11,.22,.19,.36,.22Z"/>
    <path class="cls-5" d="M258.88,207.59c-.07-.1-.11-.22-.11-.36v-2.02c0-.35,.29-.64,.66-.64h8.15c.35,0,.58-.31,.4-.57-.39-.58-.91-1.08-1.52-1.44,.44,.33,.82,.72,1.12,1.17,.18,.26-.06,.57-.4,.57h-8.15c-.36,0-.66,.29-.66,.64v2.02c0,.31,.22,.56,.51,.63Z"/>
    <path class="cls-5" d="M258.88,201.57c-.29-.06-.51-.32-.51-.63v-2.57c0-.35,.29-.64,.66-.64h16.81c.23,0,.43,.11,.55,.29-.05,0-.09-.02-.14-.02h-16.81c-.36,0-.66,.29-.66,.64v2.57c0,.13,.04,.25,.11,.36Z"/>
  </g>
  <g>
    <rect class="cls-19" x="65.39" y="216.94" width="216.88" height="117.74" transform="translate(151.57 601.06) rotate(-143.86)"/>
    <path class="cls-20" d="M105.84,203.64c-.09-.07-.18-.14-.28-.21l-21.46,29.39c.1,.07,.19,.13,.29,.2,11.23,8.2,13.69,23.96,5.49,35.19l116.76,85.26c8.2-11.23,23.96-13.69,35.19-5.49,.09,.07,.18,.14,.28,.21l21.46-29.39c-.1-.07-.19-.13-.29-.2-11.23-8.2-13.69-23.96-5.49-35.19l-116.76-85.26c-8.2,11.23-23.96,13.69-35.19,5.49Z"/>
    <circle class="cls-14" cx="174.45" cy="275.71" r="28.33"/>
  </g>
  <g>
    <rect class="cls-15" x="86.74" y="204.81" width="216.88" height="117.74" transform="translate(146.74 588.14) rotate(-135)"/>
    <path class="cls-36" d="M139.12,181.9c-.08-.08-.16-.17-.24-.25l-25.73,25.73c.08,.08,.17,.16,.25,.24,9.83,9.83,9.83,25.78,0,35.61l102.23,102.23c9.83-9.83,25.78-9.83,35.61,0,.08,.08,.16,.17,.24,.25l25.73-25.73c-.08-.08-.17-.16-.25-.24-9.83-9.83-9.83-25.78,0-35.61l-102.23-102.23c-9.83,9.83-25.78,9.83-35.61,0Z"/>
    <circle class="cls-37" cx="195.81" cy="263.68" r="28.33"/>
  </g>
  <path class="cls-35" d="M191.28,225.72c0-3.88,3.14-7.02,7.02-7.02h173.55c13.56,0,24.56,11,24.56,24.56v120.07c0,13.56-11,24.56-24.56,24.56H198.29c-3.88,0-7.02-3.14-7.02-7.02V225.72Z"/>
  <g>
    <path class="cls-23" d="M202.21,374.27c0-.91,.73-1.64,1.64-1.64h5.06c.91,0,1.64,.73,1.64,1.64s-.73,1.64-1.64,1.64h-5.06c-.91,0-1.64-.73-1.64-1.64Z"/>
    <path class="cls-23" d="M215.27,374.27c0-.91,.73-1.64,1.64-1.64h5.06c.91,0,1.64,.73,1.64,1.64s-.73,1.64-1.64,1.64h-5.06c-.91,0-1.64-.73-1.64-1.64Z"/>
    <path class="cls-23" d="M228.33,374.27c0-.91,.73-1.64,1.64-1.64h5.06c.91,0,1.64,.73,1.64,1.64s-.73,1.64-1.64,1.64h-5.06c-.91,0-1.64-.73-1.64-1.64Z"/>
    <path class="cls-23" d="M241.39,374.27c0-.91,.73-1.64,1.64-1.64h5.06c.91,0,1.64,.73,1.64,1.64s-.73,1.64-1.64,1.64h-5.06c-.91,0-1.64-.73-1.64-1.64Z"/>
    <path class="cls-23" d="M254.45,374.27c0-.91,.73-1.64,1.64-1.64h5.06c.91,0,1.64,.73,1.64,1.64s-.73,1.64-1.64,1.64h-5.06c-.91,0-1.64-.73-1.64-1.64Z"/>
    <path class="cls-23" d="M267.51,374.27c0-.91,.73-1.64,1.64-1.64h5.06c.91,0,1.64,.73,1.64,1.64s-.73,1.64-1.64,1.64h-5.06c-.91,0-1.64-.73-1.64-1.64Z"/>
    <path class="cls-23" d="M280.57,374.27c0-.91,.73-1.64,1.64-1.64h5.06c.91,0,1.64,.73,1.64,1.64s-.73,1.64-1.64,1.64h-5.06c-.91,0-1.64-.73-1.64-1.64Z"/>
    <path class="cls-23" d="M294.3,374.27c0-.91,.73-1.64,1.64-1.64h5.06c.91,0,1.64,.73,1.64,1.64s-.73,1.64-1.64,1.64h-5.06c-.91,0-1.64-.73-1.64-1.64Z"/>
    <path class="cls-23" d="M307.36,374.27c0-.91,.73-1.64,1.64-1.64h5.06c.91,0,1.64,.73,1.64,1.64s-.73,1.64-1.64,1.64h-5.06c-.91,0-1.64-.73-1.64-1.64Z"/>
    <path class="cls-23" d="M320.42,374.27c0-.91,.73-1.64,1.64-1.64h5.06c.91,0,1.64,.73,1.64,1.64s-.73,1.64-1.64,1.64h-5.06c-.91,0-1.64-.73-1.64-1.64Z"/>
    <path class="cls-23" d="M333.48,374.27c0-.91,.73-1.64,1.64-1.64h5.06c.91,0,1.64,.73,1.64,1.64s-.73,1.64-1.64,1.64h-5.06c-.91,0-1.64-.73-1.64-1.64Z"/>
    <path class="cls-23" d="M346.54,374.27c0-.91,.73-1.64,1.64-1.64h5.06c.91,0,1.64,.73,1.64,1.64s-.73,1.64-1.64,1.64h-5.06c-.91,0-1.64-.73-1.64-1.64Z"/>
    <path class="cls-23" d="M359.6,374.27c0-.91,.73-1.64,1.64-1.64h5.06c.91,0,1.64,.73,1.64,1.64s-.73,1.64-1.64,1.64h-5.06c-.91,0-1.64-.73-1.64-1.64Z"/>
    <path class="cls-23" d="M372.66,374.27c0-.91,.73-1.64,1.64-1.64h5.06c.91,0,1.64,.73,1.64,1.64s-.73,1.64-1.64,1.64h-5.06c-.91,0-1.64-.73-1.64-1.64Z"/>
  </g>
  <g>
    <path class="cls-23" d="M202.21,231.27c0-.91,.73-1.64,1.64-1.64h5.06c.91,0,1.64,.73,1.64,1.64s-.73,1.64-1.64,1.64h-5.06c-.91,0-1.64-.73-1.64-1.64Z"/>
    <path class="cls-23" d="M215.27,231.27c0-.91,.73-1.64,1.64-1.64h5.06c.91,0,1.64,.73,1.64,1.64s-.73,1.64-1.64,1.64h-5.06c-.91,0-1.64-.73-1.64-1.64Z"/>
    <path class="cls-23" d="M228.33,231.27c0-.91,.73-1.64,1.64-1.64h5.06c.91,0,1.64,.73,1.64,1.64s-.73,1.64-1.64,1.64h-5.06c-.91,0-1.64-.73-1.64-1.64Z"/>
    <path class="cls-23" d="M241.39,231.27c0-.91,.73-1.64,1.64-1.64h5.06c.91,0,1.64,.73,1.64,1.64s-.73,1.64-1.64,1.64h-5.06c-.91,0-1.64-.73-1.64-1.64Z"/>
    <path class="cls-23" d="M254.45,231.27c0-.91,.73-1.64,1.64-1.64h5.06c.91,0,1.64,.73,1.64,1.64s-.73,1.64-1.64,1.64h-5.06c-.91,0-1.64-.73-1.64-1.64Z"/>
    <path class="cls-23" d="M267.51,231.27c0-.91,.73-1.64,1.64-1.64h5.06c.91,0,1.64,.73,1.64,1.64s-.73,1.64-1.64,1.64h-5.06c-.91,0-1.64-.73-1.64-1.64Z"/>
    <path class="cls-23" d="M280.57,231.27c0-.91,.73-1.64,1.64-1.64h5.06c.91,0,1.64,.73,1.64,1.64s-.73,1.64-1.64,1.64h-5.06c-.91,0-1.64-.73-1.64-1.64Z"/>
    <path class="cls-23" d="M294.3,231.27c0-.91,.73-1.64,1.64-1.64h5.06c.91,0,1.64,.73,1.64,1.64s-.73,1.64-1.64,1.64h-5.06c-.91,0-1.64-.73-1.64-1.64Z"/>
    <path class="cls-23" d="M307.36,231.27c0-.91,.73-1.64,1.64-1.64h5.06c.91,0,1.64,.73,1.64,1.64s-.73,1.64-1.64,1.64h-5.06c-.91,0-1.64-.73-1.64-1.64Z"/>
    <path class="cls-23" d="M320.42,231.27c0-.91,.73-1.64,1.64-1.64h5.06c.91,0,1.64,.73,1.64,1.64s-.73,1.64-1.64,1.64h-5.06c-.91,0-1.64-.73-1.64-1.64Z"/>
    <path class="cls-23" d="M333.48,231.27c0-.91,.73-1.64,1.64-1.64h5.06c.91,0,1.64,.73,1.64,1.64s-.73,1.64-1.64,1.64h-5.06c-.91,0-1.64-.73-1.64-1.64Z"/>
    <path class="cls-23" d="M346.54,231.27c0-.91,.73-1.64,1.64-1.64h5.06c.91,0,1.64,.73,1.64,1.64s-.73,1.64-1.64,1.64h-5.06c-.91,0-1.64-.73-1.64-1.64Z"/>
    <path class="cls-23" d="M359.6,231.27c0-.91,.73-1.64,1.64-1.64h5.06c.91,0,1.64,.73,1.64,1.64s-.73,1.64-1.64,1.64h-5.06c-.91,0-1.64-.73-1.64-1.64Z"/>
    <path class="cls-23" d="M372.66,231.27c0-.91,.73-1.64,1.64-1.64h5.06c.91,0,1.64,.73,1.64,1.64s-.73,1.64-1.64,1.64h-5.06c-.91,0-1.64-.73-1.64-1.64Z"/>
  </g>
  <g class="cls-2">
    <g>
      <path class="cls-8" d="M319.44,307.84c0-12.17,9.87-22.04,22.04-22.04h56.19c3.09,0,5.59,2.5,5.59,5.59v32.9c0,3.09-2.5,5.59-5.59,5.59h-56.19c-12.17,0-22.04-9.87-22.04-22.04Z"/>
      <path class="cls-9" d="M390.82,243.27c0-12.64-10.24-24.52-22.88-24.52,14.49,0,26.24,10.02,26.24,24.52v120.07c0,14.49-11.75,24.56-26.24,24.56,12.64,0,22.88-11.92,22.88-24.56v-120.07Z"/>
    </g>
  </g>
  <path class="cls-10" d="M322.96,302.12c0-12.17,9.87-22.04,22.04-22.04h56.19c3.09,0,5.59,2.5,5.59,5.59v32.9c0,3.09-2.5,5.59-5.59,5.59h-56.19c-12.17,0-22.04-9.87-22.04-22.04Z"/>
  <circle class="cls-11" cx="343.43" cy="302.12" r="13.77"/>
  <g>
    <circle class="cls-34" cx="179.09" cy="355.93" r="47.48"/>
    <path class="cls-3" d="M171.48,376.56c-1.45,0-2.89-.55-4-1.66l-14.16-14.16c-2.21-2.21-2.21-5.79,0-7.99,2.21-2.21,5.79-2.21,7.99,0l10.16,10.16,25.83-25.83c2.21-2.21,5.79-2.21,7.99,0,2.21,2.21,2.21,5.79,0,7.99l-29.83,29.83c-1.1,1.1-2.55,1.66-4,1.66Z"/>
  </g>
  <g>
    <g>
      <circle class="cls-7" cx="319.58" cy="164.11" r="28.49"/>
      <circle class="cls-24" cx="319.58" cy="164.11" r="28.49"/>
    </g>
    <circle class="cls-13" cx="319.58" cy="164.11" r="23.98"/>
    <path class="cls-6" d="M337.18,147.81c-4.35-4.4-10.38-7.12-17.05-7.12-13.25,0-23.98,10.74-23.98,23.98,0,6.29,2.42,12.02,6.38,16.29-4.28-4.33-6.93-10.29-6.93-16.86,0-13.25,10.74-23.98,23.98-23.98,6.96,0,13.22,2.96,17.6,7.69Z"/>
    <path class="cls-4" d="M318.8,187.24c13.25,0,23.98-10.74,23.98-23.98,0-6.03-2.22-11.54-5.89-15.75,4.14,4.31,6.68,10.16,6.68,16.61,0,13.25-10.74,23.98-23.98,23.98-7.22,0-13.69-3.19-18.09-8.24,4.36,4.55,10.51,7.38,17.31,7.38Z"/>
    <path class="cls-30" d="M330.18,152.45c0-.35-.29-.64-.66-.64h-16.81c-.36,0-.66,.29-.66,.64v2.57c0,.35,.29,.64,.66,.64h4.5c1.69,0,3.17,.84,4.04,2.13,.17,.26-.03,.58-.34,.58h-8.21c-.36,0-.66,.29-.66,.64v2.02c0,.35,.29,.64,.66,.64h8.61c.28,0,.48,.27,.37,.53-.73,1.72-2.46,2.93-4.48,2.93h-4.5c-.36,0-.66,.29-.66,.64v2.98c0,.15,.05,.29,.15,.41l9.13,10.97c.12,.15,.31,.24,.51,.24h3.23c.55,0,.86-.63,.51-1.05l-8.45-10.15c-.06-.07,0-.18,.09-.18,4.28,0,7.84-2.99,8.62-6.95,.04-.2,.22-.36,.43-.36h3.27c.36,0,.66-.29,.66-.64v-2.02c0-.35-.29-.64-.66-.64h-3.45c-.19,0-.36-.13-.42-.32-.23-.79-.57-1.54-1.01-2.22-.19-.3,.01-.71,.37-.71h4.51c.36,0,.66-.29,.66-.64v-2.02Z"/>
    <path class="cls-32" d="M330.7,152.89c0-.35-.29-.64-.66-.64h-16.81c-.36,0-.66,.29-.66,.64v2.57c0,.35,.29,.64,.66,.64h4.5c1.69,0,3.17,.84,4.04,2.13,.17,.26-.03,.58-.34,.58h-8.21c-.36,0-.66,.29-.66,.64v2.02c0,.35,.29,.64,.66,.64h8.61c.28,0,.48,.27,.37,.53-.73,1.72-2.46,2.93-4.48,2.93h-4.5c-.36,0-.66,.29-.66,.64v2.98c0,.15,.05,.29,.15,.41l9.13,10.97c.12,.15,.31,.24,.51,.24h3.23c.55,0,.86-.63,.51-1.05l-8.45-10.15c-.06-.07,0-.18,.09-.18,4.28,0,7.84-2.99,8.62-6.95,.04-.2,.22-.36,.43-.36h3.27c.36,0,.66-.29,.66-.64v-2.02c0-.35-.29-.64-.66-.64h-3.45c-.19,0-.36-.13-.42-.32-.23-.79-.57-1.54-1.01-2.22-.19-.3,.01-.71,.37-.71h4.51c.36,0,.66-.29,.66-.64v-2.02Z"/>
    <path class="cls-33" d="M329.59,151.98c0-.35-.29-.64-.66-.64h-16.81c-.36,0-.66,.29-.66,.64v2.57c0,.35,.29,.64,.66,.64h4.5c1.69,0,3.17,.84,4.04,2.13,.17,.26-.03,.58-.34,.58h-8.21c-.36,0-.66,.29-.66,.64v2.02c0,.35,.29,.64,.66,.64h8.61c.28,0,.48,.27,.37,.53-.73,1.72-2.46,2.93-4.48,2.93h-4.5c-.36,0-.66,.29-.66,.64v2.98c0,.15,.05,.29,.15,.41l9.13,10.97c.12,.15,.31,.24,.51,.24h3.23c.55,0,.86-.63,.51-1.05l-8.45-10.15c-.06-.07,0-.18,.09-.18,4.28,0,7.84-2.99,8.62-6.95,.04-.2,.22-.36,.43-.36h3.27c.36,0,.66-.29,.66-.64v-2.02c0-.35-.29-.64-.66-.64h-3.45c-.19,0-.36-.13-.42-.32-.23-.79-.57-1.54-1.01-2.22-.19-.3,.01-.71,.37-.71h4.51c.36,0,.66-.29,.66-.64v-2.02Z"/>
    <path class="cls-25" d="M329.59,151.98c0-.35-.29-.64-.66-.64h-16.81c-.36,0-.66,.29-.66,.64v2.57c0,.35,.29,.64,.66,.64h4.5c1.69,0,3.17,.84,4.04,2.13,.17,.26-.03,.58-.34,.58h-8.21c-.36,0-.66,.29-.66,.64v2.02c0,.35,.29,.64,.66,.64h8.61c.28,0,.48,.27,.37,.53-.73,1.72-2.46,2.93-4.48,2.93h-4.5c-.36,0-.66,.29-.66,.64v2.98c0,.15,.05,.29,.15,.41l9.13,10.97c.12,.15,.31,.24,.51,.24h3.23c.55,0,.86-.63,.51-1.05l-8.45-10.15c-.06-.07,0-.18,.09-.18,4.28,0,7.84-2.99,8.62-6.95,.04-.2,.22-.36,.43-.36h3.27c.36,0,.66-.29,.66-.64v-2.02c0-.35-.29-.64-.66-.64h-3.45c-.19,0-.36-.13-.42-.32-.23-.79-.57-1.54-1.01-2.22-.19-.3,.01-.71,.37-.71h4.51c.36,0,.66-.29,.66-.64v-2.02Z"/>
    <path class="cls-5" d="M325.49,157.9c.08,.16,.25,.27,.46,.27h3.39s.1,0,.14,.02c-.12-.17-.32-.29-.55-.29h-3.39s-.04,0-.06,0Z"/>
    <path class="cls-5" d="M321.1,179.88l-9.09-10.92c-.1-.11-.15-.26-.15-.41v-2.98c0-.35,.29-.64,.66-.64h4.5c2.02,0,3.76-1.22,4.48-2.94,.1-.25-.1-.49-.4-.52,.03,.08,.03,.16,0,.25-.72,1.73-2.46,2.94-4.48,2.94h-4.5c-.36,0-.66,.29-.66,.64v2.98c0,.15,.05,.29,.15,.41l9.13,10.97c.09,.11,.22,.19,.36,.22Z"/>
    <path class="cls-5" d="M311.97,161.19c-.07-.1-.11-.22-.11-.36v-2.02c0-.35,.29-.64,.66-.64h8.15c.35,0,.58-.31,.4-.57-.39-.58-.91-1.08-1.52-1.44,.44,.33,.82,.72,1.12,1.17,.18,.26-.06,.57-.4,.57h-8.15c-.36,0-.66,.29-.66,.64v2.02c0,.31,.22,.56,.51,.63Z"/>
    <path class="cls-5" d="M311.97,155.18c-.29-.06-.51-.32-.51-.63v-2.57c0-.35,.29-.64,.66-.64h16.81c.23,0,.43,.11,.55,.29-.05,0-.09-.02-.14-.02h-16.81c-.36,0-.66,.29-.66,.64v2.57c0,.13,.04,.25,.11,.36Z"/>
  </g>
  <g>
    <g>
      <circle class="cls-7" cx="252.97" cy="114.58" r="28.49"/>
      <circle class="cls-31" cx="252.97" cy="114.58" r="28.49"/>
    </g>
    <circle class="cls-12" cx="252.97" cy="114.58" r="23.98"/>
    <path class="cls-6" d="M270.57,98.28c-4.35-4.4-10.38-7.12-17.05-7.12-13.25,0-23.98,10.74-23.98,23.98,0,6.29,2.42,12.02,6.38,16.29-4.28-4.33-6.93-10.29-6.93-16.86,0-13.25,10.74-23.98,23.98-23.98,6.96,0,13.22,2.96,17.6,7.69Z"/>
    <path class="cls-4" d="M252.19,137.7c13.25,0,23.98-10.74,23.98-23.98,0-6.03-2.22-11.54-5.89-15.75,4.14,4.31,6.68,10.16,6.68,16.61,0,13.25-10.74,23.98-23.98,23.98-7.22,0-13.69-3.19-18.09-8.24,4.36,4.55,10.51,7.38,17.31,7.38Z"/>
    <path class="cls-27" d="M263.57,102.92c0-.35-.29-.64-.66-.64h-16.81c-.36,0-.66,.29-.66,.64v2.57c0,.35,.29,.64,.66,.64h4.5c1.69,0,3.17,.84,4.04,2.13,.17,.26-.03,.58-.34,.58h-8.21c-.36,0-.66,.29-.66,.64v2.02c0,.35,.29,.64,.66,.64h8.61c.28,0,.48,.27,.37,.53-.73,1.72-2.46,2.93-4.48,2.93h-4.5c-.36,0-.66,.29-.66,.64v2.98c0,.15,.05,.29,.15,.41l9.13,10.97c.12,.15,.31,.24,.51,.24h3.23c.55,0,.86-.63,.51-1.05l-8.45-10.15c-.06-.07,0-.18,.09-.18,4.28,0,7.84-2.99,8.62-6.95,.04-.2,.22-.36,.43-.36h3.27c.36,0,.66-.29,.66-.64v-2.02c0-.35-.29-.64-.66-.64h-3.45c-.19,0-.36-.13-.42-.32-.23-.79-.57-1.54-1.01-2.22-.19-.3,.01-.71,.37-.71h4.51c.36,0,.66-.29,.66-.64v-2.02Z"/>
    <path class="cls-28" d="M264.09,103.36c0-.35-.29-.64-.66-.64h-16.81c-.36,0-.66,.29-.66,.64v2.57c0,.35,.29,.64,.66,.64h4.5c1.69,0,3.17,.84,4.04,2.13,.17,.26-.03,.58-.34,.58h-8.21c-.36,0-.66,.29-.66,.64v2.02c0,.35,.29,.64,.66,.64h8.61c.28,0,.48,.27,.37,.53-.73,1.72-2.46,2.93-4.48,2.93h-4.5c-.36,0-.66,.29-.66,.64v2.98c0,.15,.05,.29,.15,.41l9.13,10.97c.12,.15,.31,.24,.51,.24h3.23c.55,0,.86-.63,.51-1.05l-8.45-10.15c-.06-.07,0-.18,.09-.18,4.28,0,7.84-2.99,8.62-6.95,.04-.2,.22-.36,.43-.36h3.27c.36,0,.66-.29,.66-.64v-2.02c0-.35-.29-.64-.66-.64h-3.45c-.19,0-.36-.13-.42-.32-.23-.79-.57-1.54-1.01-2.22-.19-.3,.01-.71,.37-.71h4.51c.36,0,.66-.29,.66-.64v-2.02Z"/>
    <path class="cls-26" d="M262.98,102.45c0-.35-.29-.64-.66-.64h-16.81c-.36,0-.66,.29-.66,.64v2.57c0,.35,.29,.64,.66,.64h4.5c1.69,0,3.17,.84,4.04,2.13,.17,.26-.03,.58-.34,.58h-8.21c-.36,0-.66,.29-.66,.64v2.02c0,.35,.29,.64,.66,.64h8.61c.28,0,.48,.27,.37,.53-.73,1.72-2.46,2.93-4.48,2.93h-4.5c-.36,0-.66,.29-.66,.64v2.98c0,.15,.05,.29,.15,.41l9.13,10.97c.12,.15,.31,.24,.51,.24h3.23c.55,0,.86-.63,.51-1.05l-8.45-10.15c-.06-.07,0-.18,.09-.18,4.28,0,7.84-2.99,8.62-6.95,.04-.2,.22-.36,.43-.36h3.27c.36,0,.66-.29,.66-.64v-2.02c0-.35-.29-.64-.66-.64h-3.45c-.19,0-.36-.13-.42-.32-.23-.79-.57-1.54-1.01-2.22-.19-.3,.01-.71,.37-.71h4.51c.36,0,.66-.29,.66-.64v-2.02Z"/>
    <path class="cls-29" d="M262.98,102.45c0-.35-.29-.64-.66-.64h-16.81c-.36,0-.66,.29-.66,.64v2.57c0,.35,.29,.64,.66,.64h4.5c1.69,0,3.17,.84,4.04,2.13,.17,.26-.03,.58-.34,.58h-8.21c-.36,0-.66,.29-.66,.64v2.02c0,.35,.29,.64,.66,.64h8.61c.28,0,.48,.27,.37,.53-.73,1.72-2.46,2.93-4.48,2.93h-4.5c-.36,0-.66,.29-.66,.64v2.98c0,.15,.05,.29,.15,.41l9.13,10.97c.12,.15,.31,.24,.51,.24h3.23c.55,0,.86-.63,.51-1.05l-8.45-10.15c-.06-.07,0-.18,.09-.18,4.28,0,7.84-2.99,8.62-6.95,.04-.2,.22-.36,.43-.36h3.27c.36,0,.66-.29,.66-.64v-2.02c0-.35-.29-.64-.66-.64h-3.45c-.19,0-.36-.13-.42-.32-.23-.79-.57-1.54-1.01-2.22-.19-.3,.01-.71,.37-.71h4.51c.36,0,.66-.29,.66-.64v-2.02Z"/>
    <path class="cls-5" d="M258.87,108.37c.08,.16,.25,.27,.46,.27h3.39s.1,0,.14,.02c-.12-.17-.32-.29-.55-.29h-3.39s-.04,0-.06,0Z"/>
    <path class="cls-5" d="M254.49,130.35l-9.09-10.92c-.1-.11-.15-.26-.15-.41v-2.98c0-.35,.29-.64,.66-.64h4.5c2.02,0,3.76-1.22,4.48-2.94,.1-.25-.1-.49-.4-.52,.03,.08,.03,.16,0,.25-.72,1.73-2.46,2.94-4.48,2.94h-4.5c-.36,0-.66,.29-.66,.64v2.98c0,.15,.05,.29,.15,.41l9.13,10.97c.09,.11,.22,.19,.36,.22Z"/>
    <path class="cls-5" d="M245.36,111.66c-.07-.1-.11-.22-.11-.36v-2.02c0-.35,.29-.64,.66-.64h8.15c.35,0,.58-.31,.4-.57-.39-.58-.91-1.08-1.52-1.44,.44,.33,.82,.72,1.12,1.17,.18,.26-.06,.57-.4,.57h-8.15c-.36,0-.66,.29-.66,.64v2.02c0,.31,.22,.56,.51,.63Z"/>
    <path class="cls-5" d="M245.36,105.64c-.29-.06-.51-.32-.51-.63v-2.57c0-.35,.29-.64,.66-.64h16.81c.23,0,.43,.11,.55,.29-.05,0-.09-.02-.14-.02h-16.81c-.36,0-.66,.29-.66,.64v2.57c0,.13,.04,.25,.11,.36Z"/>
  </g>
</svg>