<svg width="146" height="147" viewBox="0 0 146 147" fill="none" xmlns="http://www.w3.org/2000/svg">
<path d="M70 147C108.482 147 139.679 115.884 139.679 77.5C139.679 39.1162 108.482 8 70 8C31.5176 8 0.321335 39.1162 0.321335 77.5C0.321335 115.884 31.5176 147 70 147Z" fill="#722232"/>
<path d="M76 139C114.482 139 145.679 107.884 145.679 69.5C145.679 31.1162 114.482 0 76 0C37.5176 0 6.32133 31.1162 6.32133 69.5C6.32133 107.884 37.5176 139 76 139Z" fill="url(#paint0_radial_1382_4532)"/>
<path d="M55.0654 98.9281C52.9462 98.9281 50.8119 98.1185 49.2037 96.4995C45.9573 93.2613 45.9573 88.0293 49.2037 84.7912L92.9858 41.1213C96.2323 37.8982 101.478 37.8982 104.724 41.1213C107.971 44.3595 107.971 49.5915 104.724 52.8296L60.9421 96.4995C59.3188 98.1185 57.1996 98.9281 55.0804 98.9281H55.0654Z" fill="white"/>
<path d="M96.9394 100.292C94.8202 100.292 92.686 99.4824 91.0778 97.8634L47.2956 54.1935C44.0492 50.9554 44.0492 45.7234 47.2956 42.4852C50.5421 39.2621 55.7875 39.2621 59.034 42.4852L102.816 86.1551C106.063 89.3932 106.063 94.6252 102.816 97.8634C101.193 99.4824 99.0737 100.292 96.9544 100.292H96.9394Z" fill="white"/>
<defs>
<radialGradient id="paint0_radial_1382_4532" cx="0" cy="0" r="1" gradientUnits="userSpaceOnUse" gradientTransform="translate(76 27) rotate(90) scale(150 150.386)">
<stop stop-color="#FE4C70"/>
<stop offset="1" stop-color="#B4344D"/>
</radialGradient>
</defs>
</svg>
