<?xml version="1.0" encoding="UTF-8"?>
<svg xmlns="http://www.w3.org/2000/svg" xmlns:xlink="http://www.w3.org/1999/xlink" viewBox="0 0 500 500">
  <defs>
    <style>
      .cls-1 {
        fill: none;
      }

      .cls-2 {
        fill: url(#linear-gradient);
      }

      .cls-3 {
        clip-path: url(#clippath);
      }

      .cls-4 {
        fill: #aae3f9;
      }

      .cls-5 {
        fill: #263a79;
      }

      .cls-6 {
        fill: #5ca6db;
      }

      .cls-7 {
        fill: #d7e6f2;
        mix-blend-mode: multiply;
      }

      .cls-8 {
        clip-path: url(#clippath-1);
      }

      .cls-9 {
        clip-path: url(#clippath-4);
      }

      .cls-10 {
        clip-path: url(#clippath-3);
      }

      .cls-11 {
        clip-path: url(#clippath-2);
      }

      .cls-12 {
        fill: url(#linear-gradient-8);
      }

      .cls-13 {
        fill: url(#linear-gradient-9);
      }

      .cls-14 {
        fill: url(#linear-gradient-3);
      }

      .cls-15 {
        fill: url(#linear-gradient-4);
      }

      .cls-16 {
        fill: url(#linear-gradient-2);
      }

      .cls-17 {
        fill: url(#linear-gradient-6);
      }

      .cls-18 {
        fill: url(#linear-gradient-7);
      }

      .cls-19 {
        fill: url(#linear-gradient-5);
      }

      .cls-20 {
        fill: url(#linear-gradient-41);
      }

      .cls-21 {
        fill: url(#linear-gradient-40);
      }

      .cls-22 {
        fill: url(#linear-gradient-43);
      }

      .cls-23 {
        fill: url(#linear-gradient-42);
      }

      .cls-24 {
        fill: url(#linear-gradient-45);
      }

      .cls-25 {
        fill: url(#linear-gradient-46);
      }

      .cls-26 {
        fill: url(#linear-gradient-44);
      }

      .cls-27 {
        fill: url(#linear-gradient-14);
      }

      .cls-28 {
        fill: url(#linear-gradient-18);
      }

      .cls-29 {
        fill: url(#linear-gradient-22);
      }

      .cls-30 {
        fill: url(#linear-gradient-20);
      }

      .cls-31 {
        fill: url(#linear-gradient-21);
      }

      .cls-32 {
        fill: url(#linear-gradient-23);
      }

      .cls-33 {
        fill: url(#linear-gradient-15);
      }

      .cls-34 {
        fill: url(#linear-gradient-19);
      }

      .cls-35 {
        fill: url(#linear-gradient-16);
      }

      .cls-36 {
        fill: url(#linear-gradient-17);
      }

      .cls-37 {
        fill: url(#linear-gradient-13);
      }

      .cls-38 {
        fill: url(#linear-gradient-12);
      }

      .cls-39 {
        fill: url(#linear-gradient-10);
      }

      .cls-40 {
        fill: url(#linear-gradient-11);
      }

      .cls-41 {
        fill: url(#linear-gradient-27);
      }

      .cls-42 {
        fill: url(#linear-gradient-24);
      }

      .cls-43 {
        fill: url(#linear-gradient-26);
      }

      .cls-44 {
        fill: url(#linear-gradient-38);
      }

      .cls-45 {
        fill: url(#linear-gradient-35);
      }

      .cls-46 {
        fill: url(#linear-gradient-37);
      }

      .cls-47 {
        fill: url(#linear-gradient-34);
      }

      .cls-48 {
        fill: url(#linear-gradient-39);
      }

      .cls-49 {
        fill: url(#linear-gradient-36);
      }

      .cls-50 {
        fill: url(#linear-gradient-25);
      }

      .cls-51 {
        fill: url(#linear-gradient-28);
      }

      .cls-52 {
        fill: url(#linear-gradient-29);
      }

      .cls-53 {
        fill: url(#linear-gradient-33);
      }

      .cls-54 {
        fill: url(#linear-gradient-30);
      }

      .cls-55 {
        fill: url(#linear-gradient-32);
      }

      .cls-56 {
        fill: url(#linear-gradient-31);
      }

      .cls-57 {
        isolation: isolate;
      }

      .cls-58 {
        fill: #64c9f9;
        opacity: .5;
      }
    </style>
    <linearGradient id="linear-gradient" x1="-29.79" y1="294.23" x2="232.26" y2="348.37" gradientTransform="translate(-44.01 201.2) rotate(-45)" gradientUnits="userSpaceOnUse">
      <stop offset="0" stop-color="#fe4c70"/>
      <stop offset="1" stop-color="#ef2b5a"/>
    </linearGradient>
    <linearGradient id="linear-gradient-2" x1="140.97" y1="38.48" x2="328.6" y2="102.36" gradientTransform="translate(76.48 323.71) rotate(-10.55)" gradientUnits="userSpaceOnUse">
      <stop offset="0" stop-color="#64c9f9"/>
      <stop offset=".24" stop-color="#64c9f9"/>
      <stop offset=".31" stop-color="#5ca6db"/>
    </linearGradient>
    <linearGradient id="linear-gradient-3" x1="130.77" y1="68.44" x2="318.37" y2="132.31" xlink:href="#linear-gradient-2"/>
    <linearGradient id="linear-gradient-4" x1="138.78" y1="44.92" x2="326.24" y2="108.73" xlink:href="#linear-gradient-2"/>
    <linearGradient id="linear-gradient-5" x1="139.98" y1="41.38" x2="327.61" y2="105.25" xlink:href="#linear-gradient-2"/>
    <linearGradient id="linear-gradient-6" x1="172.68" y1="53.28" x2="298.19" y2="79.22" gradientTransform="translate(76.48 323.71) rotate(-10.55)" gradientUnits="userSpaceOnUse">
      <stop offset="0" stop-color="#4b9cd3"/>
      <stop offset="1" stop-color="#25579a"/>
    </linearGradient>
    <linearGradient id="linear-gradient-7" x1="150.06" y1="66.5" x2="322.52" y2="66.5" xlink:href="#linear-gradient-6"/>
    <linearGradient id="linear-gradient-8" x1="235.83" y1="100.77" x2="240.25" y2="81.12" gradientTransform="translate(76.48 323.71) rotate(-10.55)" gradientUnits="userSpaceOnUse">
      <stop offset=".91" stop-color="#d7e6f2"/>
      <stop offset="1" stop-color="#f5f6fd"/>
    </linearGradient>
    <clipPath id="clippath">
      <path class="cls-1" d="M329.54,388.61l10.53-25.45c.33-.8,.05-1.73-.68-2.21l-50.2-32.74,26.68-.84,50.26,31.93c.73,.46,1.03,1.38,.72,2.18l-10.06,25.98-27.24,1.15Z"/>
    </clipPath>
    <linearGradient id="linear-gradient-9" x1="230.41" y1="73.11" x2="228.41" y2="85.1" gradientTransform="translate(76.48 323.71) rotate(-10.55)" gradientUnits="userSpaceOnUse">
      <stop offset=".61" stop-color="#aae3f9"/>
      <stop offset=".72" stop-color="#5a8cbe"/>
    </linearGradient>
    <linearGradient id="linear-gradient-10" x1="254.57" y1="77.13" x2="252.57" y2="89.12" xlink:href="#linear-gradient-9"/>
    <linearGradient id="linear-gradient-11" x1="52.04" y1="-395.41" x2="239.67" y2="-331.54" gradientTransform="translate(285.74 725.76) rotate(-25.79)" xlink:href="#linear-gradient-2"/>
    <linearGradient id="linear-gradient-12" x1="41.84" y1="-365.46" x2="229.44" y2="-301.59" gradientTransform="translate(285.74 725.76) rotate(-25.79)" xlink:href="#linear-gradient-2"/>
    <linearGradient id="linear-gradient-13" x1="49.85" y1="-388.98" x2="237.31" y2="-325.17" gradientTransform="translate(285.74 725.76) rotate(-25.79)" xlink:href="#linear-gradient-2"/>
    <linearGradient id="linear-gradient-14" x1="51.05" y1="-392.52" x2="238.68" y2="-328.65" gradientTransform="translate(285.74 725.76) rotate(-25.79)" xlink:href="#linear-gradient-2"/>
    <linearGradient id="linear-gradient-15" x1="83.75" y1="-380.62" x2="209.26" y2="-354.68" gradientTransform="translate(285.74 725.76) rotate(-25.79)" xlink:href="#linear-gradient-6"/>
    <linearGradient id="linear-gradient-16" x1="61.13" y1="-367.4" x2="233.59" y2="-367.4" gradientTransform="translate(285.74 725.76) rotate(-25.79)" xlink:href="#linear-gradient-6"/>
    <linearGradient id="linear-gradient-17" x1="146.9" y1="-333.13" x2="151.32" y2="-352.78" gradientTransform="translate(285.74 725.76) rotate(-25.79)" xlink:href="#linear-gradient-8"/>
    <clipPath id="clippath-1">
      <path class="cls-1" d="M278.13,369.87l3.47-27.33c.11-.86-.41-1.68-1.24-1.95l-57.04-18.4,25.52-7.82,56.88,17.6c.83,.26,1.35,1.06,1.27,1.92l-2.88,27.71-25.98,8.27Z"/>
    </clipPath>
    <linearGradient id="linear-gradient-18" x1="141.48" y1="-360.79" x2="139.48" y2="-348.8" gradientTransform="translate(285.74 725.76) rotate(-25.79)" xlink:href="#linear-gradient-9"/>
    <linearGradient id="linear-gradient-19" x1="165.64" y1="-356.77" x2="163.64" y2="-344.78" gradientTransform="translate(285.74 725.76) rotate(-25.79)" xlink:href="#linear-gradient-9"/>
    <linearGradient id="linear-gradient-20" x1="2730.71" y1="470.25" x2="2918.34" y2="534.12" gradientTransform="translate(3063.13 389.92) rotate(-167.92) scale(1 -1)" gradientUnits="userSpaceOnUse">
      <stop offset=".28" stop-color="#4587cc"/>
      <stop offset=".3" stop-color="#5aa5db"/>
    </linearGradient>
    <linearGradient id="linear-gradient-21" x1="2720.51" y1="500.21" x2="2908.11" y2="564.07" gradientTransform="translate(3063.13 389.92) rotate(-167.92) scale(1 -1)" xlink:href="#linear-gradient-20"/>
    <linearGradient id="linear-gradient-22" x1="2728.52" y1="476.68" x2="2915.99" y2="540.5" gradientTransform="translate(3063.13 389.92) rotate(-167.92) scale(1 -1)" xlink:href="#linear-gradient-20"/>
    <linearGradient id="linear-gradient-23" x1="2729.72" y1="473.14" x2="2917.35" y2="537.02" gradientTransform="translate(3063.13 389.92) rotate(-167.92) scale(1 -1)" xlink:href="#linear-gradient-20"/>
    <linearGradient id="linear-gradient-24" x1="2762.42" y1="485.05" x2="2887.93" y2="510.98" gradientTransform="translate(3063.13 389.92) rotate(-167.92) scale(1 -1)" xlink:href="#linear-gradient-6"/>
    <linearGradient id="linear-gradient-25" x1="2739.8" y1="498.27" x2="2912.26" y2="498.27" gradientTransform="translate(3063.13 389.92) rotate(-167.92) scale(1 -1)" xlink:href="#linear-gradient-6"/>
    <linearGradient id="linear-gradient-26" x1="2825.57" y1="532.53" x2="2829.99" y2="512.89" gradientTransform="translate(3063.13 389.92) rotate(-167.92) scale(1 -1)" xlink:href="#linear-gradient-8"/>
    <clipPath id="clippath-2">
      <path class="cls-1" d="M185.68,328.18l-9.85-25.73c-.31-.81,0-1.73,.74-2.19l51.06-31.39-26.65-1.55-51.09,30.58c-.74,.44-1.07,1.35-.78,2.16l9.36,26.24,27.2,1.88Z"/>
    </clipPath>
    <linearGradient id="linear-gradient-27" x1="2820.15" y1="504.87" x2="2818.15" y2="516.86" gradientTransform="translate(3063.13 389.92) rotate(-167.92) scale(1 -1)" xlink:href="#linear-gradient-9"/>
    <linearGradient id="linear-gradient-28" x1="2844.31" y1="508.9" x2="2842.31" y2="520.89" gradientTransform="translate(3063.13 389.92) rotate(-167.92) scale(1 -1)" xlink:href="#linear-gradient-9"/>
    <linearGradient id="linear-gradient-29" x1="2809.41" y1="402.98" x2="2997.04" y2="466.85" gradientTransform="translate(3116.2 270.59) rotate(-172.47) scale(1 -1)" xlink:href="#linear-gradient-20"/>
    <linearGradient id="linear-gradient-30" x1="2799.22" y1="432.94" x2="2986.81" y2="496.8" gradientTransform="translate(3116.2 270.59) rotate(-172.47) scale(1 -1)" xlink:href="#linear-gradient-20"/>
    <linearGradient id="linear-gradient-31" x1="2807.23" y1="409.41" x2="2994.69" y2="473.23" gradientTransform="translate(3116.2 270.59) rotate(-172.47) scale(1 -1)" xlink:href="#linear-gradient-20"/>
    <linearGradient id="linear-gradient-32" x1="2808.43" y1="405.87" x2="2996.06" y2="469.75" gradientTransform="translate(3116.2 270.59) rotate(-172.47) scale(1 -1)" xlink:href="#linear-gradient-20"/>
    <linearGradient id="linear-gradient-33" x1="2841.12" y1="417.78" x2="2966.64" y2="443.71" gradientTransform="translate(3116.2 270.59) rotate(-172.47) scale(1 -1)" xlink:href="#linear-gradient-6"/>
    <linearGradient id="linear-gradient-34" x1="2818.51" y1="431" x2="2990.97" y2="431" gradientTransform="translate(3116.2 270.59) rotate(-172.47) scale(1 -1)" xlink:href="#linear-gradient-6"/>
    <linearGradient id="linear-gradient-35" x1="2904.27" y1="465.26" x2="2908.69" y2="445.62" gradientTransform="translate(3116.2 270.59) rotate(-172.47) scale(1 -1)" xlink:href="#linear-gradient-8"/>
    <clipPath id="clippath-3">
      <path class="cls-1" d="M173.71,360.33l-11.86-24.86c-.37-.79-.14-1.73,.57-2.24l48.41-35.34-26.69,.57-48.51,34.53c-.7,.5-.96,1.43-.6,2.22l11.41,25.41,27.27-.28Z"/>
    </clipPath>
    <linearGradient id="linear-gradient-36" x1="2898.85" y1="437.6" x2="2896.86" y2="449.59" gradientTransform="translate(3116.2 270.59) rotate(-172.47) scale(1 -1)" xlink:href="#linear-gradient-9"/>
    <linearGradient id="linear-gradient-37" x1="2923.01" y1="441.63" x2="2921.01" y2="453.62" gradientTransform="translate(3116.2 270.59) rotate(-172.47) scale(1 -1)" xlink:href="#linear-gradient-9"/>
    <linearGradient id="linear-gradient-38" x1="229.88" y1="269.19" x2="417.51" y2="333.06" gradientTransform="translate(-25.64 -30.31) rotate(.77)" xlink:href="#linear-gradient-2"/>
    <linearGradient id="linear-gradient-39" x1="219.68" y1="299.14" x2="407.28" y2="363.01" gradientTransform="translate(-25.64 -30.31) rotate(.77)" xlink:href="#linear-gradient-2"/>
    <linearGradient id="linear-gradient-40" x1="227.69" y1="275.62" x2="415.16" y2="339.43" gradientTransform="translate(-25.64 -30.31) rotate(.77)" xlink:href="#linear-gradient-2"/>
    <linearGradient id="linear-gradient-41" x1="228.9" y1="272.08" x2="416.52" y2="335.95" gradientTransform="translate(-25.64 -30.31) rotate(.77)" xlink:href="#linear-gradient-2"/>
    <linearGradient id="linear-gradient-42" x1="261.59" y1="283.98" x2="387.11" y2="309.92" gradientTransform="translate(-25.64 -30.31) rotate(.77)" xlink:href="#linear-gradient-6"/>
    <linearGradient id="linear-gradient-43" x1="238.98" y1="297.2" x2="411.44" y2="297.2" gradientTransform="translate(-25.64 -30.31) rotate(.77)" xlink:href="#linear-gradient-6"/>
    <linearGradient id="linear-gradient-44" x1="324.74" y1="331.47" x2="329.16" y2="311.82" gradientTransform="translate(-25.64 -30.31) rotate(.77)" xlink:href="#linear-gradient-8"/>
    <clipPath id="clippath-4">
      <path class="cls-1" d="M295.56,314.89l15.32-22.89c.48-.72,.38-1.69-.24-2.3l-42.8-41.96,26.33,4.41,43.01,41.18c.62,.6,.74,1.55,.28,2.28l-14.96,23.5-26.94-4.22Z"/>
    </clipPath>
    <linearGradient id="linear-gradient-45" x1="319.32" y1="303.81" x2="317.32" y2="315.8" gradientTransform="translate(-25.64 -30.31) rotate(.77)" xlink:href="#linear-gradient-9"/>
    <linearGradient id="linear-gradient-46" x1="343.48" y1="307.83" x2="341.48" y2="319.82" gradientTransform="translate(-25.64 -30.31) rotate(.77)" xlink:href="#linear-gradient-9"/>
  </defs>
  <g class="cls-57">
    <g id="Layer_1" data-name="Layer 1">
      <polygon class="cls-2" points="428.94 357.67 253.46 412.52 77.98 357.67 253.46 322.51 428.94 357.67"/>
      <path class="cls-7" d="M366.68,361.21l-10.28,.13,.57-1.66,.26-1.58-59.53-10.28-18,2.75-.34-.96-11.82-1.09c3.54-1.59,5.56-2.58,5.56-2.58l-63.01,.86,.74-.28-3.55-.61-1.76,.67-19.35,.21,.17-.07-3.55-.61-2.91,1.11-46.51,.64-50.21,19.26,1.22,1.46,3.28,3.11,1.83,2.55s2.35,.02,6.3,.04l-5.84,2.53,2.3,3.39s41.45-1.64,54.19-1.74h.23s.18,.19,.18,.19l3.18,.08-.26-.3,9.93-.05c.6,0,1.22,0,1.84,0l.03,.13,2.58,.33-3.83,1.25,.73,2.62,.13,2.76,61.54,7.49c3.16-.78,13.16-2.58,25.18-4.65l23.13,6.44c6.15-.58,34.86-1.41,57.84-1.98l-.15,.19,3.17-.17,.08-.1c4.15-.1,8.05-.19,11.54-.27l9.91-.21-.23,.3,3.17-.17,.16-.2h.23c12.73-.24,54.3,.28,54.3,.28l1.94-3.44-6.09-2.37c3.94-.13,6.29-.2,6.29-.2l1.57-2.59,2.95-3.19,1.07-1.49-52.13-17.88Z"/>
      <g>
        <path class="cls-16" d="M221.07,337.88l-.64,5.15,53.89,30.21s47.13-6.04,64.83-6.82,78.6-1.61,78.6-1.61l1.07-2.93-52.13-35.14-130.94,7.68-14.67,3.45Z"/>
        <path class="cls-14" d="M413.02,381.25l-1.94,6.77s-41.56-1.03-54.3-.56c-12.73,.47-76.23,3.37-85.73,5.14l-55.51-30.37,1.3-5.27,185.84,19.13,10.34,5.16Z"/>
        <path class="cls-5" d="M405.82,375.73l7.2,5.52s-44.06-3.23-81.61-1.04l-37.56,2.19,111.97-6.68Z"/>
        <path class="cls-15" d="M217.49,351.81l-.64,5.15,54.69,29.61s40.86-5.32,68.57-6.37c27.71-1.04,73.12-4.02,73.12-4.02l1.57-5.09-48.11-44.34-149.19,25.06Z"/>
        <path class="cls-4" d="M222.89,350.12l-5.4,1.69,55.35,29.48s47.16-4.67,63.93-5.5c16.77-.84,78.03-4.7,78.03-4.7l-48.11-44.34-143.79,23.37Z"/>
        <polygon class="cls-19" points="220.42 343.03 219.5 349.14 272.91 379.22 414.79 371.09 417.74 364.82 366.68 326.75 220.42 343.03"/>
        <path class="cls-4" d="M235.74,334.42l-14.67,3.45,54.52,32.38s22.04-5.71,68.31-6.55c46.27-.84,74.92-1.82,74.92-1.82l-52.13-35.14-130.94,7.68Z"/>
        <polygon class="cls-6" points="235.74 334.42 228.15 336.32 276.03 366.82 340.05 363.2 235.74 334.42"/>
        <path class="cls-4" d="M226.94,330.35s22.68,19.67,49.62,33.42l142.25-1.88-52.13-35.14-139.74,3.6Z"/>
        <path class="cls-17" d="M252.14,334.58s5.3,4.42-2.96,5.65l22.04,13.81s12.31-1.06,19.89,4.79l95.7-2.84s-7.44-3.87,2.68-6.37l-18.7-12.89s-9.43,1.6-15.88-3.99l-102.76,1.84Z"/>
        <path class="cls-18" d="M411.26,359.71l-133.63,2.2-.27-.17-46.71-29.81,135.89-3.44,44.71,31.23Zm-133.03,.09l126.52-2.08-38.83-27.12-128.35,3.25,40.66,25.95Z"/>
        <polygon class="cls-4" points="242.71 355.29 274.31 373.24 331.28 369.24 274.27 374.99 242.71 355.29"/>
        <g>
          <path class="cls-12" d="M329.54,388.61l10.53-25.45c.33-.8,.05-1.73-.68-2.21l-50.2-32.74,26.68-.84,50.26,31.93c.73,.46,1.03,1.38,.72,2.18l-10.06,25.98-27.24,1.15Z"/>
          <g class="cls-3">
            <path class="cls-13" d="M289.18,328.21l49.92,33.86-10.36,27.02,3.17-.33,11.23-26.81c.24-.56,.04-1.21-.46-1.55l-50.02-33.59-3.48,1.39Z"/>
            <path class="cls-39" d="M313.66,327.31l49.92,33.86-10.36,27.02,3.17-.33,11.23-26.81c.24-.56,.04-1.21-.46-1.55l-50.02-33.59-3.48,1.39Z"/>
          </g>
        </g>
      </g>
      <g>
        <path class="cls-40" d="M160.13,349.43l.73,5.14,59.93,14.99s43.89-18.21,60.76-23.61c16.87-5.4,75.42-22.2,75.42-22.2l.26-3.11-59.53-20.21-124.32,41.81-13.25,7.19Z"/>
        <path class="cls-38" d="M356.74,340.84l-.1,7.04s-40.37,9.93-52.54,13.73c-12.16,3.8-72.66,23.29-81.37,27.49l-61.54-14.71-.13-5.43,184.34-30.38,11.33,2.27Z"/>
        <path class="cls-5" d="M348.34,337.41l8.4,3.43s-43.36,8.46-79.02,20.45l-35.66,11.98,106.28-35.86Z"/>
        <path class="cls-37" d="M160.34,363.81l.73,5.14,60.55,14.2s38.03-15.87,64.49-24.16c26.46-8.29,69.5-23.09,69.5-23.09l.17-5.33-58.07-30.14-137.36,63.38Z"/>
        <path class="cls-4" d="M165.11,360.76l-4.77,3.05,61.15,13.9s44.27-16.9,60.23-22.11c15.96-5.21,74.05-25.04,74.05-25.04l-58.07-30.14-132.6,60.33Z"/>
        <polygon class="cls-27" points="160.87 354.57 161.59 360.71 221.02 375.7 355.78 330.57 356.98 323.75 297.7 300.43 160.87 354.57"/>
        <path class="cls-4" d="M173.38,342.24l-13.25,7.19,61.11,16.92s19.76-11.3,64.19-24.27c44.42-12.97,71.81-21.44,71.81-21.44l-59.53-20.21-124.32,41.81Z"/>
        <polygon class="cls-6" points="173.38 342.24 166.55 346.06 220.77 362.91 281.58 342.6 173.38 342.24"/>
        <path class="cls-4" d="M163.82,340.62s27.05,13.02,56.65,19.21l136.76-39.19-59.53-20.21-133.88,40.2Z"/>
        <path class="cls-33" d="M189.25,338.08s6.28,2.87-1.38,6.23l24.89,7.54s11.6-4.26,20.45-.61l91.59-27.89s-8.19-1.78,.91-6.85l-21.43-7.52s-8.68,4.02-16.37,.32l-98.66,28.78Z"/>
        <path class="cls-35" d="M349.38,320.52l-128.36,37.23-.3-.09-52.9-16.49,130.21-39.03,51.34,18.38Zm-128.33,35.04l121.52-35.25-44.59-15.96-122.98,36.86,46.05,14.36Z"/>
        <polygon class="cls-4" points="185.59 360.54 220.8 369.56 274.71 350.73 221.22 371.26 185.59 360.54"/>
        <g>
          <path class="cls-36" d="M278.13,369.87l3.47-27.33c.11-.86-.41-1.68-1.24-1.95l-57.04-18.4,25.52-7.82,56.88,17.6c.83,.26,1.35,1.06,1.27,1.92l-2.88,27.71-25.98,8.27Z"/>
          <g class="cls-8">
            <path class="cls-28" d="M223.32,322.2l57.06,19.56-2.89,28.79,2.97-1.15,3.79-28.82c.08-.6-.28-1.18-.86-1.37l-57.09-19.26-2.99,2.26Z"/>
            <path class="cls-34" d="M246.7,314.9l57.06,19.56-2.89,28.79,2.97-1.15,3.79-28.82c.08-.6-.28-1.18-.86-1.37l-57.09-19.26-2.99,2.26Z"/>
          </g>
        </g>
      </g>
      <g>
        <path class="cls-30" d="M295.47,280.36l.5,5.17-54.67,28.77s-46.95-7.29-64.62-8.54c-17.67-1.25-78.53-3.7-78.53-3.7l-.99-2.96,53.05-33.74,130.69,11.17,14.58,3.84Z"/>
        <path class="cls-31" d="M102.42,318.59l1.76,6.81s41.58,.08,54.29,.89c12.71,.81,76.11,5.41,85.56,7.43l56.31-28.88-1.16-5.31-186.29,14.16-10.47,4.89Z"/>
        <path class="cls-4" d="M109.77,313.27l-7.35,5.33s44.13-2.05,81.61,1.14l37.48,3.2-111.75-9.66Z"/>
        <path class="cls-29" d="M298.68,294.38l.5,5.17-55.46,28.14s-40.7-6.41-68.37-8.2c-27.67-1.78-72.99-5.97-72.99-5.97l-1.43-5.13,49.28-43.04,148.47,29.04Z"/>
        <path class="cls-5" d="M293.32,292.55l5.36,1.84-56.12,28s-47.02-5.93-63.76-7.21c-16.74-1.28-77.87-6.78-77.87-6.78l49.28-43.04,143.12,27.2Z"/>
        <polygon class="cls-32" points="295.97 285.53 296.73 291.67 242.54 320.31 100.93 308.39 98.15 302.04 150.21 265.35 295.97 285.53"/>
        <path class="cls-4" d="M280.9,276.52l14.58,3.84-55.36,30.92s-21.88-6.29-68.11-8.37c-46.23-2.08-74.84-3.82-74.84-3.82l53.05-33.74,130.69,11.17Z"/>
        <polygon class="cls-6" points="280.9 276.52 288.43 278.61 239.75 307.82 175.86 302.5 280.9 276.52"/>
        <path class="cls-4" d="M289.8,272.68s-23.19,19.05-50.49,32.08l-142.15-5.68,53.05-33.74,139.59,7.33Z"/>
        <path class="cls-42" d="M264.49,276.24s-5.42,4.28,2.81,5.73l-22.4,13.22s-12.28-1.39-20.01,4.26l-95.59-5.4s7.54-3.67-2.5-6.44l19.03-12.39s9.39,1.85,15.98-3.57l102.67,4.59Z"/>
        <path class="cls-50" d="M150.29,267.09l135.75,7.07-47.49,28.55-.27,.16-133.52-5.77,45.53-30.02Zm128.79,8.81l-128.21-6.68-39.54,26.07,126.42,5.46,41.33-24.86Z"/>
        <polygon class="cls-4" points="273.37 297.19 241.3 314.29 184.46 308.77 241.29 316.04 273.37 297.19"/>
        <g>
          <path class="cls-43" d="M185.68,328.18l-9.85-25.73c-.31-.81,0-1.73,.74-2.19l51.06-31.39-26.65-1.55-51.09,30.58c-.74,.44-1.07,1.35-.78,2.16l9.36,26.24,27.2,1.88Z"/>
          <g class="cls-11">
            <path class="cls-41" d="M227.63,268.88l-50.81,32.52,9.63,27.28-3.16-.42-10.51-27.1c-.22-.57,0-1.21,.51-1.54l50.9-32.24,3.44,1.49Z"/>
            <path class="cls-51" d="M203.19,267.33l-50.81,32.52,9.63,27.28-3.16-.42-10.51-27.1c-.22-.57,0-1.21,.51-1.54l50.9-32.24,3.44,1.49Z"/>
          </g>
        </g>
      </g>
      <g>
        <path class="cls-52" d="M279.36,303.95l.91,5.11-52.22,33.01s-47.39-3.54-65.1-3.39c-17.71,.15-78.58,2.54-78.58,2.54l-1.22-2.87,50.21-37.84,131.16,.77,14.83,2.67Z"/>
        <path class="cls-54" d="M89.96,357.38l2.3,6.65s41.45-3.21,54.19-3.42c12.74-.21,76.3-.65,85.88,.62l53.84-33.25-1.58-5.2-184.58,28.89-10.05,5.7Z"/>
        <path class="cls-4" d="M96.86,351.49l-6.9,5.89s43.82-5.55,81.44-5.33l37.62,.21-112.16-.77Z"/>
        <path class="cls-56" d="M283.67,317.68l.91,5.11-53.05,32.45s-41.09-3.16-68.81-2.75-73.23-.16-73.23-.16l-1.83-5.01,45.71-46.81,150.31,17.16Z"/>
        <path class="cls-5" d="M278.19,316.27l5.48,1.41-53.72,32.36s-47.34-2.18-64.13-2.13c-16.79,.05-78.17-.58-78.17-.58l45.71-46.81,144.82,15.76Z"/>
        <polygon class="cls-55" points="280.28 309.06 281.52 315.12 229.77 347.97 87.66 347.33 84.38 341.22 133.37 300.51 280.28 309.06"/>
        <path class="cls-4" d="M264.53,301.28l14.83,2.67-52.74,35.21s-22.31-4.54-68.56-2.94c-46.25,1.6-74.91,2.13-74.91,2.13l50.21-37.84,131.16,.77Z"/>
        <polygon class="cls-6" points="264.53 301.28 272.21 302.77 226 335.75 161.88 335.51 264.53 301.28"/>
        <path class="cls-4" d="M273.1,296.75s-21.61,20.83-47.79,35.99l-142.16,5.62,50.21-37.84,139.73-3.77Z"/>
        <path class="cls-53" d="M248.16,302.3s-5.06,4.69,3.26,5.49l-21.28,14.95s-12.35-.41-19.61,5.83l-95.72,2.2s7.23-4.25-3.01-6.22l17.99-13.86s9.5,1.1,15.65-4.82l102.71-3.58Z"/>
        <path class="cls-47" d="M133.59,302.24l135.89-3.72-45.07,32.23-.26,.18-133.56,4.85,43-33.54Zm129.08-1.44l-128.34,3.52-37.35,29.13,126.45-4.59,39.23-28.06Z"/>
        <polygon class="cls-4" points="258.67 322.48 228.06 342.08 170.96 341.08 228.19 343.82 258.67 322.48"/>
        <g>
          <path class="cls-45" d="M173.71,360.33l-11.86-24.86c-.37-.79-.14-1.73,.57-2.24l48.41-35.34-26.69,.57-48.51,34.53c-.7,.5-.96,1.43-.6,2.22l11.41,25.41,27.27-.28Z"/>
          <g class="cls-10">
            <path class="cls-49" d="M210.83,297.89l-48.07,36.45,11.77,26.43-3.18-.16-12.63-26.18c-.26-.55-.1-1.21,.38-1.57l48.19-36.17,3.55,1.21Z"/>
            <path class="cls-46" d="M186.34,298.28l-48.07,36.45,11.77,26.43-3.18-.16-12.63-26.18c-.26-.55-.1-1.21,.38-1.57l48.19-36.17,3.55,1.21Z"/>
          </g>
        </g>
      </g>
      <g>
        <path class="cls-44" d="M199.15,243.84l-1.64,4.92,46.9,40.21s47.4,3.34,64.9,6.04c17.5,2.71,77.39,13.86,77.39,13.86l1.62-2.66-44.22-44.69-129.9-18.18-15.06,.5Z"/>
        <path class="cls-48" d="M378.86,324.06l-3.23,6.25s-40.55-9.17-53.13-11.21c-12.58-2.04-75.41-11.66-85.07-11.79l-48.47-40.68,2.31-4.92,178.47,55.24,9.12,7.09Z"/>
        <path class="cls-5" d="M372.88,317.23l5.98,6.83s-42.56-11.82-79.82-17.04l-37.26-5.22,111.1,15.44Z"/>
        <path class="cls-21" d="M192.9,256.8l-1.64,4.92,47.81,39.77s41.11,2.8,68.49,7.22c27.37,4.42,72.49,10.42,72.49,10.42l2.54-4.69-38.47-52.92-151.21-4.72Z"/>
        <path class="cls-4" d="M198.53,256.2l-5.63,.6,48.48,39.78s47.16,4.68,63.76,7.15c16.61,2.47,77.43,10.71,77.43,10.71l-38.47-52.92-145.58-5.32Z"/>
        <polygon class="cls-20" points="197.51 248.77 195.41 254.58 241.87 294.56 382.58 314.44 386.71 308.88 344.11 261.52 197.51 248.77"/>
        <path class="cls-4" d="M214.21,243.34l-15.06,.5,47.1,42.46s22.73-1.27,68.26,6.99c45.54,8.26,73.82,12.92,73.82,12.92l-44.22-44.69-129.9-18.18Z"/>
        <polygon class="cls-6" points="214.21 243.34 206.4 243.7 247.36 283.01 310.84 292.03 214.21 243.34"/>
        <path class="cls-4" d="M206.39,237.62s18.37,23.73,42.09,42.51l139.85,26.09-44.22-44.69-137.73-23.9Z"/>
        <path class="cls-23" d="M230.27,246.71s4.33,5.37-4.02,4.96l18.89,17.87s12.28,1.38,18.56,8.6l94.39,16s-6.54-5.25,3.87-5.72l-15.8-16.31s-9.56-.28-14.79-7.03l-101.12-18.37Z"/>
        <path class="cls-22" d="M381.35,302.6l-131.46-24.08-.23-.22-39.94-38.4,133.93,23.3,37.71,39.4Zm-130.46-26.03l124.46,22.8-32.75-34.22-126.49-22.01,34.77,33.43Z"/>
        <polygon class="cls-4" points="216.96 265.16 244.41 288.97 301.06 296.23 244.03 290.68 216.96 265.16"/>
        <g>
          <path class="cls-26" d="M295.56,314.89l15.32-22.89c.48-.72,.38-1.69-.24-2.3l-42.8-41.96,26.33,4.41,43.01,41.18c.62,.6,.74,1.55,.28,2.28l-14.96,23.5-26.94-4.22Z"/>
          <g class="cls-9">
            <path class="cls-24" d="M267.84,247.73l42.3,43-15.46,24.46,3.17,.3,16.28-24.08c.34-.5,.28-1.18-.15-1.61l-42.46-42.75-3.68,.68Z"/>
            <path class="cls-25" d="M292.02,251.66l42.3,43-15.46,24.46,3.17,.3,16.28-24.08c.34-.5,.28-1.18-.15-1.61l-42.46-42.75-3.68,.68Z"/>
          </g>
        </g>
      </g>
      <path class="cls-58" d="M405.48,224.12c2.25,.63,4.6-.7,5.23-2.95,.63-2.25-.7-4.6-2.95-5.23l-23.08-6.44-9.27-2.59c-2.25-.63-4.6,.7-5.23,2.95s.7,4.6,2.95,5.23l9.27,2.59c3.96,1.11,6.7,4.38,7.31,8.2l-18.14-5.06c-2.25-.63-4.6,.7-5.23,2.95s.7,4.6,2.95,5.23l18.14,5.06c-2.49,2.92-6.54,4.34-10.5,3.23l-9.27-2.59c-1.68-.47-3.47,.13-4.52,1.51-1.05,1.38-1.18,3.28-.27,4.77l17.03,28.31c.57,.95,1.49,1.6,2.51,1.89,1.1,.31,2.29,.15,3.34-.43,2.01-1.2,2.64-3.8,1.44-5.81l-11.55-19.21c8.17,1.8,16.44-2.11,20.37-9.24l5.6,1.56c2.25,.63,4.6-.7,5.23-2.95,.63-2.25-.7-4.6-2.95-5.23l-5.6-1.56c.08-2.18-.19-4.37-.86-6.4l8.05,2.25v-.04Z"/>
      <path class="cls-58" d="M135.73,204.99c1.39-.25,2.33-1.59,2.08-2.98s-1.59-2.33-2.98-2.08l-14.3,2.53-5.74,1.02c-1.39,.25-2.33,1.59-2.08,2.98,.25,1.39,1.59,2.33,2.98,2.08l5.74-1.02c2.45-.43,4.81,.64,6.14,2.57l-11.24,1.99c-1.39,.25-2.33,1.59-2.08,2.98s1.59,2.33,2.98,2.08l11.24-1.99c-.59,2.25-2.43,4.09-4.89,4.52l-5.74,1.02c-1.04,.18-1.86,.98-2.07,2.01-.21,1.03,.22,2.1,1.1,2.68l16.72,11c.56,.37,1.23,.49,1.87,.37,.68-.12,1.29-.52,1.71-1.11,.78-1.18,.45-2.77-.73-3.55l-11.34-7.47c4.94-1.16,8.43-5.46,8.7-10.39l3.47-.61c1.39-.25,2.33-1.59,2.08-2.98s-1.59-2.33-2.98-2.08l-3.47,.61c-.53-1.21-1.25-2.34-2.15-3.27l4.99-.88v-.03Z"/>
      <path class="cls-58" d="M309.85,185.4c1.02-.18,1.72-1.17,1.53-2.19s-1.17-1.72-2.19-1.53l-10.53,1.86-4.23,.75c-1.02,.18-1.71,1.17-1.53,2.19,.18,1.02,1.17,1.71,2.19,1.53l4.23-.75c1.81-.32,3.54,.47,4.52,1.89l-8.27,1.47c-1.02,.18-1.72,1.17-1.53,2.19s1.17,1.71,2.19,1.53l8.27-1.47c-.44,1.65-1.79,3.01-3.6,3.33l-4.23,.75c-.76,.14-1.37,.72-1.53,1.48-.15,.76,.16,1.55,.81,1.97l12.31,8.1c.41,.27,.91,.36,1.37,.28,.5-.09,.95-.38,1.26-.82,.58-.87,.33-2.04-.54-2.61l-8.35-5.5c3.63-.86,6.21-4.02,6.41-7.65l2.55-.45c1.02-.18,1.72-1.17,1.53-2.19s-1.17-1.71-2.19-1.53l-2.55,.45c-.39-.89-.92-1.72-1.58-2.41l3.67-.65v-.02Z"/>
      <path class="cls-58" d="M238.15,82.01c1.03,.15,2-.56,2.15-1.59,.15-1.03-.56-2-1.59-2.15l-10.57-1.59-4.25-.64c-1.03-.15-2,.56-2.15,1.59s.56,2,1.59,2.15l4.25,.64c1.82,.27,3.21,1.57,3.69,3.23l-8.31-1.25c-1.03-.15-2,.56-2.15,1.59-.15,1.03,.56,2,1.59,2.15l8.31,1.25c-.94,1.43-2.66,2.28-4.47,2.01l-4.25-.64c-.77-.12-1.53,.25-1.92,.92-.39,.67-.34,1.52,.14,2.13l9.08,11.61c.3,.39,.75,.63,1.22,.7,.51,.08,1.02-.06,1.45-.37,.82-.64,.96-1.83,.32-2.65l-6.16-7.88c3.72,.35,7.17-1.83,8.52-5.21l2.56,.39c1.03,.15,2-.56,2.15-1.59s-.56-2-1.59-2.15l-2.56-.39c-.08-.97-.32-1.92-.73-2.79l3.69,.56v-.02Z"/>
    </g>
  </g>
</svg>