<svg width="20" height="20" viewBox="0 0 20 20" fill="none" xmlns="http://www.w3.org/2000/svg">
<rect width="20" height="20" rx="4" fill="#A3ABC4"/>
<path d="M15.2231 7.86726L16.9524 7.1523C17.102 7.08584 17.2185 6.96938 17.2849 6.81977C17.3514 6.67014 17.3514 6.5038 17.2849 6.35417C17.1519 6.03821 16.8028 5.90518 16.4868 6.02164L14.7574 6.73659C14.5246 6.83635 14.3916 7.05256 14.3916 7.30192C14.3916 7.38509 14.4082 7.45155 14.4415 7.53471C14.5579 7.83408 14.9238 7.98371 15.2231 7.86725L15.2231 7.86726Z" fill="#293B75"/>
<path d="M16.9533 12.9721L15.224 12.2571C14.9247 12.1241 14.5589 12.2737 14.4259 12.5896C14.3926 12.6561 14.376 12.7393 14.376 12.8224C14.376 13.0718 14.5256 13.288 14.7418 13.3878L16.4711 14.1027C16.787 14.2357 17.1361 14.0861 17.2692 13.7702C17.4023 13.4542 17.2692 13.1051 16.9532 12.972L16.9533 12.9721Z" fill="#293B75"/>
<path d="M17.4181 9.46387H15.539C15.2065 9.46387 14.9404 9.72995 14.9404 10.0625C14.9404 10.395 15.2065 10.6611 15.539 10.6611H17.4014C17.7339 10.6611 18 10.395 18 10.0625C18.0001 9.72995 17.7506 9.46387 17.4181 9.46387Z" fill="#293B75"/>
<path d="M5.47959 6.73621L3.75032 6.02126C3.43435 5.88822 3.08525 6.03784 2.95219 6.35379C2.88573 6.50342 2.88573 6.66976 2.95219 6.81938C3.01865 6.96901 3.13511 7.08546 3.28473 7.15192L5.014 7.86687C5.31325 7.99991 5.67907 7.85029 5.81213 7.53434C5.84542 7.46788 5.862 7.38471 5.862 7.30155C5.8453 7.05217 5.69567 6.83596 5.47958 6.73622L5.47959 6.73621Z" fill="#293B75"/>
<path d="M5.0146 12.2568L3.28533 12.9718C2.96936 13.1048 2.83633 13.4539 2.95279 13.7699C3.08583 14.0859 3.43495 14.2189 3.75092 14.1024L5.48031 13.3875C5.7131 13.2877 5.84614 13.0715 5.84614 12.8222C5.84614 12.739 5.82955 12.6725 5.79626 12.5894C5.67981 12.29 5.31398 12.1404 5.01461 12.2568L5.0146 12.2568Z" fill="#293B75"/>
<path d="M5.29696 10.0625C5.29696 9.72995 5.03088 9.46387 4.69834 9.46387H2.81932C2.48678 9.46387 2.2207 9.72995 2.2207 10.0625C2.2207 10.395 2.48678 10.6611 2.81932 10.6611H4.68165C5.03091 10.6611 5.29699 10.395 5.29699 10.0625H5.29696Z" fill="#293B75"/>
<path d="M12.8131 8.4825L11.3665 8.56567L11.6159 5.37304C11.6492 4.84088 10.9508 4.59152 10.668 5.05708L6.9599 10.8437C6.72711 11.193 7.00977 11.6585 7.42549 11.6418L8.87212 11.5587L8.62274 14.7513C8.57286 15.2835 9.28781 15.5328 9.57061 15.0673L13.2787 9.28063C13.5115 8.91481 13.2288 8.44922 12.8131 8.4825Z" fill="#293B75"/>
</svg>
