<?xml version="1.0" encoding="UTF-8"?>
<svg xmlns="http://www.w3.org/2000/svg" xmlns:xlink="http://www.w3.org/1999/xlink" viewBox="0 0 694.05 500">
  <defs>
    <style>
      .cls-1 {
        stroke-width: .54px;
      }

      .cls-1, .cls-2 {
        fill: none;
        stroke: #2a95ec;
        stroke-miterlimit: 10;
      }

      .cls-3 {
        fill: url(#linear-gradient);
      }

      .cls-3, .cls-4, .cls-5 {
        opacity: .25;
      }

      .cls-6, .cls-7 {
        fill: #fff;
      }

      .cls-8, .cls-9 {
        fill: #64c9f9;
      }

      .cls-10 {
        fill: #a3f2ff;
      }

      .cls-11, .cls-12 {
        fill: #bf6055;
      }

      .cls-13 {
        fill: #aae3f9;
      }

      .cls-14 {
        fill: #c9ffff;
      }

      .cls-15 {
        fill: #c8ffff;
      }

      .cls-16 {
        fill: #b22039;
      }

      .cls-17 {
        fill: #263a79;
      }

      .cls-18 {
        fill: #3b6b9e;
      }

      .cls-19 {
        fill: #82c9f9;
      }

      .cls-12 {
        opacity: .3;
      }

      .cls-12, .cls-20 {
        mix-blend-mode: multiply;
      }

      .cls-20 {
        fill: url(#linear-gradient-60);
        opacity: .39;
      }

      .cls-21 {
        fill: url(#radial-gradient-3);
      }

      .cls-22 {
        fill: url(#radial-gradient-2);
      }

      .cls-2 {
        stroke-width: .49px;
      }

      .cls-23 {
        fill: url(#linear-gradient-59);
      }

      .cls-23, .cls-24 {
        opacity: .67;
      }

      .cls-24 {
        fill: url(#linear-gradient-58);
      }

      .cls-25 {
        fill: url(#linear-gradient-8);
      }

      .cls-26 {
        fill: url(#linear-gradient-9);
      }

      .cls-27 {
        fill: url(#linear-gradient-3);
      }

      .cls-28 {
        fill: url(#linear-gradient-4);
      }

      .cls-29 {
        fill: url(#linear-gradient-2);
      }

      .cls-30 {
        fill: url(#linear-gradient-6);
      }

      .cls-31 {
        fill: url(#linear-gradient-7);
      }

      .cls-32 {
        fill: url(#linear-gradient-5);
      }

      .cls-4 {
        fill: url(#linear-gradient-13);
      }

      .cls-5 {
        fill: url(#linear-gradient-14);
      }

      .cls-33 {
        opacity: .47;
      }

      .cls-34 {
        opacity: .53;
      }

      .cls-35 {
        opacity: .72;
      }

      .cls-36 {
        fill: url(#radial-gradient);
      }

      .cls-37 {
        fill: url(#linear-gradient-10);
        opacity: .87;
      }

      .cls-38 {
        fill: url(#linear-gradient-57);
      }

      .cls-39 {
        fill: url(#linear-gradient-55);
      }

      .cls-40 {
        fill: url(#linear-gradient-56);
      }

      .cls-41 {
        fill: url(#linear-gradient-53);
      }

      .cls-42 {
        fill: url(#linear-gradient-54);
      }

      .cls-43 {
        fill: url(#linear-gradient-51);
      }

      .cls-44 {
        fill: url(#linear-gradient-52);
      }

      .cls-45 {
        fill: url(#linear-gradient-50);
      }

      .cls-46 {
        fill: url(#linear-gradient-64);
      }

      .cls-47 {
        fill: url(#linear-gradient-63);
      }

      .cls-48 {
        fill: url(#linear-gradient-65);
      }

      .cls-49 {
        fill: url(#linear-gradient-62);
      }

      .cls-50 {
        fill: url(#linear-gradient-61);
      }

      .cls-51 {
        fill: url(#linear-gradient-41);
      }

      .cls-52 {
        fill: url(#linear-gradient-40);
      }

      .cls-53 {
        fill: url(#linear-gradient-43);
      }

      .cls-54 {
        fill: url(#linear-gradient-42);
      }

      .cls-55 {
        fill: url(#linear-gradient-45);
      }

      .cls-56 {
        fill: url(#linear-gradient-46);
      }

      .cls-57 {
        fill: url(#linear-gradient-44);
      }

      .cls-58 {
        fill: url(#linear-gradient-49);
      }

      .cls-59 {
        fill: url(#linear-gradient-47);
      }

      .cls-60 {
        fill: url(#linear-gradient-48);
      }

      .cls-61 {
        fill: url(#linear-gradient-18);
      }

      .cls-62 {
        fill: url(#linear-gradient-22);
      }

      .cls-63 {
        fill: url(#linear-gradient-20);
      }

      .cls-64 {
        fill: url(#linear-gradient-21);
      }

      .cls-65 {
        fill: url(#linear-gradient-23);
      }

      .cls-66 {
        fill: url(#linear-gradient-15);
      }

      .cls-67 {
        fill: url(#linear-gradient-19);
      }

      .cls-68 {
        fill: url(#linear-gradient-16);
      }

      .cls-69 {
        fill: url(#linear-gradient-17);
      }

      .cls-70 {
        fill: url(#linear-gradient-12);
      }

      .cls-71 {
        fill: url(#linear-gradient-11);
      }

      .cls-72 {
        fill: url(#linear-gradient-27);
      }

      .cls-73 {
        fill: url(#linear-gradient-24);
      }

      .cls-74 {
        fill: url(#linear-gradient-26);
      }

      .cls-75 {
        fill: url(#linear-gradient-38);
      }

      .cls-76 {
        fill: url(#linear-gradient-35);
      }

      .cls-77 {
        fill: url(#linear-gradient-37);
      }

      .cls-78 {
        fill: url(#linear-gradient-34);
      }

      .cls-79 {
        fill: url(#linear-gradient-39);
      }

      .cls-80 {
        fill: url(#linear-gradient-36);
      }

      .cls-81 {
        fill: url(#linear-gradient-25);
      }

      .cls-82 {
        fill: url(#linear-gradient-28);
      }

      .cls-83 {
        fill: url(#linear-gradient-29);
      }

      .cls-84 {
        fill: url(#linear-gradient-33);
      }

      .cls-85 {
        fill: url(#linear-gradient-30);
      }

      .cls-86 {
        fill: url(#linear-gradient-32);
      }

      .cls-87 {
        fill: url(#linear-gradient-31);
      }

      .cls-88 {
        isolation: isolate;
      }

      .cls-9, .cls-7 {
        opacity: .5;
      }
    </style>
    <linearGradient id="linear-gradient" x1="256.8" y1="472.07" x2="456.77" y2="28.7" gradientUnits="userSpaceOnUse">
      <stop offset="0" stop-color="#5aaee3" stop-opacity=".87"/>
      <stop offset="1" stop-color="#29abe2" stop-opacity=".1"/>
    </linearGradient>
    <linearGradient id="linear-gradient-2" x1="150.29" y1="302.44" x2="85.04" y2="230.52" gradientUnits="userSpaceOnUse">
      <stop offset="0" stop-color="#bf6055"/>
      <stop offset="1" stop-color="#d88771"/>
    </linearGradient>
    <linearGradient id="linear-gradient-3" x1="167.87" y1="196.41" x2="235.63" y2="208.73" gradientUnits="userSpaceOnUse">
      <stop offset="0" stop-color="#f8f9fd"/>
      <stop offset="1" stop-color="#c9d2ec"/>
    </linearGradient>
    <linearGradient id="linear-gradient-4" x1="515.58" y1="1561.8" x2="561.43" y2="1561.8" gradientTransform="translate(279.71 -1650.59) rotate(29.04) scale(.92 1.09) skewX(13.66)" gradientUnits="userSpaceOnUse">
      <stop offset="0" stop-color="#fe4c70"/>
      <stop offset="1" stop-color="#ef2b5a"/>
    </linearGradient>
    <linearGradient id="linear-gradient-5" x1="171.48" y1="283.22" x2="106.23" y2="211.3" xlink:href="#linear-gradient-2"/>
    <linearGradient id="linear-gradient-6" x1="127.23" y1="220.01" x2="149.99" y2="243.38" gradientUnits="userSpaceOnUse">
      <stop offset="0" stop-color="#bf6055" stop-opacity="0"/>
      <stop offset="1" stop-color="#d88771"/>
    </linearGradient>
    <linearGradient id="linear-gradient-7" x1="190.39" y1="301.99" x2="268.67" y2="301.99" xlink:href="#linear-gradient-2"/>
    <linearGradient id="linear-gradient-8" x1="235.18" y1="233.4" x2="223.22" y2="220.22" xlink:href="#linear-gradient-2"/>
    <linearGradient id="linear-gradient-9" x1="2132.16" y1="-4861.6" x2="2192.84" y2="-4861.6" gradientTransform="translate(3370.61 4607.6) rotate(-58.27)" gradientUnits="userSpaceOnUse">
      <stop offset="0" stop-color="#fe4c70"/>
      <stop offset="1" stop-color="#db4658"/>
    </linearGradient>
    <linearGradient id="linear-gradient-10" x1="11475.37" y1="282.8" x2="11461.06" y2="133.24" gradientTransform="translate(11672.57) rotate(-180) scale(1 -1)" gradientUnits="userSpaceOnUse">
      <stop offset="0" stop-color="#f8f9fd" stop-opacity="0"/>
      <stop offset="1" stop-color="#fff"/>
    </linearGradient>
    <linearGradient id="linear-gradient-11" x1="222.74" y1="166.59" x2="248.56" y2="226.05" gradientUnits="userSpaceOnUse">
      <stop offset="0" stop-color="#64c9f9"/>
      <stop offset="1" stop-color="#537fb7"/>
    </linearGradient>
    <linearGradient id="linear-gradient-12" x1="212.15" y1="147.72" x2="244.84" y2="212.8" gradientUnits="userSpaceOnUse">
      <stop offset="0" stop-color="#fff"/>
      <stop offset=".7" stop-color="#fff" stop-opacity="0"/>
    </linearGradient>
    <linearGradient id="linear-gradient-13" x1="243.1" y1="465.89" x2="443.07" y2="22.52" xlink:href="#linear-gradient"/>
    <linearGradient id="linear-gradient-14" x1="321.31" y1="501.16" x2="521.27" y2="57.79" xlink:href="#linear-gradient"/>
    <linearGradient id="linear-gradient-15" x1="2706.63" y1="-4881.28" x2="2706.63" y2="-4911.97" gradientTransform="translate(2065.5 -5120.17) rotate(46.97) scale(1 -1)" gradientUnits="userSpaceOnUse">
      <stop offset=".14" stop-color="#537fb7"/>
      <stop offset=".43" stop-color="#64c9f9"/>
      <stop offset="1" stop-color="#badff9"/>
    </linearGradient>
    <radialGradient id="radial-gradient" cx="2700.56" cy="3840.67" fx="2700.56" fy="3840.67" r="29.61" gradientTransform="translate(1301.09 -4406.57) rotate(46.97)" gradientUnits="userSpaceOnUse">
      <stop offset=".18" stop-color="#64c9f9"/>
      <stop offset=".52" stop-color="#537fb7"/>
      <stop offset="1" stop-color="#64c9f9"/>
    </radialGradient>
    <linearGradient id="linear-gradient-16" x1="2707.45" y1="-4890.23" x2="2707.45" y2="-4905.39" gradientTransform="translate(2065.5 -5120.17) rotate(46.97) scale(1 -1)" gradientUnits="userSpaceOnUse">
      <stop offset="0" stop-color="#adf0ff"/>
      <stop offset="1" stop-color="#4884ff"/>
    </linearGradient>
    <linearGradient id="linear-gradient-17" x1="2707.13" y1="-4889.75" x2="2707.13" y2="-4905.13" gradientTransform="translate(2065.5 -5120.17) rotate(46.97) scale(1 -1)" gradientUnits="userSpaceOnUse">
      <stop offset="0" stop-color="#c4ffff"/>
      <stop offset=".5" stop-color="#c0ffff"/>
      <stop offset="1" stop-color="#b0efff"/>
    </linearGradient>
    <linearGradient id="linear-gradient-18" x1="2707.13" y1="-4889.75" x2="2707.13" y2="-4905.13" gradientTransform="translate(2065.5 -5120.17) rotate(46.97) scale(1 -1)" gradientUnits="userSpaceOnUse">
      <stop offset="0" stop-color="#c8ffff"/>
      <stop offset="1" stop-color="#c9ffff"/>
    </linearGradient>
    <linearGradient id="linear-gradient-19" x1="569.17" y1="482.72" x2="569.17" y2="452.02" gradientTransform="translate(119.7 983.84) rotate(-18.01) scale(1 -1)" xlink:href="#linear-gradient-15"/>
    <radialGradient id="radial-gradient-2" cx="563.1" cy="-1523.32" fx="563.1" fy="-1523.32" r="29.61" gradientTransform="translate(443.04 1978.32) rotate(-18.01)" xlink:href="#radial-gradient"/>
    <linearGradient id="linear-gradient-20" x1="570" y1="473.76" x2="570" y2="458.61" gradientTransform="translate(119.7 983.84) rotate(-18.01) scale(1 -1)" xlink:href="#linear-gradient-16"/>
    <linearGradient id="linear-gradient-21" x1="569.68" y1="474.25" x2="569.68" y2="458.86" gradientTransform="translate(119.7 983.84) rotate(-18.01) scale(1 -1)" xlink:href="#linear-gradient-17"/>
    <linearGradient id="linear-gradient-22" x1="569.68" y1="474.25" x2="569.68" y2="458.86" gradientTransform="translate(119.7 983.84) rotate(-18.01) scale(1 -1)" xlink:href="#linear-gradient-18"/>
    <linearGradient id="linear-gradient-23" x1="400.34" y1="1807.43" x2="400.34" y2="1776.73" gradientTransform="translate(722.77 1831.17) rotate(-30.74) scale(1 -1)" xlink:href="#linear-gradient-15"/>
    <radialGradient id="radial-gradient-3" cx="394.28" cy="-2848.03" fx="394.28" fy="-2848.03" r="29.61" gradientTransform="translate(1257.29 2729.97) rotate(-30.74)" xlink:href="#radial-gradient"/>
    <linearGradient id="linear-gradient-24" x1="401.17" y1="1798.47" x2="401.17" y2="1783.32" gradientTransform="translate(722.77 1831.17) rotate(-30.74) scale(1 -1)" xlink:href="#linear-gradient-16"/>
    <linearGradient id="linear-gradient-25" x1="400.85" y1="1798.96" x2="400.85" y2="1783.57" gradientTransform="translate(722.77 1831.17) rotate(-30.74) scale(1 -1)" xlink:href="#linear-gradient-17"/>
    <linearGradient id="linear-gradient-26" x1="400.85" y1="1798.96" x2="400.85" y2="1783.57" gradientTransform="translate(722.77 1831.17) rotate(-30.74) scale(1 -1)" xlink:href="#linear-gradient-18"/>
    <linearGradient id="linear-gradient-27" x1="538.82" y1="327.3" x2="616.89" y2="276.22" gradientUnits="userSpaceOnUse">
      <stop offset="0" stop-color="#bf6055"/>
      <stop offset="1" stop-color="#d88771"/>
    </linearGradient>
    <linearGradient id="linear-gradient-28" x1="641.08" y1="123.75" x2="714.77" y2="123.75" gradientTransform="translate(-49.87 -144.06) rotate(18.19)" gradientUnits="userSpaceOnUse">
      <stop offset="0" stop-color="#418ac4"/>
      <stop offset=".52" stop-color="#4b9cd3"/>
    </linearGradient>
    <linearGradient id="linear-gradient-29" x1="643.82" y1="47.27" x2="736.74" y2="255.53" gradientTransform="translate(-49.87 -144.06) rotate(18.19)" gradientUnits="userSpaceOnUse">
      <stop offset="0" stop-color="#4b9cd3"/>
      <stop offset="1" stop-color="#25579a"/>
    </linearGradient>
    <linearGradient id="linear-gradient-30" x1="669.3" y1="98.96" x2="694.07" y2="154.47" gradientTransform="translate(-49.87 -144.06) rotate(18.19)" gradientUnits="userSpaceOnUse">
      <stop offset="0" stop-color="#64c9f9"/>
      <stop offset="1" stop-color="#5ca6db"/>
    </linearGradient>
    <linearGradient id="linear-gradient-31" x1="676.55" y1="79.72" x2="681.56" y2="90.95" xlink:href="#linear-gradient-30"/>
    <linearGradient id="linear-gradient-32" x1="676.55" y1="148.66" x2="681.56" y2="159.89" xlink:href="#linear-gradient-30"/>
    <linearGradient id="linear-gradient-33" x1="676.55" y1="79.72" x2="681.56" y2="90.95" xlink:href="#linear-gradient-30"/>
    <linearGradient id="linear-gradient-34" x1="676.55" y1="148.66" x2="681.56" y2="159.89" xlink:href="#linear-gradient-30"/>
    <linearGradient id="linear-gradient-35" x1="580.62" y1="121.47" x2="654.31" y2="121.47" gradientTransform="translate(-55.47 -19.47) rotate(8.19)" xlink:href="#linear-gradient-28"/>
    <linearGradient id="linear-gradient-36" x1="583.36" y1="44.98" x2="676.28" y2="253.25" gradientTransform="translate(-55.47 -19.47) rotate(8.19)" xlink:href="#linear-gradient-29"/>
    <linearGradient id="linear-gradient-37" x1="608.85" y1="96.67" x2="633.62" y2="152.19" gradientTransform="translate(-55.47 -19.47) rotate(8.19)" xlink:href="#linear-gradient-30"/>
    <linearGradient id="linear-gradient-38" x1="616.1" y1="77.43" x2="621.11" y2="88.67" gradientTransform="translate(-55.47 -19.47) rotate(8.19)" xlink:href="#linear-gradient-30"/>
    <linearGradient id="linear-gradient-39" x1="616.1" y1="146.38" x2="621.11" y2="157.61" gradientTransform="translate(-55.47 -19.47) rotate(8.19)" xlink:href="#linear-gradient-30"/>
    <linearGradient id="linear-gradient-40" x1="521.48" y1="108.72" x2="595.17" y2="108.72" gradientTransform="translate(-39.35 104.2) rotate(-1.81)" xlink:href="#linear-gradient-28"/>
    <linearGradient id="linear-gradient-41" x1="524.22" y1="32.24" x2="617.14" y2="240.5" gradientTransform="translate(-39.35 104.2) rotate(-1.81)" xlink:href="#linear-gradient-29"/>
    <linearGradient id="linear-gradient-42" x1="549.71" y1="83.93" x2="574.48" y2="139.44" gradientTransform="translate(-39.35 104.2) rotate(-1.81)" xlink:href="#linear-gradient-30"/>
    <linearGradient id="linear-gradient-43" x1="556.96" y1="64.69" x2="561.97" y2="75.92" gradientTransform="translate(-39.35 104.2) rotate(-1.81)" xlink:href="#linear-gradient-30"/>
    <linearGradient id="linear-gradient-44" x1="556.96" y1="133.63" x2="561.97" y2="144.87" gradientTransform="translate(-39.35 104.2) rotate(-1.81)" xlink:href="#linear-gradient-30"/>
    <linearGradient id="linear-gradient-45" x1="465.45" y1="85.9" x2="539.14" y2="85.9" gradientTransform="translate(-2 223.19) rotate(-11.81)" xlink:href="#linear-gradient-28"/>
    <linearGradient id="linear-gradient-46" x1="468.19" y1="9.42" x2="561.11" y2="217.68" gradientTransform="translate(-2 223.19) rotate(-11.81)" xlink:href="#linear-gradient-29"/>
    <linearGradient id="linear-gradient-47" x1="493.68" y1="61.11" x2="518.45" y2="116.62" gradientTransform="translate(-2 223.19) rotate(-11.81)" xlink:href="#linear-gradient-30"/>
    <linearGradient id="linear-gradient-48" x1="500.93" y1="41.87" x2="505.94" y2="53.1" gradientTransform="translate(-2 223.19) rotate(-11.81)" xlink:href="#linear-gradient-30"/>
    <linearGradient id="linear-gradient-49" x1="500.93" y1="110.81" x2="505.94" y2="122.04" gradientTransform="translate(-2 223.19) rotate(-11.81)" xlink:href="#linear-gradient-30"/>
    <linearGradient id="linear-gradient-50" x1="414.24" y1="53.69" x2="487.93" y2="53.69" gradientTransform="translate(55.44 333.89) rotate(-21.81)" xlink:href="#linear-gradient-28"/>
    <linearGradient id="linear-gradient-51" x1="416.98" y1="-22.79" x2="509.9" y2="185.48" gradientTransform="translate(55.44 333.89) rotate(-21.81)" xlink:href="#linear-gradient-29"/>
    <linearGradient id="linear-gradient-52" x1="442.46" y1="28.9" x2="467.23" y2="84.42" gradientTransform="translate(55.44 333.89) rotate(-21.81)" xlink:href="#linear-gradient-30"/>
    <linearGradient id="linear-gradient-53" x1="449.71" y1="9.66" x2="454.72" y2="20.9" gradientTransform="translate(55.44 333.89) rotate(-21.81)" xlink:href="#linear-gradient-30"/>
    <linearGradient id="linear-gradient-54" x1="449.71" y1="78.61" x2="454.72" y2="89.84" gradientTransform="translate(55.44 333.89) rotate(-21.81)" xlink:href="#linear-gradient-30"/>
    <linearGradient id="linear-gradient-55" x1="369.39" y1="13.08" x2="443.09" y2="13.08" gradientTransform="translate(131.23 432.93) rotate(-31.81)" xlink:href="#linear-gradient-28"/>
    <linearGradient id="linear-gradient-56" x1="372.13" y1="-63.4" x2="465.05" y2="144.87" gradientTransform="translate(131.23 432.93) rotate(-31.81)" xlink:href="#linear-gradient-29"/>
    <linearGradient id="linear-gradient-57" x1="397.62" y1="-11.71" x2="422.39" y2="43.81" gradientTransform="translate(131.23 432.93) rotate(-31.81)" xlink:href="#linear-gradient-30"/>
    <linearGradient id="linear-gradient-58" x1="404.87" y1="-30.95" x2="409.88" y2="-19.71" gradientTransform="translate(131.23 432.93) rotate(-31.81)" xlink:href="#linear-gradient-30"/>
    <linearGradient id="linear-gradient-59" x1="404.87" y1="38" x2="409.88" y2="49.23" gradientTransform="translate(131.23 432.93) rotate(-31.81)" xlink:href="#linear-gradient-30"/>
    <linearGradient id="linear-gradient-60" x1="522.84" y1="275.02" x2="552.18" y2="255.83" gradientTransform="matrix(1, 0, 0, 1, 0, 0)" xlink:href="#linear-gradient-29"/>
    <linearGradient id="linear-gradient-61" x1="528.09" y1="310.91" x2="606.17" y2="259.83" xlink:href="#linear-gradient-2"/>
    <linearGradient id="linear-gradient-62" x1="546.72" y1="300.6" x2="557.96" y2="293.24" xlink:href="#linear-gradient-2"/>
    <linearGradient id="linear-gradient-63" x1="350.37" y1="-1000.71" x2="362.09" y2="-1000.71" gradientTransform="translate(1053.07 1189.59) rotate(-45)" xlink:href="#linear-gradient-9"/>
    <linearGradient id="linear-gradient-64" x1="248.49" y1="-978.51" x2="256.17" y2="-978.51" gradientTransform="translate(1053.07 1189.59) rotate(-45)" xlink:href="#linear-gradient-9"/>
    <linearGradient id="linear-gradient-65" x1="270.37" y1="-1194.32" x2="278.06" y2="-1194.32" gradientTransform="translate(1053.07 1189.59) rotate(-45)" xlink:href="#linear-gradient-9"/>
  </defs>
  <g class="cls-88">
    <g id="Layer_1" data-name="Layer 1">
      <g>
        <path class="cls-3" d="M620.4,365.68c-33.98,42.53-93.17,54.45-145.62,40.65-6.09-1.6-12.09-3.53-17.98-5.76-28.41-10.77-53.85-28.05-82.85-37.33-44.83-14.34-96.57-7.5-135.58,17.92-15.02,9.79-28.99,22.47-46.85,25.88-16.81,3.21-33.93-2.45-50.05-8.02-29.09-10.06-60.08-21.47-77.56-45.76-10.75-14.94-15.1-33.22-17.05-51.22-9.92-91.39,41.84-186.18,126.17-231.06,30.84-16.41,65.9-26.55,101.23-25.59,35.33,.96,70.82,13.65,95.57,37.64,18.96,18.38,30.8,42.17,41.9,65.65,11.1,23.47,22.06,47.51,39.73,67,19.55,21.56,49.69,36.91,80.18,30.5,34.74-7.3,61.55-43.89,98.89-40.53,7.07,.64,14.25,3.72,18.24,9.6,4.33,6.38,4.19,14.68,3.91,22.38-1.39,38.11-2.8,77.88-21.16,111.31-3.31,6.02-7.04,11.59-11.13,16.72Z"/>
        <path class="cls-29" d="M46.08,292.94s11.11-11.3,15.75-18.65c4.64-7.35,39.08-42.95,50.3-50.3,11.22-7.35,68.88-33.28,68.88-33.28v93.25l-33.28,13.93s-27.86,23.6-57.27,20.12c0,0-15.89,12.41-28.27,32.92,0,0-15.62-24.26-16.11-57.99Z"/>
        <polygon class="cls-11" points="268.66 294.41 238.67 196.51 207.71 266.96 256.85 307.56 268.66 294.41"/>
        <path class="cls-12" d="M153.96,233.25c-5.43-4.32-13.47-11.18-15.3-15.27,0,0,3.21,12.32,10.43,19.36l-43.53,23.04s11.06,5.65,23.61,5.14c-3.08,7.14-13.39,26.27-35.9,27.43,0,0,23.41,7.18,45.38-29.12,0,0-2.28,10.92,2.96,14.85,5.24,3.93,30.13,9.15,30.13,9.15v-69.86l-17.79,15.27Z"/>
        <g>
          <path class="cls-17" d="M267.94,145.51c-.73-4.4-4.64-9.9-8.13-10.49-.33-.06-1.64,1.1-3.74,3.23l-49.01-3.87c-3.73-.29-7.21,1.92-8.51,5.43l-44.03,118.66c-5.77,7.45-9.22,12.28-9.06,12.97,.76,3.13,3.82,7.77,7.46,10.03,.77,.5,1.63,.89,2.58,1.13l51.35,12.71c4.16,1.03,8.43-1.25,9.88-5.28l50.7-140.26c.5-1.39,.6-2.8,.39-4.13l.11-.13Z"/>
          <path class="cls-17" d="M204.61,129.79l53.12,4.77c5.5,.49,9.03,6.09,7.09,11.27l-52.2,139.71c-1.5,4.02-5.79,6.25-9.94,5.17l-51.21-13.26c-4.84-1.25-7.51-6.44-5.72-11.1l50.3-131.21c1.34-3.5,4.84-5.68,8.57-5.34Z"/>
          <path class="cls-27" d="M204.1,132.14l52.7,4.91c3.58,.33,5.85,3.98,4.59,7.34l-48.82,129.45c-1.34,3.55-5.12,5.54-8.8,4.63l-46.04-11.36c-4.36-1.08-6.8-5.72-5.21-9.92l45.99-121.55c.87-2.29,3.16-3.72,5.59-3.49Z"/>
        </g>
        <path class="cls-28" d="M201.89,256.6l-29.37-7.26c-2.95-.73-4.59-3.89-3.65-7.05h0c.94-3.16,4.09-5.14,7.05-4.41l29.37,7.26c2.95,.73,4.59,3.89,3.65,7.05h0c-.94,3.16-4.09,5.14-7.05,4.41Z"/>
        <path class="cls-32" d="M116.39,229.79s15.48,4.26,23.22,4.26h13.16l30.18,12s3.1,13.93-11.22,14.32c-14.32,.39-31.34-3.48-31.34-3.48,0,0-19.73,5.08-34.83,3.51,0,0-1.55-29.82,10.83-30.6Z"/>
        <path class="cls-30" d="M182.95,246.04l-30.18-12h-13.16c-7.74,0-23.22-4.26-23.22-4.26-2.65,.17-4.66,1.67-6.19,3.93,.83-.42,1.74-.69,2.76-.76,0,0,15.48,4.26,23.22,4.26h13.16l30.18,12s1.22,5.49-1.42,9.67c6.89-3.66,4.85-12.84,4.85-12.84Z"/>
        <path class="cls-31" d="M266.92,309.89c-2.51,11.81-15.94,47.12-17.94,64.9-3.73,1.99-7.36,4.14-10.89,6.44-14.1,9.19-27.28,20.93-43.62,25.15,.12-.6,5.07-26.28,.47-44.26-4.64-18.18-7.35-36.76,0-61.52,7.36-24.77,17.03-42.18,17.03-42.18,0,0,6.58-37.14,14.32-40.63,7.74-3.48,17.02-1.16,13.15,20.12-3.87,21.29-7.35,36.76-7.35,36.76l4.64-6.19,10.45-40.63-5.12-7.89,8.08-22.35,15.25,23.62c.99,1.54,1.49,3.34,1.42,5.16-.38,10.32-1.55,45.99,.11,52.93,1.93,8.12,2.7,17.8,0,30.57Z"/>
        <path class="cls-11" d="M182.95,246.04s-16.01-6.39-17.33-4.64c-1.32,1.76-2.92,7.84,11.87,10.63,0,0,3.91-.58,5.46-6Z"/>
        <path class="cls-25" d="M224.79,221.94s7.13-5.06,13.39,1.95c0,0-1.13,7.2-2.1,10.12s-11.48,3.89-12.46-1.36c-.97-5.26,1.17-10.71,1.17-10.71Z"/>
        <path class="cls-11" d="M216.67,246.57s9.83-1.58,18.21,3.37c0,0-6.72-9.4-18.21-3.37Z"/>
        <g>
          <path class="cls-8" d="M389.2,203.27c-.39,0-.77-.16-1.06-.46-.54-.58-.51-1.5,.08-2.04,1.43-1.32,2.91-2.62,4.4-3.85,.61-.51,1.52-.42,2.03,.19,.51,.61,.42,1.52-.19,2.03-1.45,1.2-2.89,2.46-4.28,3.75-.28,.26-.63,.38-.98,.38Z"/>
          <path class="cls-8" d="M382.93,348.73c-3.71,0-7.38-1.27-10.92-3.76-.65-.46-.81-1.36-.35-2.01,.46-.65,1.36-.81,2.01-.35,3.23,2.28,6.52,3.38,9.85,3.22,.81-.02,1.47,.58,1.5,1.38s-.58,1.47-1.38,1.5c-.24,0-.49,.02-.73,.02Zm9.45-3.42c-.41,0-.82-.17-1.1-.51-.51-.61-.44-1.52,.17-2.03,2.51-2.11,4.41-5.3,5.37-8.98,.2-.77,.99-1.23,1.76-1.03,.77,.2,1.23,.99,1.03,1.76-1.1,4.25-3.34,7.97-6.3,10.46-.27,.23-.6,.34-.93,.34Zm-26.33-6.8c-.43,0-.86-.2-1.15-.57-2.3-3-4.35-6.55-5.95-10.25-.31-.73,.02-1.58,.75-1.89,.73-.31,1.58,.02,1.9,.75,1.5,3.49,3.43,6.82,5.59,9.64,.48,.63,.36,1.54-.27,2.02-.26,.2-.57,.3-.87,.3Zm32.6-12.44c-.69,0-1.3-.5-1.42-1.2-.2-1.19-.51-2.35-.91-3.44-.82-2.21-1.97-4.37-3.43-6.41-.46-.65-.31-1.55,.33-2.01,.65-.46,1.55-.31,2.01,.33,1.61,2.25,2.89,4.64,3.79,7.09,.46,1.26,.82,2.59,1.05,3.96,.13,.79-.4,1.53-1.18,1.66-.08,.01-.16,.02-.24,.02Zm-41.52-6.56c-.62,0-1.2-.41-1.38-1.04-1.08-3.69-1.98-7.52-2.66-11.36-.14-.78,.38-1.53,1.17-1.67,.78-.14,1.53,.38,1.67,1.17,.67,3.74,1.54,7.46,2.59,11.06,.22,.76-.21,1.57-.98,1.79-.14,.04-.27,.06-.41,.06Zm30.38-10.88c-.33,0-.66-.11-.93-.34-2.62-2.22-5.65-4.3-9.26-6.37-.69-.4-.93-1.28-.53-1.97,.4-.69,1.28-.93,1.97-.54,3.76,2.16,6.93,4.34,9.69,6.67,.61,.51,.68,1.42,.17,2.03-.29,.34-.69,.51-1.1,.51Zm-102.5-.72c-1.44,0-2.76-.34-3.93-1-.69-.39-.93-1.27-.54-1.97,.39-.69,1.27-.94,1.97-.54,2.22,1.26,5.67,.51,9.24-1.92,.66-.45,1.56-.28,2,.38s.28,1.56-.38,2c-2.04,1.38-5.15,3.04-8.36,3.04Zm68.22-9.13c-.74,0-1.37-.56-1.44-1.31-.31-3.4-.46-6.88-.46-10.33,0-.44,0-.88,0-1.33,0-.79,.65-1.43,1.44-1.43h.02c.8,0,1.44,.66,1.43,1.46,0,.43,0,.86,0,1.29,0,3.36,.15,6.75,.45,10.07,.07,.79-.51,1.49-1.31,1.57-.04,0-.09,0-.13,0Zm-74.26-.08c-.14,0-.28-.02-.41-.06-.76-.23-1.2-1.03-.97-1.8,.53-1.77,1.48-3.39,2.73-4.67,1.58-1.61,3.62-2.87,6.22-3.87,.75-.28,1.58,.09,1.86,.83,.28,.74-.09,1.58-.83,1.86-2.2,.84-3.9,1.89-5.19,3.2-.92,.93-1.64,2.16-2.03,3.47-.19,.62-.76,1.03-1.38,1.03Zm20.43-.27c-.32,0-.65-.11-.92-.33-.61-.51-.7-1.42-.2-2.03,2.22-2.7,4.39-5.59,6.45-8.61-2.73,.32-5.45,.74-8.13,1.25-.78,.15-1.54-.37-1.69-1.15s.36-1.54,1.15-1.69c3.79-.72,7.68-1.27,11.54-1.62,.79-.07,1.49,.51,1.57,1.31,.07,.79-.51,1.5-1.31,1.57-.09,0-.19,.02-.28,.03,.2,.44,.17,.97-.12,1.4-2.21,3.28-4.56,6.42-6.96,9.34-.29,.35-.7,.53-1.11,.53Zm70.09-.71c-.2,0-.41-.04-.6-.13-3.42-1.58-6.97-3.01-10.55-4.25-.75-.26-1.15-1.08-.89-1.84,.26-.75,1.08-1.15,1.84-.89,3.67,1.28,7.3,2.74,10.81,4.36,.72,.33,1.04,1.19,.71,1.91-.24,.53-.77,.84-1.31,.84Zm-19.86-7.09c-.12,0-.24-.01-.37-.05-3.65-.95-7.39-1.75-11.13-2.36-.79-.13-1.32-.87-1.19-1.66,.13-.79,.87-1.32,1.66-1.19,3.83,.62,7.66,1.44,11.4,2.41,.77,.2,1.23,.99,1.03,1.76-.17,.65-.75,1.08-1.39,1.08Zm-20.79-3.56s-.08,0-.12,0c-3.77-.32-7.58-.45-11.37-.41-.81-.02-1.45-.63-1.46-1.43s.63-1.45,1.43-1.46c3.87-.04,7.78,.1,11.64,.42,.79,.07,1.38,.76,1.32,1.56-.06,.75-.69,1.32-1.44,1.32Zm-17.47-6.01c-.24,0-.49-.06-.72-.19-.69-.4-.93-1.28-.53-1.97,1.87-3.23,3.65-6.63,5.31-10.09,.34-.72,1.21-1.02,1.92-.68,.72,.34,1.02,1.2,.68,1.92-1.69,3.53-3.51,6.99-5.41,10.29-.27,.46-.75,.72-1.25,.72Zm41.91-3.37s-.09,0-.14,0c-.79-.07-1.38-.78-1.3-1.57,.36-3.85,.91-7.73,1.64-11.54,.15-.78,.9-1.29,1.69-1.15,.78,.15,1.29,.91,1.15,1.69-.71,3.72-1.25,7.51-1.6,11.26-.07,.75-.7,1.31-1.43,1.31Zm-32.69-15.6c-.18,0-.36-.03-.54-.11-.74-.3-1.1-1.14-.8-1.88,1.42-3.5,2.73-7.11,3.89-10.73,.25-.76,1.06-1.17,1.82-.93,.76,.24,1.17,1.06,.93,1.82-1.19,3.68-2.52,7.35-3.97,10.92-.23,.56-.77,.9-1.34,.9Zm36.49-5.15c-.13,0-.26-.02-.38-.05-.77-.21-1.22-1.01-1.01-1.77,1.03-3.74,2.25-7.46,3.63-11.07,.28-.74,1.12-1.12,1.86-.83,.74,.28,1.12,1.12,.83,1.86-1.35,3.53-2.54,7.16-3.54,10.81-.18,.64-.76,1.06-1.39,1.06Zm-29.88-14.9c-.12,0-.24-.01-.36-.05-.77-.2-1.23-.99-1.04-1.76,.95-3.69,1.78-7.44,2.45-11.15,.14-.78,.89-1.3,1.68-1.16,.78,.14,1.3,.89,1.16,1.68-.69,3.78-1.52,7.6-2.5,11.35-.17,.65-.75,1.08-1.4,1.08Zm37.24-4.87c-.21,0-.42-.04-.62-.14-.72-.34-1.02-1.2-.68-1.92,1.67-3.51,3.54-6.96,5.53-10.26,.41-.68,1.3-.9,1.98-.49,.68,.41,.9,1.3,.49,1.98-1.95,3.22-3.76,6.58-5.39,10.01-.25,.52-.76,.82-1.3,.82Zm-33.35-15.88c-.06,0-.11,0-.17,0-.79-.09-1.36-.81-1.27-1.6,.44-3.82,.73-7.64,.86-11.37,.03-.8,.69-1.44,1.49-1.39,.8,.03,1.42,.69,1.39,1.49-.13,3.81-.42,7.71-.88,11.61-.09,.73-.71,1.28-1.43,1.28Zm44.12-2.25c-.29,0-.59-.09-.85-.28-.64-.47-.79-1.37-.32-2.01,2.29-3.15,4.76-6.2,7.34-9.07,.53-.59,1.45-.64,2.04-.11,.59,.53,.64,1.44,.11,2.04-2.51,2.79-4.92,5.76-7.15,8.83-.28,.39-.72,.59-1.17,.59Zm-43.28-18.84c-.77,0-1.41-.61-1.44-1.38-.16-3.85-.5-7.66-1.01-11.33-.11-.79,.44-1.52,1.23-1.63,.79-.1,1.52,.44,1.63,1.23,.53,3.76,.88,7.67,1.04,11.61,.03,.8-.59,1.47-1.38,1.5-.02,0-.04,0-.06,0Zm-2.79-20.9c-.65,0-1.25-.45-1.4-1.11-.89-3.75-1.99-7.4-3.28-10.84-.28-.75,.1-1.58,.84-1.86,.75-.28,1.58,.1,1.86,.84,1.33,3.56,2.47,7.33,3.39,11.19,.18,.78-.3,1.55-1.07,1.74-.11,.03-.22,.04-.33,.04Zm-7.12-19.83c-.54,0-1.05-.3-1.3-.82-1.62-3.38-3.44-6.76-5.39-10.02-.41-.68-.19-1.57,.5-1.98,.68-.41,1.57-.19,1.98,.5,2,3.34,3.86,6.79,5.52,10.25,.34,.72,.04,1.58-.68,1.92-.2,.1-.41,.14-.62,.14Zm-172.32-18.06c-.12,0-.25-.02-.37-.05-.77-.21-1.23-1-1.02-1.77,.96-3.61,2.39-7.31,4.23-11.01,.36-.71,1.22-1,1.93-.65,.71,.36,1,1.22,.65,1.93-1.76,3.53-3.11,7.05-4.02,10.47-.17,.64-.76,1.07-1.39,1.07Zm161.62-.12c-.45,0-.9-.21-1.18-.61-2.18-3.09-4.53-6.12-6.98-9-.52-.61-.44-1.52,.17-2.03,.61-.52,1.52-.44,2.03,.17,2.5,2.95,4.9,6.05,7.13,9.2,.46,.65,.3,1.55-.35,2.01-.25,.18-.54,.26-.83,.26Zm-13.53-16.19c-.37,0-.75-.14-1.03-.43-2.66-2.71-5.47-5.32-8.34-7.75-.61-.52-.68-1.43-.17-2.03,.52-.61,1.43-.68,2.03-.17,2.94,2.49,5.81,5.16,8.53,7.93,.56,.57,.55,1.48-.02,2.04-.28,.28-.65,.41-1.01,.41Zm-139.09-2.69c-.28,0-.57-.08-.81-.25-.66-.45-.82-1.35-.37-2.01,2.2-3.21,4.69-6.28,7.39-9.12,.55-.58,1.46-.6,2.04-.05s.6,1.46,.05,2.04c-2.59,2.73-4.98,5.68-7.1,8.77-.28,.41-.73,.63-1.19,.63Zm123.1-11.08c-.29,0-.59-.09-.84-.27-3.09-2.24-6.29-4.33-9.53-6.23-.69-.4-.92-1.29-.51-1.97,.4-.69,1.29-.92,1.97-.51,3.31,1.94,6.59,4.09,9.76,6.38,.65,.47,.79,1.37,.32,2.01-.28,.39-.72,.6-1.17,.6Zm-108.81-4.38c-.42,0-.84-.18-1.12-.54-.5-.62-.4-1.53,.21-2.03,3.04-2.46,6.3-4.69,9.68-6.63,.69-.4,1.57-.16,1.97,.53,.4,.69,.16,1.57-.53,1.97-3.25,1.86-6.38,4.01-9.3,6.37-.27,.22-.59,.32-.91,.32Zm90.69-6.43c-.21,0-.42-.04-.62-.14-3.45-1.65-6.98-3.11-10.49-4.35-.75-.26-1.15-1.09-.88-1.84,.27-.75,1.09-1.14,1.84-.88,3.62,1.27,7.24,2.78,10.78,4.47,.72,.34,1.02,1.2,.68,1.92-.25,.52-.76,.82-1.3,.82Zm-72.59-4.28c-.57,0-1.11-.34-1.34-.9-.3-.74,.05-1.58,.79-1.88,3.58-1.46,7.34-2.67,11.16-3.58,.77-.18,1.55,.29,1.74,1.07,.18,.77-.29,1.55-1.07,1.74-3.68,.88-7.29,2.04-10.74,3.44-.18,.07-.36,.11-.55,.11Zm52.76-2.89c-.12,0-.23-.01-.35-.04-3.69-.92-7.44-1.62-11.14-2.08-.79-.1-1.35-.82-1.25-1.61,.1-.79,.82-1.34,1.61-1.25,3.81,.47,7.68,1.19,11.48,2.14,.77,.19,1.24,.97,1.05,1.75-.16,.66-.75,1.09-1.4,1.09Zm-32.37-2.27c-.72,0-1.35-.54-1.43-1.28-.09-.79,.48-1.51,1.27-1.6,3.23-.37,6.57-.55,9.93-.55,.61,0,1.18,0,1.75,.02,.8,.02,1.43,.67,1.41,1.47-.02,.8-.66,1.43-1.47,1.42-3.83-.08-7.65,.1-11.3,.52-.06,0-.11,0-.16,0Z"/>
          <path class="cls-8" d="M149.33,156.74c-.58,0-1.13-.36-1.35-.93-.66-1.74-1.01-3.8-1.05-6.14-.01-.8,.62-1.45,1.42-1.47,.79,.03,1.45,.62,1.47,1.42,.04,2.01,.33,3.75,.87,5.18,.28,.75-.1,1.58-.84,1.86-.17,.06-.34,.09-.51,.09Z"/>
        </g>
        <g>
          <polygon class="cls-16" points="401.75 193.73 378.73 230.95 362.47 223.83 371.1 220.85 361.43 216.86 401.75 193.73"/>
          <polygon class="cls-26" points="363.38 241.35 401.75 193.73 359.98 203.58 361.43 216.86 399.18 195.2 362.47 223.83 363.38 241.35"/>
        </g>
        <path class="cls-9" d="M436.48,267.65c1.82-.14,3.2-1.74,3.06-3.56-.14-1.82-1.74-3.2-3.56-3.06l-18.7,1.4-7.51,.56c-1.82,.14-3.2,1.74-3.06,3.56s1.74,3.2,3.56,3.06l7.51-.56c3.21-.24,6.1,1.44,7.56,4.09l-14.69,1.1c-1.82,.14-3.2,1.74-3.06,3.56s1.74,3.2,3.56,3.06l14.69-1.1c-1.05,2.81-3.66,4.93-6.87,5.17l-7.51,.56c-1.36,.1-2.52,1.02-2.92,2.32-.4,1.29,0,2.73,1.07,3.58l20.06,16.3c.67,.55,1.52,.78,2.35,.72,.89-.07,1.73-.5,2.34-1.21,1.16-1.42,.94-3.5-.48-4.66l-13.61-11.06c6.49-.85,11.54-5.92,12.53-12.22l4.53-.34c1.82-.14,3.2-1.74,3.06-3.56s-1.74-3.2-3.56-3.06l-4.53,.34c-.52-1.63-1.3-3.16-2.33-4.48l6.52-.49v-.03Z"/>
        <path class="cls-9" d="M130.7,146.76c2.3-.41,3.84-2.62,3.44-4.92-.41-2.3-2.62-3.84-4.92-3.44l-23.6,4.18-9.48,1.68c-2.3,.41-3.84,2.62-3.44,4.92s2.62,3.84,4.92,3.44l9.48-1.68c4.05-.72,7.94,1.05,10.14,4.23l-18.54,3.28c-2.3,.41-3.84,2.62-3.44,4.92,.41,2.3,2.62,3.84,4.92,3.44l18.54-3.28c-.98,3.71-4.02,6.74-8.07,7.46l-9.48,1.68c-1.71,.3-3.07,1.62-3.42,3.32-.35,1.7,.36,3.47,1.82,4.42l27.6,18.16c.93,.61,2.04,.8,3.08,.62,1.13-.2,2.13-.85,2.82-1.83,1.29-1.95,.74-4.57-1.21-5.86l-18.72-12.32c8.15-1.92,13.91-9.01,14.37-17.15l5.72-1.01c2.3-.41,3.84-2.62,3.44-4.92-.41-2.3-2.62-3.84-4.92-3.44l-5.72,1.01c-.87-2-2.06-3.86-3.54-5.4l8.23-1.46v-.04Z"/>
        <polygon class="cls-37" points="223.43 134.82 208.73 132.25 185.88 275.03 199.96 279.59 223.43 134.82"/>
        <g>
          <path class="cls-71" d="M258.35,222.33l-73.63-18.4c-1.24-.31-1.8-1.76-1.25-3.23l16.29-43.46c.51-1.35,1.91-2.31,3.15-2.15l72.64,9.73c1.67,.22,2.64,1.7,2.17,3.3l-15.33,51.78c-.52,1.77-2.34,2.86-4.04,2.43Z"/>
          <g class="cls-34">
            <path class="cls-70" d="M202.92,155.1c-1.24-.17-2.65,.79-3.15,2.15l-12.44,33.2c35.83-2.35,66.85-19.27,79.1-26.84l-63.5-8.5Z"/>
          </g>
          <g>
            <path class="cls-6" d="M204.91,180.82l-6.4-1.21c-1.16-.22-1.71-1.46-1.23-2.77l1.83-4.95c.48-1.29,1.8-2.18,2.97-1.99l6.39,1.06c1.2,.2,1.8,1.43,1.32,2.76l-1.82,5.07c-.48,1.34-1.85,2.24-3.06,2.02Z"/>
            <path class="cls-2" d="M204.13,177.1l-2.43-.44c-.3-.05-.45-.37-.32-.71l.7-1.91c.12-.33,.47-.56,.77-.51l2.43,.42c.3,.05,.45,.37,.33,.71l-.7,1.93c-.12,.34-.47,.57-.78,.51Z"/>
            <line class="cls-2" x1="205.26" y1="170.44" x2="204.05" y2="173.73"/>
            <line class="cls-2" x1="202.85" y1="177.05" x2="201.63" y2="180.39"/>
            <line class="cls-1" x1="198.17" y1="174.45" x2="201.68" y2="175.08"/>
            <line class="cls-1" x1="205.24" y1="175.71" x2="208.85" y2="176.35"/>
            <polyline class="cls-1" points="202.49 173.58 201.69 172.04 199.22 171.62"/>
            <polyline class="cls-1" points="204.55 176.87 205.37 178.45 207.93 178.92"/>
            <polyline class="cls-1" points="205.55 174.11 207.34 173 209.9 173.44"/>
            <polyline class="cls-1" points="201.49 176.31 199.72 177.41 197.25 176.96"/>
          </g>
          <path class="cls-7" d="M222.75,162.5l-17.59-2.53c-.85-.12-1.81,.53-2.16,1.46h0c-.34,.93,.06,1.79,.91,1.92l17.61,2.67c.92,.14,1.94-.54,2.28-1.51h0c.34-.97-.13-1.87-1.05-2Z"/>
          <path class="cls-7" d="M210.43,197.61l-17.7-3.94c-.85-.19-1.84,.46-2.21,1.45h0c-.37,.99,.03,1.96,.88,2.15l17.71,4.1c.93,.21,1.97-.46,2.34-1.5h0c.36-1.04-.1-2.05-1.02-2.26Z"/>
          <path class="cls-7" d="M205.87,185.21l-8.72-1.73c-1.2-.24-2.57,.67-3.07,2.03h0c-.5,1.36,.05,2.67,1.25,2.92l8.72,1.83c1.25,.26,2.68-.67,3.18-2.07h0c.5-1.4-.11-2.74-1.36-2.99Z"/>
          <path class="cls-7" d="M222.25,188.46l-9.34-1.85c-1.28-.25-2.72,.68-3.22,2.09h0c-.5,1.41,.12,2.78,1.41,3.05l9.35,1.96c1.34,.28,2.84-.68,3.33-2.14h0c.5-1.46-.19-2.85-1.53-3.12Z"/>
          <path class="cls-7" d="M239.84,191.94l-10.03-1.99c-1.37-.27-2.88,.69-3.38,2.16h0c-.5,1.47,.21,2.9,1.58,3.19l10.04,2.11c1.44,.3,3.01-.69,3.5-2.21h0c.49-1.52-.29-2.97-1.73-3.26Z"/>
          <path class="cls-7" d="M258.77,195.69l-10.8-2.14c-1.48-.29-3.06,.71-3.55,2.23h0c-.49,1.53,.31,3.02,1.79,3.33l10.82,2.27c1.55,.33,3.21-.7,3.69-2.28h0c.48-1.58-.4-3.11-1.95-3.41Z"/>
          <g>
            <path class="cls-19" d="M264.45,173.13c-.76,2.47-3.41,4.15-5.89,3.75s-3.82-2.69-3.05-5.11c.76-2.41,3.35-4.07,5.8-3.72,2.48,.36,3.89,2.63,3.14,5.09Z"/>
            <path class="cls-7" d="M270.03,173.98c-.75,2.5-3.44,4.19-5.98,3.78-2.51-.41-3.91-2.73-3.15-5.18,.76-2.44,3.38-4.12,5.89-3.76,2.53,.36,3.99,2.67,3.24,5.15Z"/>
          </g>
        </g>
        <path class="cls-4" d="M248.4,383.37c-5.64,4.33-10.9,9.82-12.52,16.74-1.62,6.92,1.66,15.35,8.46,17.4,6.45,1.94,13.15-2.25,17.77-7.14s8.44-10.83,14.37-14.03c4.87-2.63,10.59-3.08,16.12-3.31,5.53-.23,11.21-.31,16.36-2.34,7.74-3.04,13.3-11.4,7.77-18.94-4.32-5.9-9.7-4.84-16.08-4.56-19.2,.84-36.6,4.15-52.26,16.18Z"/>
        <path class="cls-5" d="M433.56,137.49c13.71,22.01,27.14,44.17,47.42,60.79,19.97,16.36,47.69,25.66,72.09,17.23,5.29-1.83,10.43-4.54,14.02-8.83,3.59-4.29,5.37-10.37,3.5-15.64-2-5.64-7.67-9.27-13.47-10.74-5.8-1.47-11.87-1.19-17.85-1.48-40.68-1.94-63.59-28.13-86.66-58.13-13.53-17.59-29.93-35.22-51.69-39.58-.94-.19-1.94-.35-2.85-.04-1.86,.64-2.57,3.05-2.03,4.94s1.99,3.36,3.36,4.77c13.52,13.9,23.92,30.26,34.16,46.71Z"/>
        <g class="cls-33">
          <g>
            <g>
              <circle class="cls-10" cx="333.1" cy="199.75" r="15.35"/>
              <circle class="cls-66" cx="333.1" cy="199.75" r="15.35"/>
            </g>
            <circle class="cls-36" cx="333.1" cy="199.75" r="12.92"/>
            <path class="cls-18" d="M345.99,200.69c.13-3.33-1.01-6.71-3.47-9.33-4.87-5.22-13.05-5.5-18.26-.63-2.48,2.31-3.84,5.37-4.07,8.5,.13-3.28,1.5-6.51,4.09-8.93,5.22-4.87,13.39-4.59,18.26,.63,2.56,2.74,3.69,6.3,3.44,9.76Z"/>
            <path class="cls-14" d="M323.7,207.94c4.87,5.22,13.05,5.5,18.26,.63,2.37-2.22,3.73-5.12,4.04-8.11-.18,3.21-1.55,6.37-4.08,8.74-5.22,4.87-13.39,4.59-18.26-.63-2.65-2.84-3.78-6.57-3.41-10.15-.19,3.39,.96,6.85,3.46,9.53Z"/>
            <path class="cls-68" d="M341.59,199.64c.14-.13,.14-.35,.01-.49l-6.18-6.62c-.13-.14-.35-.15-.49-.02l-1.01,.94c-.14,.13-.14,.35-.01,.49l1.66,1.77c.62,.66,.83,1.56,.65,2.37-.04,.16-.24,.2-.35,.08l-3.02-3.23c-.13-.14-.35-.15-.49-.02l-.8,.74c-.14,.13-.14,.35-.01,.49l3.16,3.39c.1,.11,.07,.29-.07,.34-.94,.35-2.06,.11-2.8-.69l-1.66-1.77c-.13-.14-.35-.15-.49-.02l-1.17,1.1c-.06,.05-.1,.13-.11,.21l-.96,7.63c-.01,.1,.02,.21,.09,.29l1.19,1.27c.2,.22,.56,.11,.6-.18l.89-7.06c0-.05,.07-.07,.1-.03,1.57,1.68,4.06,1.99,5.91,.84,.1-.06,.22-.05,.3,.04l1.2,1.29c.13,.14,.35,.15,.49,.02l.8-.74c.14-.13,.14-.35,.01-.49l-1.27-1.36c-.07-.08-.08-.19-.03-.28,.23-.38,.4-.79,.5-1.22,.05-.18,.29-.26,.42-.12l1.66,1.78c.13,.14,.35,.15,.49,.02l.8-.74Z"/>
            <path class="cls-18" d="M341.6,200c.14-.13,.14-.35,.01-.49l-6.18-6.62c-.13-.14-.35-.15-.49-.02l-1.01,.94c-.14,.13-.14,.35-.01,.49l1.66,1.77c.62,.66,.83,1.56,.65,2.37-.04,.16-.24,.2-.35,.08l-3.02-3.23c-.13-.14-.35-.15-.49-.02l-.8,.74c-.14,.13-.14,.35-.01,.49l3.16,3.39c.1,.11,.07,.29-.07,.34-.94,.35-2.06,.11-2.8-.69l-1.66-1.77c-.13-.14-.35-.15-.49-.02l-1.17,1.1c-.06,.05-.1,.13-.11,.21l-.96,7.63c-.01,.1,.02,.21,.09,.29l1.19,1.27c.2,.22,.56,.11,.6-.18l.89-7.06c0-.05,.07-.07,.1-.03,1.57,1.68,4.06,1.99,5.91,.84,.1-.06,.22-.05,.3,.04l1.2,1.29c.13,.14,.35,.15,.49,.02l.8-.74c.14-.13,.14-.35,.01-.49l-1.27-1.36c-.07-.08-.08-.19-.03-.28,.23-.38,.4-.79,.5-1.22,.05-.18,.28-.26,.42-.12l1.66,1.78c.13,.14,.35,.15,.49,.02l.8-.74Z"/>
            <path class="cls-69" d="M341.55,199.23c.14-.13,.14-.35,.01-.49l-6.18-6.62c-.13-.14-.35-.15-.49-.02l-1.01,.94c-.14,.13-.14,.35-.01,.49l1.66,1.77c.62,.66,.83,1.56,.65,2.37-.04,.16-.24,.2-.35,.08l-3.02-3.23c-.13-.14-.35-.15-.49-.02l-.8,.74c-.14,.13-.14,.35-.01,.49l3.16,3.39c.1,.11,.07,.29-.07,.34-.94,.35-2.06,.11-2.8-.69l-1.66-1.77c-.13-.14-.35-.15-.49-.02l-1.17,1.1c-.06,.05-.1,.13-.11,.21l-.96,7.63c-.01,.1,.02,.21,.09,.29l1.19,1.27c.2,.22,.56,.11,.6-.18l.89-7.06c0-.05,.07-.07,.1-.03,1.57,1.68,4.06,1.99,5.91,.84,.1-.06,.22-.05,.3,.04l1.2,1.29c.13,.14,.35,.15,.49,.02l.8-.74c.14-.13,.14-.35,.01-.49l-1.27-1.36c-.07-.08-.08-.19-.03-.28,.23-.38,.4-.79,.5-1.22,.05-.18,.29-.26,.42-.12l1.66,1.78c.13,.14,.35,.15,.49,.02l.8-.74Z"/>
            <path class="cls-61" d="M341.55,199.23c.14-.13,.14-.35,.01-.49l-6.18-6.62c-.13-.14-.35-.15-.49-.02l-1.01,.94c-.14,.13-.14,.35-.01,.49l1.66,1.77c.62,.66,.83,1.56,.65,2.37-.04,.16-.24,.2-.35,.08l-3.02-3.23c-.13-.14-.35-.15-.49-.02l-.8,.74c-.14,.13-.14,.35-.01,.49l3.16,3.39c.1,.11,.07,.29-.07,.34-.94,.35-2.06,.11-2.8-.69l-1.66-1.77c-.13-.14-.35-.15-.49-.02l-1.17,1.1c-.06,.05-.1,.13-.11,.21l-.96,7.63c-.01,.1,.02,.21,.09,.29l1.19,1.27c.2,.22,.56,.11,.6-.18l.89-7.06c0-.05,.07-.07,.1-.03,1.57,1.68,4.06,1.99,5.91,.84,.1-.06,.22-.05,.3,.04l1.2,1.29c.13,.14,.35,.15,.49,.02l.8-.74c.14-.13,.14-.35,.01-.49l-1.27-1.36c-.07-.08-.08-.19-.03-.28,.23-.38,.4-.79,.5-1.22,.05-.18,.29-.26,.42-.12l1.66,1.78c.13,.14,.35,.15,.49,.02l.8-.74Z"/>
            <path class="cls-15" d="M337.72,199.79c-.04,.09-.01,.2,.06,.28l1.25,1.33s.03,.04,.05,.06c.02-.11,0-.23-.09-.32l-1.25-1.33s-.01-.02-.02-.02Z"/>
            <path class="cls-15" d="M327.45,206.14l.96-7.59c0-.08,.05-.15,.11-.21l1.17-1.1c.14-.13,.36-.12,.49,.02l1.66,1.77c.74,.8,1.86,1.03,2.81,.68,.14-.05,.16-.22,.06-.35-.02,.04-.05,.07-.1,.09-.95,.35-2.06,.11-2.81-.68l-1.66-1.77c-.13-.14-.35-.15-.49-.02l-1.17,1.1c-.06,.05-.1,.13-.11,.21l-.96,7.63c0,.08,0,.16,.05,.22Z"/>
            <path class="cls-15" d="M331.45,195.68c.01-.07,.05-.13,.1-.17l.8-.74c.14-.13,.36-.12,.49,.02l3,3.21c.13,.14,.33,.11,.37-.05,.09-.37,.09-.76,0-1.13,.03,.29,.02,.59-.05,.87-.04,.16-.25,.19-.37,.05l-3-3.21c-.13-.14-.35-.15-.49-.02l-.8,.74c-.12,.11-.14,.29-.06,.43Z"/>
            <path class="cls-15" d="M333.82,193.47c-.08-.14-.06-.32,.06-.43l1.01-.94c.14-.13,.36-.12,.49,.02l6.18,6.62c.08,.09,.11,.21,.09,.32-.01-.02-.03-.04-.05-.06l-6.18-6.62c-.13-.14-.35-.15-.49-.02l-1.01,.94c-.05,.05-.09,.11-.1,.17Z"/>
          </g>
        </g>
        <g class="cls-33">
          <g>
            <g>
              <circle class="cls-10" cx="516.48" cy="363.38" r="15.35"/>
              <circle class="cls-67" cx="516.48" cy="363.38" r="15.35"/>
            </g>
            <circle class="cls-22" cx="516.47" cy="363.38" r="12.92"/>
            <path class="cls-18" d="M522.78,352.1c-2.96-1.53-6.51-1.92-9.92-.81-6.79,2.21-10.5,9.5-8.29,16.28,1.05,3.22,3.24,5.75,5.99,7.29-2.92-1.51-5.26-4.12-6.36-7.49-2.21-6.79,1.51-14.08,8.29-16.28,3.56-1.16,7.27-.69,10.3,1.01Z"/>
            <path class="cls-14" d="M519.93,375.36c6.79-2.21,10.5-9.5,8.29-16.28-1-3.09-3.06-5.54-5.64-7.09,2.84,1.52,5.11,4.09,6.19,7.4,2.21,6.79-1.51,14.08-8.29,16.29-3.7,1.2-7.55,.65-10.64-1.21,2.99,1.6,6.61,2.03,10.1,.9Z"/>
            <path class="cls-63" d="M519.97,355.65c-.06-.18-.26-.28-.44-.22l-8.62,2.8c-.19,.06-.29,.26-.23,.44l.43,1.32c.06,.18,.26,.28,.44,.22l2.31-.75c.86-.28,1.77-.1,2.42,.42,.13,.1,.08,.3-.08,.36l-4.2,1.37c-.19,.06-.29,.26-.23,.44l.34,1.04c.06,.18,.26,.28,.44,.22l4.41-1.43c.14-.05,.29,.06,.28,.21-.09,1-.77,1.91-1.81,2.25l-2.31,.75c-.19,.06-.29,.26-.23,.44l.5,1.53c.02,.08,.08,.14,.14,.18l6.51,4.1c.09,.06,.2,.07,.3,.04l1.65-.54c.28-.09,.34-.46,.09-.62l-6.02-3.79s-.04-.09,.01-.11c2.19-.71,3.52-2.84,3.26-5-.01-.11,.05-.22,.16-.25l1.67-.54c.19-.06,.29-.26,.23-.44l-.34-1.04c-.06-.18-.26-.28-.44-.22l-1.77,.57c-.1,.03-.21,0-.27-.09-.25-.37-.55-.69-.89-.97-.15-.12-.11-.37,.07-.43l2.31-.75c.19-.06,.29-.26,.23-.44l-.34-1.04Z"/>
            <path class="cls-18" d="M520.3,355.78c-.06-.18-.26-.28-.44-.22l-8.62,2.8c-.19,.06-.29,.26-.23,.44l.43,1.32c.06,.18,.26,.28,.44,.22l2.31-.75c.86-.28,1.77-.1,2.42,.42,.13,.1,.08,.3-.08,.36l-4.2,1.37c-.19,.06-.29,.26-.23,.44l.34,1.04c.06,.18,.26,.28,.44,.22l4.41-1.43c.14-.05,.29,.06,.28,.21-.09,1-.77,1.91-1.81,2.25l-2.31,.75c-.19,.06-.29,.26-.23,.44l.5,1.53c.02,.08,.08,.14,.14,.18l6.51,4.1c.09,.06,.2,.07,.3,.04l1.65-.54c.28-.09,.33-.46,.09-.62l-6.02-3.79s-.03-.09,.01-.11c2.19-.71,3.52-2.84,3.26-5-.01-.11,.05-.22,.16-.25l1.67-.54c.19-.06,.29-.26,.23-.44l-.34-1.04c-.06-.18-.26-.28-.44-.22l-1.77,.57c-.1,.03-.21,0-.27-.09-.25-.37-.55-.69-.89-.97-.15-.12-.11-.37,.07-.43l2.31-.75c.19-.06,.29-.26,.23-.44l-.34-1.04Z"/>
            <path class="cls-64" d="M519.58,355.5c-.06-.18-.26-.28-.44-.22l-8.62,2.8c-.19,.06-.29,.26-.23,.44l.43,1.32c.06,.18,.26,.28,.44,.22l2.31-.75c.86-.28,1.77-.1,2.42,.42,.13,.1,.08,.3-.08,.36l-4.2,1.37c-.19,.06-.29,.26-.23,.44l.34,1.04c.06,.18,.26,.28,.44,.22l4.41-1.43c.14-.05,.29,.06,.28,.21-.09,1-.77,1.91-1.81,2.25l-2.31,.75c-.19,.06-.29,.26-.23,.44l.5,1.53c.02,.08,.08,.14,.14,.18l6.51,4.1c.09,.06,.2,.07,.3,.04l1.65-.54c.28-.09,.33-.46,.09-.62l-6.02-3.79s-.04-.09,.01-.11c2.19-.71,3.52-2.84,3.26-5-.01-.11,.05-.22,.16-.25l1.67-.54c.19-.06,.29-.26,.23-.44l-.34-1.04c-.06-.18-.26-.28-.44-.22l-1.77,.57c-.1,.03-.21,0-.27-.09-.25-.37-.55-.69-.89-.97-.15-.12-.11-.37,.07-.43l2.31-.75c.19-.06,.29-.26,.23-.44l-.34-1.04Z"/>
            <path class="cls-62" d="M519.58,355.5c-.06-.18-.26-.28-.44-.22l-8.62,2.8c-.19,.06-.29,.26-.23,.44l.43,1.32c.06,.18,.26,.28,.44,.22l2.31-.75c.86-.28,1.77-.1,2.42,.42,.13,.1,.08,.3-.08,.36l-4.2,1.37c-.19,.06-.29,.26-.23,.44l.34,1.04c.06,.18,.26,.28,.44,.22l4.41-1.43c.14-.05,.29,.06,.28,.21-.09,1-.77,1.91-1.81,2.25l-2.31,.75c-.19,.06-.29,.26-.23,.44l.5,1.53c.02,.08,.08,.14,.14,.18l6.51,4.1c.09,.06,.2,.07,.3,.04l1.65-.54c.28-.09,.33-.46,.09-.62l-6.02-3.79s-.04-.09,.01-.11c2.19-.71,3.52-2.84,3.26-5-.01-.11,.05-.22,.16-.25l1.67-.54c.19-.06,.29-.26,.23-.44l-.34-1.04c-.06-.18-.26-.28-.44-.22l-1.77,.57c-.1,.03-.21,0-.27-.09-.25-.37-.55-.69-.89-.97-.15-.12-.11-.37,.07-.43l2.31-.75c.19-.06,.29-.26,.23-.44l-.34-1.04Z"/>
            <path class="cls-15" d="M518.46,359.22c.07,.07,.18,.1,.28,.06l1.74-.56s.05-.01,.08-.02c-.09-.07-.21-.09-.33-.06l-1.74,.56s-.02,0-.03,0Z"/>
            <path class="cls-15" d="M519.88,371.21l-6.48-4.08c-.07-.04-.12-.11-.14-.18l-.5-1.53c-.06-.18,.04-.38,.23-.44l2.31-.75c1.04-.34,1.72-1.25,1.81-2.25,.01-.14-.14-.24-.29-.2,.03,.03,.04,.08,.04,.13-.08,1-.77,1.92-1.81,2.25l-2.31,.75c-.19,.06-.29,.26-.23,.44l.5,1.53c.02,.08,.08,.14,.14,.18l6.51,4.1c.07,.04,.14,.06,.22,.05Z"/>
            <path class="cls-15" d="M512.09,363.16c-.05-.04-.09-.1-.12-.16l-.34-1.04c-.06-.18,.04-.38,.23-.44l4.18-1.36c.18-.06,.25-.25,.11-.36-.3-.23-.65-.4-1.02-.49,.28,.09,.54,.23,.77,.42,.13,.1,.07,.3-.11,.36l-4.18,1.36c-.19,.06-.29,.26-.23,.44l.34,1.04c.05,.16,.21,.25,.37,.24Z"/>
            <path class="cls-15" d="M511.09,360.07c-.16,.02-.32-.08-.37-.24l-.43-1.32c-.06-.18,.04-.38,.23-.44l8.62-2.8c.12-.04,.24-.01,.33,.06-.03,0-.05,0-.08,.02l-8.62,2.8c-.19,.06-.29,.26-.23,.44l.43,1.32c.02,.07,.06,.12,.12,.16Z"/>
          </g>
        </g>
        <g class="cls-33">
          <g>
            <g>
              <circle class="cls-10" cx="150.85" cy="86.25" r="15.35"/>
              <circle class="cls-65" cx="150.85" cy="86.25" r="15.35"/>
            </g>
            <circle class="cls-21" cx="150.85" cy="86.25" r="12.92"/>
            <path class="cls-18" d="M154.51,73.86c-3.22-.84-6.77-.44-9.86,1.4-6.13,3.65-8.15,11.58-4.5,17.71,1.73,2.91,4.43,4.9,7.44,5.79-3.18-.83-6.04-2.86-7.85-5.9-3.65-6.13-1.63-14.06,4.5-17.71,3.22-1.92,6.94-2.27,10.27-1.29Z"/>
            <path class="cls-14" d="M156.86,97.18c6.13-3.65,8.15-11.58,4.5-17.71-1.66-2.79-4.21-4.73-7.07-5.67,3.1,.86,5.89,2.87,7.67,5.85,3.65,6.13,1.63,14.06-4.5,17.71-3.34,1.99-7.22,2.29-10.65,1.17,3.27,.9,6.9,.52,10.05-1.35Z"/>
            <path class="cls-73" d="M152.55,77.93c-.1-.16-.31-.22-.48-.12l-7.79,4.63c-.17,.1-.22,.31-.13,.48l.71,1.19c.1,.16,.31,.22,.48,.12l2.08-1.24c.78-.46,1.7-.48,2.46-.13,.15,.07,.15,.28,0,.36l-3.8,2.26c-.17,.1-.22,.31-.13,.48l.56,.94c.1,.16,.31,.22,.48,.12l3.98-2.37c.13-.08,.3,0,.32,.14,.14,1-.33,2.03-1.27,2.59l-2.08,1.24c-.17,.1-.22,.31-.13,.48l.82,1.38c.04,.07,.1,.12,.18,.15l7.25,2.56c.1,.04,.21,.02,.3-.03l1.49-.89c.26-.15,.22-.53-.05-.63l-6.71-2.37s-.05-.08-.01-.11c1.98-1.18,2.81-3.54,2.08-5.59-.04-.11,0-.23,.1-.28l1.51-.9c.17-.1,.22-.31,.13-.48l-.56-.94c-.1-.16-.31-.22-.48-.12l-1.6,.95c-.09,.05-.2,.04-.28-.03-.32-.3-.69-.56-1.08-.75-.17-.09-.19-.33-.03-.43l2.09-1.24c.17-.1,.22-.31,.13-.48l-.56-.94Z"/>
            <path class="cls-18" d="M152.91,78c-.1-.16-.31-.22-.48-.12l-7.79,4.63c-.17,.1-.22,.31-.13,.48l.71,1.19c.1,.16,.31,.22,.48,.12l2.08-1.24c.78-.46,1.7-.48,2.46-.13,.15,.07,.15,.28,0,.36l-3.8,2.26c-.17,.1-.22,.31-.13,.48l.56,.94c.1,.16,.31,.22,.48,.12l3.98-2.37c.13-.08,.3,0,.32,.14,.14,1-.33,2.03-1.27,2.59l-2.08,1.24c-.17,.1-.22,.31-.13,.48l.82,1.38c.04,.07,.1,.12,.18,.15l7.25,2.56c.1,.03,.21,.02,.3-.03l1.49-.89c.26-.15,.22-.53-.05-.63l-6.71-2.37s-.05-.08-.01-.11c1.98-1.18,2.81-3.54,2.08-5.59-.04-.11,0-.23,.1-.28l1.51-.9c.17-.1,.22-.31,.13-.48l-.56-.94c-.1-.16-.31-.22-.48-.12l-1.6,.95c-.09,.05-.2,.04-.28-.03-.32-.3-.69-.56-1.08-.75-.17-.09-.19-.33-.03-.43l2.09-1.24c.17-.1,.22-.31,.13-.48l-.56-.94Z"/>
            <path class="cls-81" d="M152.14,77.88c-.1-.16-.31-.22-.48-.12l-7.79,4.63c-.17,.1-.22,.31-.13,.48l.71,1.19c.1,.16,.31,.22,.48,.12l2.08-1.24c.78-.46,1.7-.48,2.46-.13,.15,.07,.15,.28,0,.36l-3.8,2.26c-.17,.1-.22,.31-.13,.48l.56,.94c.1,.16,.31,.22,.48,.12l3.99-2.37c.13-.08,.3,0,.32,.14,.14,1-.33,2.03-1.27,2.59l-2.08,1.24c-.17,.1-.22,.31-.13,.48l.82,1.38c.04,.07,.1,.12,.18,.15l7.25,2.56c.1,.03,.21,.02,.3-.03l1.49-.89c.26-.15,.22-.53-.05-.63l-6.71-2.37s-.05-.08-.01-.11c1.98-1.18,2.81-3.54,2.08-5.59-.04-.11,0-.23,.1-.28l1.51-.9c.17-.1,.22-.31,.13-.48l-.56-.94c-.1-.16-.31-.22-.48-.12l-1.6,.95c-.09,.05-.2,.04-.28-.03-.32-.3-.69-.56-1.08-.75-.17-.09-.19-.33-.03-.43l2.09-1.24c.17-.1,.22-.31,.13-.48l-.56-.94Z"/>
            <path class="cls-74" d="M152.14,77.88c-.1-.16-.31-.22-.48-.12l-7.79,4.63c-.17,.1-.22,.31-.13,.48l.71,1.19c.1,.16,.31,.22,.48,.12l2.08-1.24c.78-.46,1.7-.48,2.46-.13,.15,.07,.15,.28,0,.36l-3.8,2.26c-.17,.1-.22,.31-.13,.48l.56,.94c.1,.16,.31,.22,.48,.12l3.99-2.37c.13-.08,.3,0,.32,.14,.14,1-.33,2.03-1.27,2.59l-2.08,1.24c-.17,.1-.22,.31-.13,.48l.82,1.38c.04,.07,.1,.12,.18,.15l7.25,2.56c.1,.03,.21,.02,.3-.03l1.49-.89c.26-.15,.22-.53-.05-.63l-6.71-2.37s-.05-.08-.01-.11c1.98-1.18,2.81-3.54,2.08-5.59-.04-.11,0-.23,.1-.28l1.51-.9c.17-.1,.22-.31,.13-.48l-.56-.94c-.1-.16-.31-.22-.48-.12l-1.6,.95c-.09,.05-.2,.04-.28-.03-.32-.3-.69-.56-1.08-.75-.17-.09-.19-.33-.03-.43l2.09-1.24c.17-.1,.22-.31,.13-.48l-.56-.94Z"/>
            <path class="cls-15" d="M151.87,81.75c.08,.05,.19,.06,.29,0l1.57-.93s.05-.02,.07-.03c-.1-.05-.23-.04-.33,.02l-1.57,.93s-.02,0-.03,.01Z"/>
            <path class="cls-15" d="M155.9,93.14l-7.22-2.55c-.08-.03-.14-.08-.18-.15l-.82-1.38c-.1-.16-.04-.38,.13-.48l2.08-1.24c.94-.56,1.41-1.6,1.27-2.6-.02-.14-.18-.2-.33-.13,.03,.03,.06,.07,.06,.12,.14,1-.33,2.04-1.27,2.6l-2.08,1.24c-.17,.1-.22,.31-.13,.48l.82,1.38c.04,.07,.1,.12,.18,.15l7.25,2.56c.07,.03,.15,.03,.23,0Z"/>
            <path class="cls-15" d="M146.52,87c-.06-.03-.11-.07-.15-.13l-.56-.94c-.1-.16-.04-.38,.13-.48l3.77-2.24c.16-.1,.18-.3,.03-.37-.34-.16-.72-.25-1.1-.25,.29,.03,.58,.11,.84,.24,.15,.07,.13,.28-.03,.37l-3.77,2.24c-.17,.1-.22,.31-.13,.48l.56,.94c.08,.14,.26,.2,.41,.15Z"/>
            <path class="cls-15" d="M144.87,84.21c-.15,.05-.33,0-.41-.15l-.71-1.19c-.1-.16-.04-.38,.13-.48l7.79-4.63c.11-.06,.23-.07,.33-.02-.02,0-.05,.02-.07,.03l-7.79,4.63c-.17,.1-.22,.31-.13,.48l.71,1.19c.04,.06,.09,.11,.15,.13Z"/>
          </g>
        </g>
      </g>
      <g>
        <path class="cls-72" d="M598.79,386.44s-11.99-10.24-17.95-17.81-10.82-24.9-11.37-35.18-16.78-24.9-16.78-24.9l-41.13-17.32,22.19-58.99s28.14-1.08,38.97-.54,44.38,29.23,46.55,32.47,9.2,73.61,10.82,76.85,2.88,4.75,2.88,4.75c0,0-10.31,23.57-34.18,40.67Z"/>
        <path class="cls-11" d="M570.21,298.21s9.32-27.12,11.86-32.2,8.76-8.47,12.15-10.17l-13.56,5.08s-15.54-15.82-15.54-21.75l3.67,24.58,1.41-8.47,9.89,8.19-4.52,9.04-12.15-10.45-13.84,20.62-9.04-.28-.28-10.17-10.73,20.06,8.76-2.54-1.41,4.52s3.67-2.82,3.95-5.65c0,0,7.63-.28,12.15,4.8l-4.8,9.89s5.08-7.06,8.47-7.63,13.56,2.54,13.56,2.54Z"/>
        <g>
          <g>
            <rect class="cls-13" x="513.46" y="95.42" width="84.16" height="179.46" transform="translate(85.57 -164.18) rotate(18.19)"/>
            <g class="cls-35">
              <path class="cls-82" d="M562.44,274.72c-.35,0-.71-.06-1.06-.17l-63.59-20.9c-1.77-.58-2.73-2.49-2.15-4.26l49.78-151.47c.28-.86,.88-1.55,1.69-1.96,.8-.41,1.72-.48,2.58-.19l63.59,20.9c1.77,.58,2.73,2.49,2.15,4.26l-49.78,151.47c-.28,.86-.88,1.55-1.69,1.96-.48,.24-1,.36-1.52,.36Zm-13.82-177.16c-.22,0-.43,.05-.63,.15-.34,.17-.59,.46-.7,.82l-49.78,151.47c-.24,.74,.16,1.54,.9,1.78l63.59,20.9c.36,.12,.74,.09,1.08-.08,.34-.17,.59-.46,.7-.82l49.78-151.47c.24-.74-.16-1.54-.9-1.78l-63.59-20.9c-.15-.05-.29-.07-.44-.07Z"/>
            </g>
            <path class="cls-83" d="M605.39,135.71l-39.03,118.77c-.07-.03-.15-.06-.22-.08-8.23-2.7-17.09,1.77-19.79,10v.03s-30.77-10.11-30.77-10.11v-.03c2.7-8.19-1.72-17-9.87-19.75l39.03-118.75c8.18,2.62,16.96-1.85,19.66-10.01l30.76,10.11c-2.68,8.23,1.79,17.06,10.01,19.76,.07,.02,.15,.05,.23,.06Z"/>
            <circle class="cls-85" cx="557.36" cy="181.09" r="20.78"/>
            <circle class="cls-87" cx="568.44" cy="147.38" r="4.21"/>
            <circle class="cls-86" cx="546.91" cy="212.88" r="4.21"/>
          </g>
          <path class="cls-13" d="M551.61,172.61c.28-.82-.16-1.72-.99-2s-1.72,.16-2,.99l-2.87,8.43-1.15,3.39c-.28,.82,.16,1.72,.99,2s1.72-.16,2-.99l1.15-3.39c.49-1.45,1.76-2.4,3.2-2.54l-2.25,6.63c-.28,.82,.16,1.72,.99,2s1.72-.16,2-.99l2.25-6.63c1.03,.98,1.48,2.52,.98,3.96l-1.15,3.39c-.21,.61-.02,1.29,.47,1.71,.49,.42,1.19,.51,1.76,.2l10.86-5.74c.37-.19,.63-.52,.75-.89,.14-.4,.1-.85-.09-1.25-.4-.77-1.36-1.06-2.13-.66l-7.37,3.89c.83-3-.44-6.15-3.01-7.75l.69-2.05c.28-.82-.16-1.72-.99-2s-1.72,.16-2,.99l-.69,2.05c-.81-.07-1.63-.02-2.39,.19l1-2.94h-.01Z"/>
        </g>
        <g>
          <g>
            <rect class="cls-13" x="513.46" y="95.42" width="84.16" height="179.46" transform="translate(85.57 -164.18) rotate(18.19)"/>
            <g class="cls-35">
              <path class="cls-82" d="M562.44,274.72c-.35,0-.71-.06-1.06-.17l-63.59-20.9c-1.77-.58-2.73-2.49-2.15-4.26l49.78-151.47c.28-.86,.88-1.55,1.69-1.96,.8-.41,1.72-.48,2.58-.19l63.59,20.9c1.77,.58,2.73,2.49,2.15,4.26l-49.78,151.47c-.28,.86-.88,1.55-1.69,1.96-.48,.24-1,.36-1.52,.36Zm-13.82-177.16c-.22,0-.43,.05-.63,.15-.34,.17-.59,.46-.7,.82l-49.78,151.47c-.24,.74,.16,1.54,.9,1.78l63.59,20.9c.36,.12,.74,.09,1.08-.08,.34-.17,.59-.46,.7-.82l49.78-151.47c.24-.74-.16-1.54-.9-1.78l-63.59-20.9c-.15-.05-.29-.07-.44-.07Z"/>
            </g>
            <path class="cls-83" d="M605.39,135.71l-39.03,118.77c-.07-.03-.15-.06-.22-.08-8.23-2.7-17.09,1.77-19.79,10v.03s-30.77-10.11-30.77-10.11v-.03c2.7-8.19-1.72-17-9.87-19.75l39.03-118.75c8.18,2.62,16.96-1.85,19.66-10.01l30.76,10.11c-2.68,8.23,1.79,17.06,10.01,19.76,.07,.02,.15,.05,.23,.06Z"/>
            <circle class="cls-85" cx="557.36" cy="181.09" r="20.78"/>
            <circle class="cls-84" cx="568.44" cy="147.38" r="4.21"/>
            <circle class="cls-78" cx="546.91" cy="212.88" r="4.21"/>
          </g>
          <path class="cls-13" d="M551.61,172.61c.28-.82-.16-1.72-.99-2s-1.72,.16-2,.99l-2.87,8.43-1.15,3.39c-.28,.82,.16,1.72,.99,2s1.72-.16,2-.99l1.15-3.39c.49-1.45,1.76-2.4,3.2-2.54l-2.25,6.63c-.28,.82,.16,1.72,.99,2s1.72-.16,2-.99l2.25-6.63c1.03,.98,1.48,2.52,.98,3.96l-1.15,3.39c-.21,.61-.02,1.29,.47,1.71,.49,.42,1.19,.51,1.76,.2l10.86-5.74c.37-.19,.63-.52,.75-.89,.14-.4,.1-.85-.09-1.25-.4-.77-1.36-1.06-2.13-.66l-7.37,3.89c.83-3-.44-6.15-3.01-7.75l.69-2.05c.28-.82-.16-1.72-.99-2s-1.72,.16-2,.99l-.69,2.05c-.81-.07-1.63-.02-2.39,.19l1-2.94h-.01Z"/>
        </g>
        <g>
          <g>
            <rect class="cls-13" x="496.31" y="99.01" width="84.16" height="179.46" transform="translate(32.39 -74.79) rotate(8.19)"/>
            <g class="cls-35">
              <path class="cls-76" d="M560.16,275.79c-.16,0-.32-.01-.48-.04l-66.25-9.54c-.89-.13-1.68-.6-2.22-1.32-.54-.72-.77-1.61-.64-2.5l22.72-157.81c.13-.89,.6-1.68,1.32-2.22,.72-.54,1.61-.77,2.5-.64l66.25,9.54c.89,.13,1.68,.6,2.22,1.32,.54,.72,.77,1.61,.64,2.5l-22.72,157.81c-.24,1.68-1.69,2.9-3.34,2.9Zm-43.54-172.14c-.3,0-.6,.1-.84,.28-.3,.23-.5,.55-.55,.93l-22.72,157.81c-.05,.37,.04,.75,.27,1.05,.23,.3,.56,.5,.93,.55l66.25,9.54c.37,.05,.75-.04,1.05-.27,.3-.23,.5-.56,.55-.93l22.72-157.81c.05-.37-.04-.75-.27-1.05-.23-.3-.56-.5-.93-.55l-66.25-9.54c-.07,0-.14-.01-.2-.01Z"/>
            </g>
            <path class="cls-80" d="M578.9,131.39l-17.81,123.75c-.08-.02-.15-.03-.23-.04-8.57-1.23-16.52,4.71-17.75,13.29v.03s-32.06-4.61-32.06-4.61v-.03c1.23-8.53-4.65-16.44-13.16-17.74l17.81-123.73c8.51,1.16,16.38-4.76,17.62-13.28l32.05,4.61c-1.21,8.57,4.73,16.49,13.29,17.73,.08,.01,.16,.02,.23,.02Z"/>
            <circle class="cls-77" cx="539.48" cy="184.43" r="20.78"/>
            <circle class="cls-75" cx="544.54" cy="149.3" r="4.21"/>
            <circle class="cls-79" cx="534.71" cy="217.54" r="4.21"/>
          </g>
          <path class="cls-13" d="M532.35,177.07c.13-.86-.46-1.67-1.32-1.8s-1.67,.46-1.8,1.32l-1.36,8.8-.55,3.54c-.13,.86,.46,1.67,1.32,1.8s1.67-.46,1.8-1.32l.55-3.54c.23-1.51,1.32-2.67,2.71-3.06l-1.07,6.92c-.13,.86,.46,1.67,1.32,1.8s1.67-.46,1.8-1.32l1.07-6.92c1.19,.79,1.89,2.22,1.66,3.73l-.55,3.54c-.1,.64,.2,1.28,.76,1.6,.56,.33,1.26,.29,1.77-.11l9.7-7.53c.33-.25,.53-.62,.59-1.01,.06-.42-.04-.85-.31-1.21-.53-.69-1.52-.81-2.21-.28l-6.58,5.11c.3-3.1-1.5-5.97-4.31-7.11l.33-2.13c.13-.86-.46-1.67-1.32-1.8s-1.67,.46-1.8,1.32l-.33,2.13c-.81,.07-1.6,.26-2.33,.6l.47-3.07h-.02Z"/>
        </g>
        <g>
          <g>
            <rect class="cls-13" x="480.05" y="105.52" width="84.16" height="179.46" transform="translate(-5.9 16.57) rotate(-1.81)"/>
            <g class="cls-35">
              <path class="cls-52" d="M491.19,279.36c-1.81,0-3.32-1.45-3.38-3.27l-5.03-159.36c-.06-1.86,1.41-3.42,3.27-3.48l66.9-2.11c1.88-.08,3.42,1.41,3.48,3.27l5.03,159.36c.06,1.86-1.41,3.42-3.27,3.48l-66.9,2.11s-.07,0-.11,0Zm61.87-166.26h-.04l-66.9,2.11c-.38,.01-.73,.17-.98,.44-.26,.28-.39,.63-.38,1.01l5.03,159.36c.02,.78,.66,1.4,1.46,1.37l66.9-2.11c.78-.03,1.39-.68,1.37-1.45l-5.03-159.36c-.02-.76-.65-1.37-1.41-1.37Z"/>
            </g>
            <path class="cls-51" d="M552.06,131.73l3.94,124.96c-.08,0-.16,0-.24,0-8.66,.27-15.45,7.51-15.18,16.17v.03s-32.37,1.02-32.37,1.02v-.03c-.27-8.62-7.44-15.38-16.04-15.18l-3.94-124.94c8.59-.34,15.3-7.54,15.05-16.13l32.37-1.02c.29,8.65,7.52,15.42,16.17,15.15,.08,0,.16,0,.24-.02Z"/>
            <circle class="cls-54" cx="522.45" cy="190.81" r="20.78"/>
            <circle class="cls-53" cx="521.33" cy="155.34" r="4.21"/>
            <circle class="cls-57" cx="523.51" cy="224.25" r="4.21"/>
          </g>
          <path class="cls-13" d="M514.15,184.8c-.02-.87-.74-1.56-1.61-1.54s-1.56,.74-1.54,1.61l.19,8.91,.08,3.58c.02,.87,.74,1.56,1.61,1.54s1.56-.74,1.54-1.61l-.08-3.58c-.03-1.53,.84-2.86,2.13-3.48l.15,7c.02,.87,.74,1.56,1.61,1.54s1.56-.74,1.54-1.61l-.15-7c1.31,.57,2.25,1.86,2.28,3.39l.08,3.58c.01,.65,.42,1.22,1.02,1.44,.6,.22,1.29,.07,1.73-.42l8.24-9.1c.28-.31,.41-.7,.4-1.1,0-.43-.19-.83-.51-1.14-.64-.59-1.64-.53-2.22,.11l-5.59,6.18c-.24-3.1-2.52-5.62-5.48-6.25l-.05-2.16c-.02-.87-.74-1.56-1.61-1.54-.87,.02-1.56,.74-1.54,1.61l.05,2.16c-.78,.21-1.53,.54-2.19,.99l-.07-3.11h-.02Z"/>
        </g>
        <g>
          <g>
            <rect class="cls-13" x="465.16" y="114.76" width="84.16" height="179.46" transform="translate(-31.11 108.13) rotate(-11.81)"/>
            <g class="cls-35">
              <path class="cls-55" d="M490.79,292.74c-1.56,0-2.97-1.1-3.3-2.69l-32.63-156.07c-.18-.88-.01-1.79,.48-2.54,.49-.75,1.25-1.27,2.14-1.46l65.52-13.7c1.82-.38,3.62,.79,4,2.61l32.63,156.07c.18,.88,.01,1.79-.48,2.54-.49,.75-1.25,1.27-2.13,1.46l-65.52,13.7c-.23,.05-.46,.07-.69,.07Zm32.89-174.55c-.1,0-.19,0-.29,.03l-65.52,13.7c-.37,.08-.69,.29-.89,.61-.21,.31-.28,.69-.2,1.06l32.63,156.07c.16,.76,.91,1.25,1.67,1.09l65.52-13.7,.2,.96-.2-.96c.76-.16,1.25-.91,1.09-1.67l-32.63-156.07c-.14-.66-.73-1.12-1.38-1.12Z"/>
            </g>
            <path class="cls-56" d="M525.7,136.73l25.58,122.38c-.08,0-.16,.02-.23,.04-8.48,1.77-13.91,10.08-12.14,18.56v.03s-31.69,6.63-31.69,6.63v-.03c-1.77-8.44-10-13.86-18.44-12.17l-25.58-122.36c8.4-1.83,13.76-10.08,12.02-18.5l31.7-6.63c1.79,8.46,10.08,13.88,18.55,12.11,.08-.02,.15-.03,.23-.06Z"/>
            <circle class="cls-59" cx="506.79" cy="200.06" r="20.78"/>
            <circle class="cls-60" cx="499.53" cy="165.32" r="4.21"/>
            <circle class="cls-58" cx="513.64" cy="232.81" r="4.21"/>
          </g>
          <path class="cls-13" d="M497.58,195.58c-.17-.85-1-1.41-1.85-1.24s-1.41,1-1.24,1.85l1.74,8.74,.7,3.51c.17,.85,1,1.41,1.85,1.24s1.41-1,1.24-1.85l-.7-3.51c-.3-1.5,.33-2.96,1.5-3.8l1.36,6.87c.17,.85,1,1.41,1.85,1.24s1.41-1,1.24-1.85l-1.36-6.87c1.38,.34,2.54,1.44,2.83,2.94l.7,3.51c.13,.63,.63,1.13,1.26,1.24,.63,.12,1.29-.16,1.63-.71l6.53-10.4c.22-.35,.28-.76,.21-1.15-.08-.42-.33-.79-.7-1.03-.74-.46-1.7-.24-2.17,.49l-4.43,7.05c-.78-3.01-3.46-5.1-6.48-5.21l-.42-2.12c-.17-.85-1-1.41-1.85-1.24-.85,.17-1.41,1-1.24,1.85l.42,2.12c-.74,.34-1.42,.8-1.98,1.36l-.61-3.05h-.02Z"/>
        </g>
        <g>
          <g>
            <rect class="cls-13" x="452.11" y="126.43" width="84.16" height="179.46" transform="translate(-44.94 199.06) rotate(-21.81)"/>
            <g class="cls-35">
              <path class="cls-45" d="M492.73,305.99c-.45,0-.9-.09-1.33-.27-.83-.36-1.47-1.01-1.81-1.85l-59.23-148.03c-.69-1.73,.15-3.7,1.88-4.39l62.15-24.87c1.73-.69,3.7,.15,4.39,1.88l59.23,148.03c.34,.84,.32,1.75-.03,2.58s-1.01,1.47-1.85,1.81l-62.15,24.87c-.41,.16-.83,.24-1.26,.24Zm2.91-177.69c-.18,0-.35,.03-.52,.1l-62.15,24.87c-.72,.29-1.07,1.11-.79,1.83l59.23,148.03c.29,.72,1.11,1.08,1.83,.79l62.15-24.87,.37,.91-.37-.91c.35-.14,.62-.41,.77-.75,.15-.35,.15-.73,.01-1.08l-59.23-148.03c-.14-.35-.41-.62-.75-.77-.18-.08-.37-.11-.56-.11Z"/>
            </g>
            <path class="cls-43" d="M500.6,146.24l46.45,116.07c-.08,.02-.15,.05-.22,.08-8.04,3.22-11.95,12.34-8.73,20.38v.03s-30.06,12.03-30.06,12.03v-.03c-3.21-8-12.26-11.91-20.28-8.78l-46.44-116.06c7.95-3.26,11.8-12.31,8.63-20.31l30.07-12.03c3.23,8.02,12.34,11.92,20.37,8.71,.07-.03,.15-.06,.22-.1Z"/>
            <circle class="cls-44" cx="492.98" cy="211.88" r="20.78"/>
            <circle class="cls-41" cx="479.79" cy="178.94" r="4.21"/>
            <circle class="cls-42" cx="505.41" cy="242.95" r="4.21"/>
          </g>
          <path class="cls-13" d="M483.12,209.08c-.31-.81-1.23-1.21-2.04-.9s-1.21,1.23-.9,2.04l3.23,8.3,1.3,3.34c.31,.81,1.23,1.21,2.04,.9s1.21-1.23,.9-2.04l-1.3-3.34c-.55-1.43-.19-2.97,.81-4l2.54,6.52c.31,.81,1.23,1.21,2.04,.9s1.21-1.23,.9-2.04l-2.54-6.52c1.42,.09,2.75,.98,3.3,2.4l1.3,3.34c.23,.6,.81,1,1.46,1.01,.64,0,1.24-.38,1.48-.98l4.63-11.37c.16-.38,.15-.8,0-1.17-.15-.4-.46-.72-.87-.9-.8-.33-1.72,.06-2.05,.86l-3.14,7.72c-1.29-2.83-4.29-4.42-7.29-4l-.78-2.01c-.31-.81-1.23-1.21-2.04-.9s-1.21,1.23-.9,2.04l.78,2.01c-.67,.46-1.26,1.03-1.71,1.68l-1.12-2.9h-.01Z"/>
        </g>
        <g>
          <g>
            <rect class="cls-13" x="441.28" y="140.2" width="84.16" height="179.46" transform="translate(-48.6 289.3) rotate(-31.81)"/>
            <g class="cls-35">
              <path class="cls-39" d="M496.94,318.69c-1.13,0-2.24-.57-2.88-1.59l-84.04-135.5c-.98-1.58-.49-3.67,1.09-4.65l56.88-35.28c1.58-.98,3.67-.49,4.65,1.09l84.04,135.5c.48,.77,.62,1.67,.42,2.55-.21,.88-.74,1.62-1.51,2.1l-56.88,35.28c-.55,.34-1.17,.5-1.77,.5Zm-27.16-175.56c-.25,0-.51,.07-.74,.21l-56.88,35.28c-.66,.41-.87,1.28-.46,1.94l84.04,135.5c.41,.66,1.28,.87,1.94,.46l56.88-35.28c.32-.2,.54-.51,.63-.88,.09-.37,.02-.75-.17-1.07l-84.04-135.5c-.27-.43-.73-.67-1.2-.67Z"/>
            </g>
            <path class="cls-40" d="M477.53,159.96l65.9,106.25c-.07,.03-.14,.07-.21,.12-7.36,4.57-9.63,14.23-5.06,21.59l.02,.03-27.52,17.07-.02-.03c-4.54-7.33-14.14-9.6-21.48-5.13l-65.89-106.23c7.27-4.59,9.49-14.18,4.97-21.5l27.52-17.07c4.58,7.34,14.22,9.6,21.57,5.04,.07-.04,.13-.08,.2-.13Z"/>
            <circle class="cls-38" cx="481.42" cy="225.93" r="20.78"/>
            <circle class="cls-24" cx="462.72" cy="195.77" r="4.21"/>
            <circle class="cls-23" cx="499.06" cy="254.36" r="4.21"/>
          </g>
          <path class="cls-13" d="M471.23,224.87c-.45-.74-1.42-.98-2.17-.53s-.98,1.42-.53,2.17l4.62,7.62,1.86,3.06c.45,.74,1.42,.98,2.17,.53s.98-1.42,.53-2.17l-1.86-3.06c-.79-1.31-.7-2.89,.11-4.08l3.63,5.99c.45,.74,1.42,.98,2.17,.53s.98-1.42,.53-2.17l-3.63-5.99c1.42-.16,2.88,.49,3.67,1.79l1.86,3.06c.34,.55,.97,.85,1.61,.74,.63-.11,1.15-.59,1.29-1.22l2.58-12c.09-.4,0-.81-.2-1.15-.22-.36-.58-.62-1.01-.73-.85-.19-1.68,.36-1.87,1.21l-1.75,8.14c-1.76-2.57-4.99-3.61-7.87-2.67l-1.12-1.85c-.45-.74-1.42-.98-2.17-.53s-.98,1.42-.53,2.17l1.12,1.85c-.58,.57-1.06,1.23-1.4,1.95l-1.61-2.66h-.01Z"/>
        </g>
        <g>
          <path class="cls-20" d="M527.22,237.12s-13.2,1.61-10.45,11.57,15.25,23.94,24.79,31.78,10.65,12.37,10.65,12.37l2.25-1.38-27.24-54.33Z"/>
          <path class="cls-50" d="M580.66,352.16s-21.75-30.51-22.32-42.09c-.56-11.58-3.95-22.03-13.28-30.79-9.32-8.76-27.68-25.71-25.99-35.03s16.67-11.02,30.51,4.8c13.84,15.82,25.42,30.79,38.42,34.75,0,0,22.03,44.07-7.34,68.36Z"/>
          <path class="cls-11" d="M531.1,255.13l7.47-6.54c1.09-.96,1.18-2.61,.22-3.7-3.05-3.41-9.76-9.31-15.58-3.3-4.48,4.63,1.34,10.79,4.48,13.54,.98,.85,2.43,.85,3.41,0Z"/>
          <path class="cls-49" d="M580.6,352.07c-1.28-1.8-21.71-30.78-22.26-42-.56-11.59-3.95-22.04-13.27-30.79-9.04-8.49-26.59-24.71-26.08-34.18,1.48,5.51,5.15,13.97,14.18,20.69,14.62,10.89,28.37,27.52,28.37,42.42s17.94,42.15,19.06,43.86Z"/>
        </g>
      </g>
      <path class="cls-47" d="M595.17,227.09l1.06-3.94c.31-1.15,1.93-1.15,2.24,0l1.06,3.94c.11,.4,.42,.71,.82,.82l3.94,1.06c1.15,.31,1.15,1.93,0,2.24l-3.94,1.06c-.4,.11-.71,.42-.82,.82l-1.06,3.94c-.31,1.15-1.93,1.15-2.24,0l-1.06-3.94c-.11-.4-.42-.71-.82-.82l-3.94-1.06c-1.15-.31-1.15-1.93,0-2.24l3.94-1.06c.4-.11,.71-.42,.82-.82Z"/>
      <path class="cls-46" d="M538.15,317.29l.7-2.58c.2-.75,1.27-.75,1.47,0l.7,2.58c.07,.26,.28,.47,.54,.54l2.58,.7c.75,.2,.75,1.27,0,1.47l-2.58,.7c-.26,.07-.47,.28-.54,.54l-.7,2.58c-.2,.75-1.27,.75-1.47,0l-.7-2.58c-.07-.26-.28-.47-.54-.54l-2.58-.7c-.75-.2-.75-1.27,0-1.47l2.58-.7c.26-.07,.47-.28,.54-.54Z"/>
      <path class="cls-48" d="M401.02,149.22l.7-2.58c.2-.75,1.27-.75,1.47,0l.7,2.58c.07,.26,.28,.47,.54,.54l2.58,.7c.75,.2,.75,1.27,0,1.47l-2.58,.7c-.26,.07-.47,.28-.54,.54l-.7,2.58c-.2,.75-1.27,.75-1.47,0l-.7-2.58c-.07-.26-.28-.47-.54-.54l-2.58-.7c-.75-.2-.75-1.27,0-1.47l2.58-.7c.26-.07,.47-.28,.54-.54Z"/>
    </g>
  </g>
</svg>