<?xml version="1.0" encoding="UTF-8"?>
<svg id="Layer_1" data-name="Layer 1" xmlns="http://www.w3.org/2000/svg" xmlns:xlink="http://www.w3.org/1999/xlink" viewBox="0 0 500 500">
  <defs>
    <style>
      .cls-1 {
        fill: url(#linear-gradient);
      }

      .cls-2 {
        fill: #e9f4f9;
      }

      .cls-3, .cls-4 {
        fill: #fff;
      }

      .cls-5 {
        fill: #d7e6f2;
      }

      .cls-6 {
        fill: #407bff;
      }

      .cls-7 {
        fill: #1c1980;
      }

      .cls-8 {
        fill: #18186b;
      }

      .cls-9 {
        fill: #263a79;
      }

      .cls-10 {
        fill: #263238;
      }

      .cls-11 {
        fill: #3b448e;
      }

      .cls-4 {
        isolation: isolate;
        opacity: .6;
      }

      .cls-12 {
        fill: url(#linear-gradient-8);
      }

      .cls-13 {
        fill: url(#linear-gradient-9);
      }

      .cls-14 {
        fill: url(#linear-gradient-3);
      }

      .cls-15 {
        fill: url(#linear-gradient-4);
      }

      .cls-16 {
        fill: url(#linear-gradient-2);
      }

      .cls-17 {
        fill: url(#linear-gradient-6);
      }

      .cls-18 {
        fill: url(#linear-gradient-7);
      }

      .cls-19 {
        fill: url(#linear-gradient-5);
      }

      .cls-20 {
        opacity: .2;
      }

      .cls-21 {
        fill: url(#linear-gradient-10);
      }
    </style>
    <linearGradient id="linear-gradient" x1="259.79" y1="96.93" x2="269.84" y2="96.93" gradientUnits="userSpaceOnUse">
      <stop offset="0" stop-color="#25579a"/>
      <stop offset="1" stop-color="#4b9cd3"/>
    </linearGradient>
    <linearGradient id="linear-gradient-2" x1="186.22" y1="102.98" x2="286.21" y2="405.94" gradientUnits="userSpaceOnUse">
      <stop offset="0" stop-color="#f8f9fd"/>
      <stop offset="1" stop-color="#c9d2ec"/>
    </linearGradient>
    <linearGradient id="linear-gradient-3" x1="227.27" y1="108.56" x2="300.49" y2="108.56" xlink:href="#linear-gradient"/>
    <linearGradient id="linear-gradient-4" x1="237.43" y1="103.05" x2="290.22" y2="103.05" xlink:href="#linear-gradient-2"/>
    <linearGradient id="linear-gradient-5" x1="189.54" y1="230.42" x2="263.58" y2="230.42" xlink:href="#linear-gradient"/>
    <linearGradient id="linear-gradient-6" x1="228.26" y1="260.71" x2="259.03" y2="260.71" gradientUnits="userSpaceOnUse">
      <stop offset="0" stop-color="#fe4c70"/>
      <stop offset="1" stop-color="#db4658"/>
    </linearGradient>
    <linearGradient id="linear-gradient-7" x1="271.88" y1="311.4" x2="370.42" y2="311.4" gradientUnits="userSpaceOnUse">
      <stop offset="0" stop-color="#5ca6db"/>
      <stop offset="1" stop-color="#64c9f9"/>
    </linearGradient>
    <linearGradient id="linear-gradient-8" x1="303.99" y1="304.32" x2="397.41" y2="304.32" xlink:href="#linear-gradient"/>
    <linearGradient id="linear-gradient-9" x1="302.78" y1="221.26" x2="363.95" y2="221.26" xlink:href="#linear-gradient-7"/>
    <linearGradient id="linear-gradient-10" x1="341.14" y1="217.98" x2="364.26" y2="217.98" xlink:href="#linear-gradient"/>
  </defs>
  <ellipse class="cls-5" cx="332.75" cy="372.75" rx="62.61" ry="8"/>
  <ellipse class="cls-5" cx="247.95" cy="360.21" rx="113.41" ry="4.89"/>
  <g>
    <path class="cls-9" d="M318.83,360.21H150.59c-3.19,0-5.52-2.26-5.2-5.06l28.87-250.59c.32-2.79,3.17-5.06,6.36-5.06h168.24c3.19,0,5.52,2.26,5.2,5.06l-28.87,250.59c-.32,2.79-3.17,5.06-6.36,5.06Z"/>
    <path class="cls-1" d="M265.63,91.74c-2.57,0-4.86,1.82-5.12,4.07l-.73,6.32h9.3l.73-6.32c.26-2.25-1.61-4.07-4.18-4.07Zm-.7,6.06c-1.04,0-1.79-.74-1.69-1.64,.1-.91,1.03-1.64,2.07-1.64s1.79,.74,1.69,1.64c-.1,.91-1.03,1.64-2.07,1.64Z"/>
    <g>
      <path class="cls-16" d="M269.75,329.69H102.99c38.46-73.81,63.92-148.73,75.9-222.53h166.77c-11.98,73.81-37.44,148.73-75.9,222.53Z"/>
      <path class="cls-10" d="M331.16,130.56H185c-.27,0-.49-.18-.47-.4,.01-.22,.25-.4,.53-.4h146.17c.28,0,.49,.18,.47,.4-.02,.22-.25,.4-.53,.4Z"/>
      <g class="cls-20">
        <g>
          <path class="cls-9" d="M204.71,120.06c-.63,3.46-4.73,6.27-9.11,6.27s-7.38-2.81-6.75-6.27c.63-3.46,4.67-6.27,9.04-6.27,4.38,0,7.45,2.8,6.81,6.27Z"/>
          <path class="cls-9" d="M192.32,119.12s-4.51,4.44-3.32,5.8c1.2,1.36,13.48-6.26,16.43-8.86,2.96-2.6-.42-1.56-.42-1.56,0,0,1.25,.05,.54,.86-1.43,1.64-12.99,7.5-14.13,7.19-1.13-.31,.9-3.42,.9-3.42Z"/>
        </g>
        <g>
          <path class="cls-9" d="M331.71,117.96h-15.03c-.55,0-.98-.35-.96-.79,.02-.44,.49-.79,1.04-.79h15.03c.55,0,.98,.35,.96,.79-.02,.44-.49,.79-1.04,.79Z"/>
          <path class="cls-9" d="M331.04,121.64h-9.69c-.55,0-.98-.35-.95-.79,.03-.44,.49-.79,1.04-.79h9.69c.55,0,.98,.35,.96,.79-.02,.44-.49,.79-1.05,.79Z"/>
          <path class="cls-9" d="M330.34,125.32h-25.32c-.55,0-.98-.35-.95-.79,.03-.44,.5-.79,1.05-.79h25.32c.55,0,.98,.35,.95,.79-.03,.44-.5,.79-1.05,.79Z"/>
        </g>
      </g>
      <g class="cls-20">
        <path class="cls-9" d="M172.42,317.34h-51.18c-.55,0-.87-.35-.71-.79,.16-.44,.74-.79,1.29-.79h51.18c.55,0,.87,.35,.71,.79-.16,.44-.74,.79-1.29,.79Z"/>
        <path class="cls-9" d="M264.32,317.34h-59.05c-.55,0-.87-.35-.71-.79,.16-.44,.74-.79,1.29-.79h59.05c.55,0,.87,.35,.71,.79-.16,.44-.74,.79-1.29,.79Z"/>
        <path class="cls-9" d="M181.61,271.53h-27.13c-.55,0-.89-.36-.76-.79,.13-.44,.68-.79,1.24-.79h27.13c.55,0,.9,.36,.76,.79-.13,.44-.68,.79-1.24,.79Z"/>
        <path class="cls-9" d="M275.78,271.53h-39.52c-.55,0-.89-.36-.76-.79,.13-.44,.68-.79,1.24-.79h39.52c.55,0,.89,.36,.76,.79-.13,.44-.69,.79-1.24,.79Z"/>
      </g>
      <path class="cls-10" d="M232.65,308.07c-.97,0-1.8-.14-2.41-.45-1.28-.65-1.58-1.74-.9-3.16,.1-.2,.21-.4,.34-.61-4.17,1.36-8.47,2.36-12.03,2.57-2.46,.14-3.05-.7-3.12-1.44-.12-1.3,1.35-3.38,3.68-5.79-5.4,2.11-9.37,3.41-9.45,3.43-.28,.09-.55,0-.6-.19-.05-.2,.14-.43,.43-.53,.09-.03,4.8-1.57,10.95-4.03,6.24-5.95,16.61-13.26,22.01-15.77,3.87-1.8,6.11-2.28,6.69-1.45,.9,1.31-3.51,5.22-10.81,9.52-5.42,3.2-11.89,6.08-17.32,8.26-2.82,2.7-4.67,5.02-4.55,6.28,.02,.26,.1,1.04,2.29,.91,3.67-.21,8.25-1.34,12.6-2.82,3.12-3.69,10.37-8.05,13.69-8.77,1.28-.28,1.79,0,1.99,.3,.19,.28,.27,.77-.42,1.56-1.77,2.01-7.92,5.16-14.67,7.5-.31,.4-.57,.79-.74,1.15-.53,1.11-.32,1.89,.66,2.38,2.24,1.13,8.04-.48,13.73-2.79,.04-.25,.13-.51,.27-.79,1.6-3.19,9.42-8.12,13.59-7.9,.83,.04,1.02,.37,1.04,.63,.09,1.15-3.43,3.3-6.41,4.9-2.09,1.12-4.71,2.38-7.44,3.52,.14,.43,.62,.71,1.47,.83,6.19,.89,20.66-7.04,20.79-7.12,.26-.14,.57-.13,.69,.04,.12,.17,.01,.42-.24,.56-.59,.34-15.06,8.27-21.68,7.3-1.12-.16-1.8-.58-2.02-1.2-4.42,1.78-9.01,3.18-12.09,3.18Zm25.35-11.85c-3.66,0-10.71,4.5-12.08,7.21-.04,.08-.08,.15-.1,.23,2.48-1.05,4.9-2.21,6.93-3.31,4.28-2.3,5.83-3.7,5.8-4.04,0-.02-.09-.07-.34-.08-.07,0-.14,0-.22,0Zm-13.19-1.52c-.21,0-.45,.04-.63,.08-2.86,.63-8.92,4.23-12.11,7.45,6.01-2.19,11.3-4.93,12.84-6.67,.3-.34,.4-.59,.29-.74-.06-.09-.21-.12-.39-.12Zm2.13-13.66c-.61,0-2.06,.33-5.03,1.7-5.16,2.4-14.19,8.81-20.25,14.25,4.95-2.05,10.54-4.61,15.3-7.42,7.67-4.53,10.76-7.85,10.36-8.44-.03-.05-.14-.09-.37-.09Z"/>
      <g class="cls-20">
        <path class="cls-9" d="M215.93,152.75h-33.96c-.55,0-.96-.36-.91-.79,.05-.44,.53-.79,1.08-.79h33.96c.55,0,.96,.36,.92,.79-.05,.44-.53,.79-1.09,.79Z"/>
        <path class="cls-9" d="M197.92,157.03h-16.98c-.55,0-.96-.36-.91-.79,.05-.44,.54-.79,1.09-.79h16.98c.55,0,.96,.36,.91,.79-.05,.44-.54,.79-1.09,.79Z"/>
        <path class="cls-9" d="M316.69,179.45H175.1c-.55,0-.95-.36-.88-.79,.07-.44,.57-.79,1.12-.79h141.59c.55,0,.95,.36,.88,.79-.07,.44-.57,.79-1.12,.79Z"/>
        <path class="cls-9" d="M315.31,184.35H173.71c-.55,0-.94-.36-.87-.79,.07-.44,.57-.79,1.13-.79h141.59c.55,0,.94,.36,.87,.79-.07,.44-.57,.79-1.13,.79Z"/>
        <path class="cls-9" d="M313.88,189.25H172.29c-.55,0-.94-.36-.87-.79,.07-.44,.58-.79,1.13-.79h141.59c.55,0,.94,.36,.87,.79-.07,.44-.58,.79-1.13,.79Z"/>
        <path class="cls-9" d="M312.42,194.15H170.83c-.55,0-.94-.36-.86-.8,.08-.44,.59-.8,1.14-.8h141.59c.55,0,.94,.36,.86,.8-.08,.44-.59,.8-1.14,.8Z"/>
        <path class="cls-9" d="M310.93,199.05H169.33c-.55,0-.93-.36-.85-.8,.08-.44,.59-.8,1.14-.8h141.59c.55,0,.94,.36,.86,.8-.08,.44-.59,.8-1.14,.8Z"/>
        <path class="cls-9" d="M309.39,203.95H167.79c-.55,0-.93-.36-.85-.8,.08-.44,.6-.8,1.15-.8h141.59c.55,0,.93,.36,.85,.8-.08,.44-.6,.8-1.15,.8Z"/>
        <path class="cls-9" d="M307.81,208.85H166.22c-.55,0-.93-.36-.84-.8,.09-.44,.61-.8,1.16-.8h141.59c.55,0,.93,.36,.84,.8-.09,.44-.61,.8-1.16,.8Z"/>
        <path class="cls-9" d="M306.2,213.75H164.6c-.55,0-.93-.36-.84-.8,.09-.44,.61-.8,1.16-.8h141.59c.55,0,.93,.36,.84,.8-.09,.44-.61,.8-1.16,.8Z"/>
        <path class="cls-9" d="M234.54,218.65h-71.59c-.55,0-.92-.36-.83-.8,.1-.44,.62-.8,1.17-.8h71.59c.55,0,.92,.36,.83,.8-.09,.44-.62,.8-1.17,.8Z"/>
        <path class="cls-9" d="M324.61,152.75h-24.42c-.55,0-.96-.36-.91-.79,.04-.44,.53-.79,1.08-.79h24.42c.55,0,.96,.36,.92,.79-.05,.44-.53,.79-1.09,.79Z"/>
        <path class="cls-9" d="M302.3,225.3h-126.52c-.55,0-.92-.36-.82-.8,.1-.44,.62-.8,1.18-.8h126.52c.55,0,.92,.36,.82,.8-.1,.44-.62,.8-1.18,.8Z"/>
        <path class="cls-9" d="M300.5,230.2H158.9c-.55,0-.92-.36-.82-.8,.1-.44,.63-.8,1.18-.8h141.59c.55,0,.92,.36,.82,.8-.1,.44-.63,.8-1.18,.8Z"/>
        <path class="cls-9" d="M298.72,235.1H157.12c-.55,0-.92-.36-.81-.8,.1-.44,.64-.8,1.19-.8h141.59c.55,0,.92,.36,.81,.8-.11,.44-.64,.8-1.19,.8Z"/>
        <path class="cls-9" d="M296.9,240H155.3c-.55,0-.91-.36-.8-.8,.11-.44,.64-.8,1.2-.8h141.59c.55,0,.91,.36,.8,.8-.11,.44-.65,.79-1.2,.8Z"/>
        <path class="cls-9" d="M295.04,244.9H153.45c-.55,0-.91-.36-.8-.8,.11-.44,.65-.8,1.2-.8,47.2,0,94.4,0,141.59,0,.55,0,.91,.36,.8,.8-.11,.44-.65,.8-1.2,.8Z"/>
        <path class="cls-9" d="M203.14,249.8h-51.59c-.55,0-.91-.36-.79-.79,.12-.44,.66-.79,1.21-.79h51.59c.55,0,.91,.36,.79,.79-.12,.44-.66,.8-1.21,.79Z"/>
      </g>
      <path class="cls-6" d="M135.61,309.7c-7.35,0-8.82-2.5-8.75-4.64,.25-6.37,14.45-17.27,29.25-22.42,8.13-2.83,14.61-3,16.52-.45,1.56,2.1-.36,5.59-5.31,9.56-9.8,7.84-17.9,9.63-21.48,7.92-.55-.26-.96-.59-1.24-.98-.91,.37-1.89,.76-2.95,1.14-.28,.1-.56,.03-.62-.16-.06-.19,.11-.43,.39-.54,1.06-.39,2.01-.76,2.86-1.11-.22-.76,0-1.64,.68-2.53,1.39-1.83,3.92-2.75,5.58-2.68,.95,.04,1.49,.41,1.46,.99-.06,1.14-2.3,2.69-6.39,4.46,.21,.27,.53,.51,.92,.7,2.43,1.16,9.47,.84,20.13-7.68,4.56-3.65,6.38-6.78,5.04-8.58-1.66-2.23-7.84-1.97-15.38,.65-14.39,5.01-28.19,15.47-28.43,21.52-.1,2.8,2.97,4.2,8.94,4.03,7.62-.21,15.68-2.93,22.45-6.13,2.14-3.58,8.37-8.23,14.96-11.03,1.32-.56,2.08-.68,2.43-.4,.28,.21,.22,.58-.16,1.1-1.38,1.85-7.93,6.65-16.43,10.71-.12,.21-.21,.41-.29,.61-.44,1.11-.28,1.97,.5,2.53,2.82,2.05,13.07-4.05,16.74-6.58,.24-.16,.56-.18,.72-.03,.16,.14,.09,.4-.15,.56-.55,.39-14.15,9.59-18.13,6.69-.98-.72-1.22-1.82-.68-3.18-6.87,3.15-14.84,5.73-22.21,5.94-.33,0-.66,.01-.98,.01Zm40.17-17.7c-.17,.03-.53,.12-1.22,.42-5.71,2.42-11.29,6.4-13.73,9.61,5.14-2.55,9.4-5.31,12.01-7.3,2.07-1.58,2.78-2.42,2.94-2.73Zm-25.67,1.61c-1.15,0-3.15,.64-4.28,2.14-.49,.65-.67,1.29-.54,1.85,4.34-1.88,5.66-3.13,5.68-3.63,.02-.3-.51-.36-.74-.37-.04,0-.08,0-.12,0Z"/>
    </g>
    <path class="cls-14" d="M293.63,118.49h-62.16c-2.56,0-4.43-1.82-4.18-4.06l1.74-15.07c.05-.4,.46-.73,.92-.73h69.79c.46,0,.79,.33,.75,.73l-1.74,15.07c-.26,2.24-2.55,4.06-5.11,4.06Z"/>
    <path class="cls-3" d="M292.88,114.84h-25.17c-.25,0-.5-.1-.68-.29-.18-.18-.27-.43-.26-.69,.03-.7-.21-1.34-.7-1.85-.6-.63-1.54-.99-2.55-.99-2.02,0-3.84,1.34-4.16,3.06-.08,.44-.47,.77-.92,.77h-25.17c-.27,0-.52-.11-.7-.31s-.26-.46-.23-.73l1.26-10.91c.05-.47,.45-.83,.93-.83h59.61c.27,0,.52,.11,.7,.31s.26,.46,.23,.73l-1.26,10.91c-.05,.47-.45,.83-.93,.83Zm-24.3-1.87h23.47l1.04-9.04h-57.73l-1.04,9.04h23.41c.8-2.2,3.2-3.82,5.79-3.82,1.55,0,2.94,.56,3.91,1.57,.61,.64,1,1.41,1.15,2.25Z"/>
    <path class="cls-15" d="M289.44,103.05c.11-.92,.79-1.19,.79-1.19h-52s-.68,.27-.79,1.19c-.11,.94,.51,1.19,.51,1.19h52s-.62-.25-.51-1.19Z"/>
  </g>
  <g>
    <polygon class="cls-10" points="263.78 297.14 263.95 298.55 262.88 297.62 259.65 291.52 260.55 291.04 263.78 297.14"/>
    <path class="cls-10" d="M190.33,155.08h3.22c.5,0,.91,.41,.91,.91v13.95h-5.04v-13.95c0-.5,.41-.91,.91-.91Z" transform="translate(-53.73 108.68) rotate(-27.89)"/>
    <path class="cls-9" d="M190.33,155.08h3.22c.5,0,.91,.41,.91,.91v13.95h-5.04v-13.95c0-.5,.41-.91,.91-.91Z" transform="translate(-53.73 108.68) rotate(-27.89)"/>
    <path class="cls-19" d="M196.87,164.49l-6.07,3.21c-1.13,.6-1.58,1.98-1.02,3.12,18.98,39.17,39.39,77.66,61.15,115.35h0s5.05,7.25,11.05,10.47l1.5-.79c.71-6.77-2.44-15.02-2.44-15.02h0c-18.93-39.19-39.29-77.71-61.01-115.43-.64-1.1-2.03-1.51-3.16-.91Z"/>
    <path class="cls-10" d="M200.28,160.66l-10.23,5.41c-.34,.18-.48,.61-.29,.95l.54,1.03,10.4-5.5c8.93,15.1,15.12,28.35,15.12,28.35l-.57,.77,2.38,2.6c-.84-6.14-13.87-29.07-16.29-33.29-.21-.37-.69-.51-1.07-.31Z"/>
    <rect class="cls-6" x="216.91" y="221.56" width="14" height="2.69" transform="translate(-78.27 130.66) rotate(-27.9)"/>
    <path class="cls-10" d="M228.4,247.28c6.19,11.37,12.49,22.67,18.9,33.86,.29,.51,.94,.69,1.45,.42l9.7-5.13c.52-.27,.73-.91,.47-1.44-5.65-11.59-11.46-23.15-17.38-34.67-.28-.54-.94-.75-1.48-.46l-11.22,5.94c-.54,.28-.74,.95-.45,1.48Z"/>
    <rect class="cls-7" x="216.91" y="221.56" width="14" height="2.69" transform="translate(-78.27 130.66) rotate(-27.9)"/>
    <path class="cls-4" d="M200.28,160.66l-10.23,5.41c-.34,.18-.48,.61-.29,.95l.54,1.03,10.4-5.5c8.93,15.1,15.12,28.35,15.12,28.35l-.57,.77,2.38,2.6c-.84-6.14-13.87-29.07-16.29-33.29-.21-.37-.69-.51-1.07-.31Z"/>
    <path class="cls-17" d="M228.4,247.28c6.19,11.37,12.49,22.67,18.9,33.86,.29,.51,.94,.69,1.45,.42l9.7-5.13c.52-.27,.73-.91,.47-1.44-5.65-11.59-11.46-23.15-17.38-34.67-.28-.54-.94-.75-1.48-.46l-11.22,5.94c-.54,.28-.74,.95-.45,1.48Z"/>
  </g>
  <g>
    <g>
      <path class="cls-18" d="M350.18,264.1c-12.54-21.55-46.07-11.91-46.19-11.87-9.65,12.36-22.28,31.51-28.13,53.08-10.15,37.42,2.32,56.27,2.32,56.27,0,0,6.96,14.5,47.57,10.44,13.85-1.39,26.45-.89,37.08-1.12h0c18-36.66-.08-85.21-12.65-106.8Z"/>
      <path class="cls-12" d="M397.39,342.44c.87-32.78-29.33-90.29-50.76-104.71h-30.07s-5.48,5.42-12.57,14.5c.12-.04,33.65-9.68,46.19,11.87,12.57,21.59,30.65,70.14,12.65,106.8h0c20.65-.44,33.9-3.6,34.56-28.46Z"/>
    </g>
    <path class="cls-13" d="M316.56,237.73s-25.19-36.91-7.47-36.3c17.72,.61,14.44,7.03,25.55,5.81,11.11-1.22,13.25-9.17,26.08-4.28,12.83,4.89-16.8,38.19-16.8,38.19l-27.36-3.42Z"/>
    <path class="cls-2" d="M343.4,289.86c2.13,0,3.87-1.74,3.87-3.87s-1.74-3.87-3.87-3.87h-30.61c-2.13,0-3.87,1.74-3.87,3.87s1.74,3.87,3.87,3.87h8.77c3.75,0,6.96,2.2,8.43,5.41h-17.16c-2.13,0-3.87,1.74-3.87,3.87s1.74,3.87,3.87,3.87h17.16c-1.47,3.17-4.68,5.41-8.43,5.41h-8.77c-1.58,0-3.01,.97-3.59,2.44-.58,1.47-.23,3.17,.93,4.25l21.88,20.68c.73,.7,1.7,1.04,2.67,1.04,1.04,0,2.05-.43,2.82-1.2,1.47-1.55,1.39-3.98-.15-5.45l-14.84-14.03c7.61-.43,13.92-5.88,15.62-13.1h5.3c2.13,0,3.87-1.74,3.87-3.87s-1.74-3.87-3.87-3.87h-5.3c-.46-1.93-1.24-3.79-2.32-5.41h7.61v-.04Z"/>
    <path class="cls-11" d="M331.8,371.53s-25.78,0-32.47-14.08c0,0-1.26,11.08,8.95,15.22,0,0,18.12,.53,23.53-1.13Z"/>
    <path class="cls-21" d="M341.14,229.31s8.44-12.71,10.72-27.92c0,0,17.42-1.62,10.98,11.78,0,0-2.78,8.81-13.5,21.49l-8.19-5.34Z"/>
    <g>
      <path class="cls-8" d="M316.81,239.12c-.94,.02-1.87-.43-2.43-1.28-.86-1.31-.5-3.06,.8-3.92,.59-.39,14.69-9.48,34.29-2.49,1.48,.53,2.25,2.15,1.72,3.63-.53,1.47-2.15,2.24-3.63,1.72-16.84-6-28.77,1.56-29.27,1.88-.46,.3-.98,.45-1.5,.46Z"/>
      <path class="cls-7" d="M353.3,243.72c-.31,0-.63-.05-.94-.16-24.72-8.64-40.55-.27-40.71-.19-1.37,.75-3.1,.24-3.85-1.13-.75-1.38-.24-3.1,1.13-3.85,.73-.4,18.23-9.65,45.29-.19,1.48,.52,2.26,2.14,1.74,3.61-.41,1.17-1.51,1.9-2.68,1.9Z"/>
      <path class="cls-7" d="M336.33,264.34c-.37,0-.74-.07-1.1-.23-1.44-.61-2.12-2.28-1.51-3.72,7.25-17.13,1.03-20.52,.97-20.55,.06,.03-.3-.18-.3-.18l2.55-5.02c.32,.13,3.17,1.4,4.81,5.39,2.21,5.37,1.26,12.96-2.8,22.57-.46,1.08-1.51,1.73-2.61,1.73Z"/>
      <path class="cls-7" d="M360.37,272.42c-1.55,.21-2.98-.88-3.19-2.43h0c0-.05-.74-5.24-3.4-11.19-3.45-7.71-8.35-13.01-14.56-15.76-1.43-.63-2.08-2.31-1.45-3.74,.63-1.43,2.31-2.08,3.74-1.45,17.93,7.92,21.16,30.42,21.29,31.37,.21,1.55-.88,2.98-2.43,3.19Z"/>
    </g>
  </g>
</svg>