<?xml version="1.0" encoding="UTF-8"?>
<svg id="Layer_1" data-name="Layer 1" xmlns="http://www.w3.org/2000/svg" xmlns:xlink="http://www.w3.org/1999/xlink" viewBox="0 0 224.57 161.78">
  <defs>
    <style>
      .cls-1 {
        fill: url(#linear-gradient);
      }

      .cls-2 {
        fill: #64c9f9;
      }

      .cls-3 {
        fill: #263a79;
      }

      .cls-4 {
        fill: url(#linear-gradient-3);
      }

      .cls-5 {
        fill: url(#linear-gradient-2);
      }
    </style>
    <linearGradient id="linear-gradient" x1="169.31" y1="33.78" x2="55.68" y2="100.44" gradientUnits="userSpaceOnUse">
      <stop offset="0" stop-color="#5ca6db"/>
      <stop offset="1" stop-color="#64c9f9"/>
    </linearGradient>
    <linearGradient id="linear-gradient-2" x1="60.52" y1="67.11" x2="163.62" y2="67.11" gradientUnits="userSpaceOnUse">
      <stop offset="0" stop-color="#f8f9fd"/>
      <stop offset="1" stop-color="#c9d2ec"/>
    </linearGradient>
    <linearGradient id="linear-gradient-3" x1="44.24" y1="110.6" x2="180.33" y2="110.6" xlink:href="#linear-gradient"/>
  </defs>
  <rect class="cls-1" x="56.6" y="29.8" width="111.79" height="74.62" rx="3.31" ry="3.31"/>
  <rect class="cls-5" x="60.52" y="33.99" width="103.1" height="66.24"/>
  <g>
    <path class="cls-3" d="M134.55,86.93h-44.29c-.89,0-1.61,.72-1.61,1.61h0c0,.89,.72,1.61,1.61,1.61h44.29c.89,0,1.61-.72,1.61-1.61h0c0-.89-.72-1.61-1.61-1.61Z"/>
    <path class="cls-3" d="M131.49,81.62h-.89l-.9-18.65h1.11c.39,0,.71-.32,.71-.71s-.32-.71-.71-.71h-7.82c-.39,0-.71,.32-.71,.71s.32,.71,.71,.71h1.11l-.9,18.65h-7.09l-.9-18.65h1.11c.39,0,.71-.32,.71-.71s-.32-.71-.71-.71h-7.82c-.39,0-.71,.32-.71,.71s.32,.71,.71,.71h1.11l-.9,18.65h-6.93l-.9-18.65h1.11c.39,0,.71-.32,.71-.71s-.32-.71-.71-.71h-7.82c-.39,0-.71,.32-.71,.71s.32,.71,.71,.71h1.11l-.9,18.65h-1.05c-.89,0-1.61,.72-1.61,1.61s.72,1.61,1.61,1.61h38.18c.89,0,1.61-.72,1.61-1.61s-.72-1.61-1.61-1.61Z"/>
    <path class="cls-3" d="M135.57,54.56l-23.16-11.9h0s0,0,0,0l-23.16,11.9c-1.04,.53-1.42,1.83-.83,2.84l.6,1.03c.36,.63,1.04,1.02,1.77,1.02h43.27c.73,0,1.4-.39,1.77-1.02l.6-1.03c.58-1.01,.2-2.3-.83-2.84Zm-23.16-.25c-1.8,0-3.25-1.46-3.25-3.25s1.46-3.25,3.25-3.25,3.25,1.46,3.25,3.25-1.46,3.25-3.25,3.25Z"/>
  </g>
  <path class="cls-4" d="M177.29,107.97l-12.63-3.55H59.91l-12.63,3.55c-1.8,.5-3.04,2.14-3.04,4.01v.64c0,2.3,1.86,4.16,4.16,4.16h127.76c2.3,0,4.16-1.86,4.16-4.16v-.64c0-1.87-1.24-3.51-3.04-4.01Z"/>
  <polygon class="cls-2" points="59.91 104.42 47.28 107.97 177.29 107.97 164.66 104.42 59.91 104.42"/>
</svg>