<?xml version="1.0" encoding="UTF-8"?>
<svg xmlns="http://www.w3.org/2000/svg" xmlns:xlink="http://www.w3.org/1999/xlink" viewBox="0 0 224.57 161.78">
  <defs>
    <style>
      .cls-1 {
        fill: url(#linear-gradient);
      }

      .cls-2 {
        fill: #fff;
      }

      .cls-3 {
        fill: #263a79;
      }

      .cls-4 {
        fill: #344f93;
      }

      .cls-5 {
        fill: url(#linear-gradient-2);
      }

      .cls-5, .cls-6 {
        mix-blend-mode: multiply;
      }

      .cls-7 {
        fill: url(#linear-gradient-3);
      }

      .cls-8 {
        fill: url(#linear-gradient-4);
      }

      .cls-9 {
        fill: url(#linear-gradient-5);
      }

      .cls-10 {
        opacity: .5;
      }

      .cls-11 {
        opacity: .87;
      }

      .cls-12 {
        isolation: isolate;
      }

      .cls-6 {
        opacity: .25;
      }
    </style>
    <linearGradient id="linear-gradient" x1="61.04" y1="90.92" x2="152.54" y2="90.92" gradientUnits="userSpaceOnUse">
      <stop offset="0" stop-color="#5ca6db"/>
      <stop offset="1" stop-color="#64c9f9"/>
    </linearGradient>
    <linearGradient id="linear-gradient-2" x1="103.4" y1="74.14" y2="74.14" xlink:href="#linear-gradient"/>
    <linearGradient id="linear-gradient-3" x1="162.92" y1="42.65" x2="168.08" y2="42.65" xlink:href="#linear-gradient"/>
    <linearGradient id="linear-gradient-4" x1="166.48" y1="66.49" x2="168.27" y2="66.49" xlink:href="#linear-gradient"/>
    <linearGradient id="linear-gradient-5" x1="162.78" y1="93.64" x2="171.97" y2="93.64" xlink:href="#linear-gradient"/>
  </defs>
  <g class="cls-12">
    <g id="Layer_1" data-name="Layer 1">
      <g>
        <g class="cls-11">
          <rect class="cls-1" x="61.04" y="58.23" width="91.5" height="65.39"/>
        </g>
        <g>
          <path class="cls-2" d="M69.09,117.8h-1.14c-.31,0-.57-.25-.57-.57v-1.14c0-.31,.25-.57,.57-.57s.57,.25,.57,.57v.57h.57c.31,0,.57,.25,.57,.57s-.25,.57-.57,.57Z"/>
          <path class="cls-2" d="M67.95,114.47c-.31,0-.57-.25-.57-.57v-2.19c0-.31,.25-.57,.57-.57s.57,.25,.57,.57v2.19c0,.31-.25,.57-.57,.57Zm0-4.38c-.31,0-.57-.25-.57-.57v-2.19c0-.31,.25-.57,.57-.57s.57,.25,.57,.57v2.19c0,.31-.25,.57-.57,.57Zm0-4.38c-.31,0-.57-.25-.57-.57v-2.19c0-.31,.25-.57,.57-.57s.57,.25,.57,.57v2.19c0,.31-.25,.57-.57,.57Zm0-4.38c-.31,0-.57-.25-.57-.57v-2.19c0-.31,.25-.57,.57-.57s.57,.25,.57,.57v2.19c0,.31-.25,.57-.57,.57Zm0-4.38c-.31,0-.57-.25-.57-.57v-2.19c0-.31,.25-.57,.57-.57s.57,.25,.57,.57v2.19c0,.31-.25,.57-.57,.57Zm0-4.38c-.31,0-.57-.25-.57-.57v-2.19c0-.31,.25-.57,.57-.57s.57,.25,.57,.57v2.19c0,.31-.25,.57-.57,.57Zm0-4.38c-.31,0-.57-.25-.57-.57v-2.19c0-.31,.25-.57,.57-.57s.57,.25,.57,.57v2.19c0,.31-.25,.57-.57,.57Zm0-4.38c-.31,0-.57-.25-.57-.57v-2.19c0-.31,.25-.57,.57-.57s.57,.25,.57,.57v2.19c0,.31-.25,.57-.57,.57Zm0-4.38c-.31,0-.57-.25-.57-.57v-2.19c0-.31,.25-.57,.57-.57s.57,.25,.57,.57v2.19c0,.31-.25,.57-.57,.57Zm0-4.38c-.31,0-.57-.25-.57-.57v-2.19c0-.31,.25-.57,.57-.57s.57,.25,.57,.57v2.19c0,.31-.25,.57-.57,.57Zm0-4.38c-.31,0-.57-.25-.57-.57v-2.19c0-.31,.25-.57,.57-.57s.57,.25,.57,.57v2.19c0,.31-.25,.57-.57,.57Z"/>
          <path class="cls-2" d="M67.95,66.32c-.31,0-.57-.25-.57-.57v-1.14c0-.31,.25-.57,.57-.57h1.14c.31,0,.57,.25,.57,.57s-.25,.57-.57,.57h-.57v.57c0,.31-.25,.57-.57,.57Z"/>
          <path class="cls-2" d="M142.2,65.19h-2.28c-.31,0-.57-.25-.57-.57s.25-.57,.57-.57h2.28c.31,0,.57,.25,.57,.57s-.25,.57-.57,.57Zm-4.57,0h-2.28c-.31,0-.57-.25-.57-.57s.25-.57,.57-.57h2.28c.31,0,.57,.25,.57,.57s-.25,.57-.57,.57Zm-4.57,0h-2.28c-.31,0-.57-.25-.57-.57s.25-.57,.57-.57h2.28c.31,0,.57,.25,.57,.57s-.25,.57-.57,.57Zm-4.57,0h-2.28c-.31,0-.57-.25-.57-.57s.25-.57,.57-.57h2.28c.31,0,.57,.25,.57,.57s-.25,.57-.57,.57Zm-4.57,0h-2.28c-.31,0-.57-.25-.57-.57s.25-.57,.57-.57h2.28c.31,0,.57,.25,.57,.57s-.25,.57-.57,.57Zm-4.57,0h-2.28c-.31,0-.57-.25-.57-.57s.25-.57,.57-.57h2.28c.31,0,.57,.25,.57,.57s-.25,.57-.57,.57Zm-4.57,0h-2.28c-.31,0-.57-.25-.57-.57s.25-.57,.57-.57h2.28c.31,0,.57,.25,.57,.57s-.25,.57-.57,.57Zm-4.57,0h-2.28c-.31,0-.57-.25-.57-.57s.25-.57,.57-.57h2.28c.31,0,.57,.25,.57,.57s-.25,.57-.57,.57Zm-4.57,0h-2.28c-.31,0-.57-.25-.57-.57s.25-.57,.57-.57h2.28c.31,0,.57,.25,.57,.57s-.25,.57-.57,.57Zm-4.57,0h-2.28c-.31,0-.57-.25-.57-.57s.25-.57,.57-.57h2.28c.31,0,.57,.25,.57,.57s-.25,.57-.57,.57Zm-4.57,0h-2.28c-.31,0-.57-.25-.57-.57s.25-.57,.57-.57h2.28c.31,0,.57,.25,.57,.57s-.25,.57-.57,.57Zm-4.57,0h-2.28c-.31,0-.57-.25-.57-.57s.25-.57,.57-.57h2.28c.31,0,.57,.25,.57,.57s-.25,.57-.57,.57Zm-4.57,0h-2.28c-.31,0-.57-.25-.57-.57s.25-.57,.57-.57h2.28c.31,0,.57,.25,.57,.57s-.25,.57-.57,.57Zm-4.57,0h-2.28c-.31,0-.57-.25-.57-.57s.25-.57,.57-.57h2.28c.31,0,.57,.25,.57,.57s-.25,.57-.57,.57Zm-4.57,0h-2.28c-.31,0-.57-.25-.57-.57s.25-.57,.57-.57h2.28c.31,0,.57,.25,.57,.57s-.25,.57-.57,.57Zm-4.57,0h-2.28c-.31,0-.57-.25-.57-.57s.25-.57,.57-.57h2.28c.31,0,.57,.25,.57,.57s-.25,.57-.57,.57Z"/>
          <path class="cls-2" d="M145.62,66.32c-.31,0-.57-.25-.57-.57v-.57h-.57c-.31,0-.57-.25-.57-.57s.25-.57,.57-.57h1.14c.31,0,.57,.25,.57,.57v1.14c0,.31-.25,.57-.57,.57Z"/>
          <path class="cls-2" d="M145.62,114.47c-.31,0-.57-.25-.57-.57v-2.19c0-.31,.25-.57,.57-.57s.57,.25,.57,.57v2.19c0,.31-.25,.57-.57,.57Zm0-4.38c-.31,0-.57-.25-.57-.57v-2.19c0-.31,.25-.57,.57-.57s.57,.25,.57,.57v2.19c0,.31-.25,.57-.57,.57Zm0-4.38c-.31,0-.57-.25-.57-.57v-2.19c0-.31,.25-.57,.57-.57s.57,.25,.57,.57v2.19c0,.31-.25,.57-.57,.57Zm0-4.38c-.31,0-.57-.25-.57-.57v-2.19c0-.31,.25-.57,.57-.57s.57,.25,.57,.57v2.19c0,.31-.25,.57-.57,.57Zm0-4.38c-.31,0-.57-.25-.57-.57v-2.19c0-.31,.25-.57,.57-.57s.57,.25,.57,.57v2.19c0,.31-.25,.57-.57,.57Zm0-4.38c-.31,0-.57-.25-.57-.57v-2.19c0-.31,.25-.57,.57-.57s.57,.25,.57,.57v2.19c0,.31-.25,.57-.57,.57Zm0-4.38c-.31,0-.57-.25-.57-.57v-2.19c0-.31,.25-.57,.57-.57s.57,.25,.57,.57v2.19c0,.31-.25,.57-.57,.57Zm0-4.38c-.31,0-.57-.25-.57-.57v-2.19c0-.31,.25-.57,.57-.57s.57,.25,.57,.57v2.19c0,.31-.25,.57-.57,.57Zm0-4.38c-.31,0-.57-.25-.57-.57v-2.19c0-.31,.25-.57,.57-.57s.57,.25,.57,.57v2.19c0,.31-.25,.57-.57,.57Zm0-4.38c-.31,0-.57-.25-.57-.57v-2.19c0-.31,.25-.57,.57-.57s.57,.25,.57,.57v2.19c0,.31-.25,.57-.57,.57Zm0-4.38c-.31,0-.57-.25-.57-.57v-2.19c0-.31,.25-.57,.57-.57s.57,.25,.57,.57v2.19c0,.31-.25,.57-.57,.57Z"/>
          <path class="cls-2" d="M145.62,117.8h-1.14c-.31,0-.57-.25-.57-.57s.25-.57,.57-.57h.57v-.57c0-.31,.25-.57,.57-.57s.57,.25,.57,.57v1.14c0,.31-.25,.57-.57,.57Z"/>
          <path class="cls-2" d="M142.2,117.8h-2.28c-.31,0-.57-.25-.57-.57s.25-.57,.57-.57h2.28c.31,0,.57,.25,.57,.57s-.25,.57-.57,.57Zm-4.57,0h-2.28c-.31,0-.57-.25-.57-.57s.25-.57,.57-.57h2.28c.31,0,.57,.25,.57,.57s-.25,.57-.57,.57Zm-4.57,0h-2.28c-.31,0-.57-.25-.57-.57s.25-.57,.57-.57h2.28c.31,0,.57,.25,.57,.57s-.25,.57-.57,.57Zm-4.57,0h-2.28c-.31,0-.57-.25-.57-.57s.25-.57,.57-.57h2.28c.31,0,.57,.25,.57,.57s-.25,.57-.57,.57Zm-4.57,0h-2.28c-.31,0-.57-.25-.57-.57s.25-.57,.57-.57h2.28c.31,0,.57,.25,.57,.57s-.25,.57-.57,.57Zm-4.57,0h-2.28c-.31,0-.57-.25-.57-.57s.25-.57,.57-.57h2.28c.31,0,.57,.25,.57,.57s-.25,.57-.57,.57Zm-4.57,0h-2.28c-.31,0-.57-.25-.57-.57s.25-.57,.57-.57h2.28c.31,0,.57,.25,.57,.57s-.25,.57-.57,.57Zm-4.57,0h-2.28c-.31,0-.57-.25-.57-.57s.25-.57,.57-.57h2.28c.31,0,.57,.25,.57,.57s-.25,.57-.57,.57Zm-4.57,0h-2.28c-.31,0-.57-.25-.57-.57s.25-.57,.57-.57h2.28c.31,0,.57,.25,.57,.57s-.25,.57-.57,.57Zm-4.57,0h-2.28c-.31,0-.57-.25-.57-.57s.25-.57,.57-.57h2.28c.31,0,.57,.25,.57,.57s-.25,.57-.57,.57Zm-4.57,0h-2.28c-.31,0-.57-.25-.57-.57s.25-.57,.57-.57h2.28c.31,0,.57,.25,.57,.57s-.25,.57-.57,.57Zm-4.57,0h-2.28c-.31,0-.57-.25-.57-.57s.25-.57,.57-.57h2.28c.31,0,.57,.25,.57,.57s-.25,.57-.57,.57Zm-4.57,0h-2.28c-.31,0-.57-.25-.57-.57s.25-.57,.57-.57h2.28c.31,0,.57,.25,.57,.57s-.25,.57-.57,.57Zm-4.57,0h-2.28c-.31,0-.57-.25-.57-.57s.25-.57,.57-.57h2.28c.31,0,.57,.25,.57,.57s-.25,.57-.57,.57Zm-4.57,0h-2.28c-.31,0-.57-.25-.57-.57s.25-.57,.57-.57h2.28c.31,0,.57,.25,.57,.57s-.25,.57-.57,.57Zm-4.57,0h-2.28c-.31,0-.57-.25-.57-.57s.25-.57,.57-.57h2.28c.31,0,.57,.25,.57,.57s-.25,.57-.57,.57Z"/>
        </g>
        <g class="cls-10">
          <rect class="cls-4" x="84.13" y="77.95" width="45.31" height="2.93" rx="1.46" ry="1.46"/>
          <path class="cls-4" d="M110.42,101.87h-32.06c-.81,0-1.46-.66-1.46-1.46h0c0-.81,.66-1.46,1.46-1.46h32.06c.81,0,1.46,.66,1.46,1.46h0c0,.81-.66,1.46-1.46,1.46Z"/>
          <rect class="cls-4" x="76.9" y="106.36" width="17.15" height="2.93" rx="1.46" ry="1.46"/>
          <path class="cls-4" d="M127.36,109.28h-28.57c-.81,0-1.46-.66-1.46-1.46h0c0-.81,.66-1.46,1.46-1.46h28.57c.81,0,1.46,.66,1.46,1.46h0c0,.81-.66,1.46-1.46,1.46Z"/>
          <path class="cls-4" d="M135.22,101.87h-18.29c-.81,0-1.46-.66-1.46-1.46h0c0-.81,.66-1.46,1.46-1.46h18.29c.81,0,1.46,.66,1.46,1.46h0c0,.81-.66,1.46-1.46,1.46Z"/>
        </g>
        <g class="cls-6">
          <path class="cls-5" d="M152.54,58.23v30.38c-.24,.48-.5,.97-.76,1.45-6.7-8.54-26.13-12.93-26.13-12.93,0,0-11.75-16.1-22.25-18.85,.01-.01,.02-.03,.03-.04h49.11Z"/>
        </g>
        <g>
          <path class="cls-7" d="M167.58,41.76h-4.66v1.79h3.56s1.6-1.57,1.6-1.57c-.13-.13-.3-.22-.5-.22Z"/>
          <path class="cls-4" d="M187.69,70.44c.13-.26,.11-.59-.12-.88l-35.04-43.21c-.18-.22-.44-.35-.72-.37l-55.56-3.01c-.37-.02-.65,.16-.78,.42l-1.04,2.04,3.58,1.83,32.62,40.23c.18,.22,.44,.35,.72,.37l51.72,2.8,3.58,1.83,1.04-2.04Z"/>
          <path class="cls-3" d="M185.87,72.9l-55.56-3.01c-.28-.02-.55-.15-.72-.37l-25.97-32.03-.95-1.18-8.11-10.01c-.46-.57-.07-1.34,.66-1.3l10.36,.56,1.25,.07,43.94,2.38c.28,.02,.55,.15,.72,.37l35.04,43.21c.46,.57,.07,1.34-.66,1.3Z"/>
          <path class="cls-4" d="M154.87,84.55c-7.59-7.76-27.39-10-27.39-10,0,0-13.43-14.72-24.17-16.31,9.6-15.66,27.16-22.77,40.61-15.91,13.45,6.86,18,25.25,10.95,42.21Z"/>
          <path class="cls-8" d="M166.48,43.55v47.46h1.79V42.45c0-.18-.07-.35-.19-.47l-1.6,1.57Z"/>
          <path class="cls-9" d="M169.1,89.07l-1.41-.65c-.2-.09-.44-.09-.64,0l-1.41,.65c-.2,.09-.35,.27-.41,.48l-2.43,8.42c-.14,.48,.22,.97,.73,.97h7.68c.5,0,.87-.48,.73-.97l-2.43-8.42c-.06-.21-.21-.38-.41-.48Z"/>
        </g>
      </g>
    </g>
  </g>
</svg>