<?xml version="1.0" encoding="UTF-8"?>
<svg id="Layer_1" data-name="Layer 1" xmlns="http://www.w3.org/2000/svg" xmlns:xlink="http://www.w3.org/1999/xlink" viewBox="0 0 224.57 161.78">
  <defs>
    <style>
      .cls-1 {
        fill: url(#linear-gradient);
      }

      .cls-2 {
        fill: #f8f9fd;
      }

      .cls-3 {
        fill: #263a79;
      }

      .cls-4 {
        fill: #344f93;
      }

      .cls-5 {
        fill: url(#linear-gradient-8);
      }

      .cls-6 {
        fill: url(#linear-gradient-9);
      }

      .cls-7 {
        fill: url(#linear-gradient-3);
      }

      .cls-8 {
        fill: url(#linear-gradient-4);
      }

      .cls-9 {
        fill: url(#linear-gradient-2);
      }

      .cls-10 {
        fill: url(#linear-gradient-6);
      }

      .cls-11 {
        fill: url(#linear-gradient-7);
      }

      .cls-12 {
        fill: url(#linear-gradient-5);
      }

      .cls-13 {
        fill: url(#linear-gradient-10);
      }

      .cls-14 {
        fill: url(#linear-gradient-11);
      }
    </style>
    <linearGradient id="linear-gradient" x1="113.26" y1="42.91" x2="113.26" y2="104.77" gradientUnits="userSpaceOnUse">
      <stop offset=".37" stop-color="#5ca6db"/>
      <stop offset="1" stop-color="#64c9f9"/>
    </linearGradient>
    <linearGradient id="linear-gradient-2" x1="57.85" y1="36.79" x2="169.07" y2="36.79" gradientUnits="userSpaceOnUse">
      <stop offset="0" stop-color="#25579a"/>
      <stop offset="1" stop-color="#4b9cd3"/>
    </linearGradient>
    <linearGradient id="linear-gradient-3" x1="82.58" y1="61.26" x2="82.58" y2="44.89" gradientUnits="userSpaceOnUse">
      <stop offset="0" stop-color="#f8f9fd"/>
      <stop offset="1" stop-color="#c9d2ec"/>
    </linearGradient>
    <linearGradient id="linear-gradient-4" x1="113.46" y1="61.26" x2="113.46" y2="44.89" xlink:href="#linear-gradient-3"/>
    <linearGradient id="linear-gradient-5" x1="145.24" y1="61.26" x2="145.24" y2="44.89" xlink:href="#linear-gradient-3"/>
    <linearGradient id="linear-gradient-6" x1="88.36" y1="108.4" x2="88.36" y2="71.29" gradientUnits="userSpaceOnUse">
      <stop offset=".53" stop-color="#f8f9fd"/>
      <stop offset="1" stop-color="#c9d2ec"/>
    </linearGradient>
    <linearGradient id="linear-gradient-7" x1="129.19" y1="108.4" x2="129.19" y2="71.27" xlink:href="#linear-gradient-6"/>
    <linearGradient id="linear-gradient-8" x1="155.94" y1="15.35" x2="69.14" y2="41.37" xlink:href="#linear-gradient-3"/>
    <linearGradient id="linear-gradient-9" x1="158.38" y1="23.5" x2="71.58" y2="49.52" xlink:href="#linear-gradient-3"/>
    <linearGradient id="linear-gradient-10" x1="160.83" y1="31.66" x2="74.03" y2="57.68" xlink:href="#linear-gradient-3"/>
    <linearGradient id="linear-gradient-11" x1="85.55" y1="71.3" x2="85.55" y2="105.64" gradientUnits="userSpaceOnUse">
      <stop offset="0" stop-color="#f8f9fd"/>
      <stop offset="1" stop-color="#fff" stop-opacity="0"/>
    </linearGradient>
  </defs>
  <rect class="cls-1" x="65.4" y="29.64" width="95.73" height="76.9"/>
  <polygon class="cls-9" points="169.07 43.95 57.85 43.95 65.4 29.64 161.52 29.64 169.07 43.95"/>
  <path class="cls-3" d="M57.85,43.95h15.89v7.94c0,4.38-3.56,7.94-7.94,7.94h0c-4.38,0-7.94-3.56-7.94-7.94v-7.94h0Z"/>
  <path class="cls-7" d="M74.64,43.95h15.89v7.94c0,4.38-3.56,7.94-7.94,7.94h0c-4.38,0-7.94-3.56-7.94-7.94v-7.94h0Z"/>
  <path class="cls-3" d="M89.63,43.95h15.89v7.94c0,4.38-3.56,7.94-7.94,7.94h0c-4.38,0-7.94-3.56-7.94-7.94v-7.94h0Z"/>
  <path class="cls-8" d="M105.52,43.95h15.89v7.94c0,4.38-3.56,7.94-7.94,7.94h0c-4.38,0-7.94-3.56-7.94-7.94v-7.94h0Z"/>
  <path class="cls-3" d="M121.4,43.95h15.89v7.94c0,4.38-3.56,7.94-7.94,7.94h0c-4.38,0-7.94-3.56-7.94-7.94v-7.94h0Z"/>
  <path class="cls-12" d="M137.29,43.95h15.89v7.94c0,4.38-3.56,7.94-7.94,7.94h0c-4.38,0-7.94-3.56-7.94-7.94v-7.94h0Z"/>
  <path class="cls-3" d="M153.18,43.95h15.89v7.94c0,4.38-3.56,7.94-7.94,7.94h0c-4.38,0-7.94-3.56-7.94-7.94v-7.94h0Z"/>
  <rect class="cls-4" x="57.45" y="106.54" width="111.62" height="10.4" rx="5.2" ry="5.2"/>
  <path class="cls-10" d="M80.09,69.43h16.54c1.81,0,3.28,1.47,3.28,3.28v33.83h-23.1v-33.83c0-1.81,1.47-3.28,3.28-3.28Z"/>
  <rect class="cls-11" x="107.58" y="69.43" width="43.21" height="28.75" rx="3.28" ry="3.28"/>
  <polygon class="cls-5" points="79.16 29.64 73.74 43.95 89.63 43.95 92.92 29.64 79.16 29.64"/>
  <polygon class="cls-6" points="106.68 29.64 105.52 43.95 121.4 43.95 120.45 29.64 106.68 29.64"/>
  <polygon class="cls-13" points="134.21 29.64 137.29 43.95 153.18 43.95 147.97 29.64 134.21 29.64"/>
  <polygon class="cls-14" points="84.97 106.54 77.55 106.54 86.14 69.43 93.55 69.43 84.97 106.54"/>
  <polygon class="cls-2" points="142.2 69.43 135.55 98.18 128.14 98.18 134.8 69.43 142.2 69.43"/>
  <polygon class="cls-2" points="132.04 69.43 125.39 98.18 117.98 98.18 124.63 69.43 132.04 69.43"/>
</svg>