<svg width="260" height="187" viewBox="0 0 260 187" fill="none" xmlns="http://www.w3.org/2000/svg">
<path opacity="0.25" d="M248.698 186.586C232.309 186.586 10.7364 186.109 10.7364 186.082C10.6446 185.868 -17.391 151.505 17.9118 115.578C35.4045 97.7769 1.84794 74.7147 17.9118 54.9128C45.4287 20.9935 72.6549 40.0965 95.3355 30.5566C99.3435 28.8722 103.365 26.1627 107.39 22.0032C109.656 19.6642 112.139 17.6193 114.798 15.8531C115.206 15.581 115.617 15.3156 116.033 15.0579C117.625 14.0703 119.276 13.1778 120.976 12.3749C122.118 11.8363 123.281 11.3386 124.466 10.8808C126.346 10.1542 128.278 9.52709 130.251 8.99734C133.054 8.2442 135.938 7.68348 138.88 7.30414C140.163 7.13715 141.457 7.00665 142.761 6.90822C168.104 5.00268 196.624 15.7193 211.343 31.3827C214.306 34.5369 227.781 50.8562 217.16 73.288C210.453 87.4507 238.549 100.976 248.532 117.15C273.914 158.268 248.928 186.05 248.697 186.586H248.698Z" fill="url(#paint0_linear_1382_4849)"/>
<g opacity="0.8">
<path opacity="0.3" d="M191.353 90.9875C190.676 92.8477 189.847 94.6106 188.881 96.2629C186.564 100.229 183.474 103.563 179.88 106.141C171.529 112.133 160.459 114.034 150.07 110.257C137.711 105.765 129.773 94.4978 128.928 82.1721C128.815 80.5474 128.826 78.9051 128.969 77.2573C129.203 74.4902 129.805 71.7076 130.798 68.9748C131.602 66.7641 132.623 64.6937 133.827 62.7816C133.84 62.7594 133.855 62.7384 133.868 62.7163C137.213 57.4343 141.963 53.3567 147.426 50.8009C148.975 50.0754 150.583 49.4726 152.233 49.0004C153.02 48.7748 153.818 48.579 154.621 48.4154C160.258 47.2552 166.276 47.5925 172.083 49.7038C172.853 49.9836 173.606 50.2899 174.34 50.6217C175.378 51.0873 176.378 51.6038 177.342 52.1656C181.399 54.5312 184.795 57.7064 187.398 61.4025H187.399C189.022 63.7039 190.334 66.2067 191.306 68.8421C191.817 70.2268 192.234 71.6468 192.552 73.0945C192.75 73.9958 192.909 74.9049 193.029 75.8251C193.319 78.0336 193.379 80.2864 193.198 82.5514C192.97 85.3682 192.365 88.2039 191.353 90.9897V90.9875Z" fill="#64C9F9"/>
<path opacity="0.5" d="M155.716 62.6887C153.813 64.1629 154.317 68.1078 151.021 65.8848C147.726 63.6608 145.657 62.452 144.724 64.3929C143.789 66.3339 146.71 67.3956 145.942 69.5101C145.173 71.6247 143.609 71.8481 141.961 70.1118C140.311 68.3754 140.264 66.7044 137.594 66.7597C134.923 66.8149 133.784 65.7167 133.915 63.7117C133.937 63.3589 133.901 63.0536 133.827 62.7816C133.84 62.7595 133.855 62.7384 133.868 62.7163C137.212 57.4343 141.962 53.3567 147.426 50.8009C148.975 50.0754 150.583 49.4727 152.233 49.0004C153.02 48.7748 153.818 48.5791 154.621 48.4154C155.552 48.7936 156.551 49.5611 157.08 51.1006C158.242 54.4881 160.128 53.6907 158.526 56.5286C156.924 59.3653 157.584 60.0621 159.331 60.583C161.08 61.1039 163.094 61.836 162.819 63.2184C162.544 64.6008 157.62 61.2133 155.716 62.6887Z" fill="#64C9F9"/>
<path opacity="0.5" d="M191.353 90.9876C190.676 92.8477 189.847 94.6106 188.882 96.2629C186.565 100.229 183.475 103.563 179.88 106.141C178.984 106.114 178.169 105.809 177.483 105.196C174.255 102.312 178.532 99.2512 180.784 97.7603C183.035 96.2706 178.855 95.7763 176.747 92.8732C174.639 89.9701 179.575 86.0351 176.403 85.8228C173.231 85.6105 169.374 85.4048 168.728 82.0073C168.082 78.6098 171.419 79.3088 170.835 76.4466C170.251 73.5844 173.01 73.048 175.962 73.8653C178.914 74.6815 179.278 72.5061 182.936 73.4937C186.596 74.4814 184.872 78.9847 188.909 80.1106C192.946 81.2364 192.439 82.0781 192.439 82.0781C192.725 82.1732 192.978 82.3324 193.197 82.5481C192.969 85.3649 192.364 88.2006 191.352 90.9864L191.353 90.9876Z" fill="#64C9F9"/>
<path opacity="0.5" d="M193.03 75.824C189.187 76.2254 189.447 71.4278 186.184 71.7132C182.894 71.9996 184.302 69.6606 182.674 67.2452C181.044 64.8298 175.553 66.1392 176.669 63.694C177.785 61.251 180.852 63.162 182.288 61.4058C183.725 59.6484 186.764 61.3228 186.764 61.3228C186.972 61.3195 187.184 61.3461 187.399 61.4025C187.399 61.4025 187.399 61.4014 187.4 61.4025C189.022 63.7039 190.335 66.2056 191.307 68.8421C191.818 70.2268 192.235 71.6468 192.552 73.0945C192.75 73.9958 192.91 74.9049 193.03 75.8251V75.824Z" fill="#64C9F9"/>
<path opacity="0.5" d="M168.676 57.1402C168.676 57.1402 171.285 55.2932 168.832 53.5757C166.378 51.8593 166.082 52.8314 164.05 51.8372C162.017 50.8429 160.592 52.1778 161.528 54.5412C162.464 56.9046 162.502 60.8008 164.601 59.4947C166.7 58.1886 166.927 56.7033 168.677 57.1402H168.676Z" fill="#64C9F9"/>
</g>
<path d="M204.327 117.762C204.327 117.762 204.576 115.292 203.284 115.377C201.993 115.461 201.65 116.054 201.795 116.529C201.938 117.004 203.196 118.575 203.196 118.575L204.328 117.764L204.327 117.762Z" fill="#EB7B6E"/>
<path d="M224.459 122.713C224.459 122.713 223.029 124.394 219.953 126.332C219.662 126.517 219.357 126.702 219.036 126.889C217.842 127.584 216.441 128.298 214.823 128.962C214.644 129.035 214.435 129.116 214.2 129.201C212.356 129.867 208.965 130.81 206.864 130.896C206.682 130.903 206.508 130.903 206.347 130.897C203.148 130.767 202.758 118.353 202.758 118.353C202.758 118.353 203.114 117.111 204.757 117.424C204.757 117.424 207.253 124.436 208.147 125.007C208.941 125.515 213.508 118.594 217.438 118.11C220.084 117.783 224.459 122.716 224.459 122.716V122.713Z" fill="#739AF0"/>
<path d="M215.864 183.254C215.864 183.254 216.101 185.987 215.522 186.271L208.129 186.256C208.129 186.256 208.129 185.402 209.317 185.213C210.504 185.024 212.59 184.328 212.943 182.78C213.296 181.231 215.864 183.254 215.864 183.254Z" fill="#1C3154"/>
<path d="M210.437 150.178C210.474 151.965 210.56 153.808 210.728 155.465C211.527 163.326 211.808 172.824 211.923 174.655C212.122 177.834 212.75 182.912 212.75 182.912C212.75 182.912 213.995 184.095 216.423 183.531C216.423 183.531 218.435 176.217 218.884 168.515C218.89 168.389 218.897 168.262 218.903 168.135C218.955 167.116 219.01 165.953 219.066 164.698C219.435 156.289 219.838 143.797 219.838 143.797L210.56 141.619C210.56 141.619 210.347 145.724 210.437 150.18V150.178Z" fill="#2A4E96"/>
<path d="M210.437 150.178C212.789 154.234 217.27 161.708 219.066 164.695C219.435 156.287 219.838 143.795 219.838 143.795L210.56 141.617C210.56 141.617 210.347 145.722 210.437 150.178Z" fill="#233862"/>
<path d="M214.199 129.2C212.355 129.866 208.965 130.809 206.863 130.894C207.185 130.835 209.525 130.37 210.39 129.326C211.319 128.203 212.884 125.152 214.129 126.398C214.715 126.984 214.543 128.142 214.199 129.201V129.2Z" fill="#6385DB"/>
<path d="M229.788 148.856C229.788 148.856 230.365 151.114 230.27 151.616C230.176 152.119 229.613 153.817 229.262 154.24C228.911 154.661 228.897 152.407 228.664 152.052C228.43 151.698 228.556 152.894 228.37 152.992C228.183 153.09 227.871 152.086 227.733 151.73C227.594 151.374 228.23 150.136 228.29 149.248C228.349 148.359 229.787 148.856 229.787 148.856H229.788Z" fill="#EB7B6E"/>
<path d="M234.282 180.149C234.282 180.149 235.598 181.35 235.342 182.202C235.085 183.056 233.897 183.625 233.737 184.668C233.577 185.71 232.935 186.279 232.357 186.279H229.603C229.603 186.279 229.177 185.545 230.205 185.323C231.232 185.102 231.619 183.877 231.555 182.739C231.491 181.601 231.651 180.085 231.651 180.085L233.833 179.579L234.282 180.148V180.149Z" fill="#1C3154"/>
<path d="M212.021 143.985C212.021 143.985 220.706 162.568 225.328 170.721C229.95 178.874 231.394 181.15 231.394 181.15C231.394 181.15 234.042 180.107 234.283 179.396C234.283 179.396 232.516 163.655 229.42 159.818C227.672 157.65 225.617 151.143 225.521 148.868C225.424 146.593 223.395 141.162 223.395 141.162L212.021 143.985Z" fill="#2A4E96"/>
<path d="M210.404 143.019C210.404 143.019 213.232 146.062 218.037 146.981C220.146 147.385 224.427 147.776 225.489 146.274C225.738 145.921 225.74 145.399 225.685 144.584C225.542 142.466 225.009 138.371 227.414 130.141C227.639 129.376 227.789 128.642 227.877 127.942C228.402 123.731 228.344 120.554 224.693 118.856C219.219 116.313 216.973 118.405 216.973 118.405C216.973 118.405 214.062 119.765 212.732 123.729C210.072 131.657 210.403 143.018 210.403 143.018L210.404 143.019Z" fill="#739AF0"/>
<path d="M221.407 118.157C220.485 118.812 218.864 119.198 217.319 118.425C217.2 118.365 217.215 117.548 217.245 116.745C217.275 115.958 217.349 115.183 217.349 115.183L219.296 113.905L221.154 112.686C220.932 116.879 221.823 117.86 221.408 118.156L221.407 118.157Z" fill="#EB7B6E"/>
<path d="M220.826 114.417C220.826 114.417 219.562 116.314 217.244 116.745C217.274 115.958 217.358 115.089 217.358 115.089L219.296 113.906L220.827 114.418L220.826 114.417Z" fill="#9F4D43"/>
<path d="M215.604 114.691C215.604 114.691 220.315 116.45 221.363 113.547C222.412 110.643 223.726 108.916 220.762 107.671C217.798 106.425 216.81 107.323 216.221 108.207C215.631 109.091 214.405 114.159 215.604 114.691Z" fill="#EB7B6E"/>
<path d="M224.299 107.997C224.353 107.955 224.462 107.934 224.692 107.967C224.692 107.967 224.533 107.818 224.292 107.764C224.307 107.438 224.249 106.847 223.734 106.605C223.734 106.605 223.995 106.818 223.967 107.161C223.466 106.391 222.211 105.655 218.422 105.212C213.427 104.629 214.426 108.098 214.989 108.599C215.552 109.1 217.357 108.387 218.525 108.716C219.692 109.044 219.58 110.803 219.935 111.117C220.291 111.432 220.215 110.984 220.807 110.846C221.4 110.708 221.274 111.62 221.001 112.175C220.728 112.73 221.323 113.653 221.323 113.653L222.239 112.988C223.156 112.323 224.55 109.016 224.352 108.213C224.334 108.142 224.318 108.07 224.3 107.998L224.299 107.997Z" fill="#2C3A64"/>
<path d="M225.684 144.584C225.542 142.466 225.009 138.371 227.414 130.141C227.639 129.376 227.789 128.642 227.876 127.942C226.089 127.352 222.833 128.663 222.833 128.663C222.833 128.663 222.068 139.541 225.686 144.583L225.684 144.584Z" fill="#6385DB"/>
<path d="M225.677 119.407C225.677 119.407 227.876 120.207 229.279 126.029C230.206 129.876 231.912 135.531 232.105 137.308C232.297 139.085 230.154 149.488 230.154 149.488C230.154 149.488 229.852 149.708 229.111 149.559C228.402 149.418 228.073 148.938 228.073 148.938C228.073 148.938 227.56 142.005 227.692 138.73C227.747 137.37 221.396 128.769 217.967 127.661C216.622 127.226 225.677 119.406 225.677 119.406V119.407Z" fill="#739AF0"/>
<path d="M194.918 111.87C194.918 111.87 201.274 111.69 208.608 113.04L209.375 111.109L210.215 108.993C210.215 108.993 202.852 105.824 198.426 101.409L194.918 111.87Z" fill="#64C9F9" fill-opacity="0.49"/>
<path d="M198.527 101.305L194.877 112.077C194.343 111.919 194.052 111.346 194.238 110.822L197.449 101.77C197.605 101.333 198.1 101.118 198.527 101.305Z" fill="#64C9F9"/>
<path d="M202.01 119.887C202.719 120.029 203.416 119.564 203.559 118.855L204.815 112.568C204.957 111.858 204.492 111.162 203.783 111.019C203.073 110.878 202.378 111.342 202.235 112.051L200.979 118.339C200.837 119.049 201.301 119.744 202.01 119.887Z" fill="#64C9F9"/>
<path d="M194.918 111.87C194.918 111.87 201.274 111.69 208.608 113.04L209.375 111.109C202.483 109.701 194.918 111.87 194.918 111.87Z" fill="#4FA3CB"/>
<path d="M206.581 112.651L208.567 113C208.537 113.001 210.412 113.365 211.027 111.703C211.083 111.589 211.12 111.477 211.145 111.345C211.623 109.273 210.486 108.892 210.486 108.892L207.93 107.895L207.119 110.77V110.78L206.583 112.651H206.581Z" fill="#64C9F9"/>
<path d="M206.581 112.651L208.567 113C208.537 113.001 210.412 113.365 211.027 111.703C209.903 110.886 207.117 110.768 207.117 110.768V110.778L206.582 112.65L206.581 112.651Z" fill="#4FA0C7"/>
<path d="M202.18 113.8C202.18 113.8 203.152 114.187 202.973 114.615C202.795 115.043 201.56 115.631 201.365 115.294C201.171 114.957 201.569 113.439 202.18 113.801V113.8Z" fill="#EB7B6E"/>
<path d="M204.346 117.373C204.346 117.373 204.53 116.379 204.541 115.922C204.552 115.465 204.606 115.093 204.499 115.079C204.392 115.066 204.313 115.15 204.27 115.297C204.226 115.444 204.058 116.355 204.058 116.355L204.143 117.234L204.347 117.372L204.346 117.373Z" fill="#EB7B6E"/>
<path d="M108.247 116.724L102.743 182.174C102.743 182.174 102.167 186.141 105.117 186.148C109.969 186.159 129.269 186.148 129.269 186.148C129.269 186.148 125.617 185.322 125.661 183.464C125.713 181.275 132.094 116.105 132.094 116.105L108.247 116.724Z" fill="#7590EA"/>
<path d="M131.084 184.987C130.13 184.991 111.446 185.021 106.72 184.961C104.661 184.935 104.3 183.129 104.283 181.961C104.274 181.402 104.346 180.987 104.346 180.987L104.489 179.286L104.854 174.951L105.175 171.12L105.59 166.197L105.939 162.042L109.85 115.535L133.698 114.916C133.698 114.916 131.01 142.189 129.109 162.041C128.897 164.253 128.696 166.374 128.509 168.354C128.448 168.986 128.39 169.604 128.333 170.205C128.157 172.083 127.996 173.808 127.855 175.331C127.781 176.134 127.712 176.88 127.652 177.563C127.409 180.24 127.267 181.95 127.264 182.275C127.264 182.465 127.28 182.641 127.311 182.805C127.702 184.891 130.726 184.985 131.084 184.985V184.987Z" fill="#90A7F4"/>
<path d="M50.333 81.1082L63.7415 134.966L65.5773 142.342L71.8215 167.427H187.84L164.824 81.1082H50.333Z" fill="#304997"/>
<path d="M50.3336 81.1082L48.4756 81.7275L69.3525 169.3L71.8232 167.427L50.3336 81.1082Z" fill="#4C67C2"/>
<path d="M69.3525 169.3H184.657L187.841 167.427H71.8232L69.3525 169.3Z" fill="#5C78D1"/>
<path d="M109.844 186.174H134.81V184.987H109.844V186.174Z" fill="#AEC1FF"/>
<path d="M128.463 169.3L128.334 170.207L104.855 174.951L105.177 171.12L105.331 169.3H128.463Z" fill="#5884DD"/>
<path opacity="0.97" d="M131.085 184.987C130.13 184.99 111.446 185.021 106.721 184.961C104.661 184.935 104.3 183.129 104.283 181.961L127.651 177.565C127.408 180.243 127.266 181.952 127.264 182.278C127.264 182.467 127.279 182.644 127.31 182.807C127.702 184.893 130.725 184.987 131.084 184.987H131.085Z" fill="#5884DD"/>
<path d="M50.333 81.1082H164.824L183.399 150.482H67.6034L50.333 81.1082Z" fill="#263A79"/>
<path d="M178.001 147.475H70.8027L66.9717 132.215L65.4897 126.31L64.8859 123.903L60.9487 108.22L60.7441 107.404L58.6638 99.114L57.7326 95.4058L56.9386 92.2417L55.0762 84.8252H160.728L162.773 92.2417L163.646 95.4058L164.667 99.114L171.404 123.55V123.551L171.974 125.621L172.24 126.582L176.891 143.451L178.001 147.475Z" fill="url(#paint1_linear_1382_4849)"/>
<path d="M162.773 92.2417H56.9386L55.0762 84.8241H160.729L162.773 92.2417Z" fill="white" fill-opacity="0.19"/>
<path d="M59.4455 88.1762C59.3183 87.6642 59.6291 87.2495 60.1411 87.2495C60.6532 87.2495 61.1718 87.6642 61.299 88.1762C61.4262 88.6883 61.1154 89.103 60.6034 89.103C60.0913 89.103 59.5726 88.6883 59.4455 88.1762Z" fill="#E9F3FE"/>
<path d="M62.5265 88.1762C62.3993 87.6642 62.7101 87.2495 63.2222 87.2495C63.7342 87.2495 64.2529 87.6642 64.3801 88.1762C64.5073 88.6883 64.1965 89.103 63.6844 89.103C63.1724 89.103 62.6537 88.6883 62.5265 88.1762Z" fill="#E9F3FE"/>
<path d="M65.8449 88.1762C65.7177 87.6642 66.0285 87.2495 66.5405 87.2495C67.0526 87.2495 67.5713 87.6642 67.6984 88.1762C67.8256 88.6883 67.5149 89.103 67.0028 89.103C66.4908 89.103 65.9721 88.6883 65.8449 88.1762Z" fill="#E9F3FE"/>
<path d="M139.712 41.7034C144.045 36.6161 150.726 26.3971 155.224 21.1649C156.149 20.0877 155.38 18.4255 153.96 18.4255H145.775L153.495 0.96709C153.825 0.221684 152.81 -0.372208 152.321 0.280298L133.652 25.2658C133.108 25.9946 133.703 27.0209 134.607 26.9092L143.874 25.7679L138.36 40.9126C138.057 41.7465 139.137 42.378 139.712 41.7023V41.7034Z" fill="url(#paint2_linear_1382_4849)"/>
<path opacity="0.5" d="M101.175 72.6875C102.149 67.6875 102.765 58.402 103.795 53.2439C104.007 52.1822 102.873 51.366 101.93 51.8969L96.4932 54.9581L95.0908 40.4747C95.0311 39.8565 94.1342 39.8421 94.0546 40.4581L91.0011 64.0357C90.9126 64.7236 91.6912 65.1826 92.2497 64.7701L97.9773 60.5465L99.9802 72.6676C100.091 73.3345 101.044 73.35 101.174 72.6864L101.175 72.6875Z" fill="#64C9F9"/>
<path d="M182.683 148.952L89.537 156.8C82.4645 157.396 77.3462 150.185 80.2415 143.706L119.704 55.3883C122.698 48.6885 131.9 47.9133 135.972 54.0181L189.656 134.488C193.595 140.392 189.755 148.357 182.683 148.953V148.952Z" fill="#E6EFFF"/>
<path d="M182.979 155.167L89.8334 163.014C85.2526 163.4 80.9283 161.393 78.2674 157.644C75.6065 153.895 75.1376 149.151 77.0133 144.954L116.476 56.6371C118.414 52.2974 122.4 49.4684 127.137 49.0692C131.874 48.6699 136.276 50.7922 138.914 54.7471L192.598 135.217C195.149 139.041 195.481 143.797 193.485 147.937C191.488 152.078 187.561 154.781 182.98 155.167H182.979ZM127.731 56.1151C125.598 56.2943 123.805 57.5683 122.932 59.5214L83.4698 147.839C82.626 149.728 82.8372 151.863 84.0349 153.55C85.2327 155.238 87.1791 156.141 89.2406 155.967L182.386 148.12C184.448 147.946 186.216 146.729 187.114 144.866C188.012 143.002 187.864 140.861 186.715 139.14L133.032 58.671C131.844 56.8915 129.863 55.936 127.731 56.1151Z" fill="#B22039"/>
<path d="M182.979 152.475L89.8334 160.322C85.2526 160.708 80.9283 158.701 78.2674 154.952C75.6065 151.203 75.1376 146.459 77.0133 142.262L116.476 53.9451C118.414 49.6054 122.4 46.7763 127.137 46.3771C131.874 45.9779 136.276 48.1002 138.914 52.055L192.598 132.525C195.149 136.349 195.481 141.104 193.485 145.245C191.488 149.386 187.561 152.089 182.98 152.475H182.979ZM127.731 53.4231C125.598 53.6022 123.805 54.8763 122.932 56.8294L83.4698 145.147C82.626 147.036 82.8372 149.171 84.0349 150.858C85.2327 152.545 87.1791 153.449 89.2406 153.275L182.386 145.428C184.448 145.254 186.216 144.037 187.114 142.174C188.012 140.31 187.864 138.169 186.715 136.448L133.032 55.9789C131.844 54.1994 129.863 53.2439 127.731 53.4231Z" fill="url(#paint3_linear_1382_4849)"/>
<path d="M125.327 138.087C125.226 136.887 125.346 135.759 125.69 134.704C126.032 133.65 126.563 132.717 127.283 131.905C128.003 131.095 128.895 130.432 129.96 129.921C131.023 129.411 132.246 129.096 133.625 128.98C135.003 128.864 136.27 128.969 137.422 129.292C138.576 129.616 139.576 130.119 140.421 130.798C141.267 131.478 141.946 132.31 142.46 133.291C142.974 134.274 143.282 135.365 143.383 136.566C143.484 137.766 143.362 138.885 143.019 139.921C142.675 140.958 142.143 141.882 141.423 142.694C140.703 143.505 139.801 144.168 138.719 144.68C137.636 145.192 136.405 145.507 135.026 145.623C133.647 145.739 132.389 145.634 131.256 145.309C130.121 144.984 129.131 144.481 128.285 143.801C127.44 143.122 126.76 142.3 126.248 141.334C125.735 140.37 125.429 139.287 125.327 138.087ZM139.727 121.236L126.31 122.366L120.547 76.6833L137.765 75.2323L139.727 121.236Z" fill="#B22039"/>
<path d="M125.547 135.44C125.447 134.24 125.566 133.112 125.91 132.057C126.253 131.003 126.784 130.069 127.504 129.258C128.224 128.447 129.115 127.784 130.18 127.274C131.244 126.764 132.466 126.449 133.845 126.332C135.223 126.216 136.491 126.321 137.643 126.644C138.797 126.968 139.796 127.471 140.641 128.151C141.487 128.831 142.166 129.662 142.681 130.643C143.195 131.627 143.502 132.717 143.604 133.918C143.705 135.118 143.583 136.237 143.239 137.273C142.895 138.311 142.363 139.234 141.643 140.046C140.923 140.858 140.022 141.52 138.939 142.032C137.857 142.544 136.626 142.86 135.247 142.976C133.867 143.092 132.61 142.987 131.476 142.662C130.342 142.336 129.352 141.833 128.506 141.153C127.661 140.474 126.981 139.652 126.469 138.687C125.956 137.722 125.649 136.64 125.547 135.44ZM139.948 118.589L126.531 119.719L120.768 74.0356L137.986 72.5846L139.948 118.589Z" fill="url(#paint4_linear_1382_4849)"/>
<path d="M67.708 121.39C67.708 121.39 68 120.733 68.1891 120.422C68.3782 120.111 69.1867 119.2 69.3238 119.406C69.4609 119.613 70.0117 121.001 69.7197 121.39C69.4277 121.779 69.7385 122.455 68.2853 122.865L67.7091 121.39H67.708Z" fill="#EB7B6E"/>
<path d="M51.5537 117.243C51.5537 117.243 58.9956 123.455 61.8965 122.88C64.1659 122.43 67.7525 121.293 67.7525 121.293C67.7525 121.293 68.6991 122.193 68.4315 123.272C68.4315 123.272 63.8618 127.572 60.6059 127.6C55.5163 127.643 53.1164 125.078 53.1164 125.078L51.5537 117.244V117.243Z" fill="#3E799D"/>
<path d="M38.5029 182.764C38.5029 182.764 38.7186 186.249 39.3932 186.299C39.4828 186.305 42.8128 186.305 42.8128 186.305L47.064 186.281C47.064 186.281 47.0364 185.257 45.7933 185.04C44.5513 184.823 42.4711 183.951 41.7179 182.309C40.9261 180.581 38.5029 182.764 38.5029 182.764Z" fill="#113C68"/>
<path d="M38.2572 183.005C38.2572 183.005 39.5489 183.438 40.5586 183.438C41.6845 183.438 42.7064 183.131 42.7064 183.131C42.7064 183.131 42.9497 180.779 44.2879 175.596C44.9901 172.878 45.9921 169.385 47.4177 165.044C51.3604 153.046 52.5592 146.028 52.6687 145.363C52.6742 145.328 52.6764 145.311 52.6764 145.311L52.6632 145.306L40.5409 139.984C40.5409 139.984 42.0395 156.519 40.1273 162.866C39.8597 163.753 39.6307 164.787 39.4339 165.906C38.2262 172.8 38.2549 183.006 38.2549 183.006L38.2572 183.005Z" fill="#2A4E96"/>
<path d="M44.2883 175.596C44.9906 172.878 45.9926 169.385 47.4181 165.044C51.3608 153.046 52.5597 146.028 52.6691 145.363C52.668 145.344 52.6669 145.325 52.6647 145.305L40.5425 139.983C40.5425 139.983 42.041 156.518 40.1289 162.865C39.8612 163.752 44.2872 175.596 44.2872 175.596H44.2883Z" fill="#233862"/>
<path d="M47.9707 182.764C47.9707 182.764 48.1864 186.249 48.861 186.299C48.9506 186.305 52.2806 186.305 52.2806 186.305L56.5318 186.281C56.5318 186.281 56.5042 185.257 55.2611 185.04C54.0191 184.823 51.9388 183.951 51.1857 182.309C50.3938 180.581 47.9707 182.764 47.9707 182.764Z" fill="#15447C"/>
<path d="M54.8435 140.372C54.8435 140.372 55.0005 151.087 53.147 164.243C51.2934 177.399 51.9216 182.983 51.9216 182.983C51.9216 182.983 50.6475 183.396 50.1344 183.438C48.8249 183.544 47.4823 183.13 47.4823 183.13C47.4823 183.13 44.8292 169.97 45.5901 163.385C46.3509 156.8 41.957 140.789 41.957 140.789L54.8446 140.371L54.8435 140.372Z" fill="#2A4E96"/>
<path d="M46.2482 115.299L48.6138 116.851L50.7693 116.242C51.163 115.68 51.2681 114.596 51.2736 113.658C51.2791 112.727 51.1884 111.937 51.1884 111.937L47.9956 110.528L46.8045 110.003C46.8078 110.022 46.8974 110.981 46.9095 111.121C47.1318 113.609 46.2471 115.299 46.2471 115.299H46.2482Z" fill="#EB7B6E"/>
<path d="M54.8972 143.352C51.952 146.195 40.8063 145.717 40.1195 142.584C39.4339 139.451 40.8683 115.914 45.8992 114.436C46.9432 114.129 52.5249 115.933 52.5249 115.933C52.5249 115.933 53.4008 118.225 53.9748 121.141C54.0865 121.708 54.4116 127.724 54.6549 133.351C54.7689 135.983 54.8651 138.53 54.9137 140.396C54.958 142.143 54.9602 143.291 54.8972 143.353V143.352Z" fill="url(#paint5_linear_1382_4849)"/>
<path d="M47.1486 111.164C47.7967 112.259 50.0683 113.218 51.2727 113.657C51.2782 112.726 51.1875 111.936 51.1875 111.936L47.9947 110.527C47.2891 110.518 46.8589 110.676 47.1475 111.164H47.1486Z" fill="#9F4D43"/>
<path d="M52.4598 111.788C52.4598 111.788 47.3161 113.393 46.366 110.174C45.416 106.956 44.1121 104.995 47.3559 103.835C50.5996 102.675 51.6038 103.713 52.1822 104.711C52.7606 105.709 53.7737 111.289 52.4598 111.789V111.788Z" fill="#EB7B6E"/>
<path d="M51.914 104.354C51.914 104.354 51.5856 108.1 50.8114 107.937C50.0372 107.775 49.1846 107.426 49.2974 108.555C49.4113 109.685 48.5442 111.62 47.4272 111.616C45.0317 111.606 42.4295 105.459 43.0853 104.293C44.9775 100.93 54.649 100.251 51.914 104.354Z" fill="#163560"/>
<path d="M51.1571 114.516C51.0907 114.489 47.3283 112.801 46.8881 112.946C46.448 113.091 45.8994 114.436 45.8994 114.436L52.5251 115.933C52.5251 115.933 52.0031 114.873 51.1571 114.516Z" fill="#3E799D"/>
<path d="M74.5827 132.745L53.4901 152.604C53.0765 152.993 52.5556 153.117 52.3311 152.879L51.6189 152.123C51.3955 151.885 51.5503 151.372 51.9639 150.983L73.0565 131.123C73.4701 130.734 73.991 130.61 74.2155 130.848L74.9277 131.604C75.1511 131.842 74.9963 132.355 74.5827 132.745Z" fill="#1F4D84"/>
<path d="M62.7458 143.889L53.4901 152.604C53.0765 152.993 52.5556 153.117 52.3311 152.879L51.6189 152.123C51.3955 151.885 51.5503 151.372 51.9639 150.983L61.2196 142.268L62.7458 143.888V143.889Z" fill="#739AF0"/>
<path d="M69.7351 125.246C70.5447 127.915 72.0443 130.414 74.2219 132.463C80.872 138.719 91.3353 138.399 97.5916 131.75C103.765 125.188 103.536 114.914 97.1371 108.632C97.0519 108.548 96.9657 108.464 96.8772 108.382C90.2283 102.125 79.766 102.443 73.5097 109.093C69.3016 113.565 68.0674 119.764 69.734 125.246H69.7351ZM74.4608 109.988C78.1016 106.118 83.2896 104.575 88.1613 105.419C91.0002 105.91 93.7297 107.211 95.9847 109.332C102.109 115.094 102.402 124.73 96.6405 130.856C94.5193 133.111 91.8739 134.574 89.0714 135.239C84.2595 136.378 78.9863 135.156 75.1166 131.514C68.9919 125.751 68.6977 116.115 74.4608 109.989V109.988Z" fill="#1F4D84"/>
<g opacity="0.5">
<path d="M96.6401 130.857C94.5189 133.112 91.8723 134.575 89.071 135.24C84.259 136.378 78.987 135.156 75.1162 131.514C68.9915 125.752 68.6973 116.115 74.4604 109.989C78.1011 106.119 83.2891 104.576 88.1608 105.42C90.9998 105.911 93.7303 107.212 95.9842 109.333C102.109 115.095 102.403 124.732 96.6401 130.857Z" fill="#B3CFF9"/>
</g>
<path d="M54.9137 140.394C43.2913 132.113 44.2579 121.061 44.2579 121.061C48.5059 123.457 52.7206 128.754 54.6549 133.35C54.7688 135.982 54.865 138.529 54.9137 140.394Z" fill="#3E799D"/>
<path d="M66.3857 136.623C67.2052 136.434 67.7559 135.815 67.8699 135.706C67.8699 135.706 68.2193 135.731 67.8123 136.476C67.7781 136.538 67.7029 136.698 67.6453 136.812C67.6221 136.859 67.6542 136.913 67.7062 136.916C68.1795 136.953 68.6551 136.765 69.5653 136.955C69.6913 136.981 69.7278 137.282 69.7223 137.411C69.7146 137.627 69.73 137.872 69.4779 138.205C69.3308 138.398 68.9216 138.606 68.0092 138.973C67.6619 139.113 66.6677 139.008 65.7365 138.688L64.9922 138.343L65.2233 136.96L65.4102 136.999C65.7066 137.061 66.0749 136.699 66.3846 136.623H66.3857Z" fill="#EB7B6E"/>
<path d="M47.8656 115.933C47.8656 115.933 37.4233 117.922 50.9379 133.044C53.099 135.463 64.7777 138.612 64.7777 138.612C64.7777 138.612 65.9622 137.604 65.365 136.788C65.365 136.788 57.3237 130.949 55.5553 130.021C54.759 129.603 52.4664 120.701 51.1691 118.558C49.8718 116.414 47.8656 115.933 47.8656 115.933Z" fill="url(#paint6_linear_1382_4849)"/>
<path d="M67.9913 121.574C67.9913 121.574 68.3331 120.921 68.3994 120.576C68.4658 120.232 68.896 119.228 69.073 119.051C69.1437 118.98 69.3782 119.072 69.4058 119.376C69.418 119.509 69.3528 119.75 69.2377 120.036C69.0508 120.504 69.0818 121.138 69.0166 121.349C68.8551 121.875 67.9902 121.574 67.9902 121.574H67.9913Z" fill="#EB7B6E"/>
<path d="M72.1468 95.6635C71.9688 95.867 71.9467 96.0937 72.034 96.337C72.034 96.337 72.034 96.3392 72.0362 96.3403C72.1988 96.7893 72.7352 97.2914 73.359 97.7924C73.4386 97.8566 73.5094 97.9152 73.5713 97.9694C73.5879 97.9837 73.6034 97.9981 73.6189 98.0125C73.631 98.0236 73.6432 98.0346 73.6554 98.0457C74.2371 98.5821 74.0181 98.7048 75.0621 99.7931C76.2532 101.033 77.0727 101.056 77.3061 100.942C77.504 100.846 77.1026 100.189 76.658 99.4491C76.637 99.4137 76.6148 99.3772 76.5938 99.3418C76.5341 99.2434 76.4755 99.1439 76.4169 99.0454C75.896 98.1563 76.0298 97.7393 76.1537 96.4155C76.2543 95.3405 77.8292 90.408 77.8292 90.408L75.5465 90.0143C75.5465 90.0143 74.8575 93.9415 74.0999 94.5465C73.6952 94.8683 73.2417 94.8727 72.8524 95.1116C72.8248 95.1282 72.7982 95.1448 72.7717 95.1625C72.5505 95.3096 72.3249 95.46 72.1468 95.6646V95.6635Z" fill="#EB7B6E"/>
<path d="M72.1009 95.6425C71.9229 95.8459 71.9008 96.0727 71.9881 96.316C71.9881 96.316 71.9881 96.3182 71.9904 96.3193C72.1894 96.7683 72.7125 97.2671 73.3153 97.767C73.3938 97.8322 73.4635 97.8919 73.5254 97.9483C73.542 97.9627 73.5575 97.9771 73.573 97.9915C73.5851 98.0025 73.5973 98.0136 73.6095 98.0247C74.1912 98.561 73.9722 98.6838 75.0162 99.772C76.2073 101.012 77.0268 101.035 77.2602 100.921C77.4581 100.825 77.0567 100.168 76.6121 99.4281C76.3798 99.3429 75.3026 98.905 74.4887 97.8621C73.7975 96.9795 73.3285 95.8559 72.8585 95.1647C72.8065 95.1547 72.7756 95.1492 72.7247 95.1393C72.5035 95.2863 72.2779 95.4367 72.0998 95.6413L72.1009 95.6425Z" fill="#233862"/>
<path d="M90.5553 94.2445C90.6957 94.949 91.701 94.8318 92.8225 94.5586C93.945 94.2844 93.6785 94.6106 95.2754 94.4348C96.8724 94.2589 97.3568 93.6628 97.4055 93.4261C97.4497 93.2149 96.6601 93.1408 95.814 93.0435C95.7079 93.0313 95.6006 93.0181 95.4933 93.0048C94.5378 92.8842 93.8377 92.2671 92.9696 91.7606C92.1478 91.2806 90.9213 89.3253 90.9213 89.3253L88.7305 89.4978C88.7305 89.4978 89.8795 91.2441 90.3241 92.0028C90.5851 92.4496 90.5719 93.0402 90.5387 93.4958C90.5221 93.7436 90.5055 93.9968 90.5553 94.2456V94.2445Z" fill="#EB7B6E"/>
<path d="M92.8227 94.5586C93.9452 94.2844 93.6787 94.6106 95.2757 94.4348C96.8727 94.2589 97.3571 93.6628 97.4057 93.4261C97.45 93.2149 96.6603 93.1408 95.8143 93.0435L95.8065 93.0601C95.8065 93.0601 94.8488 93.7391 93.5194 93.7701C92.4356 93.7966 91.2887 93.4848 90.54 93.4969C90.5234 93.7447 90.5068 93.9979 90.5566 94.2468C90.6971 94.9512 91.7024 94.834 92.8238 94.5608L92.8227 94.5586Z" fill="#233862"/>
<path d="M82.1647 80.2356L80.1154 85.7443L77.4401 92.9373C77.4401 92.9373 76.7146 93.007 76.0201 92.8068C75.3808 92.6221 74.6465 92.1377 74.6465 92.1377C74.6465 92.1377 75.3919 84.4127 76.7776 79.979C77.1326 78.841 77.5308 77.9208 77.9698 77.4021C80.1176 74.8662 82.1647 80.2333 82.1647 80.2333V80.2356Z" fill="#233862"/>
<path d="M80.0879 71.4842C78.9222 71.1082 75.8809 71.4765 72.5818 72.0726C71.6706 72.2374 70.7515 71.8204 70.2715 71.0286L61.9703 70.3772C61.9703 70.3772 59.2287 76.451 60.7272 80.3229C60.9473 80.8925 61.4306 81.2475 62.1782 81.2597C62.1782 81.2597 67.1948 81.2685 68.7995 81.2685C72.928 81.2696 77.5376 78.434 78.1337 78.3145C79.1091 78.1199 79.4995 80.0719 80.475 82.1212C81.4504 84.1705 89.6454 91.1999 89.6454 91.1999C89.6454 91.1999 90.9051 91.2132 91.426 91.0174C91.9856 90.8073 92.1902 90.5352 92.1902 90.5352C92.1902 90.5352 83.1137 72.4608 80.0879 71.4831V71.4842Z" fill="#2A4E96"/>
<path d="M69.3974 46.6503C68.7814 46.2831 68.1797 46.2267 67.8114 46.2367C67.5549 46.2444 67.2994 46.2267 67.0461 46.1902C63.8776 45.7246 61.9688 50.3264 61.8559 51.7166C61.6502 54.2691 60.2988 54.6584 58.3977 56.2565C54.5844 59.4615 55.7014 63.1864 57.785 64.5721C59.0358 65.4027 61.2399 64.5721 61.2399 64.5721C61.2709 64.5942 67.2695 61.2222 70.2257 59.5954C74.6572 58.9672 71.1768 47.7098 69.3974 46.6492V46.6503Z" fill="#233862"/>
<path d="M67.7964 58.3147C67.8097 58.3235 66.3421 58.8234 65.3612 58.3888C64.4377 57.9807 63.7398 56.4611 63.7531 56.4611C64.1734 56.4423 64.6346 56.0751 64.9896 53.6664L65.1687 53.7305L68.1747 54.8132C68.1747 54.8132 67.9568 55.7776 67.8152 56.6967C67.6958 57.4675 67.6328 58.2063 67.7964 58.3158V58.3147Z" fill="#EB7B6E"/>
<path d="M68.128 54.7082C68.128 54.7082 68.0075 55.2291 67.8327 56.2012C66.1064 55.8893 65.3654 54.5589 65.1221 53.6255L68.128 54.7082Z" fill="#9F4D43"/>
<path d="M68.5748 55.6659C68.5748 55.6659 64.4618 55.1118 64.8456 52.556C65.2294 50.0002 64.9573 48.2063 67.6005 48.4519C70.2426 48.6974 70.6053 49.7491 70.685 50.6339C70.7646 51.5186 69.6553 55.7444 68.5759 55.6659H68.5748Z" fill="#EB7B6E"/>
<path d="M70.5361 49.2316C70.5361 49.2316 67.9017 51.4999 66.1112 51.6823C64.3195 51.8648 63.6416 51.2897 63.6416 51.2897C63.6416 51.2897 64.6978 50.4138 65.3337 48.9993C65.5206 48.5824 65.9165 48.2959 66.3722 48.2572C67.6506 48.1477 70.076 48.098 70.5361 49.2316Z" fill="#233862"/>
<path d="M68.8887 49.0281C68.8887 49.0281 69.769 49.8796 70.0466 50.5122C70.3142 51.1216 70.3939 52.5803 70.1804 53.1588C70.1804 53.1588 71.554 50.4901 70.7776 49.1939C69.9537 47.8182 68.8887 49.0281 68.8887 49.0281Z" fill="#233862"/>
<path d="M71.2116 64.2713C71.0844 72.5979 71.1751 70.8583 70.2638 71.6479C70.0437 71.8381 69.4277 71.9509 68.6148 72.0051C66.0612 72.1732 61.5733 71.7519 61.4029 71.2796C60.8146 69.6462 61.2304 69.1396 60.7405 66.6402C60.6896 66.3748 60.6266 66.0861 60.5514 65.7731C60.1422 64.0567 59.744 63.4717 61.1983 60.7146C62.5177 58.2162 63.8869 56.189 64.0108 56.262C67.4878 58.3279 67.7688 56.5927 67.7688 56.5927C67.7688 56.5927 71.2746 60.2103 71.2116 64.2724V64.2713Z" fill="url(#paint7_linear_1382_4849)"/>
<path d="M80.1154 85.7443L77.4401 92.9373C77.4401 92.9373 76.7146 93.007 76.0201 92.8068C75.3808 92.6221 74.6465 92.1377 74.6465 92.1377C74.6465 92.1377 75.3919 84.4127 76.7776 79.979L80.1154 85.7431V85.7443Z" fill="#2A4E96"/>
<path d="M67.7686 56.5905C67.7686 56.5905 71.3463 57.1988 71.7665 58.7393C72.1857 60.2799 73.5659 69.6318 73.5659 69.6318C73.5659 69.6318 72.5562 70.6172 71.7168 69.7767C70.8763 68.9361 69.0747 61.0264 69.0747 61.0264L67.7686 56.5916V56.5905Z" fill="url(#paint8_linear_1382_4849)"/>
<path d="M68.6155 72.004C66.0619 72.1721 61.574 71.7508 61.4037 71.2785C60.8153 69.6451 61.2311 69.1385 60.7412 66.6391L61.9743 63.172C61.9743 63.172 61.7697 67.0339 62.9077 68.0492C64.0447 69.0655 67.5693 70.0111 68.1234 70.8605C68.3899 71.2675 68.5658 71.6767 68.6166 72.004H68.6155Z" fill="#3E799D"/>
<path d="M65.6906 70.3794C65.6906 70.3794 68.2099 69.8198 68.6158 70.0432C69.0217 70.2666 70.0148 71.0817 70.1398 71.3648C70.2636 71.6479 69.2351 71.1491 68.9 71.0596C68.6832 71.0009 68.1126 71.1989 67.8295 71.294C66.6406 71.6899 65.9117 71.4853 65.9117 71.4853L65.6895 70.3794H65.6906Z" fill="#EB7B6E"/>
<path d="M64.0082 56.2587C64.0082 56.2587 60.6262 56.4655 59.4539 58.099C57.805 60.3972 54.5314 70.1936 56.4048 71.5008C58.515 72.9728 66.0089 71.889 66.0089 71.889C66.0089 71.889 66.2588 70.7233 65.9115 70.1593C65.5643 69.5953 59.9262 68.6829 59.6663 68.4219C59.4064 68.162 62.9211 63.3478 62.9211 62.567C62.9211 61.7862 64.006 56.2587 64.006 56.2587H64.0082Z" fill="url(#paint9_linear_1382_4849)"/>
<path d="M68.7373 70.7444C68.7373 70.7444 69.2648 71.4256 69.4374 71.5064C69.6099 71.5882 69.7227 71.5672 69.7227 71.5672L69.3677 70.9268L68.7373 70.7432V70.7444Z" fill="#FFB27D"/>
<path d="M68.6154 70.0432L70.1493 70.7886C70.1493 70.7886 70.0841 70.8959 69.8949 70.887C69.7058 70.8782 69.2292 70.7034 69.2292 70.7034L68.6143 70.0432H68.6154Z" fill="#FFB27D"/>
<path d="M81.719 71.7994L65.6895 71.7939V72.1478L81.5763 72.1533L81.719 71.7994Z" fill="#233862"/>
<path d="M69.4375 72.1489L81.5763 72.1533L85.2315 63.0735L73.1114 63.0691L69.4375 72.1489Z" fill="#233862"/>
<path d="M78.5134 67.6112C78.6052 67.2916 78.4205 67.0328 78.1009 67.0328C77.7812 67.0328 77.4484 67.2916 77.3566 67.6101C77.2648 67.9297 77.4495 68.1885 77.7691 68.1885C78.0887 68.1885 78.4216 67.9297 78.5134 67.6112Z" fill="white"/>
<path d="M160.667 106.391C159.031 105.848 157.899 106.534 157.899 106.534C153.191 106.727 153.017 111.554 153.569 113.35C154.345 115.872 151.598 117.861 154.645 118.882C158.179 120.066 161.145 118.66 160.943 119.271C172.121 120.151 164.386 107.626 160.667 106.391Z" fill="#163560"/>
<path d="M155.783 129.864C155.783 129.864 155.335 130.75 154.524 131.767C153.547 132.992 148.413 130.085 148.855 129.864C149.297 129.642 151.877 122.211 152.491 121.277C153.106 120.344 155.199 119.858 155.199 119.858L155.783 129.864Z" fill="url(#paint10_linear_1382_4849)"/>
<path d="M173.106 179.985C173.106 179.985 174.523 181.278 174.247 182.197C173.97 183.116 172.692 183.729 172.519 184.851C172.347 185.974 171.655 186.586 171.033 186.586H168.067C168.067 186.586 167.609 185.796 168.715 185.558C169.821 185.32 170.238 184.001 170.168 182.775C170.098 181.55 170.272 179.918 170.272 179.918L172.622 179.373L173.106 179.986V179.985Z" fill="#1F447F"/>
<path d="M161.114 180.535C161.114 180.535 161.624 186.012 161.003 186.319L153.042 186.302C153.042 186.302 153.042 185.383 154.32 185.18C155.599 184.975 157.845 184.226 158.226 182.56C158.606 180.893 161.114 180.535 161.114 180.535Z" fill="#1C3154"/>
<path d="M167.237 126.169C167.237 126.169 167.355 127.841 167.237 129.848C167.159 131.179 165.813 132.96 165.621 133.402C165.142 134.507 164.602 134.687 164.602 134.687L160.422 135.711L158.953 136.07L154.317 134.686C154.317 134.686 152.206 128.794 153.054 125.477C153.902 122.161 155.197 119.857 155.197 119.857C155.197 119.857 158.346 119.149 163.903 119.543L167.236 126.168L167.237 126.169Z" fill="url(#paint11_linear_1382_4849)"/>
<path d="M167.635 129.895C167.557 131.225 165.813 132.96 165.621 133.402C165.142 134.508 164.602 134.687 164.602 134.687L160.422 135.711L159.668 133.548C159.668 133.548 165.775 131.943 164.793 126.29L167.635 129.894V129.895Z" fill="#3E799D"/>
<path d="M154.615 135.58C154.615 135.58 152.32 142.724 152.171 145.157C152.024 147.589 156.559 179.709 156.741 180.829C156.913 181.885 158.225 182.559 158.225 182.559C158.225 182.559 158.829 182.915 159.69 182.671C160.884 182.334 161.262 181.93 161.262 181.93C161.262 181.93 163.048 159.023 161.944 150.84C160.838 142.657 160.825 135.58 160.825 135.58H154.616H154.615Z" fill="#233862"/>
<path d="M164.337 135.368C164.337 135.368 167.839 140.065 168.165 143.241C168.491 146.416 168.677 157.57 169.372 160.665C170.068 163.761 172.623 169.719 172.623 179.373C172.623 179.373 172.357 179.926 171.538 180.222C171.276 180.316 170.924 180.407 170.583 180.486C169.908 180.641 169.213 180.31 168.905 179.69C167.177 176.213 161.676 164.996 161.394 162.668C161.195 161.02 159.458 150.116 155.668 143.718C154.757 142.182 156.226 136.072 156.226 136.072L164.338 135.369L164.337 135.368Z" fill="#2A4E96"/>
<path d="M154.247 134.478C154.247 134.478 155.168 135.206 156.998 135.243C159.185 135.287 164.601 134.686 164.601 134.686C164.601 134.686 164.843 135.358 164.833 136.068C164.833 136.068 158.216 137.737 154.383 136.311C154.383 136.311 153.888 135.381 154.247 134.477V134.478Z" fill="#233862"/>
<path d="M156.474 137.127C155.924 137.127 155.477 136.621 155.477 135.998C155.477 135.376 155.924 134.869 156.474 134.869C157.024 134.869 157.472 135.376 157.472 135.998C157.472 136.621 157.024 137.127 156.474 137.127ZM156.474 135.2C156.106 135.2 155.807 135.558 155.807 135.998C155.807 136.438 156.107 136.797 156.474 136.797C156.841 136.797 157.141 136.438 157.141 135.998C157.141 135.558 156.842 135.2 156.474 135.2Z" fill="white"/>
<path d="M161.254 139.181L151.31 139.274L146.417 127.775L156.362 127.682L161.254 139.181Z" fill="#B2BAD3"/>
<path d="M159.954 133.984L159.226 133.089C159.226 133.089 158.732 132.648 158.374 132.574C158.016 132.499 157.26 132.063 157.187 132.186C157.114 132.309 157.768 133.185 157.768 133.185L157.801 133.189C157.05 133.754 155.155 133.256 154.921 133.486C154.638 133.764 155.312 134.368 155.673 134.708C156.035 135.046 157.069 135.611 157.875 135.361C158.465 135.178 159.391 134.991 159.391 134.991L159.954 133.984Z" fill="#EB7B6E"/>
<path d="M147.165 129.797C147.165 129.797 147.789 129.087 148.188 129.428C148.586 129.769 148.084 131.445 147.704 131.275C147.325 131.105 146.947 130.006 147.165 129.797Z" fill="#EB7B6E"/>
<path d="M163.904 119.544C163.904 119.544 166.751 119.858 168.794 123.57C170.405 126.497 173.159 131.893 172.119 133.417C171.664 134.086 167.29 136.467 158.854 135.107C158.854 135.107 158.987 134.042 159.667 133.548C159.667 133.548 166.766 131.268 166.754 130.815C166.731 129.958 165.795 129.217 161.829 125.25C160.751 124.171 163.903 119.543 163.903 119.543L163.904 119.544Z" fill="url(#paint12_linear_1382_4849)"/>
<path d="M161.713 119.695C161.81 119.563 161.685 119.145 161.528 118.366C161.387 117.661 161.147 116.569 161.151 115.342L160.941 115.377L157.413 115.971C157.413 115.971 157.494 116.914 157.496 117.803C157.496 117.811 157.496 117.818 157.496 117.825C157.5 118.597 157.288 119.764 157.548 119.916C158.885 120.699 161.336 120.2 161.713 119.695Z" fill="#EB7B6E"/>
<path d="M157.414 115.971C157.414 115.971 157.484 117.301 157.487 118.189C159.461 118.142 160.515 116.225 160.943 115.377L157.415 115.971H157.414Z" fill="#9F4D43"/>
<path d="M157.201 117.557C157.201 117.557 161.826 116.898 161.371 114.023C160.917 111.149 161.208 109.128 158.235 109.428C155.262 109.727 154.864 110.914 154.782 111.911C154.7 112.907 155.985 117.654 157.201 117.557Z" fill="#EB7B6E"/>
<path d="M156.124 109.692C156.124 109.692 157.925 112.862 159.942 113.052C161.96 113.241 162.718 112.589 162.718 112.589C162.718 112.589 161.042 111.644 160.405 109.632C160.405 109.632 156.821 107.936 156.123 109.692H156.124Z" fill="#163560"/>
<path d="M156.48 109.917C156.48 109.917 155.599 110.417 155.322 111.161C155.051 111.889 154.87 112.825 155.118 113.898C155.118 113.898 153.801 111.758 154.665 110.292C155.579 108.737 156.48 109.917 156.48 109.917Z" fill="#163560"/>
<path d="M1.98967 186.174H258.385C258.562 186.174 258.706 186.318 258.706 186.495V186.679C258.706 186.856 258.562 187 258.385 187H1.98967C1.81272 187 1.66895 186.856 1.66895 186.679V186.495C1.66895 186.318 1.81272 186.174 1.98967 186.174Z" fill="#233862"/>
<defs>
<linearGradient id="paint0_linear_1382_4849" x1="139.76" y1="155.791" x2="69.9553" y2="-66.7708" gradientUnits="userSpaceOnUse">
<stop stop-color="#5AAEE3" stop-opacity="0.87"/>
<stop offset="1" stop-color="#29ABE2" stop-opacity="0.1"/>
</linearGradient>
<linearGradient id="paint1_linear_1382_4849" x1="45.6419" y1="96.4566" x2="120.653" y2="221.032" gradientUnits="userSpaceOnUse">
<stop stop-color="#4B9CD3"/>
<stop offset="1" stop-color="#25579A"/>
</linearGradient>
<linearGradient id="paint2_linear_1382_4849" x1="131.853" y1="38.4368" x2="163.295" y2="7.80973" gradientUnits="userSpaceOnUse">
<stop stop-color="#FE4C70"/>
<stop offset="1" stop-color="#DB4658"/>
</linearGradient>
<linearGradient id="paint3_linear_1382_4849" x1="67.3503" y1="150.726" x2="137.3" y2="16.2618" gradientUnits="userSpaceOnUse">
<stop stop-color="#FE4C70"/>
<stop offset="1" stop-color="#DB4658"/>
</linearGradient>
<linearGradient id="paint4_linear_1382_4849" x1="119.659" y1="148.003" x2="172.388" y2="114.513" gradientUnits="userSpaceOnUse">
<stop stop-color="#FE4C70"/>
<stop offset="1" stop-color="#DB4658"/>
</linearGradient>
<linearGradient id="paint5_linear_1382_4849" x1="40.1152" y1="124.641" x2="55.1838" y2="124.817" gradientUnits="userSpaceOnUse">
<stop stop-color="#5CA6DB"/>
<stop offset="1" stop-color="#64C9F9"/>
</linearGradient>
<linearGradient id="paint6_linear_1382_4849" x1="35.6096" y1="110.401" x2="66.5458" y2="128.308" gradientUnits="userSpaceOnUse">
<stop stop-color="#64C9F9"/>
<stop offset="1" stop-color="#5CA6DB"/>
</linearGradient>
<linearGradient id="paint7_linear_1382_4849" x1="60.2879" y1="61.5021" x2="71.3861" y2="61.6879" gradientUnits="userSpaceOnUse">
<stop stop-color="#5CA6DB"/>
<stop offset="1" stop-color="#64C9F9"/>
</linearGradient>
<linearGradient id="paint8_linear_1382_4849" x1="72.3251" y1="56.5418" x2="68.5193" y2="60.9006" gradientUnits="userSpaceOnUse">
<stop stop-color="#5CA6DB"/>
<stop offset="1" stop-color="#64C9F9"/>
</linearGradient>
<linearGradient id="paint9_linear_1382_4849" x1="62.3161" y1="56.763" x2="62.8111" y2="71.2989" gradientUnits="userSpaceOnUse">
<stop stop-color="#5CA6DB"/>
<stop offset="1" stop-color="#64C9F9"/>
</linearGradient>
<linearGradient id="paint10_linear_1382_4849" x1="149.631" y1="121.682" x2="151.865" y2="128.427" gradientUnits="userSpaceOnUse">
<stop stop-color="#5CA6DB"/>
<stop offset="1" stop-color="#64C9F9"/>
</linearGradient>
<linearGradient id="paint11_linear_1382_4849" x1="153.004" y1="124.953" x2="167.515" y2="125.254" gradientUnits="userSpaceOnUse">
<stop stop-color="#5CA6DB"/>
<stop offset="1" stop-color="#64C9F9"/>
</linearGradient>
<linearGradient id="paint12_linear_1382_4849" x1="163.677" y1="135.506" x2="161.967" y2="119.577" gradientUnits="userSpaceOnUse">
<stop stop-color="#5CA6DB"/>
<stop offset="1" stop-color="#64C9F9"/>
</linearGradient>
</defs>
</svg>
