<?xml version="1.0" standalone="yes"?>
<svg xmlns="http://www.w3.org/2000/svg" width="9846" height="4925">
<path style="fill:#ffffff; stroke:none;" d="M0 0L0 4925L9846 4925L9846 0L0 0z"/>
<path style="fill:#e55b73; stroke:none;" d="M5391 1161L5391 1837L5900 1837L5900 1161L5391 1161z"/>
<path style="fill:#273d75; stroke:none;" d="M208 1361L208 3342L787 3345L787 2746C828.608 2746 870.444 2741.86 912 2740.04C962.46 2737.83 1012.76 2736.9 1063 2730.72C1200.2 2713.82 1340.95 2672.4 1451 2585.79C1489.03 2555.85 1523.75 2521.51 1553.12 2483C1680.9 2315.45 1698.94 2084.7 1658.8 1884C1631 1744.99 1568.49 1610.71 1459 1517.43C1352.27 1426.5 1215.28 1379.55 1077 1366.17C994.14 1358.15 910.275 1361 827 1361L208 1361M4342 1554L4342 1995L4174 1995L4174 2452L4342 2452L4342 2735C4342 2792.22 4339.47 2850.07 4345.17 2907C4355.67 3011.94 4395.91 3120.17 4467.17 3199C4485.9 3219.72 4506.5 3238.53 4529 3255.12C4627.31 3327.57 4749.9 3346.93 4869 3344.01C4932.14 3342.47 4994.32 3338.87 5057 3330.13C5108.34 3322.97 5161.4 3312.6 5210 3294.19C5221.1 3289.99 5232.08 3285.68 5243 3281C5246.77 3279.38 5253.77 3277.36 5255.93 3273.61C5259.17 3267.99 5251.45 3253.74 5249.72 3248C5242.36 3223.57 5234.08 3199.43 5226.72 3175C5205.96 3106.09 5183.33 3037.73 5161.97 2969C5153.13 2940.54 5141.71 2912.02 5135 2883C5073.03 2897.68 5008.27 2911.29 4944 2905.17C4918.93 2902.78 4891.95 2901.61 4872 2883.83C4837.38 2852.97 4846 2801.48 4846 2760L4846 2452L5203 2452L5203 1995L4853 1995L4853 1554L4342 1554z"/>
<path style="fill:#ffffff; stroke:none;" d="M734 1842L743 2279C773.608 2279 804.429 2276.38 835 2275.04C908.873 2271.81 983.026 2266.92 1045 2221.27C1098.91 2181.55 1117 2119.14 1117 2055C1117 2019.88 1111.18 1983.45 1094.68 1952C1078.07 1920.35 1051.86 1893.08 1021 1875.01C934.821 1824.56 828.965 1842 734 1842z"/>
<path style="fill:#273d75; stroke:none;" d="M8046 2034L8046 1990L7533 1990L7533 3345L8046 3345L8046 2838L8046 2679C8046 2643.56 8044.06 2606.95 8050.8 2572C8056.36 2543.18 8067.97 2515.06 8089.01 2494.01C8141.16 2441.88 8245.36 2429.85 8306 2474.16C8325.31 2488.27 8332.03 2515.65 8335.75 2538C8344.56 2590.84 8341 2645.58 8341 2699L8341 3345L8834 3345L8834 2834L8834 2672C8834 2638.56 8831.47 2604.03 8837.42 2571C8841.29 2549.56 8847.62 2528.15 8860.03 2510C8891.14 2464.48 8951.44 2446 9004 2446C9029.03 2446 9056.11 2447.88 9078 2461.47C9100.29 2475.31 9111.34 2502.74 9117.37 2527C9130.52 2579.85 9126 2636 9126 2690L9126 3345L9640 3345L9640 2697C9640 2551.11 9649.15 2401.19 9583.74 2266C9565.74 2228.79 9543.58 2193.49 9516.73 2162C9366.92 1986.31 9114.54 1939.18 8898 1996.12C8834.91 2012.7 8776.28 2038.48 8722 2074.67C8705.58 2085.62 8684.15 2096.18 8671 2111C8627.16 2067.16 8575.11 2037.77 8518 2015C8389.59 1963.8 8244.15 1959.99 8114 2006.31C8091.2 2014.42 8067.39 2022.6 8046 2034M1856 1995L1856 3345L2374 3345L2374 2977C2374 2893.69 2370.38 2809.65 2381.87 2727C2393.42 2643.92 2413.88 2544.81 2487 2493.72C2535.29 2459.98 2593.3 2456.37 2650 2454.99C2693.28 2453.93 2736.75 2453.86 2780 2452L2780 1997C2640.83 1997 2488.63 1979.25 2377 2082C2377 2060.7 2375 2039.32 2375 2018C2375 2013.17 2377.35 1999.34 2373.26 1996.03C2370.86 1994.09 2365.86 1995 2363 1995L2338 1995L2239 1995L1856 1995M3452 1995.42C3408.25 2001.17 3365.3 2003.62 3322 2013.88C3197.7 2043.35 3079.2 2111.49 2992.09 2205C2925.89 2276.07 2875.21 2359.22 2843.34 2451C2773.84 2651.22 2807.57 2881.64 2928.72 3055C2971.42 3116.11 3024 3169.89 3084 3214.12C3153.82 3265.57 3233.26 3302.12 3317 3324.12C3400.64 3346.08 3489.54 3349.95 3575 3338.72C3795.53 3309.72 3994.75 3166.46 4091.74 2966C4133.1 2880.53 4155.81 2787.71 4159.96 2693C4168.27 2503.26 4090.02 2313.07 3953 2182.04C3866.64 2099.46 3758.21 2040.66 3642 2013.12C3601.66 2003.55 3561.23 1998.73 3520 1995.91C3498.19 1994.42 3473.76 1992.57 3452 1995.42M5389 1995L5389 3344L5901 3344L5901 1995L5389 1995M6086 1995L6086 2613C6086 2753.19 6076.63 2896.45 6123.34 3031C6138.82 3075.58 6160.81 3117.75 6188.42 3156C6343.26 3370.46 6655.8 3418.03 6883 3299L6883 3345L7350 3345L7350 1995L6883 1995L6883 2510L6883 2669C6883 2704.61 6885.3 2740.99 6877.58 2776C6858.62 2861.94 6778.35 2915 6693 2915C6666.62 2915 6637.97 2911.53 6615 2897.54C6590.42 2882.56 6576.2 2852.72 6568.58 2826C6553.12 2771.82 6556 2715.73 6556 2660L6556 1995L6086 1995z"/>
<path style="fill:#ffffff; stroke:none;" d="M3477 2473.42C3459.26 2475.75 3442.32 2476.64 3425 2482.03C3374.21 2497.81 3331.17 2534.4 3307.37 2582C3251.71 2693.32 3315.7 2836.34 3439 2863.58C3461.14 2868.47 3484.51 2869.68 3507 2866.72C3598.86 2854.64 3672.55 2777.87 3678.91 2685C3685.32 2591.42 3622.54 2502.52 3531 2479.63C3514.38 2475.47 3494.13 2471.18 3477 2473.42z"/>
</svg>
