<?xml version="1.0" encoding="UTF-8"?>
<svg id="Layer_1" data-name="Layer 1" xmlns="http://www.w3.org/2000/svg" viewBox="0 0 36 36">
  <defs>
    <style>
      .cls-1 {
        fill: none;
        stroke: #000;
        stroke-linecap: round;
        stroke-linejoin: round;
        stroke-width: .5px;
      }
    </style>
  </defs>
  <circle class="cls-1" cx="19.39" cy="9.04" r="3.89"/>
  <path class="cls-1" d="M12.28,18.58v-1.66c0-1.54,1.25-2.79,2.79-2.79h8.44c1.54,0,2.79,1.25,2.79,2.79v1.66"/>
  <rect class="cls-1" x="6.55" y="19.58" width="23.15" height="2.85" rx=".57" ry=".57"/>
  <rect class="cls-1" x="10.55" y="22.43" width="15.15" height="8.72"/>
  <path class="cls-1" d="M12.8,13.66c-.39,.31-.89,.4-1.34,.29-.33-.08-.64-.27-.86-.55s-.34-.63-.34-.97c0-.47,.2-.93,.6-1.24,.68-.54,1.67-.42,2.2,.26s.42,1.67-.26,2.2Z"/>
  <path class="cls-1" d="M11.47,13.95l-2.08,1.3-.84,.52-.98,.61c-.06,.04-.14,.02-.18-.03l-.4-.51c-.05-.06-.04-.14,.01-.19l3.27-3.22c0,.34,.11,.68,.33,.97,.23,.28,.54,.47,.87,.55Z"/>
  <polygon class="cls-1" points="9.39 15.25 9.39 19.58 8.55 19.58 8.55 15.77 9.39 15.25"/>
</svg>