<?xml version="1.0" encoding="UTF-8"?>
<svg xmlns="http://www.w3.org/2000/svg" xmlns:xlink="http://www.w3.org/1999/xlink" viewBox="0 0 500 500">
  <defs>
    <style>
      .cls-1 {
        fill: none;
      }

      .cls-2 {
        fill: url(#linear-gradient);
      }

      .cls-3 {
        clip-path: url(#clippath);
      }

      .cls-4 {
        fill: #a54841;
      }

      .cls-5 {
        fill: #d88771;
      }

      .cls-6 {
        fill: #263a79;
      }

      .cls-7 {
        clip-path: url(#clippath-1);
      }

      .cls-8 {
        clip-path: url(#clippath-4);
      }

      .cls-9 {
        clip-path: url(#clippath-3);
      }

      .cls-10 {
        clip-path: url(#clippath-2);
      }

      .cls-11 {
        fill: url(#linear-gradient-4);
      }

      .cls-11, .cls-12 {
        mix-blend-mode: multiply;
        opacity: .39;
      }

      .cls-12 {
        fill: url(#linear-gradient-16);
      }

      .cls-13 {
        fill: url(#linear-gradient-8);
      }

      .cls-14 {
        fill: url(#linear-gradient-9);
      }

      .cls-15 {
        fill: url(#linear-gradient-3);
      }

      .cls-16 {
        fill: url(#linear-gradient-2);
      }

      .cls-17 {
        fill: url(#linear-gradient-6);
      }

      .cls-18 {
        fill: url(#linear-gradient-7);
      }

      .cls-19 {
        fill: url(#linear-gradient-5);
      }

      .cls-20 {
        fill: url(#linear-gradient-18);
        opacity: .4;
      }

      .cls-21 {
        fill: url(#linear-gradient-14);
      }

      .cls-22 {
        fill: url(#linear-gradient-20);
      }

      .cls-23 {
        fill: url(#linear-gradient-15);
      }

      .cls-24 {
        fill: url(#linear-gradient-19);
      }

      .cls-25 {
        fill: url(#linear-gradient-17);
      }

      .cls-26 {
        fill: url(#linear-gradient-13);
      }

      .cls-27 {
        fill: url(#linear-gradient-12);
      }

      .cls-28 {
        fill: url(#linear-gradient-10);
      }

      .cls-29 {
        fill: url(#linear-gradient-11);
      }

      .cls-30 {
        isolation: isolate;
      }
    </style>
    <linearGradient id="linear-gradient" x1="149.72" y1="86.83" x2="271.65" y2="209.51" gradientTransform="translate(34.24 102.3) rotate(-2.8)" gradientUnits="userSpaceOnUse">
      <stop offset="0" stop-color="#bf6055"/>
      <stop offset="1" stop-color="#d88771"/>
    </linearGradient>
    <linearGradient id="linear-gradient-2" x1="295.3" y1="323.06" x2="400.3" y2="323.06" gradientTransform="translate(-65.89 -137.47)" gradientUnits="userSpaceOnUse">
      <stop offset="0" stop-color="#cdd5ed"/>
      <stop offset="1" stop-color="#f8f9fd"/>
    </linearGradient>
    <clipPath id="clippath">
      <rect class="cls-1" x="229.41" y="98.34" width="105" height="174.5" transform="translate(14.68 -20.57) rotate(4.29)"/>
    </clipPath>
    <linearGradient id="linear-gradient-3" x1="301.79" y1="368.48" x2="398.09" y2="368.48" gradientTransform="translate(-40.74 -162.59) rotate(4.29)" xlink:href="#linear-gradient"/>
    <linearGradient id="linear-gradient-4" x1="330.52" y1="351.71" x2="367.61" y2="351.71" gradientTransform="translate(-40.74 -162.59) rotate(4.29)" xlink:href="#linear-gradient"/>
    <linearGradient id="linear-gradient-5" x1="309.14" y1="308.69" x2="376.56" y2="308.03" gradientTransform="translate(-40.74 -162.59) rotate(4.29)" xlink:href="#linear-gradient"/>
    <linearGradient id="linear-gradient-6" x1="312.22" y1="310.68" x2="371.47" y2="310.09" gradientTransform="translate(-40.74 -162.59) rotate(4.29)" xlink:href="#linear-gradient"/>
    <linearGradient id="linear-gradient-7" x1="317.18" y1="311.2" x2="376.43" y2="310.61" gradientTransform="translate(-40.74 -162.59) rotate(4.29)" xlink:href="#linear-gradient"/>
    <linearGradient id="linear-gradient-8" x1="332.38" y1="308.79" x2="346.45" y2="308.79" gradientTransform="translate(-40.74 -162.59) rotate(4.29)" gradientUnits="userSpaceOnUse">
      <stop offset="0" stop-color="#f8f9fd"/>
      <stop offset="1" stop-color="#c9d2ec"/>
    </linearGradient>
    <clipPath id="clippath-1">
      <path class="cls-6" d="M271.71,168.14c-.37,.52-.61,1.14-.67,1.83-.15,1.99,1.34,3.73,3.34,3.88,1.99,.15,3.73-1.34,3.88-3.34,.05-.72-.11-1.41-.43-2-2.26-1.1-4.65-.77-6.12-.37Z"/>
    </clipPath>
    <linearGradient id="linear-gradient-9" x1="356.08" y1="308.79" x2="370.15" y2="308.79" xlink:href="#linear-gradient-8"/>
    <clipPath id="clippath-2">
      <path class="cls-6" d="M301.51,170.37c.29,.57,.44,1.22,.39,1.91-.15,1.99-1.89,3.49-3.88,3.34s-3.49-1.89-3.34-3.88c.05-.72,.32-1.38,.73-1.92,2.4-.75,4.71-.07,6.1,.55Z"/>
    </clipPath>
    <linearGradient id="linear-gradient-10" x1="264.66" y1="389.34" x2="438.21" y2="389.34" gradientTransform="translate(-40.74 -162.59) rotate(4.29)" gradientUnits="userSpaceOnUse">
      <stop offset="0" stop-color="#5ca6db"/>
      <stop offset="1" stop-color="#64c9f9"/>
    </linearGradient>
    <clipPath id="clippath-3">
      <path class="cls-6" d="M280.7,158.11l-.15,1.96c-.06,.86-.77,1.52-1.63,1.54l-12.22,.24c-.88,.02-1.63-.66-1.69-1.54l-.03-.41c-.06-.87,.56-1.64,1.42-1.76l12.4-1.79c1.05-.15,1.97,.71,1.9,1.77Z"/>
    </clipPath>
    <clipPath id="clippath-4">
      <path class="cls-6" d="M291.47,158.91l-.15,1.96c-.06,.86,.53,1.62,1.38,1.76l12.05,2.06c.87,.15,1.71-.41,1.9-1.28l.09-.4c.19-.85-.31-1.7-1.14-1.95l-11.99-3.62c-1.02-.31-2.06,.41-2.14,1.47Z"/>
    </clipPath>
    <linearGradient id="linear-gradient-11" x1="111.91" y1="124.4" x2="233.84" y2="247.09" xlink:href="#linear-gradient"/>
    <linearGradient id="linear-gradient-12" x1="395.83" y1="415.33" x2="423.5" y2="415.33" gradientTransform="translate(-40.74 -162.59) rotate(4.29)" xlink:href="#linear-gradient"/>
    <linearGradient id="linear-gradient-13" x1="395.73" y1="383.54" x2="425.06" y2="383.54" gradientTransform="translate(-40.74 -162.59) rotate(4.29)" xlink:href="#linear-gradient"/>
    <linearGradient id="linear-gradient-14" x1="399.86" y1="360.85" x2="423.1" y2="360.85" gradientTransform="translate(-40.74 -162.59) rotate(4.29)" xlink:href="#linear-gradient"/>
    <linearGradient id="linear-gradient-15" x1="338.8" y1="430.31" x2="358.8" y2="430.31" gradientTransform="translate(-40.74 -162.59) rotate(4.29)" gradientUnits="userSpaceOnUse">
      <stop offset="0" stop-color="#fe4c70"/>
      <stop offset="1" stop-color="#db4658"/>
    </linearGradient>
    <linearGradient id="linear-gradient-16" x1="289.23" y1="471.32" x2="374.9" y2="471.32" gradientTransform="translate(-40.74 -162.59) rotate(4.29)" xlink:href="#linear-gradient"/>
    <linearGradient id="linear-gradient-17" x1="27.25" y1="209.33" x2="148.23" y2="331.07" xlink:href="#linear-gradient"/>
    <linearGradient id="linear-gradient-18" x1="334.04" y1="407.7" x2="334.04" y2="240.92" gradientTransform="translate(-40.74 -162.59) rotate(4.29)" gradientUnits="userSpaceOnUse">
      <stop offset="0" stop-color="#f8f9fd" stop-opacity="0"/>
      <stop offset="1" stop-color="#fff"/>
    </linearGradient>
    <linearGradient id="linear-gradient-19" x1="-546.81" y1="494.83" x2="-515.77" y2="494.83" gradientTransform="translate(349.48 -632.97) rotate(-40.71)" xlink:href="#linear-gradient-10"/>
    <linearGradient id="linear-gradient-20" x1="-515.76" y1="493.78" x2="-505.79" y2="493.78" gradientTransform="translate(349.48 -632.97) rotate(-40.71)" xlink:href="#linear-gradient-10"/>
  </defs>
  <g class="cls-30">
    <g id="Layer_1" data-name="Layer 1">
      <g>
        <path class="cls-2" d="M190.74,358.84l31.78,28.64s41.8-15.43,79.38-71.28l16.59-83.49,.51-6.79,47.36-40.9c3.64-3.14,4.56-8.42,2.2-12.61h0c-2.67-4.74-8.62-6.52-13.45-4.01l-40.37,20.91-101.1,111.19-22.88,58.34Z"/>
        <rect class="cls-6" x="221.53" y="80.23" width="117" height="234" rx="15.58" ry="15.58" transform="translate(15.54 -20.4) rotate(4.29)"/>
        <rect class="cls-16" x="229.41" y="98.34" width="105" height="174.5" transform="translate(14.68 -20.57) rotate(4.29)"/>
        <g class="cls-3">
          <g>
            <path class="cls-15" d="M328.39,238.17s-27.37-5.46-28.07-9.78c-.7-4.31,.04-25.39,.04-25.39l-17.69,1.02-17.34-3.65s-2.42,20.95-3.75,25.11c-1.34,4.16-29.22,5.48-29.22,5.48l3.48,26.24,42.64,2.52,42.54,3.87,7.36-25.43Z"/>
            <path class="cls-11" d="M300.29,205.39s-9.49,14.62-38.71,20.1c0,0,1.11-4.54,3.75-25.11l34.96,5.02Z"/>
            <path class="cls-19" d="M260.9,167.28s-2.88,21.46-1.97,26.3c.91,4.84,7.09,15.92,25.57,15.82,18.48-.1,24.04-11.78,24.56-15.89s1.25-24.59,1.25-24.59l1.02-28.43-23.04-7.79-25.68,4.25-1.71,30.34Z"/>
            <path class="cls-17" d="M262.31,170.31l-.26-3.94s-.74-8.73-6.99-7.52c-6.25,1.21-2.67,13.24-2.37,16.62s1.09,7.92,4.43,8.17,4.4-2.73,4.4-2.73l.79-10.59Z"/>
            <polygon class="cls-4" points="258.89 174.82 255.31 162.79 255.92 169.55 255.67 172.89 256.88 171.8 258.89 174.82"/>
            <path class="cls-18" d="M308.87,173.81l.85-3.86s2.04-8.52,8.04-6.39c6,2.13,.67,13.49-.14,16.78s-2.25,7.67-5.6,7.42-3.95-3.36-3.95-3.36l.79-10.59Z"/>
            <polygon class="cls-4" points="311.57 178.77 316.9 167.41 315.29 174.01 315.04 177.35 314.01 176.08 311.57 178.77"/>
            <path class="cls-13" d="M267.58,170.33c8.03-6.41,14.03,1.05,14.03,1.05,0,0-3.79,2.55-7.23,2.31s-6.8-3.36-6.8-3.36Z"/>
            <path class="cls-6" d="M267.78,170.58l-.4-.5c8.18-6.53,14.41,1.03,14.48,1.1l-.49,.4c-.24-.29-5.9-7.13-13.59-1Z"/>
            <g>
              <path class="cls-6" d="M271.71,168.14c-.37,.52-.61,1.14-.67,1.83-.15,1.99,1.34,3.73,3.34,3.88,1.99,.15,3.73-1.34,3.88-3.34,.05-.72-.11-1.41-.43-2-2.26-1.1-4.65-.77-6.12-.37Z"/>
              <g class="cls-7">
                <path class="cls-6" d="M271.26,167.08l-.49,6.5,.49-6.5Z"/>
                <rect class="cls-6" x="267.86" y="170.23" width="6.51" height=".21" transform="translate(80.97 427.94) rotate(-85.71)"/>
                <rect class="cls-6" x="268.06" y="170.24" width="6.51" height=".21" transform="translate(81.15 428.16) rotate(-85.71)"/>
                <rect class="cls-6" x="268.27" y="170.26" width="6.51" height=".21" transform="translate(81.32 428.38) rotate(-85.71)"/>
                <rect class="cls-6" x="268.48" y="170.28" width="6.51" height=".21" transform="translate(81.5 428.6) rotate(-85.71)"/>
                <rect class="cls-6" x="268.68" y="170.29" width="6.51" height=".21" transform="translate(81.67 428.82) rotate(-85.71)"/>
                <rect class="cls-6" x="268.89" y="170.31" width="6.51" height=".21" transform="translate(81.85 429.04) rotate(-85.71)"/>
                <rect class="cls-6" x="269.1" y="170.32" width="6.51" height=".21" transform="translate(82.03 429.26) rotate(-85.71)"/>
                <rect class="cls-6" x="269.3" y="170.34" width="6.51" height=".21" transform="translate(82.2 429.48) rotate(-85.71)"/>
                <rect class="cls-6" x="269.51" y="170.35" width="6.51" height=".21" transform="translate(82.38 429.7) rotate(-85.71)"/>
                <rect class="cls-6" x="269.71" y="170.37" width="6.51" height=".21" transform="translate(82.55 429.92) rotate(-85.71)"/>
                <rect class="cls-6" x="269.92" y="170.38" width="6.51" height=".21" transform="translate(82.73 430.14) rotate(-85.71)"/>
                <rect class="cls-6" x="270.13" y="170.4" width="6.51" height=".21" transform="translate(82.9 430.36) rotate(-85.71)"/>
                <rect class="cls-6" x="270.33" y="170.42" width="6.51" height=".21" transform="translate(83.08 430.58) rotate(-85.71)"/>
                <rect class="cls-6" x="270.54" y="170.43" width="6.51" height=".21" transform="translate(83.25 430.8) rotate(-85.71)"/>
                <rect class="cls-6" x="270.74" y="170.45" width="6.51" height=".21" transform="translate(83.43 431.02) rotate(-85.71)"/>
                <rect class="cls-6" x="270.95" y="170.46" width="6.51" height=".21" transform="translate(83.6 431.24) rotate(-85.71)"/>
                <rect class="cls-6" x="271.16" y="170.48" width="6.51" height=".21" transform="translate(83.78 431.46) rotate(-85.71)"/>
                <rect class="cls-6" x="271.36" y="170.49" width="6.51" height=".21" transform="translate(83.95 431.68) rotate(-85.71)"/>
                <rect class="cls-6" x="271.57" y="170.51" width="6.51" height=".21" transform="translate(84.13 431.9) rotate(-85.71)"/>
                <rect class="cls-6" x="271.78" y="170.52" width="6.51" height=".21" transform="translate(84.3 432.12) rotate(-85.71)"/>
                <rect class="cls-6" x="271.98" y="170.54" width="6.51" height=".21" transform="translate(84.48 432.34) rotate(-85.71)"/>
                <rect class="cls-6" x="272.19" y="170.55" width="6.51" height=".21" transform="translate(84.65 432.56) rotate(-85.71)"/>
                <rect class="cls-6" x="272.39" y="170.57" width="6.51" height=".21" transform="translate(84.83 432.78) rotate(-85.71)"/>
                <rect class="cls-6" x="272.6" y="170.59" width="6.51" height=".21" transform="translate(85 433) rotate(-85.71)"/>
                <rect class="cls-6" x="272.81" y="170.6" width="6.51" height=".21" transform="translate(85.18 433.22) rotate(-85.71)"/>
                <rect class="cls-6" x="273.01" y="170.62" width="6.51" height=".21" transform="translate(85.36 433.44) rotate(-85.71)"/>
                <rect class="cls-6" x="273.22" y="170.63" width="6.51" height=".21" transform="translate(85.53 433.66) rotate(-85.71)"/>
                <rect class="cls-6" x="273.42" y="170.65" width="6.51" height=".21" transform="translate(85.71 433.88) rotate(-85.71)"/>
                <rect class="cls-6" x="273.63" y="170.66" width="6.51" height=".21" transform="translate(85.88 434.1) rotate(-85.71)"/>
                <rect class="cls-6" x="273.84" y="170.68" width="6.51" height=".21" transform="translate(86.06 434.32) rotate(-85.71)"/>
                <rect class="cls-6" x="274.04" y="170.69" width="6.51" height=".21" transform="translate(86.23 434.54) rotate(-85.71)"/>
                <rect class="cls-6" x="274.25" y="170.71" width="6.51" height=".21" transform="translate(86.41 434.76) rotate(-85.71)"/>
                <rect class="cls-6" x="274.46" y="170.72" width="6.51" height=".21" transform="translate(86.58 434.98) rotate(-85.71)"/>
                <rect class="cls-6" x="274.66" y="170.74" width="6.51" height=".21" transform="translate(86.76 435.2) rotate(-85.71)"/>
                <rect class="cls-6" x="274.87" y="170.76" width="6.51" height=".21" transform="translate(86.93 435.42) rotate(-85.71)"/>
                <path class="cls-6" d="M277.98,174.11l.49-6.5-.49,6.5Z"/>
              </g>
            </g>
            <path class="cls-14" d="M305.26,173.16c-6.98-7.53-14.03-1.05-14.03-1.05,0,0,3.37,3.09,6.8,3.36s7.23-2.31,7.23-2.31Z"/>
            <path class="cls-6" d="M305.02,173.38c-6.68-7.21-13.31-1.29-13.58-1.03l-.43-.47c.07-.07,7.36-6.6,14.48,1.07l-.47,.43Z"/>
            <g>
              <path class="cls-6" d="M301.51,170.37c.29,.57,.44,1.22,.39,1.91-.15,1.99-1.89,3.49-3.88,3.34s-3.49-1.89-3.34-3.88c.05-.72,.32-1.38,.73-1.92,2.4-.75,4.71-.07,6.1,.55Z"/>
              <g class="cls-10">
                <path class="cls-6" d="M301.62,175.89l.32-4.25-.32,4.25Z"/>
                <rect class="cls-6" x="298.51" y="172.53" width="6.51" height=".21" transform="translate(107.03 460.63) rotate(-85.71)"/>
                <rect class="cls-6" x="298.3" y="172.51" width="6.51" height=".21" transform="translate(106.86 460.41) rotate(-85.71)"/>
                <rect class="cls-6" x="298.09" y="172.5" width="6.51" height=".21" transform="translate(106.68 460.19) rotate(-85.71)"/>
                <rect class="cls-6" x="297.89" y="172.48" width="6.51" height=".21" transform="translate(106.51 459.97) rotate(-85.71)"/>
                <rect class="cls-6" x="297.68" y="172.47" width="6.51" height=".21" transform="translate(106.33 459.75) rotate(-85.71)"/>
                <rect class="cls-6" x="297.48" y="172.45" width="6.51" height=".21" transform="translate(106.16 459.53) rotate(-85.71)"/>
                <rect class="cls-6" x="297.27" y="172.44" width="6.51" height=".21" transform="translate(105.98 459.31) rotate(-85.71)"/>
                <rect class="cls-6" x="297.06" y="172.42" width="6.51" height=".21" transform="translate(105.81 459.09) rotate(-85.71)"/>
                <rect class="cls-6" x="296.86" y="172.41" width="6.51" height=".21" transform="translate(105.63 458.87) rotate(-85.71)"/>
                <rect class="cls-6" x="296.65" y="172.39" width="6.51" height=".21" transform="translate(105.46 458.65) rotate(-85.71)"/>
                <rect class="cls-6" x="296.45" y="172.37" width="6.51" height=".21" transform="translate(105.28 458.43) rotate(-85.71)"/>
                <rect class="cls-6" x="296.24" y="172.36" width="6.51" height=".21" transform="translate(105.11 458.21) rotate(-85.71)"/>
                <rect class="cls-6" x="296.03" y="172.34" width="6.51" height=".21" transform="translate(104.93 457.99) rotate(-85.71)"/>
                <rect class="cls-6" x="295.83" y="172.33" width="6.51" height=".21" transform="translate(104.76 457.77) rotate(-85.71)"/>
                <rect class="cls-6" x="295.62" y="172.31" width="6.51" height=".21" transform="translate(104.58 457.55) rotate(-85.71)"/>
                <rect class="cls-6" x="295.41" y="172.3" width="6.51" height=".21" transform="translate(104.41 457.33) rotate(-85.71)"/>
                <rect class="cls-6" x="295.21" y="172.28" width="6.51" height=".21" transform="translate(104.23 457.11) rotate(-85.71)"/>
                <rect class="cls-6" x="295" y="172.27" width="6.51" height=".21" transform="translate(104.05 456.89) rotate(-85.71)"/>
                <rect class="cls-6" x="294.8" y="172.25" width="6.51" height=".21" transform="translate(103.88 456.67) rotate(-85.71)"/>
                <rect class="cls-6" x="294.59" y="172.24" width="6.51" height=".21" transform="translate(103.7 456.45) rotate(-85.71)"/>
                <rect class="cls-6" x="294.38" y="172.22" width="6.51" height=".21" transform="translate(103.53 456.23) rotate(-85.71)"/>
                <rect class="cls-6" x="294.18" y="172.2" width="6.51" height=".21" transform="translate(103.35 456.01) rotate(-85.71)"/>
                <rect class="cls-6" x="293.97" y="172.19" width="6.51" height=".21" transform="translate(103.18 455.79) rotate(-85.71)"/>
                <rect class="cls-6" x="293.77" y="172.17" width="6.51" height=".21" transform="translate(103 455.58) rotate(-85.71)"/>
                <rect class="cls-6" x="293.56" y="172.16" width="6.51" height=".21" transform="translate(102.83 455.36) rotate(-85.71)"/>
                <rect class="cls-6" x="293.35" y="172.14" width="6.51" height=".21" transform="translate(102.65 455.14) rotate(-85.71)"/>
                <rect class="cls-6" x="293.15" y="172.13" width="6.51" height=".21" transform="translate(102.48 454.92) rotate(-85.71)"/>
                <rect class="cls-6" x="292.94" y="172.11" width="6.51" height=".21" transform="translate(102.3 454.7) rotate(-85.71)"/>
                <rect class="cls-6" x="292.73" y="172.1" width="6.51" height=".21" transform="translate(102.13 454.48) rotate(-85.71)"/>
                <rect class="cls-6" x="292.53" y="172.08" width="6.51" height=".21" transform="translate(101.95 454.26) rotate(-85.71)"/>
                <rect class="cls-6" x="292.32" y="172.07" width="6.51" height=".21" transform="translate(101.78 454.04) rotate(-85.71)"/>
                <rect class="cls-6" x="292.12" y="172.05" width="6.51" height=".21" transform="translate(101.6 453.82) rotate(-85.71)"/>
                <rect class="cls-6" x="291.91" y="172.03" width="6.51" height=".21" transform="translate(101.43 453.6) rotate(-85.71)"/>
                <rect class="cls-6" x="291.7" y="172.02" width="6.51" height=".21" transform="translate(101.25 453.38) rotate(-85.71)"/>
                <polygon class="cls-6" points="294.53 173.74 294.9 168.85 295.1 168.87 294.61 175.36 294.41 175.35 294.53 173.74"/>
                <path class="cls-6" d="M294.9,168.85l-.37,4.89,.37-4.89Z"/>
              </g>
            </g>
            <path class="cls-28" d="M365.32,282.34l-13.79-29.79c-3.04-6.58-8.78-11.53-15.73-13.58l-31.32-9.24-25.81,27.72-22.82-30.34-28.6,3.35c-7.7,.9-14.55,5.3-18.58,11.92l-16.42,26.98,173.07,12.99Z"/>
            <path class="cls-6" d="M261.2,171.77s2.88-21.44,3.12-24.61c.24-3.17,2.57-8.73,5.78-9.12,0,0,10.58,3.34,16.91,3.82,6.34,.48,18.67-1.15,18.67-1.15,0,0,4.77,2.91,4.2,10.51-.57,7.6-.45,24.17-.45,24.17l1.75-7.51s1.5-3.07,3.5-4.2c0,0,9.6-26.04-1.8-26.89,0,0-.6-8.96-6.94-9.44,0,0-9.38-10.9-17.94-7.08,0,0-21.05-8.93-24.34-2.95-3.28,5.98,1.12,15.23,1.12,15.23,0,0-11.99-1.54-6.53,27.54,0,0,1.71,2.68,2.95,11.69Z"/>
            <g>
              <path class="cls-6" d="M280.7,158.11l-.15,1.96c-.06,.86-.77,1.52-1.63,1.54l-12.22,.24c-.88,.02-1.63-.66-1.69-1.54l-.03-.41c-.06-.87,.56-1.64,1.42-1.76l12.4-1.79c1.05-.15,1.97,.71,1.9,1.77Z"/>
              <g class="cls-9">
                <rect class="cls-6" x="261.67" y="158.38" width="6.7" height=".11" transform="translate(87.21 410.86) rotate(-85.71)"/>
                <rect class="cls-6" x="261.95" y="158.23" width="6.7" height=".44" transform="translate(87.44 411.15) rotate(-85.71)"/>
                <rect class="cls-6" x="262.39" y="158.26" width="6.7" height=".44" transform="translate(87.82 411.63) rotate(-85.71)"/>
                <rect class="cls-6" x="262.84" y="158.3" width="6.7" height=".44" transform="translate(88.19 412.1) rotate(-85.71)"/>
                <rect class="cls-6" x="263.28" y="158.33" width="6.7" height=".44" transform="translate(88.57 412.57) rotate(-85.71)"/>
                <rect class="cls-6" x="263.72" y="158.36" width="6.7" height=".44" transform="translate(88.95 413.04) rotate(-85.71)"/>
                <rect class="cls-6" x="264.17" y="158.4" width="6.7" height=".44" transform="translate(89.32 413.52) rotate(-85.71)"/>
                <rect class="cls-6" x="264.61" y="158.43" width="6.7" height=".44" transform="translate(89.7 413.99) rotate(-85.71)"/>
                <rect class="cls-6" x="265.05" y="158.46" width="6.7" height=".44" transform="translate(90.08 414.46) rotate(-85.71)"/>
                <rect class="cls-6" x="265.49" y="158.5" width="6.7" height=".44" transform="translate(90.45 414.94) rotate(-85.71)"/>
                <rect class="cls-6" x="265.94" y="158.53" width="6.7" height=".44" transform="translate(90.83 415.41) rotate(-85.71)"/>
                <rect class="cls-6" x="266.38" y="158.56" width="6.7" height=".44" transform="translate(91.21 415.88) rotate(-85.71)"/>
                <rect class="cls-6" x="266.82" y="158.6" width="6.7" height=".44" transform="translate(91.59 416.35) rotate(-85.71)"/>
                <rect class="cls-6" x="267.27" y="158.63" width="6.7" height=".44" transform="translate(91.96 416.83) rotate(-85.71)"/>
                <rect class="cls-6" x="267.71" y="158.66" width="6.7" height=".44" transform="translate(92.34 417.3) rotate(-85.71)"/>
                <rect class="cls-6" x="268.15" y="158.7" width="6.7" height=".44" transform="translate(92.72 417.77) rotate(-85.71)"/>
                <rect class="cls-6" x="268.6" y="158.73" width="6.7" height=".44" transform="translate(93.09 418.24) rotate(-85.71)"/>
                <rect class="cls-6" x="269.04" y="158.76" width="6.7" height=".44" transform="translate(93.47 418.72) rotate(-85.71)"/>
                <rect class="cls-6" x="269.48" y="158.8" width="6.7" height=".44" transform="translate(93.85 419.19) rotate(-85.71)"/>
                <rect class="cls-6" x="269.93" y="158.83" width="6.7" height=".44" transform="translate(94.22 419.66) rotate(-85.71)"/>
                <rect class="cls-6" x="270.37" y="158.86" width="6.7" height=".44" transform="translate(94.6 420.13) rotate(-85.71)"/>
                <rect class="cls-6" x="270.81" y="158.9" width="6.7" height=".44" transform="translate(94.98 420.61) rotate(-85.71)"/>
                <rect class="cls-6" x="271.25" y="158.93" width="6.7" height=".44" transform="translate(95.35 421.08) rotate(-85.71)"/>
                <rect class="cls-6" x="271.7" y="158.96" width="6.7" height=".44" transform="translate(95.73 421.55) rotate(-85.71)"/>
                <rect class="cls-6" x="272.14" y="159" width="6.7" height=".44" transform="translate(96.11 422.02) rotate(-85.71)"/>
                <rect class="cls-6" x="272.58" y="159.03" width="6.7" height=".44" transform="translate(96.48 422.5) rotate(-85.71)"/>
                <rect class="cls-6" x="273.03" y="159.06" width="6.7" height=".44" transform="translate(96.86 422.97) rotate(-85.71)"/>
                <rect class="cls-6" x="273.47" y="159.1" width="6.7" height=".44" transform="translate(97.24 423.44) rotate(-85.71)"/>
                <rect class="cls-6" x="273.91" y="159.13" width="6.7" height=".44" transform="translate(97.61 423.92) rotate(-85.71)"/>
                <rect class="cls-6" x="274.36" y="159.16" width="6.7" height=".44" transform="translate(97.99 424.39) rotate(-85.71)"/>
                <rect class="cls-6" x="274.8" y="159.2" width="6.7" height=".44" transform="translate(98.37 424.86) rotate(-85.71)"/>
                <rect class="cls-6" x="275.24" y="159.23" width="6.7" height=".44" transform="translate(98.74 425.33) rotate(-85.71)"/>
                <rect class="cls-6" x="275.69" y="159.26" width="6.7" height=".44" transform="translate(99.12 425.81) rotate(-85.71)"/>
                <rect class="cls-6" x="276.13" y="159.3" width="6.7" height=".44" transform="translate(99.5 426.28) rotate(-85.71)"/>
                <rect class="cls-6" x="276.57" y="159.33" width="6.7" height=".44" transform="translate(99.87 426.75) rotate(-85.71)"/>
                <rect class="cls-6" x="277.02" y="159.36" width="6.7" height=".44" transform="translate(100.25 427.22) rotate(-85.71)"/>
                <path class="cls-6" d="M280.34,162.94l.5-6.69-.5,6.69Z"/>
              </g>
            </g>
            <g>
              <path class="cls-6" d="M291.47,158.91l-.15,1.96c-.06,.86,.53,1.62,1.38,1.76l12.05,2.06c.87,.15,1.71-.41,1.9-1.28l.09-.4c.19-.85-.31-1.7-1.14-1.95l-11.99-3.62c-1.02-.31-2.06,.41-2.14,1.47Z"/>
              <g class="cls-8">
                <rect class="cls-6" x="303.57" y="161.52" width="6.7" height=".11" transform="translate(122.83 455.55) rotate(-85.71)"/>
                <rect class="cls-6" x="303.29" y="161.33" width="6.7" height=".44" transform="translate(122.6 455.25) rotate(-85.71)"/>
                <rect class="cls-6" x="302.85" y="161.3" width="6.7" height=".44" transform="translate(122.22 454.78) rotate(-85.71)"/>
                <rect class="cls-6" x="302.41" y="161.27" width="6.7" height=".44" transform="translate(121.84 454.31) rotate(-85.71)"/>
                <rect class="cls-6" x="301.96" y="161.23" width="6.7" height=".44" transform="translate(121.47 453.84) rotate(-85.71)"/>
                <rect class="cls-6" x="301.52" y="161.2" width="6.7" height=".44" transform="translate(121.09 453.36) rotate(-85.71)"/>
                <rect class="cls-6" x="301.08" y="161.17" width="6.7" height=".44" transform="translate(120.71 452.89) rotate(-85.71)"/>
                <rect class="cls-6" x="300.64" y="161.13" width="6.7" height=".44" transform="translate(120.34 452.42) rotate(-85.71)"/>
                <rect class="cls-6" x="300.19" y="161.1" width="6.7" height=".44" transform="translate(119.96 451.94) rotate(-85.71)"/>
                <rect class="cls-6" x="299.75" y="161.07" width="6.7" height=".44" transform="translate(119.58 451.47) rotate(-85.71)"/>
                <rect class="cls-6" x="299.31" y="161.03" width="6.7" height=".44" transform="translate(119.21 451) rotate(-85.71)"/>
                <rect class="cls-6" x="298.86" y="161" width="6.7" height=".44" transform="translate(118.83 450.53) rotate(-85.71)"/>
                <rect class="cls-6" x="298.42" y="160.97" width="6.7" height=".44" transform="translate(118.45 450.05) rotate(-85.71)"/>
                <rect class="cls-6" x="297.98" y="160.93" width="6.7" height=".44" transform="translate(118.08 449.58) rotate(-85.71)"/>
                <rect class="cls-6" x="297.53" y="160.9" width="6.7" height=".44" transform="translate(117.7 449.11) rotate(-85.71)"/>
                <rect class="cls-6" x="297.09" y="160.87" width="6.7" height=".44" transform="translate(117.32 448.64) rotate(-85.71)"/>
                <rect class="cls-6" x="296.65" y="160.83" width="6.7" height=".44" transform="translate(116.95 448.16) rotate(-85.71)"/>
                <rect class="cls-6" x="296.2" y="160.8" width="6.7" height=".44" transform="translate(116.57 447.69) rotate(-85.71)"/>
                <rect class="cls-6" x="295.76" y="160.77" width="6.7" height=".44" transform="translate(116.19 447.22) rotate(-85.71)"/>
                <rect class="cls-6" x="295.32" y="160.74" width="6.7" height=".44" transform="translate(115.81 446.75) rotate(-85.71)"/>
                <rect class="cls-6" x="294.87" y="160.7" width="6.7" height=".44" transform="translate(115.44 446.27) rotate(-85.71)"/>
                <rect class="cls-6" x="294.43" y="160.67" width="6.7" height=".44" transform="translate(115.06 445.8) rotate(-85.71)"/>
                <rect class="cls-6" x="293.99" y="160.64" width="6.7" height=".44" transform="translate(114.68 445.33) rotate(-85.71)"/>
                <rect class="cls-6" x="293.55" y="160.6" width="6.7" height=".44" transform="translate(114.31 444.86) rotate(-85.71)"/>
                <rect class="cls-6" x="293.1" y="160.57" width="6.7" height=".44" transform="translate(113.93 444.38) rotate(-85.71)"/>
                <rect class="cls-6" x="292.66" y="160.54" width="6.7" height=".44" transform="translate(113.55 443.91) rotate(-85.71)"/>
                <rect class="cls-6" x="292.22" y="160.5" width="6.7" height=".44" transform="translate(113.18 443.44) rotate(-85.71)"/>
                <rect class="cls-6" x="291.77" y="160.47" width="6.7" height=".44" transform="translate(112.8 442.96) rotate(-85.71)"/>
                <rect class="cls-6" x="291.33" y="160.44" width="6.7" height=".44" transform="translate(112.42 442.49) rotate(-85.71)"/>
                <rect class="cls-6" x="290.89" y="160.4" width="6.7" height=".44" transform="translate(112.05 442.02) rotate(-85.71)"/>
                <rect class="cls-6" x="290.44" y="160.37" width="6.7" height=".44" transform="translate(111.67 441.55) rotate(-85.71)"/>
                <rect class="cls-6" x="290" y="160.34" width="6.7" height=".44" transform="translate(111.29 441.07) rotate(-85.71)"/>
                <rect class="cls-6" x="289.56" y="160.3" width="6.7" height=".44" transform="translate(110.92 440.6) rotate(-85.71)"/>
                <rect class="cls-6" x="289.11" y="160.27" width="6.7" height=".44" transform="translate(110.54 440.13) rotate(-85.71)"/>
                <rect class="cls-6" x="288.67" y="160.24" width="6.7" height=".44" transform="translate(110.16 439.66) rotate(-85.71)"/>
                <polygon class="cls-6" points="291.26 161.73 291.61 157.07 292.05 157.1 291.55 163.78 291.11 163.75 291.26 161.73"/>
                <path class="cls-6" d="M291.61,157.07l-.35,4.67,.35-4.67Z"/>
              </g>
            </g>
            <path class="cls-6" d="M286.17,184.77c-.15,0-.3,0-.46-.02-3.09-.23-6.02-.45-5.66-5.2l.63,.05c-.31,4.12,1.83,4.28,5.08,4.52,1.89,.15,2.86-.71,3.27-1.23,.53-.67,.73-1.52,.51-2.23-.54-1.75-1.96-8.18-1.75-13.42l.63,.03c-.2,5.16,1.19,11.49,1.72,13.21,.28,.9,.04,1.98-.62,2.81-.46,.57-1.48,1.48-3.35,1.48Z"/>
            <path class="cls-6" d="M284.86,195.51c-2.61,0-4.96-.96-5-.98-.16-.07-.24-.25-.17-.42,.07-.16,.25-.24,.42-.17,.07,.03,7.19,2.94,9.93-1.64,.09-.15,.29-.2,.44-.11,.15,.09,.2,.29,.11,.44-1.35,2.26-3.62,2.88-5.72,2.88Z"/>
            <path class="cls-6" d="M271.38,188.3c-.86,.31-.74,1.56,.16,1.7,4.68,.74,12.94,1.53,12.8-2.1-.14-3.65-8.39-1.23-12.96,.4Z"/>
            <path class="cls-6" d="M297.79,190.28c.81,.43,.5,1.66-.41,1.66-4.74,.03-13.03-.42-12.35-3.99s8.48,.04,12.76,2.33Z"/>
          </g>
        </g>
        <path class="cls-29" d="M141.97,339.8s22.24-42.45,29.4-71c7.16-28.54,18.9-64.77,18.9-64.77,0,0,15.83-23.88,17.63-47.82,0,0,23.83-10.25,21.99,27.72-1.85,37.97-4.49,59.79-4.49,59.79,0,0,15.2,51.32-9.18,95.62l-13.84,24.03-60.4-23.59Z"/>
        <path class="cls-27" d="M331.03,299.37s19.24-10.49,19.57-17.56c.33-7.06,1-16.04-10.97-16.94-11.97-.9-14.3-1.07-14.3-1.07,0,0-6.5,11,6.88,19.8l-1.18,15.77Z"/>
        <path class="cls-26" d="M345.28,266.25s8.15-4.85,8.53-9.84c.37-4.99,2.82-10.82-3.94-14.33-6.76-3.52-21.49-7.63-21.49-7.63,0,0-8.9,11.74,5.82,22.68l-.55,7.29,11.63,1.82Z"/>
        <path class="cls-21" d="M351.76,243.31s3.68-9.2,1.07-14.23-12.94-15.83-12.94-15.83c0,0-16.24,4.12-4.15,23.42l16.03,6.64Z"/>
        <path class="cls-5" d="M207.9,156.22s8.9,1.67,4.49,20.39c0,0-5.5,.59-8.7-.65,0,0,3.69-12.76,4.21-19.74Z"/>
        <circle class="cls-23" cx="274.88" cy="292.61" r="10"/>
        <path d="M274.89,299.96c-.19,0-.37,0-.56-.02-4.04-.3-7.08-3.84-6.78-7.88,.15-1.96,1.05-3.74,2.54-5.02,1.49-1.28,3.39-1.91,5.34-1.76,1.96,.15,3.74,1.05,5.02,2.54s1.91,3.39,1.76,5.34l-.35-.03,.35,.03c-.15,1.96-1.05,3.74-2.54,5.02-1.35,1.16-3.03,1.78-4.78,1.78Zm-.02-14c-1.59,0-3.11,.56-4.33,1.61-1.35,1.16-2.16,2.77-2.29,4.54-.27,3.66,2.48,6.85,6.13,7.13,1.78,.14,3.49-.43,4.83-1.59,1.35-1.16,2.16-2.77,2.29-4.54h0c.13-1.77-.43-3.49-1.59-4.83-1.16-1.35-2.77-2.16-4.54-2.29-.17-.01-.34-.02-.51-.02Z"/>
        <path class="cls-12" d="M226.96,310.58s-3.23,20.36-16.01,37.93c0,0,17.61-13.24,23.02-31.89l65.33-.61-72.34-5.43Z"/>
        <path class="cls-25" d="M144.14,335.55s56.36,16.2,78.37,51.93l-39.2,60.37c-1.78,2.74-5.26,3.84-8.28,2.59-16.33-6.71-65.69-29.28-75.9-60.53-.76-2.34-.21-4.91,1.45-6.73l43.56-47.63Z"/>
        <polygon class="cls-20" points="247.93 270.54 226.56 268.93 288.43 98.58 309.81 100.19 247.93 270.54"/>
        <g>
          <path class="cls-24" d="M264.31,80.29l3.58-10.19c1.04-2.96,5.33-2.64,5.92,.44l2.02,10.61c.2,1.08,.97,1.96,2,2.33l10.19,3.58c2.96,1.04,2.64,5.33-.44,5.92l-10.61,2.02c-1.08,.2-1.96,.97-2.33,2l-3.58,10.19c-1.04,2.96-5.33,2.64-5.92-.44l-2.02-10.61c-.2-1.08-.97-1.96-2-2.33l-10.19-3.58c-2.96-1.04-2.64-5.33,.44-5.92l10.61-2.02c1.08-.2,1.96-.97,2.33-2Z"/>
          <path class="cls-22" d="M282.69,71.79l1.15-3.27c.33-.95,1.71-.85,1.9,.14l.65,3.41c.07,.35,.31,.63,.64,.75l3.27,1.15c.95,.33,.85,1.71-.14,1.9l-3.41,.65c-.35,.07-.63,.31-.75,.64l-1.15,3.27c-.33,.95-1.71,.85-1.9-.14l-.65-3.41c-.07-.35-.31-.63-.64-.75l-3.27-1.15c-.95-.33-.85-1.71,.14-1.9l3.41-.65c.35-.07,.63-.31,.75-.64Z"/>
        </g>
      </g>
      <path class="cls-6" d="M276.73,208.83s6.43-.46,12.87,.14c0,0-5.11,8.4-12.87-.14Z"/>
    </g>
  </g>
</svg>