<svg width="231" height="220" viewBox="0 0 231 220" fill="none" xmlns="http://www.w3.org/2000/svg">
<g clip-path="url(#clip0_316_1457)">
<path d="M160.767 217.182H62.2325C53.5242 217.182 46.9399 210.154 47.5593 201.47L60.551 16.5926C61.1528 7.9265 68.7283 0.880859 77.4366 0.880859H175.971C184.68 0.880859 191.264 7.90888 190.644 16.5926L177.653 201.488C177.051 210.154 169.476 217.2 160.767 217.2V217.182Z" fill="black"/>
<path d="M154.962 217.182H56.4269C47.7186 217.182 41.1343 210.154 41.7538 201.47L54.7455 16.5926C55.3473 7.9265 62.9228 0.880859 71.6311 0.880859H170.166C178.874 0.880859 185.458 7.90888 184.839 16.5926L171.847 201.488C171.246 210.154 163.67 217.2 154.962 217.2V217.182Z" fill="#ECECEC"/>
<path d="M154.962 218.062H56.4269C51.9666 218.062 47.8956 216.336 44.9575 213.201C42.0016 210.048 40.5502 205.874 40.8688 201.417L53.8605 16.522C54.4977 7.41553 62.4803 0 71.6311 0H170.166C174.626 0 178.697 1.72618 181.635 4.86149C184.591 8.01441 186.043 12.189 185.724 16.6453L172.732 201.54C172.095 210.647 164.112 218.062 154.962 218.062ZM71.6134 1.76141C63.3653 1.76141 56.1968 8.43715 55.6128 16.6453L42.6211 201.54C42.3379 205.504 43.63 209.203 46.2319 211.986C48.8337 214.769 52.4445 216.301 56.4092 216.301H154.944C163.192 216.301 170.361 209.625 170.945 201.417L183.936 16.522C184.219 12.5588 182.927 8.85989 180.325 6.05925C177.724 3.27622 174.113 1.7438 170.148 1.7438H71.6134V1.76141Z" fill="black"/>
<path d="M184.149 27.2136H54.0552C53.5596 27.2136 53.1702 26.826 53.1702 26.3329C53.1702 25.8397 53.5596 25.4521 54.0552 25.4521H184.149C184.644 25.4521 185.034 25.8397 185.034 26.3329C185.034 26.826 184.644 27.2136 184.149 27.2136Z" fill="black"/>
<path d="M133.704 15.465H110.588C110.093 15.465 109.703 15.0775 109.703 14.5843C109.703 14.0911 110.093 13.7036 110.588 13.7036H133.704C134.2 13.7036 134.589 14.0911 134.589 14.5843C134.589 15.0775 134.2 15.465 133.704 15.465Z" fill="black"/>
<path d="M105.681 14.9916C105.92 14.7618 105.938 14.394 105.721 14.1701C105.503 13.9462 105.133 13.9509 104.894 14.1807C104.655 14.4104 104.638 14.7782 104.855 15.0021C105.072 15.2261 105.442 15.2213 105.681 14.9916Z" fill="#ECECEC"/>
<path d="M105.261 16.0465C104.871 16.0465 104.482 15.8879 104.216 15.6061C103.951 15.3243 103.809 14.9368 103.845 14.5316C103.898 13.739 104.57 13.1401 105.349 13.1401C105.756 13.1401 106.128 13.2987 106.393 13.5981C106.659 13.8799 106.801 14.2674 106.765 14.6726C106.712 15.4652 106.039 16.0641 105.261 16.0641V16.0465ZM104.995 14.514C104.995 14.6021 105.031 14.6902 105.084 14.7606C105.261 14.9368 105.562 14.8663 105.597 14.6373C105.597 14.6021 105.597 14.5845 105.597 14.5493L105.013 14.514H104.995ZM105.261 14.2851C105.119 14.2851 105.013 14.3731 104.995 14.514L105.579 14.5493C105.579 14.5493 105.544 14.426 105.491 14.3907C105.42 14.3203 105.331 14.2851 105.243 14.2851H105.261Z" fill="black"/>
<path d="M144.667 116.483C160.572 101.197 161.857 76.842 147.536 62.0838C133.215 47.3256 108.711 47.7532 92.8049 63.039C76.899 78.3247 75.6144 102.68 89.9356 117.438C104.257 132.197 128.761 131.769 144.667 116.483Z" fill="black"/>
<path d="M140.09 116.47C155.995 101.184 157.28 76.8283 142.959 62.0701C128.638 47.3119 104.134 47.7396 88.2279 63.0253C72.322 78.3111 71.0374 102.667 85.3586 117.425C99.6798 132.183 124.184 131.755 140.09 116.47Z" fill="#ECECEC"/>
<path d="M111.456 129.111C100.907 129.111 91.2601 125.025 84.3041 117.592C77.3304 110.141 73.8789 100.242 74.6223 89.6911C76.1445 68.0257 95.101 50.394 116.872 50.394C127.421 50.394 137.067 54.4805 144.023 61.9137C150.997 69.3644 154.448 79.2812 153.705 89.8144C152.183 111.48 133.226 129.094 111.456 129.094V129.111ZM116.854 52.1731C95.986 52.1731 77.8437 69.065 76.3746 89.832C75.6666 99.872 78.9411 109.313 85.5785 116.412C92.1982 123.475 101.384 127.368 111.438 127.368C132.306 127.368 150.448 110.476 151.917 89.7087C152.625 79.6687 149.351 70.2275 142.713 63.129C136.094 56.0658 126.908 52.1731 116.854 52.1731Z" fill="black"/>
<path d="M105.454 80.9386C105.781 77.1 104.743 73.8785 103.136 73.743C101.528 73.6076 99.9608 76.6096 99.6342 80.4481C99.3075 84.2867 100.346 87.5082 101.953 87.6437C103.56 87.7791 105.128 84.7771 105.454 80.9386Z" fill="#FF005C"/>
<path d="M128.823 80.9508C129.15 77.1122 128.112 73.8907 126.504 73.7552C124.897 73.6198 123.33 76.6218 123.003 80.4603C122.676 84.2989 123.714 87.5204 125.322 87.6559C126.929 87.7913 128.496 84.7893 128.823 80.9508Z" fill="#FF005C"/>
<path d="M112.199 110.458C107.066 110.458 102.464 107.693 100.199 103.254C99.9684 102.813 100.145 102.285 100.588 102.074C101.013 101.862 101.561 102.021 101.774 102.461C103.738 106.301 107.739 108.697 112.199 108.697C116.659 108.697 121.067 106.283 123.615 102.373C123.881 101.968 124.43 101.845 124.837 102.109C125.244 102.373 125.368 102.919 125.102 103.324C122.235 107.71 117.297 110.44 112.199 110.44V110.458Z" fill="black"/>
<path d="M64.1794 72.4646C64.1794 72.4646 64.1441 72.4646 64.1087 72.4646C63.6131 72.4294 63.2591 72.0066 63.2945 71.531L64.9936 47.2764C65.3653 41.9746 70.0027 37.6768 75.3126 37.6768H99.7029C100.199 37.6768 100.588 38.0643 100.588 38.5575C100.588 39.0507 100.199 39.4382 99.7029 39.4382H75.3126C70.9054 39.4382 67.0645 43.0138 66.7459 47.3997L65.0467 71.6543C65.0113 72.1123 64.6219 72.4646 64.1618 72.4646H64.1794Z" fill="black"/>
<path d="M166.98 72.4646C166.98 72.4646 166.944 72.4646 166.909 72.4646C166.413 72.4294 166.059 72.0066 166.095 71.531L167.794 47.2764C167.936 45.1804 167.263 43.2076 165.882 41.728C164.502 40.2484 162.59 39.4382 160.484 39.4382H136.111C135.616 39.4382 135.226 39.0507 135.226 38.5575C135.226 38.0643 135.616 37.6768 136.111 37.6768H160.484C163.086 37.6768 165.458 38.6808 167.192 40.5302C168.909 42.3621 169.759 44.8105 169.582 47.4174L167.883 71.672C167.847 72.1299 167.458 72.4822 166.998 72.4822L166.98 72.4646Z" fill="black"/>
<path d="M92.2336 145.81H67.8433C65.2414 145.81 62.8697 144.806 61.1351 142.956C59.4182 141.125 58.5686 138.676 58.7456 136.069L60.4448 111.797C60.4802 111.304 60.8873 110.952 61.3829 110.987C61.8785 111.022 62.2325 111.445 62.1971 111.92L60.4979 136.193C60.3563 138.289 61.0289 140.261 62.4095 141.741C63.7901 143.221 65.7193 144.031 67.8079 144.031H92.1982C92.6938 144.031 93.0832 144.418 93.0832 144.912C93.0832 145.405 92.6938 145.792 92.1982 145.792L92.2336 145.81Z" fill="black"/>
<path d="M152.997 145.809H128.624C128.129 145.809 127.739 145.422 127.739 144.929C127.739 144.436 128.129 144.048 128.624 144.048H152.997C157.404 144.048 161.245 140.472 161.564 136.087L163.263 111.814C163.298 111.321 163.758 110.951 164.201 111.004C164.697 111.039 165.051 111.462 165.015 111.938L163.316 136.21C162.944 141.494 158.307 145.809 152.997 145.809Z" fill="black"/>
<path d="M180.184 114.175L164.201 128.231C160.272 131.683 159.865 137.637 163.263 141.6C165.989 144.753 170.431 145.81 174.29 144.189L193.335 136.192C196.574 134.836 199.282 132.476 201.07 129.464C204.061 124.391 206.663 116.641 198.627 111.991C192.751 108.591 185.264 109.718 180.184 114.192V114.175Z" fill="#ECECEC"/>
<path d="M170.555 145.827C167.564 145.827 164.643 144.541 162.608 142.181C158.909 137.883 159.369 131.331 163.635 127.579L179.618 113.523C185.175 108.626 192.999 107.693 199.087 111.215C202.008 112.906 203.849 115.126 204.557 117.821C205.689 122.101 203.707 126.751 201.848 129.886C199.955 133.092 197.14 135.54 193.707 136.985L174.662 144.982C173.334 145.545 171.936 145.809 170.573 145.809L170.555 145.827ZM191.105 110.863C187.459 110.863 183.759 112.219 180.786 114.844L164.803 128.9C161.263 132.018 160.873 137.46 163.953 141.036C166.431 143.907 170.449 144.858 173.954 143.379L192.999 135.382C196.096 134.078 198.609 131.877 200.309 129.006C201.99 126.152 203.795 121.978 202.822 118.279C202.238 116.042 200.68 114.192 198.185 112.748C195.99 111.48 193.547 110.863 191.087 110.863H191.105Z" fill="black"/>
<path d="M188.698 193.209L167.475 195.358C162.254 195.887 158.431 200.484 158.891 205.68C159.245 209.819 162.254 213.254 166.325 214.188L186.485 218.732C189.919 219.507 193.494 219.172 196.716 217.746C202.132 215.368 208.769 210.577 204.964 202.14C202.185 195.975 195.459 192.54 188.698 193.227V193.209Z" fill="#ECECEC"/>
<path d="M190.149 220C188.874 220 187.582 219.859 186.308 219.56L166.148 215.015C161.688 214.011 158.413 210.277 158.024 205.733C157.546 200.096 161.741 195.041 167.405 194.46L188.627 192.311C196.043 191.553 202.91 195.358 205.795 201.752C207.176 204.817 207.371 207.688 206.362 210.295C204.769 214.434 200.45 217.059 197.087 218.538C194.875 219.507 192.521 220 190.149 220ZM188.804 194.072L167.582 196.221C162.873 196.697 159.387 200.906 159.776 205.592C160.095 209.361 162.82 212.461 166.537 213.307L186.697 217.851C189.972 218.591 193.317 218.274 196.379 216.918C199.424 215.579 203.335 213.236 204.716 209.661C205.548 207.512 205.371 205.081 204.185 202.474C201.618 196.767 195.441 193.385 188.804 194.072Z" fill="black"/>
<path d="M200.167 132.934L169.281 145.352C164.272 147.448 161.581 153.313 163.228 158.527C164.537 162.684 168.307 165.326 172.52 165.062L203.919 159.848C207.477 159.619 210.928 158.21 213.76 155.797C218.522 151.728 223.955 144.823 218.256 137.284C214.079 131.771 206.663 130.239 200.167 132.951V132.934Z" fill="#ECECEC"/>
<path d="M171.989 165.942C167.546 165.942 163.758 163.142 162.396 158.791C160.626 153.19 163.564 146.796 168.962 144.541L199.848 132.123C206.946 129.146 214.645 131.014 218.982 136.738C223.655 142.921 222.009 149.931 214.362 156.448C211.371 159.002 207.778 160.482 204.008 160.711L172.697 165.907C172.467 165.907 172.237 165.925 172.007 165.925L171.989 165.942ZM206.645 132.493C204.627 132.493 202.539 132.898 200.521 133.761L169.635 146.179C165.086 148.082 162.59 153.507 164.095 158.263C165.281 162.05 168.661 164.428 172.484 164.181L203.795 158.985C207.282 158.756 210.504 157.435 213.194 155.127C218.044 151.006 222.717 144.647 217.548 137.813C214.929 134.36 210.928 132.493 206.645 132.493Z" fill="black"/>
<path d="M202.114 160.605L169.458 167.07C164.148 168.197 160.396 173.464 161.033 178.889C161.546 183.222 164.75 186.498 168.945 187.026L200.769 187.731C204.309 188.171 207.955 187.414 211.194 185.582C216.645 182.482 223.265 176.705 219.07 168.232C216.008 162.032 208.999 159.161 202.114 160.623V160.605Z" fill="#ECECEC"/>
<path d="M202.787 188.735C202.079 188.735 201.371 188.682 200.663 188.594L168.927 187.889C164.201 187.308 160.732 183.733 160.165 178.977C159.475 173.146 163.564 167.404 169.281 166.207L201.955 159.742C209.495 158.139 216.699 161.398 219.885 167.827C223.318 174.767 220.398 181.355 211.654 186.339C208.875 187.925 205.849 188.735 202.804 188.735H202.787ZM205.725 161.098C204.61 161.098 203.459 161.222 202.309 161.468L169.653 167.933C164.82 168.954 161.351 173.816 161.935 178.783C162.396 182.711 165.263 185.67 169.068 186.146L200.804 186.85C204.256 187.273 207.689 186.568 210.769 184.807C216.292 181.654 222.097 176.282 218.309 168.602C215.973 163.881 211.159 161.098 205.742 161.098H205.725Z" fill="black"/>
<path d="M45.8425 147.5C45.8425 147.5 73.1179 134.342 68.1265 108.432L41.8423 119.089C37.6121 120.797 34.1252 123.933 31.9658 127.931L28.0365 135.188C24.9036 140.983 26.0541 148.134 30.833 152.679L43.5415 175.771L45.8425 147.5Z" fill="#ECECEC"/>
<path d="M43.5592 176.652C43.2406 176.652 42.9397 176.476 42.7804 176.194L30.1428 153.225C25.1691 148.416 23.9832 140.86 27.2754 134.783L31.2047 127.526C33.4526 123.351 37.1165 120.075 41.5237 118.296L67.8079 107.64C68.0557 107.534 68.3389 107.552 68.569 107.675C68.7991 107.798 68.9584 108.027 69.0115 108.291C73.7196 132.687 50.3028 146.162 46.7098 148.082L44.4442 175.859C44.4088 176.247 44.1256 176.564 43.7539 176.652C43.6831 176.652 43.63 176.669 43.5769 176.669L43.5592 176.652ZM67.4395 109.665C67.4426 109.665 67.4434 109.67 67.4406 109.671L42.1786 119.917C38.1608 121.555 34.7978 124.549 32.7446 128.354L28.8153 135.611C25.8771 141.036 26.9745 147.782 31.4525 152.045C31.5233 152.115 31.5764 152.186 31.6118 152.256L42.9043 172.759L44.9575 147.43C44.9752 147.113 45.1699 146.849 45.4531 146.708C45.7186 146.584 71.3101 133.903 67.4367 109.669C67.4365 109.667 67.4378 109.665 67.4395 109.665Z" fill="black"/>
<path d="M115.145 196.004C120.06 191.28 120.461 183.758 116.041 179.202C111.62 174.647 104.052 174.783 99.1365 179.507C94.2213 184.23 93.8204 191.753 98.241 196.308C102.662 200.864 110.23 200.727 115.145 196.004Z" fill="#ECECEC"/>
<path d="M106.287 200.536C102.854 200.536 99.7206 199.198 97.4551 196.785C95.1895 194.354 94.0567 191.131 94.3045 187.713C94.8001 180.703 100.924 175.014 107.969 175.014C111.403 175.014 114.535 176.352 116.801 178.765C119.084 181.196 120.199 184.42 119.951 187.837C119.456 194.847 113.332 200.536 106.287 200.536ZM107.951 176.775C101.827 176.775 96.4816 181.742 96.0568 187.837C95.8444 190.761 96.8002 193.526 98.7294 195.587C100.659 197.648 103.331 198.775 106.27 198.775C112.394 198.775 117.739 193.808 118.164 187.713C118.376 184.772 117.42 182.024 115.491 179.963C113.562 177.902 110.889 176.775 107.951 176.775Z" fill="black"/>
<path d="M229.796 81.5705H199.671C199.176 81.5705 198.786 81.183 198.786 80.6898C198.786 80.1966 199.176 79.8091 199.671 79.8091H229.796C230.292 79.8091 230.681 80.1966 230.681 80.6898C230.681 81.183 230.292 81.5705 229.796 81.5705Z" fill="black"/>
<path d="M200.556 69.0118C200.238 69.0118 199.919 68.8357 199.778 68.5362C199.547 68.0959 199.724 67.5675 200.149 67.3561L229.708 52.1728C230.133 51.9438 230.681 52.1199 230.894 52.5427C231.124 52.983 230.947 53.5114 230.522 53.7228L200.963 68.9061C200.84 68.9766 200.698 69.0118 200.556 69.0118Z" fill="black"/>
<path d="M226.221 109.33C226.079 109.33 225.92 109.295 225.796 109.225L198.379 94.0414C197.954 93.8124 197.795 93.2664 198.043 92.8437C198.273 92.4209 198.822 92.2624 199.247 92.509L226.664 107.692C227.088 107.921 227.248 108.467 227 108.89C226.841 109.172 226.54 109.348 226.221 109.348V109.33Z" fill="black"/>
<path d="M31.3109 83.7023H1.20359C0.707991 83.7023 0.318596 83.3148 0.318596 82.8216C0.318596 82.3284 0.707991 81.9409 1.20359 81.9409H31.3109C31.8065 81.9409 32.1959 82.3284 32.1959 82.8216C32.1959 83.3148 31.8065 83.7023 31.3109 83.7023Z" fill="black"/>
<path d="M32.1959 71.1435C32.0543 71.1435 31.895 71.1082 31.7711 71.0378L4.35415 55.8368C3.92936 55.6078 3.77006 55.0618 4.01785 54.6391C4.24795 54.2163 4.79665 54.0578 5.22144 54.3044L32.6384 69.4878C33.0632 69.7167 33.2225 70.2628 32.9747 70.6855C32.8154 70.9673 32.5145 71.1435 32.1959 71.1435Z" fill="black"/>
<path d="M0.88499 111.444C0.566394 111.444 0.247798 111.268 0.106199 110.969C-0.123898 110.529 0.0531 110 0.477895 109.789L30.0189 94.6054C30.4436 94.3764 30.9923 94.5525 31.2047 94.9753C31.4348 95.4156 31.2578 95.944 30.833 96.1554L1.29209 111.339C1.16819 111.409 1.02659 111.444 0.88499 111.444Z" fill="black"/>
</g>
<defs>
<clipPath id="clip0_316_1457">
<rect width="231" height="220" fill="white"/>
</clipPath>
</defs>
</svg>
