<?xml version="1.0" encoding="UTF-8"?>
<svg id="Layer_1" data-name="Layer 1" xmlns="http://www.w3.org/2000/svg" xmlns:xlink="http://www.w3.org/1999/xlink" viewBox="0 0 500 500">
  <defs>
    <style>
      .cls-1 {
        fill: none;
      }

      .cls-2 {
        fill: url(#linear-gradient);
      }

      .cls-3 {
        clip-path: url(#clippath);
      }

      .cls-4 {
        fill: #eaeef9;
      }

      .cls-5 {
        fill: #fff;
      }

      .cls-6, .cls-7 {
        fill: #72a4db;
      }

      .cls-8, .cls-9, .cls-10 {
        fill: #c6e0f4;
      }

      .cls-11, .cls-12 {
        fill: #263a79;
      }

      .cls-13 {
        fill: #5ca6db;
      }

      .cls-14 {
        fill: #25579a;
      }

      .cls-15 {
        fill: url(#linear-gradient-3);
      }

      .cls-16 {
        fill: url(#linear-gradient-2);
      }

      .cls-17, .cls-10, .cls-7, .cls-12 {
        opacity: .3;
      }

      .cls-18 {
        opacity: .4;
      }

      .cls-9 {
        opacity: .7;
      }
    </style>
    <clipPath id="clippath">
      <circle class="cls-1" cx="244.79" cy="220.88" r="62.71" transform="translate(-26.42 408.38) rotate(-76.72)"/>
    </clipPath>
    <linearGradient id="linear-gradient" x1="211.24" y1="221.07" x2="352.55" y2="221.07" gradientTransform="translate(-35.2 48.73) rotate(-.21)" gradientUnits="userSpaceOnUse">
      <stop offset="0" stop-color="#5ca6db"/>
      <stop offset="1" stop-color="#64c9f9"/>
    </linearGradient>
    <linearGradient id="linear-gradient-2" x1="206.13" y1="335.64" x2="289.4" y2="335.64" gradientTransform="matrix(1, 0, 0, 1, 0, 0)" xlink:href="#linear-gradient"/>
    <linearGradient id="linear-gradient-3" x1="313.35" y1="335.88" x2="406.08" y2="335.88" gradientUnits="userSpaceOnUse">
      <stop offset="0" stop-color="#fe4c70"/>
      <stop offset="1" stop-color="#ef2b5a"/>
    </linearGradient>
  </defs>
  <g class="cls-18">
    <g>
      <path class="cls-11" d="M419.75,80.49c0-4.17-3.38-7.56-7.56-7.56h-149.75c-4.17,0-7.56,3.38-7.56,7.56v7.31h164.86v-7.31Z"/>
      <path class="cls-4" d="M254.89,87.8v117.5c0,4.17,3.38,7.56,7.56,7.56h149.75c4.17,0,7.56-3.38,7.56-7.56V87.8H254.89Z"/>
    </g>
    <circle class="cls-8" cx="265.94" cy="80.32" r="2.44"/>
    <circle class="cls-10" cx="273.15" cy="80.32" r="2.44"/>
    <circle class="cls-9" cx="280.35" cy="80.32" r="2.44"/>
  </g>
  <g class="cls-17">
    <g>
      <path class="cls-11" d="M197.71,302.36c0-2.97-2.41-5.38-5.38-5.38H85.63c-2.97,0-5.38,2.41-5.38,5.38v5.21h117.45v-5.21Z"/>
      <path class="cls-4" d="M80.25,307.56v83.71c0,2.97,2.41,5.38,5.38,5.38h106.69c2.97,0,5.38-2.41,5.38-5.38v-83.71H80.25Z"/>
    </g>
    <circle class="cls-8" cx="88.13" cy="302.24" r="1.74"/>
    <circle class="cls-10" cx="93.26" cy="302.24" r="1.74"/>
    <circle class="cls-9" cx="98.4" cy="302.24" r="1.74"/>
  </g>
  <g>
    <g>
      <path class="cls-11" d="M394.07,131.51c0-7.41-6-13.41-13.41-13.41H114.86c-7.41,0-13.41,6-13.41,13.41v12.97H394.07v-12.97Z"/>
      <path class="cls-4" d="M101.45,144.48v208.56c0,7.41,6,13.41,13.41,13.41H380.66c7.41,0,13.41-6,13.41-13.41V144.48H101.45Z"/>
    </g>
    <g class="cls-3">
      <circle class="cls-5" cx="244.79" cy="220.88" r="62.71" transform="translate(-26.42 408.38) rotate(-76.72)"/>
      <g>
        <path class="cls-11" d="M227.79,215.73s-8.31-25.98-9.25-30.54-3.02-15.67,2.27-16.46c0,0,13.03-13.09,35.87-7.14,22.84,5.95,13.97,20.63,13.97,20.63l-5.15,29.79-37.71,3.73Z"/>
        <path class="cls-8" d="M285.43,254.53s-22.57-2.69-23.41-6.14c-.84-3.46-1.59-20.61-1.59-20.61l-14.29,1.96-14.31-1.85s-.62,17.16-1.44,20.62c-.82,3.46-23.36,6.31-23.36,6.31l4.51,21.08,34.77-.68,34.78,.42,4.35-21.11Z"/>
        <path class="cls-7" d="M260.52,229.72s-6.77,12.47-30.13,18.78c0,0,.61-3.76,1.44-20.62l28.69,1.84Z"/>
        <path class="cls-8" d="M226.12,201.3s-.97,17.6,.08,21.47c1.05,3.87,6.77,12.47,21.77,11.21s18.76-11.1,18.92-14.46c.16-3.36-.56-20.04-.56-20.04l-.99-23.14-19.2-4.86-20.57,5.09,.55,24.74Z"/>
        <path class="cls-8" d="M227.04,203.73l-.44-3.01s-1.1-6.66-5.82-5.35c-4.72,1.31-1.25,10.32-.81,12.89s1.31,6.01,3.89,6c2.58,0,3.21-2.36,3.21-2.36l-.03-8.18Z"/>
        <polygon class="cls-6" points="224.69 207.39 221.22 198.38 222.1 203.53 222.1 206.11 222.96 205.19 224.69 207.39"/>
        <path class="cls-8" d="M265.6,203.59l.42-3.01s1.05-6.66,5.78-5.39,1.33,10.31,.91,12.89-1.27,6.02-3.84,6.03-3.23-2.34-3.23-2.34l-.03-8.18Z"/>
        <polygon class="cls-6" points="267.97 207.24 271.38 198.2 270.54 203.36 270.55 205.94 269.68 205.03 267.97 207.24"/>
        <path class="cls-2" d="M318.22,288.02l-13.09-23.3c-2.89-5.15-7.86-8.8-13.64-10.02l-26.01-5.5-1.8,2.26c-9.07,11.41-26.24,11.86-35.89,.93l-1.96-2.22-23,4.55c-6.19,1.22-11.47,5.23-14.32,10.86l-11.6,22.95,141.31-.52Z"/>
        <path class="cls-11" d="M226.21,199.77l1.58-12.36s-3.59-8.5,1.89-9.63c0,0,10.01,6.99,24.54,6.04,0,0-7.17-.76-12.46-2.83,0,0,13.97,2.83,19.82,2.83l2.08-.57s1.32,2.08-.19,4.34l2.85,11.87,1.68-9.04-1.32-16.99-20.96-5.48-21.71,7.17-.19,11.33,2.39,13.3Z"/>
      </g>
    </g>
    <circle class="cls-8" cx="121.07" cy="131.21" r="4.33"/>
    <circle class="cls-10" cx="133.86" cy="131.21" r="4.33"/>
    <circle class="cls-9" cx="146.65" cy="131.21" r="4.33"/>
    <rect class="cls-12" x="196.27" y="293.02" width="102.99" height="8.48" rx="4.24" ry="4.24"/>
    <rect class="cls-12" x="214.74" y="306.96" width="66.04" height="8.48" rx="4.24" ry="4.24"/>
    <rect class="cls-16" x="206.13" y="326.58" width="83.27" height="18.11" rx="9.06" ry="9.06"/>
    <g>
      <circle class="cls-14" cx="286.75" cy="264.21" r="17.12"/>
      <path class="cls-5" d="M286.75,282.02c-9.82,0-17.8-7.99-17.8-17.8s7.99-17.8,17.8-17.8,17.8,7.99,17.8,17.8-7.99,17.8-17.8,17.8Zm0-34.25c-9.07,0-16.44,7.38-16.44,16.44s7.38,16.44,16.44,16.44,16.44-7.38,16.44-16.44-7.38-16.44-16.44-16.44Z"/>
    </g>
    <g>
      <path class="cls-13" d="M278.26,271h17.29c.55,0,1,.45,1,1v.71h-19.28v-.71c0-.55,.45-1,1-1Z" transform="translate(3.52 -3.67) rotate(.74)"/>
      <path class="cls-13" d="M295.65,261.85l.02-1.62s-.02-.04-.04-.04l-17.14-.22s-.04,.02-.04,.04l-.02,1.62s.02,.04,.04,.04h.87s.04,.03,.04,.06l-.09,6.91s-.02,.04-.04,.04h-.87s-.04,0-.04,.03l-.02,1.62s.02,.04,.04,.04l17.14,.22s.04-.02,.04-.04l.02-1.62s-.02-.04-.04-.04h-.66s-.04-.03-.04-.05l.09-6.91s.02-.04,.04-.04h.66s.04-.01,.04-.04Zm-7.06,0l-.09,6.91s-.02,.04-.04,.04l-2.81-.04s-.04-.02-.04-.04l.09-6.91s.02-.04,.04-.04l2.81,.04s.04,.02,.04,.04Zm-7.46-.14l2.81,.04s.04,.02,.04,.04l-.09,6.91s-.02,.04-.04,.04l-2.81-.04s-.04-.02-.04-.04l.09-6.91s.02-.04,.04-.04Zm11.94,7.15l-2.81-.04s-.04-.02-.04-.04l.09-6.91s.02-.04,.04-.04l2.81,.04s.04,.02,.04,.04l-.09,6.91s-.02,.04-.04,.04Z"/>
      <path class="cls-13" d="M296.06,259.31l-8.67-5.94c-.1-.07-.23-.07-.33,0l-8.82,5.72c-.25,.16-.14,.54,.16,.55l17.48,.23c.29,0,.42-.38,.17-.54Zm-8.89-1.62c-.66,0-1.19-.55-1.18-1.21s.55-1.19,1.21-1.18,1.19,.55,1.18,1.21-.55,1.19-1.21,1.18Z"/>
    </g>
  </g>
  <g>
    <circle class="cls-15" cx="359.72" cy="335.88" r="46.36"/>
    <g>
      <path class="cls-5" d="M345.79,355.51c-1.41,0-2.83-.54-3.9-1.62-2.16-2.16-2.16-5.65,0-7.81l29.13-29.13c2.16-2.15,5.65-2.15,7.81,0,2.16,2.16,2.16,5.65,0,7.81l-29.13,29.13c-1.08,1.08-2.49,1.62-3.9,1.62Z"/>
      <path class="cls-5" d="M373.65,356.42c-1.41,0-2.83-.54-3.9-1.62l-29.13-29.13c-2.16-2.16-2.16-5.65,0-7.81,2.16-2.15,5.65-2.15,7.81,0l29.13,29.13c2.16,2.16,2.16,5.65,0,7.81-1.08,1.08-2.49,1.62-3.9,1.62Z"/>
    </g>
  </g>
</svg>