<?xml version="1.0" encoding="UTF-8"?>
<svg id="Layer_1" data-name="Layer 1" xmlns="http://www.w3.org/2000/svg" xmlns:xlink="http://www.w3.org/1999/xlink" viewBox="0 0 500 500">
  <defs>
    <style>
      .cls-1 {
        fill: url(#linear-gradient);
        opacity: .87;
      }

      .cls-2 {
        fill: #fff;
      }

      .cls-3 {
        fill: #bad2ec;
      }

      .cls-4 {
        fill: #d7e6f2;
      }

      .cls-5 {
        fill: #122659;
      }

      .cls-6 {
        fill: #365091;
      }

      .cls-7 {
        fill: #263a79;
      }

      .cls-8 {
        fill: url(#linear-gradient-8);
      }

      .cls-9 {
        fill: url(#linear-gradient-3);
      }

      .cls-10 {
        fill: url(#linear-gradient-4);
      }

      .cls-11 {
        fill: url(#linear-gradient-2);
      }

      .cls-12 {
        fill: url(#linear-gradient-6);
      }

      .cls-13 {
        fill: url(#linear-gradient-7);
      }

      .cls-14 {
        fill: url(#linear-gradient-5);
      }
    </style>
    <linearGradient id="linear-gradient" x1="353.29" y1="153.13" x2="478.95" y2="153.13" gradientTransform="translate(-137.74 3.17) rotate(12.11)" gradientUnits="userSpaceOnUse">
      <stop offset="0" stop-color="#5ca6db"/>
      <stop offset="1" stop-color="#64c9f9"/>
    </linearGradient>
    <linearGradient id="linear-gradient-2" x1="367.41" y1="240.93" x2="464.51" y2="240.93" gradientTransform="translate(-137.74 3.17) rotate(12.11)" gradientUnits="userSpaceOnUse">
      <stop offset="0" stop-color="#f8f9fd"/>
      <stop offset="1" stop-color="#c9d2ec"/>
    </linearGradient>
    <linearGradient id="linear-gradient-3" x1="372.66" y1="140.36" x2="460.21" y2="140.36" xlink:href="#linear-gradient-2"/>
    <linearGradient id="linear-gradient-4" x1="447.18" y1="216.18" x2="411.32" y2="226.62" gradientTransform="translate(-137.74 3.17) rotate(12.11)" gradientUnits="userSpaceOnUse">
      <stop offset="0" stop-color="#f8f9fd" stop-opacity="0"/>
      <stop offset="1" stop-color="#bad2ec"/>
    </linearGradient>
    <linearGradient id="linear-gradient-5" x1="410.25" y1="177.3" x2="421.67" y2="177.3" gradientTransform="translate(409.09 -152.21) rotate(90)" xlink:href="#linear-gradient-2"/>
    <linearGradient id="linear-gradient-6" x1="380.68" y1="137.55" x2="375.66" y2="69.27" gradientTransform="translate(-137.74 3.17) rotate(12.11)" gradientUnits="userSpaceOnUse">
      <stop offset="0" stop-color="#f8f9fd" stop-opacity="0"/>
      <stop offset="1" stop-color="#fff"/>
    </linearGradient>
    <linearGradient id="linear-gradient-7" x1="388.95" y1="230.01" x2="384.46" y2="169" xlink:href="#linear-gradient-6"/>
    <linearGradient id="linear-gradient-8" x1="307.1" y1="321.36" x2="301.67" y2="247.55" gradientUnits="userSpaceOnUse">
      <stop offset="0" stop-color="#fe4c70"/>
      <stop offset="1" stop-color="#ef2b5a"/>
    </linearGradient>
  </defs>
  <ellipse class="cls-4" cx="211.5" cy="375.5" rx="62.5" ry="8"/>
  <g>
    <g>
      <path class="cls-1" d="M311.17,194.03l9.95-46.37-122.87-26.35-9.95,46.37c-5.72,26.65,7.94,53.13,31.75,65.82,1.25,.66,1.89,2.04,1.6,3.37h0c-.28,1.33-1.44,2.32-2.85,2.41-26.91,1.81-50.23,20.35-55.95,47l-9.95,46.37,122.87,26.35,9.95-46.37c5.72-26.65-7.94-53.13-31.75-65.82-1.25-.66-1.89-2.04-1.6-3.37h0c.28-1.33,1.44-2.32,2.85-2.41,26.91-1.81,50.23-20.35,55.95-47Z"/>
      <ellipse class="cls-7" cx="259.53" cy="134.45" rx="20.98" ry="62.83" transform="translate(73.64 360.01) rotate(-77.89)"/>
      <path class="cls-5" d="M284.99,151.11c-8.56,.17-19.1-.9-30.29-3.31-26.47-5.67-46.55-16.65-44.86-24.52,1.06-4.98,10.63-7.52,24.23-7.27-11.7,.22-19.71,2.73-20.69,7.27-1.69,7.87,18.39,18.85,44.86,24.52,9.68,2.07,18.89,3.15,26.74,3.31Z"/>
      <path class="cls-6" d="M309.21,143.84c-1.06,4.99-10.63,7.52-24.22,7.27,11.7-.21,19.71-2.72,20.68-7.27,1.69-7.86-18.39-18.84-44.86-24.52-9.68-2.07-18.88-3.15-26.73-3.31,8.56-.16,19.09,.91,30.28,3.31,26.47,5.68,46.55,16.66,44.86,24.52Z"/>
      <ellipse class="cls-6" cx="213.81" cy="347.58" rx="20.98" ry="62.83" transform="translate(-170.88 483.74) rotate(-77.89)"/>
      <path class="cls-11" d="M244.45,300.05c-16.07,6.81-36.74,3.31-36.74,3.31-11.12-11.71-32.39-7.88-33.99-.42-1.6,7.46-7.39,34.45-7.39,34.45-1.37,6.4,18.77,16.15,44.98,21.78,26.22,5.62,48.58,4.99,49.96-1.41,0,0,8.61-40.13,10.04-46.81,1.43-6.68-16.33-15.37-26.87-10.9Z"/>
      <path class="cls-9" d="M244.95,206.93v-.05s-.46-.08-.46-.08l-.46-.12v.05s-42.79-7-42.79-7c2.33,9.47,12.9,19.2,19.03,22.38,6.13,3.18,12.43,10.13,11.09,16.37l-.67,3.12c-.69,3.2,1.47,6.38,4.81,7.09h0c3.34,.72,6.61-1.3,7.29-4.5l.67-3.12c1.34-6.24,9.93-10,16.83-10.38,6.9-.39,20.53-4.92,26.54-12.61l-41.89-11.16Z"/>
      <path class="cls-10" d="M207.72,303.36c7.97,8.24,20.43,13.71,25.08,14.71s27.65-13.01,8.76-16.92c0,0-8.58,2.49-17.95,3.05-9.37,.56-15.89-.84-15.89-.84Z"/>
      <ellipse class="cls-14" cx="231.79" cy="263.75" rx="5.47" ry="5.71" transform="translate(-74.71 435.07) rotate(-77.89)"/>
      <ellipse class="cls-3" cx="244.5" cy="206.78" rx="14.59" ry="44.27" transform="translate(-8.96 402.47) rotate(-77.89)"/>
    </g>
    <path class="cls-12" d="M206.37,141.7l-7.35,34.25c-3.37,15.69,4.69,35.94,18.83,43.24,0,0-10.89-16.72-5.91-39.91,4.97-23.19,7.73-31.92,7.73-31.92l-13.3-5.65Z"/>
    <path class="cls-13" d="M220.15,245.4s-30.03,3.82-34.26,23.54c-3.61,16.84-8.01,37.35-8.01,37.35l13.96,2.99s5.31-24.77,8.01-37.35c4.23-19.72,20.3-26.53,20.3-26.53Z"/>
  </g>
  <g>
    <path class="cls-8" d="M298.35,244.53l-35,60.63c-3.51,6.08,.88,13.67,7.89,13.67h70c7.02,0,11.4-7.6,7.89-13.67l-35-60.63c-3.51-6.08-12.28-6.08-15.79,0Z"/>
    <path class="cls-2" d="M305.35,303.07c-1.62,0-2.84-.4-3.67-1.21-.83-.81-1.25-1.93-1.25-3.36s.4-2.67,1.21-3.57c.81-.9,2.04-1.35,3.71-1.35s2.84,.46,3.67,1.39c.83,.92,1.25,2.12,1.25,3.6-.05,1.43-.47,2.54-1.28,3.33-.81,.78-2.02,1.18-3.64,1.18Zm1.73-13.37h-3.33l-2.91-24.46c-.05-.97-.12-1.82-.21-2.56-.09-.74-.14-1.39-.14-1.94,0-1.29,.35-2.38,1.04-3.26,.69-.88,2.01-1.32,3.95-1.32s3.14,.44,3.88,1.32c.74,.88,1.11,2.01,1.11,3.39,0,.6-.02,1.28-.07,2.04-.05,.76-.12,1.54-.21,2.32l-3.12,24.46Z"/>
  </g>
  <path class="cls-7" d="M257.65,387.91c-.93,0-1.72-.71-1.81-1.65-.09-1,.64-1.89,1.64-1.98,.26-.02,26.09-2.69,40.42-23.33,.57-.83,1.71-1.03,2.54-.46,.83,.57,1.03,1.71,.46,2.54-15.33,22.06-41.95,24.77-43.08,24.88-.06,0-.11,0-.17,0Z"/>
  <path class="cls-7" d="M173.49,115.55c-.4,0-.81-.13-1.15-.41-.78-.63-.9-1.78-.27-2.56,28.64-35.31,74.52-27.31,74.98-27.22,.99,.18,1.64,1.13,1.46,2.12s-1.15,1.63-2.12,1.46c-.44-.08-44.24-7.66-71.49,25.93-.36,.44-.89,.67-1.42,.67Z"/>
</svg>