<?xml version="1.0" encoding="utf-8"?>
<svg xmlns="http://www.w3.org/2000/svg" xmlns:xlink="http://www.w3.org/1999/xlink" style="margin: auto; background: none; display: block; shape-rendering: auto;" width="181px" height="181px" viewBox="0 0 100 100" preserveAspectRatio="xMidYMid">
<g transform="rotate(0 50 50)">
  <rect x="48.5" y="26.5" rx="0" ry="0" width="3" height="11" fill="#293b75">
    <animate attributeName="opacity" values="1;0" keyTimes="0;1" dur="0.47393364928909953s" begin="-0.4344391785150079s" repeatCount="indefinite"></animate>
  </rect>
</g><g transform="rotate(30 50 50)">
  <rect x="48.5" y="26.5" rx="0" ry="0" width="3" height="11" fill="#293b75">
    <animate attributeName="opacity" values="1;0" keyTimes="0;1" dur="0.47393364928909953s" begin="-0.3949447077409163s" repeatCount="indefinite"></animate>
  </rect>
</g><g transform="rotate(60 50 50)">
  <rect x="48.5" y="26.5" rx="0" ry="0" width="3" height="11" fill="#293b75">
    <animate attributeName="opacity" values="1;0" keyTimes="0;1" dur="0.47393364928909953s" begin="-0.35545023696682465s" repeatCount="indefinite"></animate>
  </rect>
</g><g transform="rotate(90 50 50)">
  <rect x="48.5" y="26.5" rx="0" ry="0" width="3" height="11" fill="#293b75">
    <animate attributeName="opacity" values="1;0" keyTimes="0;1" dur="0.47393364928909953s" begin="-0.315955766192733s" repeatCount="indefinite"></animate>
  </rect>
</g><g transform="rotate(120 50 50)">
  <rect x="48.5" y="26.5" rx="0" ry="0" width="3" height="11" fill="#293b75">
    <animate attributeName="opacity" values="1;0" keyTimes="0;1" dur="0.47393364928909953s" begin="-0.2764612954186414s" repeatCount="indefinite"></animate>
  </rect>
</g><g transform="rotate(150 50 50)">
  <rect x="48.5" y="26.5" rx="0" ry="0" width="3" height="11" fill="#293b75">
    <animate attributeName="opacity" values="1;0" keyTimes="0;1" dur="0.47393364928909953s" begin="-0.23696682464454977s" repeatCount="indefinite"></animate>
  </rect>
</g><g transform="rotate(180 50 50)">
  <rect x="48.5" y="26.5" rx="0" ry="0" width="3" height="11" fill="#293b75">
    <animate attributeName="opacity" values="1;0" keyTimes="0;1" dur="0.47393364928909953s" begin="-0.19747235387045814s" repeatCount="indefinite"></animate>
  </rect>
</g><g transform="rotate(210 50 50)">
  <rect x="48.5" y="26.5" rx="0" ry="0" width="3" height="11" fill="#293b75">
    <animate attributeName="opacity" values="1;0" keyTimes="0;1" dur="0.47393364928909953s" begin="-0.1579778830963665s" repeatCount="indefinite"></animate>
  </rect>
</g><g transform="rotate(240 50 50)">
  <rect x="48.5" y="26.5" rx="0" ry="0" width="3" height="11" fill="#293b75">
    <animate attributeName="opacity" values="1;0" keyTimes="0;1" dur="0.47393364928909953s" begin="-0.11848341232227488s" repeatCount="indefinite"></animate>
  </rect>
</g><g transform="rotate(270 50 50)">
  <rect x="48.5" y="26.5" rx="0" ry="0" width="3" height="11" fill="#293b75">
    <animate attributeName="opacity" values="1;0" keyTimes="0;1" dur="0.47393364928909953s" begin="-0.07898894154818326s" repeatCount="indefinite"></animate>
  </rect>
</g><g transform="rotate(300 50 50)">
  <rect x="48.5" y="26.5" rx="0" ry="0" width="3" height="11" fill="#293b75">
    <animate attributeName="opacity" values="1;0" keyTimes="0;1" dur="0.47393364928909953s" begin="-0.03949447077409163s" repeatCount="indefinite"></animate>
  </rect>
</g><g transform="rotate(330 50 50)">
  <rect x="48.5" y="26.5" rx="0" ry="0" width="3" height="11" fill="#293b75">
    <animate attributeName="opacity" values="1;0" keyTimes="0;1" dur="0.47393364928909953s" begin="0s" repeatCount="indefinite"></animate>
  </rect>
</g></svg>