<svg width="35" height="36" viewBox="0 0 35 36" fill="none" xmlns="http://www.w3.org/2000/svg">
<g filter="url(#filter0_f_316_2477)">
<path d="M12.9699 24.9277L13.2761 25.1087C14.5618 25.8703 16.0361 26.2732 17.5395 26.2739H17.5427C22.1596 26.2739 25.9171 22.5245 25.919 17.916C25.9198 15.6829 25.0494 13.5828 23.4679 12.0031C22.6922 11.2241 21.7694 10.6063 20.7529 10.1856C19.7364 9.76487 18.6464 9.54958 17.5459 9.55216C12.9254 9.55216 9.1678 13.3012 9.16616 17.9093C9.16388 19.4829 9.60785 21.025 10.4467 22.3573L10.646 22.6733L9.79966 25.7573L12.9699 24.9277ZM7.37988 28.1464L8.80975 22.9358C7.92791 21.4109 7.46398 19.681 7.46453 17.9087C7.46686 12.3642 11.9875 7.85352 17.5428 7.85352C20.2386 7.85488 22.7689 8.90196 24.6719 10.8027C26.5748 12.7034 27.6219 15.2298 27.6209 17.9167C27.6184 23.4608 23.0971 27.9723 17.5427 27.9723H17.5383C15.8517 27.9716 14.1945 27.5493 12.7224 26.7482L7.37988 28.1464Z" fill="#B3B3B3"/>
</g>
<path d="M7.27637 28.0429L8.70624 22.8323C7.82288 21.3037 7.35888 19.5697 7.36102 17.8051C7.36335 12.2607 11.884 7.75 17.4393 7.75C20.1351 7.75137 22.6654 8.79844 24.5683 10.6991C26.4713 12.5998 27.5184 15.1263 27.5174 17.8132C27.5149 23.3573 22.9936 27.8688 17.4391 27.8688H17.4348C15.7482 27.8681 14.091 27.4458 12.6189 26.6446L7.27637 28.0429Z" fill="white"/>
<path d="M17.4423 9.44875C12.8218 9.44875 9.06415 13.1978 9.06251 17.8059C9.06023 19.3795 9.5042 20.9215 10.3431 22.2538L10.5424 22.5701L9.69601 25.654L12.8664 24.8243L13.1725 25.0053C14.4583 25.7669 15.9326 26.1697 17.436 26.1705H17.4391C22.0561 26.1705 25.8137 22.421 25.8155 17.8126C25.819 16.7142 25.6041 15.6261 25.1834 14.6111C24.7627 13.5961 24.1444 12.6746 23.3644 11.8997C22.5887 11.1206 21.6658 10.5029 20.6493 10.0822C19.6328 9.66144 18.5427 9.44615 17.4423 9.44875Z" fill="url(#paint0_linear_316_2477)"/>
<path fill-rule="evenodd" clip-rule="evenodd" d="M14.9196 13.6017C14.7309 13.1832 14.5322 13.1747 14.353 13.1675L13.8703 13.1616C13.7023 13.1616 13.4295 13.2245 13.1988 13.4761C12.9681 13.7276 12.3174 14.3356 12.3174 15.5721C12.3174 16.8087 13.2198 18.0035 13.3455 18.1714C13.4713 18.3393 15.0875 20.9577 17.6472 21.9652C19.7742 22.8024 20.2071 22.6359 20.6689 22.594C21.1308 22.5522 22.1588 21.9861 22.3685 21.3992C22.5782 20.8123 22.5784 20.3095 22.5155 20.2043C22.4526 20.0992 22.2847 20.0367 22.0327 19.9109C21.7806 19.7852 20.5428 19.1772 20.312 19.0933C20.0812 19.0093 19.9134 18.9676 19.7453 19.2192C19.5773 19.4707 19.0953 20.0366 18.9483 20.2043C18.8013 20.3721 18.6546 20.3931 18.4026 20.2675C18.1505 20.1418 17.3397 19.8763 16.3776 19.0201C15.629 18.3539 15.1237 17.5312 14.9766 17.2798C14.8295 17.0284 14.961 16.8922 15.0873 16.767C15.2003 16.6543 15.339 16.4735 15.4652 16.3268C15.5913 16.1801 15.6328 16.0752 15.7167 15.9077C15.8005 15.7403 15.7587 15.5932 15.6957 15.4675C15.6327 15.3419 15.1434 14.0989 14.9196 13.6018" fill="white"/>
<defs>
<filter id="filter0_f_316_2477" x="0.317883" y="0.791516" width="34.3652" height="34.417" filterUnits="userSpaceOnUse" color-interpolation-filters="sRGB">
<feFlood flood-opacity="0" result="BackgroundImageFix"/>
<feBlend mode="normal" in="SourceGraphic" in2="BackgroundImageFix" result="shape"/>
<feGaussianBlur stdDeviation="3.531" result="effect1_foregroundBlur_316_2477"/>
</filter>
<linearGradient id="paint0_linear_316_2477" x1="17.2685" y1="10.4522" x2="17.3531" y2="24.742" gradientUnits="userSpaceOnUse">
<stop stop-color="#57D163"/>
<stop offset="1" stop-color="#23B33A"/>
</linearGradient>
</defs>
</svg>
