<svg width="20" height="20" viewBox="0 0 20 20" fill="none" xmlns="http://www.w3.org/2000/svg">
<rect width="18" height="20" rx="4" fill="#A3ABC4"/>
<path d="M11.8441 14.2823C11.0687 15.3485 9.98098 15.8815 8.58098 15.8815C7.18098 15.8815 6.0879 15.3485 5.30175 14.2823C4.52636 13.2162 4.13867 10.6408 4.13867 8.86385C4.13867 7.08692 4.52636 5.66539 5.30175 4.59923C6.0879 3.53308 7.18098 3 8.58098 3C9.98098 3 11.0687 3.53308 11.8441 4.59923C12.6302 5.66539 13.0233 7.08692 13.0233 8.86385C13.0233 10.6408 12.6302 13.2162 11.8441 14.2823ZM8.58098 14.0723C9.42098 14.0723 10.0617 13.7223 10.5033 13.0223C10.9448 12.3223 11.1656 10.1669 11.1656 8.86385C11.1656 7.56077 10.9448 6.55923 10.5033 5.85923C10.0617 5.15923 9.42098 4.80923 8.58098 4.80923C7.75175 4.80923 7.11098 5.15923 6.65867 5.85923C6.21713 6.55923 5.99636 7.56077 5.99636 8.86385C5.99636 10.1669 6.21713 12.3223 6.65867 13.0223C7.11098 13.7223 7.75175 14.0723 8.58098 14.0723Z" fill="#293B75"/>
</svg>
